<svg width="79" height="79" fill="none" xmlns="http://www.w3.org/2000/svg"><g clip-path="url(#clip0_1047:753)"><path d="M44.438 14.817v10.51H34.56V13.762c0-3.6-1.87-6.941-4.939-8.824V0c8.073-.021 14.826 6.598 14.817 14.817z" fill="#4DBA5A"/><path d="M12.177 70.76c1.543 6.174 13.454 8.21 13.454 8.21s13.868-3.914 13.868-11.573V37.171c0-9.626-7.803-17.429-17.43-17.429-11.263 0-19.569 10.525-16.95 21.48l7.058 29.539z" fill="#F84C1B"/><path d="M66.823 70.76c-1.544 6.174-13.455 8.21-13.455 8.21S39.5 75.056 39.5 67.397V37.171c0-9.626 7.803-17.429 17.43-17.429 11.264 0 19.57 10.525 16.951 21.48l-7.058 29.539z" fill="#D01717"/><path d="M59.058 41.256l-7.284 30.456C50.367 77.344 39.5 79 39.5 79s-2.718-.414-5.61-1.532c-2.892-1.117-5.961-2.94-6.665-5.756l-7.284-30.456c-2.62-10.957 5.686-21.485 16.951-21.485h5.215c11.266 0 19.571 10.528 16.951 21.485z" fill="#FA851B"/><path d="M59.059 41.256l-7.285 30.456C50.367 77.344 39.5 79 39.5 79V19.772h2.608c11.265 0 19.57 10.527 16.95 21.484z" fill="#F84C1B"/></g><defs><clipPath id="clip0_1047:753"><path fill="#fff" d="M0 0h79v79H0z"/></clipPath></defs></svg>