<svg width="79" height="79" fill="none" xmlns="http://www.w3.org/2000/svg"><g clip-path="url(#clip0_1047:1803)"><path d="M53.577 54.482v21.172H25.422V44.927a3.878 3.878 0 00-1.14-2.752 3.891 3.891 0 00-6.562 3.536l1.591 7.736C7.747 50.889 0 45.213 0 34.007c0-16.933 17.685-30.66 39.5-30.66S79 17.075 79 34.008c0 11.207-7.747 16.883-19.312 19.44l1.592-7.736a3.894 3.894 0 00-3.811-4.675 3.892 3.892 0 00-3.892 3.891v9.555z" fill="#E6E6E6"/><path d="M25.422 40.021v4.906a3.878 3.878 0 00-1.14-2.752 3.891 3.891 0 00-6.562 3.536l1.592 7.735h-.002l-5.718-11.243c-1.629-3.202.698-6.996 4.292-6.996h2.724a4.814 4.814 0 014.814 4.814zm39.983 2.182l-5.717 11.243 1.591-7.735a3.894 3.894 0 00-3.811-4.675 3.892 3.892 0 00-3.892 3.891v-4.906a4.814 4.814 0 014.814-4.814h2.725c3.592 0 5.92 3.794 4.29 6.996z" fill="#3F3730"/></g><defs><clipPath id="clip0_1047:1803"><path fill="#fff" d="M0 0h79v79H0z"/></clipPath></defs></svg>