<svg width="79" height="79" fill="none" xmlns="http://www.w3.org/2000/svg"><path d="M4.639 46.204c0 2.143 2.091 3.901 2.83 5.852.734 1.938.306 4.622 1.66 6.283 1.29 1.585 4.027 1.758 5.786 3.014 1.66 1.186 2.664 3.73 4.66 4.558 1.888.782 4.409-.278 6.528.128 2.008.386 3.941 2.325 6.098 2.325s4.09-1.94 6.099-2.325c2.118-.406 4.639.654 6.527-.128 1.996-.828 3-3.372 4.661-4.558 1.759-1.256 4.495-1.43 5.786-3.014 1.353-1.661.926-4.346 1.66-6.283.738-1.95 2.83-3.71 2.83-5.852 0-2.143-2.092-3.902-2.83-5.852-.734-1.938-.307-4.623-1.66-6.284-1.291-1.584-4.028-1.758-5.786-3.014-1.66-1.186-2.665-3.73-4.66-4.557-1.889-.783-4.41.278-6.528-.129-2.009-.385-3.942-2.325-6.099-2.325s-4.09 1.94-6.098 2.325c-2.119.407-4.64-.654-6.528.129-1.996.827-3 3.371-4.66 4.557-1.76 1.256-4.495 1.43-5.786 3.015-1.354 1.66-.927 4.345-1.66 6.283-.739 1.95-2.83 3.71-2.83 5.852z" fill="#FFEBD7"/><path d="M8.756 78.951h46.89l8.756-33.75H0l8.756 33.75z" fill="#A1CAD5"/><path d="M22.783 39.582v-1.537a2.947 2.947 0 01-2.944-2.943h-1.537c0 2.47 2.01 4.48 4.481 4.48zm13.02-3.712v-1.538a2.947 2.947 0 01-2.944-2.943h-1.537c0 2.47 2.01 4.48 4.48 4.48z" fill="#FFAB57"/><path d="M1.826 52.235l-.299-1.153h61.35l-.3 1.153H1.827z" fill="#DD455B"/><path d="M42.648 41.438c2.47 0 4.48-2.01 4.48-4.481h-1.536a2.947 2.947 0 01-2.944 2.944v1.537z" fill="#FFAB57"/><path d="M47.789 64.384c4.555 0 4.555-1.314 9.11-1.314s4.554 1.314 9.11 1.314c1.884 0 4.062-.35 5.304.892 1.243 1.242 1.472 2.768 1.472 4.653-7.927.936-7.905 1.309-15.886 1.309-7.982 0-7.96-.373-15.887-1.31 0-1.884.23-3.41 1.472-4.652s3.42-.892 5.305-.892z" fill="#FFEBD7"/><path d="M35.889 78.882h42.02c.6 0 1.091-.492 1.091-1.092v-7.316c0-.6-.491-1.091-1.091-1.091h-42.02c-.6 0-1.092.49-1.092 1.09v7.317c0 .6.491 1.091 1.092 1.091z" fill="#FFC697"/><path d="M59.791 57.076a8.856 8.856 0 017.43-1.142 8.856 8.856 0 01-3.888 6.434 8.856 8.856 0 01-7.43 1.141 8.856 8.856 0 013.888-6.433z" fill="#266666"/></svg>