<svg width="79" height="79" fill="none" xmlns="http://www.w3.org/2000/svg"><path d="M59.25 12.068h-4.77l10.213 44.269h4.769a9.537 9.537 0 009.537-9.537V31.818c0-10.907-8.842-19.75-19.75-19.75z" fill="#FF6F4F"/><path d="M74.231 46.8V31.818c0-10.907-8.842-19.75-19.75-19.75H38.824l10.213 44.269h15.657A9.537 9.537 0 0074.23 46.8z" fill="#FF8E59"/><path d="M38.824 12.068c-10.907 0-19.75 8.843-19.75 19.75V46.8a9.537 9.537 0 009.537 9.537h20.426a9.537 9.537 0 009.537-9.537V31.818c0-10.907-8.842-19.75-19.75-19.75z" fill="#FFECC7"/><path d="M38.824 16.838l10.213 23.128h4.769v-8.147c0-8.26-6.721-14.981-14.982-14.981z" fill="#FFC1B0"/><path d="M38.823 16.838c-8.26 0-14.981 6.72-14.981 14.981v8.147h25.194v-8.147c0-8.26-4.581-14.981-10.213-14.981z" fill="#FFDAC7"/><path d="M49.038 36.383L44.27 51.569h4.768c2.63 0 4.769-2.14 4.769-4.768v-6.835a21.087 21.087 0 00-4.769-3.583z" fill="#FFA294"/><path d="M49.036 36.382V46.8c0 2.63-2.14 4.769-4.769 4.769H28.61a4.774 4.774 0 01-4.768-4.769v-6.835c6.813-6.813 17.146-8.007 25.194-3.583z" fill="#FFC1B0"/><path d="M24.519 12.068H19.75l10.213 44.269h4.768A9.537 9.537 0 0044.27 46.8V31.818c0-10.907-8.843-19.75-19.75-19.75z" fill="#FF6F4F"/><path d="M19.75 12.068C8.842 12.068 0 20.911 0 31.818V46.8a9.537 9.537 0 009.537 9.537h20.426A9.537 9.537 0 0039.5 46.8V31.818c0-10.907-8.842-19.75-19.75-19.75z" fill="#FFECC7"/><path d="M19.75 16.838l10.213 23.128h4.768v-8.147c0-8.26-6.72-14.981-14.981-14.981z" fill="#FFC1B0"/><path d="M19.75 16.838c5.633 0 10.214 6.72 10.214 14.981v8.147H4.77v-8.147l14.98-14.981z" fill="#FFDAC7"/><path d="M19.75 16.838c0 8.26-6.72 14.981-14.98 14.981 0-8.26 6.72-14.981 14.98-14.981zm10.212 19.545l-4.769 15.186h4.769c2.63 0 4.769-2.14 4.769-4.768v-6.835a21.089 21.089 0 00-4.769-3.583z" fill="#FFA294"/><path d="M29.964 36.382V46.8c0 2.63-2.14 4.769-4.769 4.769H9.538A4.774 4.774 0 014.77 46.8v-6.835c6.812-6.813 17.146-8.007 25.194-3.583z" fill="#FFC1B0"/></svg>