<svg width="79" height="79" fill="none" xmlns="http://www.w3.org/2000/svg"><g clip-path="url(#clip0_1047:2086)"><path d="M5.972 6.858a4.48 4.48 0 00-3.28 2.576C.489 14.32-3.53 26.62 6.432 35.89l20.8-24.04s-4.425-8.03-21.26-4.992zm67.057 0a4.48 4.48 0 013.28 2.576c2.203 4.885 6.22 17.186-3.74 26.456l-20.8-24.04s4.425-8.03 21.26-4.992z" fill="#FFC9D3"/><path d="M77.02 29.992c-1.94-5.594-5.135-10.722-9.445-15.032a39.799 39.799 0 00-10.12-7.358c-4.272 1.682-5.687 4.248-5.687 4.248l20.8 24.04c2.01-1.871 3.45-3.866 4.452-5.898zm-75.041 0C2.98 32.025 4.42 34.02 6.43 35.89l20.8-24.04s-1.415-2.566-5.688-4.248a39.788 39.788 0 00-10.12 7.358c-4.31 4.31-7.504 9.438-9.444 15.032z" fill="#FF9DB0"/><path d="M19.024 13.17c-1.312-.475-3.237-.897-5.933-.897-.923 0-1.935.05-3.045.163a3.372 3.372 0 00-2.872 2.329c-.35 1.1-.67 2.355-.867 3.698-.781 5.314.62 9.554 4.282 12.962l11.47-16.348c-.033-.045-.817-1.104-3.035-1.907zm40.952 0c1.313-.475 3.237-.897 5.933-.897.923 0 1.936.05 3.046.163a3.372 3.372 0 012.871 2.329c.351 1.1.67 2.355.868 3.698.78 5.314-.62 9.554-4.282 12.962l-11.47-16.348c.032-.045.817-1.104 3.034-1.907z" fill="#FF9DB0"/><path d="M67.576 14.96a40.268 40.268 0 00-2.926-2.653c-2.048.106-3.576.465-4.674.863-2.217.803-3.002 1.862-3.035 1.907l11.47 16.347c2.926-2.721 4.406-5.975 4.487-9.881a40.077 40.077 0 00-5.322-6.583zM6.102 21.543c.08 3.906 1.56 7.16 4.486 9.881l11.47-16.347c-.032-.045-.817-1.104-3.035-1.907-1.098-.398-2.626-.757-4.673-.863a40.29 40.29 0 00-8.248 9.236z" fill="#FF889E"/><path d="M75.231 43.036c0 19.735-15.997 29.98-35.732 29.98-19.734 0-35.731-10.245-35.731-29.98 0-19.734 15.997-35.731 35.731-35.731 19.735 0 35.732 15.997 35.732 35.731z" fill="#FFC9D3"/><path d="M43.896 38.697a10.307 10.307 0 00-8.79 0c-3.058 1.444-6.587 4.28-6.587 9.686 0 4.935 6.208 5.355 9.994 3.62a2.375 2.375 0 011.975 0c3.786 1.735 9.993 1.314 9.993-3.62 0-5.406-3.528-8.243-6.585-9.686z" fill="#FF889E"/><path d="M22.585 48.5h-3.448a1.192 1.192 0 010-2.385h3.448a1.192 1.192 0 010 2.385z" fill="#FF9DB0"/><path d="M23.052 44.211a1.192 1.192 0 01-1.193-1.191v-2.918a1.192 1.192 0 112.384 0v2.918a1.19 1.19 0 01-1.191 1.191z" fill="#423E4F"/><path d="M59.862 48.5h-3.447a1.192 1.192 0 110-2.385h3.447a1.192 1.192 0 010 2.385z" fill="#FF9DB0"/><path d="M55.948 44.211a1.192 1.192 0 01-1.192-1.191v-2.918a1.192 1.192 0 012.384 0v2.918a1.19 1.19 0 01-1.192 1.191zm-18.968-.862c-1.145-.782-2.89-.22-3.898 1.256-1.007 1.475-.895 3.305.251 4.087 1.146.782 2.891.22 3.899-1.255 1.007-1.476.894-3.306-.252-4.088zm8.937 1.255c-1.007-1.475-2.753-2.037-3.898-1.255-1.146.782-1.259 2.612-.251 4.088 1.007 1.475 2.753 2.038 3.898 1.255 1.146-.782 1.258-2.612.251-4.088z" fill="#423E4F"/></g><defs><clipPath id="clip0_1047:2086"><path fill="#fff" d="M0 0h79v79H0z"/></clipPath></defs></svg>