<svg width="79" height="79" fill="none" xmlns="http://www.w3.org/2000/svg"><path d="M50.523 5.718l-2.9-3.1c-.044-.045-.1-.068-.149-.105-.047-.038-.08-.088-.136-.12-.02-.013-.042-.012-.063-.023-.075-.037-.152-.055-.232-.078-.078-.022-.153-.046-.232-.053-.072-.005-.138.008-.21.015-.087.009-.172.015-.255.041-.067.021-.125.06-.185.09-.08.042-.158.08-.229.14-.018.014-.038.018-.055.033-.047.043-.068.101-.106.15-.039.046-.088.08-.12.134l-3.703 6.412c-.032.056-.036.118-.06.176-.022.056-.059.102-.074.163-.005.022.003.04-.002.063-.016.087-.011.174-.008.262.003.075 0 .147.015.218.019.078.053.148.084.222.031.073.058.143.103.208.042.062.099.112.153.166.06.06.118.12.19.168.02.012.03.032.05.043.104.06.214.101.326.128l.011.005 4.136.962a1.236 1.236 0 001.483-.922 1.223 1.223 0 00-.837-1.442c.156-.39.339-.775.551-1.15.218-.382.463-.736.727-1.066.235.214.526.336.825.336a1.233 1.233 0 00.902-2.076zm-13.341 4.421c.016-.07.012-.144.014-.218.004-.089.009-.175-.007-.263-.005-.022.002-.04-.002-.063-.014-.059-.052-.105-.073-.16-.024-.06-.027-.121-.06-.178L33.35 2.845c-.03-.055-.08-.087-.118-.134-.039-.05-.06-.107-.108-.15-.017-.016-.038-.021-.055-.035-.067-.055-.14-.091-.216-.132-.07-.036-.133-.078-.205-.1-.074-.023-.147-.026-.225-.034-.08-.01-.16-.025-.24-.018-.071.004-.139.03-.212.047-.084.024-.168.042-.247.083-.02.01-.04.01-.06.02-.054.032-.087.081-.133.12-.05.038-.108.06-.151.107l-2.9 3.1a1.236 1.236 0 00.901 2.078c.297 0 .586-.122.819-.333.262.333.502.687.72 1.061.22.375.406.76.561 1.152a1.221 1.221 0 00-.833 1.44 1.234 1.234 0 001.482.922l4.136-.961.01-.005c.113-.026.223-.068.328-.128.02-.011.03-.031.05-.044.072-.046.129-.107.19-.168.054-.054.11-.103.152-.165.045-.065.072-.136.103-.208.03-.073.064-.144.083-.221z" fill="#E21717"/><path d="M45.905 10.832a9.212 9.212 0 01.926-2.307 8.458 8.458 0 011.555-1.963c2.716-2.555 6.876-3.161 10.258-1.199v-.012c11.431 6.615 19.133 18.986 19.133 33.143 0 10.579-4.284 20.145-11.22 27.07l-.013-.012-3.481-3.479c-13.01 13.021-34.118 13.021-47.129 0l-3.505 3.479C5.504 58.628 1.22 49.062 1.22 38.494c0-14.157 7.69-26.527 19.133-33.143v.012A8.637 8.637 0 0130.61 6.562a8.65 8.65 0 011.543 1.963c.433.74.742 1.518.926 2.307a8.622 8.622 0 01-4.086 9.493c-6.27 3.628-10.492 10.417-10.492 18.169 0 11.592 9.406 20.984 20.984 20.984h.025c11.58 0 20.984-9.392 20.984-20.984 0-7.75-4.233-14.54-10.492-18.169-3.394-1.949-4.962-5.862-4.098-9.493z" fill="#FB4239"/><path d="M63.94 61.202a1.233 1.233 0 00-1.745 0c-6.06 6.06-14.12 9.398-22.693 9.398-8.574 0-16.635-3.337-22.695-9.398-.056-.056-.126-.082-.188-.126-.073-.05-.14-.112-.22-.145-.047-.02-.099-.017-.148-.03-.105-.026-.209-.06-.317-.06-.021 0-.04.01-.06.011a1.22 1.22 0 00-.404.078c-.034.014-.06.045-.091.06-.112.059-.223.117-.315.21l-3.48 3.465c.281.3.558.6.848.89 6.925 6.925 16.491 11.207 27.057 11.207h.025c10.111 0 19.308-3.935 26.152-10.345.3-.281.602-.56.895-.85.292-.29.571-.593.851-.894l-3.472-3.471z" fill="#E21717"/></svg>