<svg width="81" height="79" fill="none" xmlns="http://www.w3.org/2000/svg"><g clip-path="url(#clip0_1049:2137)"><path d="M55.87 49.822a1.215 1.215 0 01-1.176-.927c-.053-.22-1.25-5.433 4.018-10.701a1.208 1.208 0 011.709 1.709c-4.262 4.262-3.415 8.26-3.377 8.428a1.204 1.204 0 01-1.174 1.49z" fill="#F1562E"/><path d="M58.169 50.728a1.209 1.209 0 01-1.196-1.388c.033-.224.9-5.502 7.771-8.383a1.209 1.209 0 01.935 2.23c-5.632 2.36-6.31 6.47-6.317 6.512a1.208 1.208 0 01-1.193 1.029zm-6.771-.718c-.475 0-.928-.284-1.121-.75-.087-.209-2.068-5.178 2.33-11.19a1.208 1.208 0 111.951 1.426c-3.558 4.865-2.109 8.686-2.045 8.847a1.204 1.204 0 01-1.115 1.666z" fill="#F1562E"/><path d="M46.945 24.682h14.902c10.744 0 19.454 8.71 19.454 19.454a19.454 19.454 0 01-15.895 19.126l-7.58 1.41-3.21-8.338 9.001-5.5a4.544 4.544 0 00-2.369-8.421H46.762l.183-17.731zM12.29 42.027c-5.33 0-9.302-1.653-11.157-4.81-2.172-3.693-1.2-8.846 2.736-14.507 3.748-5.391 9.794-10.7 17.023-14.95C32.33 1.037 44.297-1.62 51.379.99a1.208 1.208 0 11-.836 2.267c-6.33-2.333-17.754.315-28.427 6.588C8.31 17.959-.345 29.934 3.216 35.993c2.098 3.568 8.431 4.584 16.53 2.65a1.209 1.209 0 01.561 2.351c-2.903.693-5.6 1.033-8.016 1.033z" fill="#FD7E42"/><path d="M18.882 40.937c-.058 0-.117-.004-.176-.013-9.472-1.381-15.608-5.346-16.415-10.606-.65-4.236 2.16-8.662 7.912-12.464 5.478-3.621 13.06-6.315 21.348-7.586 13.114-2.012 25.215-.052 30.828 4.994a1.208 1.208 0 01-1.616 1.798c-5.017-4.511-16.61-6.28-28.846-4.404-7.95 1.22-15.189 3.782-20.381 7.214-4.848 3.205-7.347 6.88-6.856 10.082.628 4.091 6.136 7.379 14.375 8.58a1.208 1.208 0 01-.173 2.405z" fill="#FD7E42"/><path d="M70.967 26.947c4.034 3.565 6.579 8.776 6.579 14.583A19.454 19.454 0 0161.65 60.656l-5.01.932 1.187 3.084 7.58-1.411a19.454 19.454 0 0015.895-19.126c0-7.449-4.188-13.92-10.336-17.188zm-7.356 6.682c1.715.592 4.397-2.602 6.186-7.254a19.346 19.346 0 00-6.755-1.656c-1.268 4.503-1.072 8.343.57 8.91z" fill="#FC5327"/><path d="M77.538 32.633c-4.136 2.848-6.636 6.236-5.65 7.77.933 1.45 4.66.753 8.701-1.504a19.375 19.375 0 00-3.051-6.266zm2.942 17.092c-4.281-1.245-7.896-1.103-8.486.47-.556 1.483 1.756 3.778 5.418 5.608a19.442 19.442 0 003.067-6.078z" fill="#FC5327"/><path d="M77.508 40.345a22.991 22.991 0 003.08-1.446 19.376 19.376 0 00-3.051-6.266c-.56.385-1.089.781-1.584 1.18a19.352 19.352 0 011.555 6.532zm-1.416 8.567a19.475 19.475 0 01-2.512 4.39c.953.852 2.27 1.719 3.834 2.5a19.442 19.442 0 003.067-6.078c-1.597-.464-3.1-.735-4.39-.812z" fill="#ED4322"/><path d="M52.373 54.005l-16.64 3.428a1.677 1.677 0 00.392 3.319l8.138-.254c.363-.011.502.47.19.654l-7.495 4.424c-1.524.9-.66 3.242 1.084 2.937l8.571-1.502c.358-.063.564.392.28.62l-6.353 5.091a1.677 1.677 0 001.858 2.778l14.88-8.198a5.79 5.79 0 002.639-7.075l-.943-2.556a5.79 5.79 0 00-6.6-3.666z" fill="#FD7E42"/><path d="M59.917 60.227l-.943-2.556a5.79 5.79 0 00-5.185-3.78l.122.33a5.79 5.79 0 01-2.638 7.075l-13.039 7.182 8.38-1.468c.358-.063.564.393.28.62l-6.353 5.092a1.677 1.677 0 001.858 2.777l14.88-8.198a5.79 5.79 0 002.638-7.074z" fill="#FC5327"/><path d="M52.252 33.717c0 7.258-.745 13.141-8.003 13.141S11.2 40.975 11.2 33.718c0-7.258 25.793-13.142 33.05-13.142 7.258 0 8.003 5.884 8.003 13.141z" fill="#FD7E42"/><path d="M44.336 20.578c.645 2.201.771 4.941.771 7.913 0 7.257-.745 13.14-8.003 13.14-4.71 0-17.222-2.478-25.428-6.2 3.537 6.448 25.898 11.427 32.575 11.427 7.257 0 8.003-5.884 8.003-13.141 0-7.229-.742-13.092-7.918-13.139z" fill="#FC5327"/><path d="M25.267 35.66a3.199 3.199 0 100-6.398 3.199 3.199 0 000 6.397z" fill="#554E57"/><path d="M26.178 29.396a3.199 3.199 0 01-3.975 3.975 3.199 3.199 0 103.975-3.975z" fill="#453E43"/></g><defs><clipPath id="clip0_1049:2137"><path fill="#fff" d="M0 0h80.646v79H0z"/></clipPath></defs></svg>