<svg width="79" height="79" fill="none" xmlns="http://www.w3.org/2000/svg"><g clip-path="url(#clip0_1049:2118)"><path d="M73.927 7.045l-4.585.634.716 5.179-7.527 26.24h-.664v4.629h17.13l-5.07-36.682z" fill="#FF9A00"/><path d="M71.318 9.654l.633-4.584L35.27 0v17.13h4.628v-.664l26.24-7.527 5.18.715z" fill="#FFB74D"/><path d="M33.705 75.046a6.856 6.856 0 01-4.88-2.021 6.854 6.854 0 01-2.02-4.88c0-1.843.717-3.576 2.02-4.88l6.961-6.96 3.273 3.273-6.96 6.96c-.43.43-.667 1-.667 1.607s.237 1.178.666 1.608c.43.429 1 .665 1.608.665.607 0 1.178-.236 1.607-.665l1.858-1.86 3.273 3.274-1.858 1.858a6.856 6.856 0 01-4.88 2.021z" fill="#E67500"/><path d="M19.172 79a6.918 6.918 0 01-4.923-2.04 6.918 6.918 0 01-2.04-4.923 6.92 6.92 0 012.04-4.924L30.423 50.94l3.272 3.272-16.174 16.174a2.318 2.318 0 00-.684 1.651c0 .624.243 1.21.684 1.651a2.32 2.32 0 001.651.684 2.32 2.32 0 001.652-.684l1.972-1.972 3.273 3.273-1.973 1.972A6.918 6.918 0 0119.172 79z" fill="#E67500"/><path d="M10.853 52.187a6.88 6.88 0 01-4.88-2.017 6.91 6.91 0 010-9.76l1.858-1.86 3.273 3.274-1.859 1.858a2.276 2.276 0 000 3.215 2.277 2.277 0 003.215 0l6.96-6.961 3.273 3.273-6.96 6.96a6.878 6.878 0 01-4.88 2.018z" fill="#FF8900"/><path d="M6.96 66.786a6.94 6.94 0 01-4.924-2.037 6.97 6.97 0 010-9.847l1.973-1.972 3.272 3.272-1.972 1.973c-.91.91-.91 2.391 0 3.302.91.91 2.391.91 3.302 0l16.174-16.174 3.272 3.272-16.174 16.174a6.94 6.94 0 01-4.923 2.037z" fill="#FF8900"/><path d="M72.226 22.194c-2.42 11.047-7.127 20.313-13.611 26.797-5.119 5.12-11.81 9.065-19.885 11.727l-1.353.446L17.831 41.62l.446-1.353C20.941 32.19 24.885 25.5 30.006 20.38c6.483-6.484 15.749-11.19 26.796-13.61 8.281-1.816 14.608-1.729 14.873-1.724l2.234.04V5.1l.04 2.222c.005.265.093 6.592-1.723 14.873z" fill="#FFC473"/><path d="M72.225 22.196c-2.42 11.047-7.127 20.313-13.611 26.797-5.118 5.12-11.81 9.065-19.885 11.727l-1.353.446-9.769-9.768L73.91 5.102l.04 2.221c.004.265.092 6.592-1.724 14.873z" fill="#FFB74F"/><path d="M34.174 34.256l3.142 3.142-3.142 3.143-3.143-3.142 3.143-3.143z" fill="#8A6746"/><path d="M41.598 41.68l3.143 3.143-3.143 3.142-3.143-3.142 3.143-3.143z" fill="#684F37"/></g><defs><clipPath id="clip0_1049:2118"><path fill="#fff" d="M0 0h79v79H0z"/></clipPath></defs></svg>