<svg width="79" height="79" fill="none" xmlns="http://www.w3.org/2000/svg"><path d="M76.367 63.145l-13.1 13.1a9.214 9.214 0 01-6.518 2.7H22.251a9.214 9.214 0 01-6.517-2.7l-13.1-13.1h73.733z" fill="#55566A"/><path d="M7.9 63.145h68.467l-13.1 13.1a9.214 9.214 0 01-6.518 2.7H27.517a9.214 9.214 0 01-6.517-2.7l-13.1-13.1zM79 55.244H0v7.9h79v-7.9z" fill="#71728D"/><path d="M79 55.244H7.9v7.9H79v-7.9z" fill="#9798BC"/><path d="M65.834 55.243v-7.9a5.267 5.267 0 010-10.533v-7.9h-47.4a5.267 5.267 0 00-5.267 5.267v21.066" fill="#FBE24F"/><path d="M42.133 39.442a5.267 5.267 0 1010.534 0 5.267 5.267 0 00-10.534 0z" fill="#71728D"/><path d="M46.083 39.444c0-2.692 1.473-4.876 3.291-4.876 1.819 0 3.292 2.184 3.292 4.876 0 2.693-1.473 4.876-3.292 4.876-1.818 0-3.291-2.183-3.291-4.876z" fill="#9798BC"/><path d="M18.434 46.026a3.95 3.95 0 107.9 0 3.95 3.95 0 00-7.9 0z" fill="#71728D"/><path d="M22.382 46.027c0-1.879.884-3.402 1.975-3.402 1.091 0 1.975 1.523 1.975 3.402 0 1.88-.884 3.402-1.975 3.402-1.091 0-1.975-1.523-1.975-3.402zm17.503-30.668l1.862-1.862-1.702-1.703a1.844 1.844 0 01-.546-1.316c0-.498.193-.965.546-1.317l.771-.771a4.46 4.46 0 001.317-3.179c0-1.202-.468-2.33-1.317-3.18l-1.702-1.7-1.862 1.86 1.702 1.703c.353.352.545.82.545 1.317 0 .498-.192.965-.545 1.317l-.771.771a4.46 4.46 0 00-1.317 3.179c0 1.202.468 2.33 1.317 3.18l1.702 1.7zm-13.168 5.267l1.862-1.862-1.702-1.702a1.844 1.844 0 01-.546-1.317c0-.497.193-.965.546-1.316l.771-.772a4.46 4.46 0 001.317-3.178c0-1.203-.468-2.33-1.317-3.18l-1.702-1.701-1.862 1.862 1.702 1.702c.353.352.545.819.545 1.317 0 .497-.192.965-.545 1.316l-.771.772a4.46 4.46 0 00-1.317 3.178c0 1.203.468 2.33 1.317 3.18l1.702 1.701zm26.334 0l1.862-1.862-1.702-1.702a1.844 1.844 0 01-.545-1.317c0-.497.192-.965.545-1.316l.771-.772A4.46 4.46 0 0055.3 10.48c0-1.203-.468-2.33-1.317-3.18L52.28 5.598 50.418 7.46l1.702 1.702c.353.352.546.819.546 1.317 0 .497-.193.965-.546 1.316l-.771.772a4.46 4.46 0 00-1.317 3.178c0 1.203.468 2.33 1.317 3.18l1.702 1.701z" fill="#9798BC"/></svg>