<svg width="79" height="79" fill="none" xmlns="http://www.w3.org/2000/svg"><path d="M74.064 43.703c0 16.816-15.47 33.653-34.562 33.653S4.939 60.519 4.939 43.703c0-16.815 15.471-25.598 34.563-25.598 19.092 0 34.562 8.781 34.562 25.598z" fill="#FF1F1F"/><path d="M43.352 14.813c.327.57.69 1.12 1.086 1.646a3.28 3.28 0 01-3.291 3.292h-1.844a3.237 3.237 0 01-2.93-1.794 15.35 15.35 0 01-1.118-3.292c-1.169-5.02-1.037-11.998 1.514-13.019h5.76a14.042 14.042 0 00.823 13.167z" fill="#00AC0D"/><path d="M46.083 14.814c2.98-.082 8.147.872 9.875 3.292 3.177 4.444 9.415 1.843 9.859 1.662-3.292 6.123-16.442 3.275-16.442 3.275 1.646 7.686-1.646 11.521-1.646 11.521-4.937 0-9.875-9.875-9.875-9.875-3.291 1.53-8.229 9.875-8.229 9.875-6.583-4.608-3.292-9.875-3.292-9.875a13.072 13.072 0 01-11.52-6.583c8.229 0 6.583.115 11.52-1.646a19.97 19.97 0 018.23-1.646l.69-.148c.248 1.136.623 2.24 1.12 3.292a3.238 3.238 0 002.93 1.794h1.843a3.279 3.279 0 003.291-3.292 15.741 15.741 0 01-1.086-1.646h2.732z" fill="#070"/><path d="M74.064 43.703c0 16.816-15.47 33.653-34.562 33.653S4.939 60.519 4.939 43.703c0-16.815 15.471-25.598 34.563-25.598 19.092 0 34.562 8.781 34.562 25.598z" fill="#FF1F1F"/><path d="M11.521 35.473a22.986 22.986 0 012.097-9.77 22.113 22.113 0 00-8.68 17.999c0 16.815 15.47 33.652 34.562 33.652a35.452 35.452 0 0030.038-17.8 34.398 34.398 0 01-23.454 9.571c-19.092 0-34.563-16.837-34.563-33.652z" fill="#CB0303"/><path d="M43.352 14.813c.327.57.69 1.12 1.086 1.646a3.28 3.28 0 01-3.291 3.292h-1.844a3.237 3.237 0 01-2.93-1.794 15.35 15.35 0 01-1.118-3.292c-1.169-5.02-1.037-11.998 1.514-13.019h5.76a14.042 14.042 0 00.823 13.167z" fill="#008906"/><path d="M46.083 14.814c2.98-.082 8.147.872 9.875 3.292 3.177 4.444 9.415 1.843 9.859 1.662-3.292 6.123-16.442 3.275-16.442 3.275 1.646 7.686-1.646 11.521-1.646 11.521-4.937 0-9.875-9.875-9.875-9.875-3.291 1.53-8.229 9.875-8.229 9.875-6.583-4.608-3.292-9.875-3.292-9.875a13.072 13.072 0 01-11.52-6.583c8.229 0 6.583.115 11.52-1.646a19.97 19.97 0 018.23-1.646l.69-.148c.248 1.136.623 2.24 1.12 3.292a3.238 3.238 0 002.93 1.794h1.843a3.279 3.279 0 003.291-3.292 15.741 15.741 0 01-1.086-1.646h2.732z" fill="#070"/><path d="M29.625 37.855s4.202-8.344 7.92-9.875c0 0 5.576 9.875 11.152 9.875a16.532 16.532 0 002.324-13.166s8.738 2.712 14.353 1.009A27.852 27.852 0 0062.81 23.9a8.13 8.13 0 01-2.384-.638c-3.666.6-7.41.527-11.05-.22 1.646 7.687-1.646 11.522-1.646 11.522-4.937 0-9.875-9.875-9.875-9.875-3.291 1.53-8.229 9.875-8.229 9.875-6.583-4.609-3.291-9.875-3.291-9.875a13.034 13.034 0 01-7.504-2.253 30.37 30.37 0 00-3.797 2.184 16.822 16.822 0 008.009 1.714s-.853 6.913 6.583 11.521z" fill="#AA1313"/><path d="M51.022 24.688c.396 1.636.543 3.323.434 5.003 9.623 3.975 16.024 11.44 16.024 22.24a30.129 30.129 0 01-2.183 11.018 37.123 37.123 0 004.242-3.394c-.366.622-.75 1.234-1.152 1.837l.069-.1.232-.353c.229-.352.45-.706.658-1.065.08-.135.165-.27.24-.406.203-.346.397-.693.586-1.046.081-.15.165-.3.24-.45.176-.342.347-.686.514-1.032.078-.165.165-.33.232-.494.155-.33.3-.675.443-1.014.076-.178.151-.355.222-.535.132-.33.255-.658.377-.996.07-.189.14-.378.204-.57.114-.328.216-.657.318-.987.059-.197.123-.393.18-.592.093-.33.175-.658.258-.988.05-.204.107-.408.153-.614.075-.329.138-.658.202-.987.04-.206.086-.411.12-.619.06-.329.104-.676.15-1.014.028-.2.06-.4.084-.599.043-.365.07-.73.099-1.097.013-.173.033-.348.044-.52.032-.54.048-1.08.048-1.618a22.443 22.443 0 00-11.253-19.801c.888.55 1.744 1.149 2.564 1.795-5.612 1.71-14.35-1.002-14.35-1.002z" fill="#FF5D03"/><path d="M65.374 25.698a27.798 27.798 0 00-2.564-1.796c-.494-.3-.961-.61-1.471-.888-.3.09-.6.18-.912.25a16.869 16.869 0 01-1.623.27c-.193.023-.431.05-.647.067-.19.018-.38.036-.57.05a26.65 26.65 0 01-1.021.042h-1.18c-.186 0-.399 0-.596-.014a31.532 31.532 0 01-.915-.048l-.565-.043-.479-.051-.507-.051a36.006 36.006 0 01-1.14-.143l-.392-.058-.32-.05-.425-.072-.237-.042-.24-.046-.093-.017-.102-.015c.443 1.96.564 3.977.357 5.975.588.21 1.152.44 1.723.674a16.655 16.655 0 00-.434-5.003s8.738 2.712 14.353 1.009z" fill="#CB0303"/><path d="M59.678 20.518zm4.41-.191c.133-.035.263-.068.385-.102a13.97 13.97 0 01-.385.102zm-3.654.308zm2.951-.151c.19-.038.375-.078.551-.119-.176.045-.36.08-.551.119zm-1.471.188zm-3.726-.668c.164.076.312.148.472.209a6.274 6.274 0 01-.472-.21zM44.383 17zm5.035 6.28c-.017-.08-.025-.165-.043-.237.018.082.021.153.038.235l.005.002zm7.348-4.264zm7.894 1.154l.265-.08-.265.08zm-7.19-.584zm1.46.724c.164.056.329.106.493.147-.16-.048-.327-.09-.493-.146zm2.968.362zm-5.337-1.846zm8.574 1.194l.14-.05-.14.05z" fill="#00AC0D"/><path d="M58.662 20.213c.089.034.18.066.268.097-.088-.031-.172-.066-.268-.097zm-.74-.343c.089.047.178.09.267.134a13.03 13.03 0 01-.267-.135zm-13.649-2.41zm15.157 2.997zm-2.211-1.049c.082.064.164.117.253.175-.085-.058-.171-.11-.253-.175zm3.001 1.199c.072.01.142.022.213.028-.07-.006-.142-.018-.212-.028zm3.718-.243l.15-.038-.15.038zm-.606.128l.054-.01-.054.01zm2.172-.603l-.229.082c.086-.03.165-.056.23-.082zm-.578.2l.21-.07-.21.07zm-3.743.596h-.15c.05-.007.1 0 .15 0zm3.292-.461l.186-.054-.186.054zm-7.707-1.21c-.067-.066-.14-.122-.206-.19.066.068.139.124.206.19z" fill="#00CE23"/><path d="M65.504 19.89a6.503 6.503 0 01-.228.081l-.14.05-.21.069-.266.08-.186.055c-.122.034-.252.067-.385.102l-.151.038c-.177.041-.36.08-.552.118l-.054.01c-.468.09-.941.15-1.417.178h-.017a9.354 9.354 0 01-.716.013h-.15c-.198 0-.397-.02-.598-.041-.071 0-.142-.018-.213-.028a7.78 7.78 0 01-.541-.092 6.179 6.179 0 01-.744-.206c-.089-.031-.18-.062-.268-.097a5.281 5.281 0 01-.473-.209c-.089-.044-.177-.087-.266-.135a5.728 5.728 0 01-.451-.286c-.086-.058-.165-.11-.254-.175a6.246 6.246 0 01-.45-.393c-.068-.066-.14-.122-.206-.19a6.413 6.413 0 01-.61-.727c-1.727-2.42-6.895-3.374-9.874-3.292h-2.732c.327.571.69 1.12 1.086 1.646-.002.182-.02.363-.055.542a3.177 3.177 0 01-.115.459c3.4 2.126 12.196 6.527 21.236 2.43z" fill="#00CE23"/><path d="M44.085 17.919l-.02-.019a3.234 3.234 0 01-1.99 1.702 3.252 3.252 0 002.01-1.683z" fill="#00AC0D"/><path d="M47.944 34.274c.686-.988 2.754-4.656 1.47-10.996a52.07 52.07 0 01-6.57-1.753l5.1 12.749z" fill="#00CE23"/><path d="M65.505 19.888c-9.04 4.098-17.836-.31-21.231-2.429-.05.157-.111.31-.183.46a3.376 3.376 0 01-2.944 1.831h-1.844a3.331 3.331 0 01-1.545-.4 33.996 33.996 0 005.085 2.174 52.076 52.076 0 006.57 1.753c-.016-.082-.02-.153-.037-.235 0 0 13.15 2.847 16.442-3.276l-.313.122zm-30.589-2.39a19.444 19.444 0 002.596 1.72 3.127 3.127 0 01-1.14-1.262c-.164-.315-.294-.693-.434-1.063a13.83 13.83 0 01-1.022.605zm.338-2.832z" fill="#00AC0D"/><path d="M34.915 17.5c.369-.2.718-.403 1.022-.605a15.838 15.838 0 01-.306-.886 17.001 17.001 0 01-.378-1.343l-.691.148c-.76 0-1.465.048-2.14.114.69.983 1.532 1.851 2.493 2.572z" fill="#00AC0D"/><path d="M39.303 19.75a3.292 3.292 0 01-2.397-1.025 15.768 15.768 0 00-7.204 15.707c.62-1.022 5.094-8.323 8.152-9.745L39.5 19.75h-.197z" fill="#008906"/><path d="M37.511 19.22a21.45 21.45 0 01-1.5-.917l-4.895 4.894a1.644 1.644 0 00.316 2.576l1.297.779a1.645 1.645 0 001.91-.155l6.515-5.514a31.754 31.754 0 01-3.397-1.532c-.083-.044-.167-.08-.246-.131z" fill="#025602"/><path d="M41.147 19.75h-1.844c-.273 0-.546-.038-.81-.11a3.31 3.31 0 01-.735-.29 31.783 31.783 0 003.397 1.532l3.283-2.778-.398-.1a3.269 3.269 0 01-2.893 1.746zm-3.634-.53a3.16 3.16 0 01-.648-.546 2.96 2.96 0 01-.494-.717v-.012l-.357.357c.47.315.967.62 1.5.917h-.001z" fill="#016601"/><path d="M44.437 16.459a15.726 15.726 0 01-1.087-1.646 14.042 14.042 0 01-.822-13.167h-5.76c-.18.076-.346.179-.495.305.48 8.175 3.945 14.508 8.164 14.508z" fill="#00CE23"/><path d="M63.567 35.618c1.06-1.06.724-3.117-.752-4.594-1.477-1.476-3.533-1.813-4.594-.753-1.06 1.06-.723 3.117.753 4.594 1.476 1.476 3.533 1.813 4.593.753zm5.245.309c.53-.53.362-1.559-.376-2.296-.738-.738-1.766-.907-2.296-.376-.53.53-.362 1.558.376 2.296.738.738 1.766.906 2.296.376z" fill="#F6FAFD"/><path d="M52.357 21.106c.53-.53.362-1.558-.376-2.296-.738-.737-1.766-.906-2.296-.376-.53.53-.362 1.559.376 2.296.737.738 1.766.907 2.296.376z" fill="#B3FFD2"/><path d="M62.787 39.373c.266-.265.182-.78-.187-1.149s-.883-.452-1.149-.187c-.265.265-.181.78.188 1.149.369.368.883.452 1.148.187z" fill="#F6FAFD"/><path d="M47.979 17.969c.265-.266.181-.78-.188-1.149-.368-.369-.883-.453-1.148-.187-.266.265-.182.78.187 1.148.369.37.883.453 1.149.188z" fill="#B3FFD2"/><path d="M28.985 71.817c1.06-1.06.724-3.117-.753-4.594-1.476-1.476-3.532-1.813-4.593-.753-1.06 1.06-.723 3.118.753 4.594 1.476 1.476 3.533 1.813 4.593.753zm-7.917-6.277c.53-.53.362-1.558-.376-2.296-.738-.738-1.766-.906-2.296-.376-.53.53-.362 1.558.376 2.296.737.738 1.765.906 2.296.376zm2.204-1.491c.265-.266.181-.78-.188-1.149s-.883-.453-1.148-.187c-.266.265-.182.78.187 1.148.369.37.883.453 1.149.188z" fill="#AA1313"/></svg>