<svg width="80" height="80" fill="none" xmlns="http://www.w3.org/2000/svg"><g clip-path="url(#clip0_1079:8790)"><path d="M17.826 9.15c-5.848 5.848-8.836 13.378-8.641 21.776.18 7.789 3.187 15.735 8.463 22.374l20.518 25.815a2.343 2.343 0 003.67 0L62.352 53.3c5.276-6.64 8.282-14.585 8.463-22.374.195-8.398-2.793-15.928-8.64-21.776C56.274 3.25 48.4 0 40 0c-8.399 0-16.274 3.25-22.174 9.15zm41.034 3.314c9.829 9.829 9.756 25.422-.177 37.92L40 73.888 21.318 50.383c-9.933-12.497-10.006-28.09-.178-37.919 5.2-5.2 12.03-7.8 18.86-7.8s13.661 2.601 18.86 7.8zM27.323 31.806l.092-.078v12.237a2.344 2.344 0 002.344 2.344h20.483a2.344 2.344 0 002.344-2.344V31.728l.092.078a2.339 2.339 0 003.303-.273 2.344 2.344 0 00-.273-3.303L41.515 16.207a2.344 2.344 0 00-3.03 0L24.292 28.23a2.344 2.344 0 103.03 3.576zM40 21.066l7.898 6.69v13.865H32.103V27.757L40 21.067z" fill="#3CD52E"/></g><defs><clipPath id="clip0_1079:8790"><path fill="#fff" d="M0 0h80v80H0z"/></clipPath></defs></svg>