<svg width="41" height="41" fill="none" xmlns="http://www.w3.org/2000/svg"><g clip-path="url(#clip0_921:1738)"><path d="M32.592 0H0c-4.636 0 0 0 0 8.41v33.483C-1.783 51.192-1.071 41 3.565 41h29.027C37.228 41 41 45.638 41 41V8.41c0-9.3 5.348-9.3-8.408-8.409zM21.676 8.111c1.83-2.413 4.376-2.425 4.376-2.425s.379 2.269-1.44 4.455c-1.942 2.334-4.15 1.951-4.15 1.951s-.414-1.835 1.214-3.98zm4.014 25.401c-1.628 0-2.894-1.097-4.61-1.097-1.748 0-3.483 1.138-4.612 1.138-3.238 0-7.327-7.007-7.327-12.64 0-5.541 3.461-8.448 6.708-8.448 2.11 0 3.749 1.217 4.846 1.217.942 0 2.69-1.295 4.966-1.295 3.917 0 5.458 2.787 5.458 2.787s-3.014 1.541-3.014 5.28c0 4.218 3.754 5.671 3.754 5.671s-2.624 7.387-6.17 7.387z" fill="#fff"/></g><defs><clipPath id="clip0_921:1738"><path fill="#fff" d="M0 0h41v41H0z"/></clipPath></defs></svg>