<svg width="79" height="79" fill="none" xmlns="http://www.w3.org/2000/svg"><g clip-path="url(#clip0_1047:2061)"><path d="M78.313 25.951a2.37 2.37 0 01.204 3.1c-2.51 3.275-1.41 5.344-5.151 9.03-4.288 4.225-6.356 2.125-10.644 6.35-4.287 4.223-2.218 6.323-6.505 10.547s-6.356 2.124-10.643 6.348c-4.287 4.224-2.218 6.324-6.505 10.548-3.742 3.686-5.794 2.556-9.106 5.016a2.368 2.368 0 01-3.096-.25l-14.45-14.665c-1.062-1.078-.863-2.87.418-3.675 2.913-1.835 4.929-1.114 8.395-4.53 4.288-4.225 2.22-6.324 6.506-10.548 4.287-4.224 6.356-2.124 10.643-6.348 4.287-4.224 2.218-6.324 6.505-10.548 4.288-4.224 6.357-2.124 10.644-6.349 3.467-3.416 2.777-5.443 4.655-8.328.825-1.268 2.618-1.441 3.68-.362l14.45 14.664z" fill="#EA4444"/><path d="M78.519 29.051c-2.51 3.277-1.41 5.344-5.152 9.03-4.288 4.225-6.357 2.125-10.644 6.35-4.286 4.223-2.219 6.323-6.505 10.547-4.287 4.224-6.356 2.124-10.643 6.349-4.286 4.224-2.219 6.324-6.506 10.548-3.74 3.686-5.794 2.555-9.104 5.016a2.369 2.369 0 01-3.096-.25l-2.209-2.242c.825.624 1.98.651 2.832.02 3.311-2.461 5.364-1.33 9.105-5.017 4.287-4.224 2.219-6.324 6.506-10.547 4.286-4.225 6.356-2.125 10.642-6.349 4.288-4.224 2.22-6.324 6.506-10.548s6.356-2.124 10.644-6.349c3.74-3.686 2.641-5.754 5.151-9.03a2.37 2.37 0 00-.205-3.1L63.597 11.053c.093.07.183.148.268.234l14.448 14.664a2.37 2.37 0 01.206 3.1z" fill="#D93131"/><path d="M74.204 21.781c-4.287 4.224-2.218 6.324-6.506 10.548-4.287 4.225-6.356 2.125-10.643 6.349-4.287 4.224-2.218 6.324-6.505 10.548s-6.357 2.124-10.643 6.348c-4.287 4.224-2.219 6.324-6.506 10.547-4.287 4.224-6.356 2.125-10.643 6.348l-6.5-6.597c4.287-4.224 6.355-2.124 10.643-6.348 4.287-4.224 2.218-6.324 6.506-10.548 4.286-4.224 6.355-2.124 10.642-6.347 4.288-4.225 2.218-6.324 6.505-10.549 4.288-4.224 6.357-2.124 10.644-6.348 4.288-4.225 2.219-6.324 6.506-10.548l6.5 6.597z" fill="#FDD79B"/><path d="M74.203 21.783c-4.288 4.224-2.219 6.324-6.506 10.548-4.287 4.224-6.357 2.124-10.644 6.348-4.286 4.224-2.218 6.324-6.505 10.548s-6.356 2.124-10.643 6.349C35.62 59.8 37.686 61.9 33.4 66.123c-4.286 4.223-6.355 2.124-10.642 6.348l-2.818-2.86c4.273-4.196 6.342-2.112 10.622-6.327 4.286-4.224 2.218-6.323 6.505-10.548 4.287-4.223 6.356-2.124 10.643-6.348 4.286-4.225 2.219-6.324 6.505-10.548 4.287-4.224 6.356-2.124 10.645-6.349 4.286-4.224 2.217-6.324 6.505-10.547l-3.682-3.739.02-.02 6.501 6.598z" fill="#FCCD7F"/><path d="M36.998 6.017a2.37 2.37 0 011.88 2.473c-.288 4.116 1.77 5.235.68 10.374-1.246 5.888-4.13 5.278-5.377 11.165-1.248 5.888 1.636 6.5.389 12.387-1.248 5.888-4.132 5.277-5.379 11.164-1.247 5.888 1.637 6.499.39 12.387-1.09 5.138-3.424 5.327-4.83 9.205a2.368 2.368 0 01-2.722 1.499L1.89 72.404C.408 72.09-.413 70.487.21 69.108c1.417-3.136 3.497-3.647 4.506-8.409 1.247-5.887-1.637-6.498-.39-12.386 1.248-5.888 4.131-5.277 5.379-11.165 1.247-5.887-1.636-6.498-.39-12.386 1.248-5.888 4.132-5.277 5.38-11.165 1.008-4.762-.685-6.072-.71-9.515-.01-1.513 1.39-2.646 2.87-2.332l20.142 4.267z" fill="#EA4444"/><path d="M38.879 8.488c-.288 4.118 1.769 5.236.682 10.375-1.249 5.888-4.133 5.277-5.38 11.165-1.247 5.887 1.636 6.5.389 12.386-1.247 5.889-4.13 5.278-5.377 11.165-1.248 5.888 1.635 6.5.388 12.387-1.088 5.138-3.424 5.327-4.83 9.205a2.366 2.366 0 01-2.72 1.498l-3.079-.652a2.363 2.363 0 002.373-1.545c1.406-3.88 3.742-4.067 4.83-9.205 1.247-5.888-1.635-6.5-.388-12.387 1.247-5.888 4.13-5.277 5.377-11.165 1.248-5.888-1.636-6.499-.389-12.386 1.247-5.888 4.131-5.277 5.38-11.166 1.088-5.138-.97-6.257-.682-10.374a2.37 2.37 0 00-1.88-2.473L16.505 1.701c.116.007.235.023.352.048l20.14 4.266a2.37 2.37 0 011.88 2.473z" fill="#D93131"/><path d="M31.27 4.804c-1.248 5.888 1.635 6.5.388 12.388-1.247 5.888-4.13 5.276-5.378 11.164-1.247 5.888 1.636 6.5.389 12.388-1.248 5.887-4.131 5.276-5.379 11.164-1.247 5.887 1.637 6.498.39 12.386-1.248 5.888-4.132 5.277-5.379 11.165l-9.06-1.92c1.247-5.888 4.13-5.277 5.378-11.164 1.247-5.888-1.636-6.5-.39-12.387 1.248-5.888 4.132-5.277 5.38-11.164 1.246-5.888-1.637-6.5-.39-12.387 1.247-5.888 4.132-5.277 5.379-11.165 1.247-5.888-1.637-6.5-.39-12.387l9.062 1.92z" fill="#FDD79B"/><path d="M31.27 4.804c-1.248 5.888 1.636 6.499.389 12.387-1.248 5.888-4.132 5.277-5.38 11.165-1.246 5.888 1.636 6.499.39 12.387-1.248 5.887-4.132 5.277-5.379 11.164-1.247 5.888 1.636 6.5.39 12.387-1.249 5.886-4.133 5.276-5.38 11.163l-3.927-.832c1.25-5.857 4.126-5.258 5.372-11.134 1.247-5.888-1.636-6.5-.389-12.387 1.247-5.888 4.13-5.276 5.378-11.164 1.247-5.888-1.635-6.5-.388-12.387 1.247-5.888 4.13-5.277 5.378-11.165C28.971 10.5 26.087 9.889 27.336 4l-5.133-1.088c0-.01.003-.018.005-.028l9.062 1.919z" fill="#FCCD7F"/></g><defs><clipPath id="clip0_1047:2061"><path fill="#fff" d="M0 0h79v79H0z"/></clipPath></defs></svg>