<svg width="40" height="40" viewBox="0 0 59 59" fill="none" xmlns="http://www.w3.org/2000/svg"><path d="M20.198 51.41a3.672 3.672 0 100-7.344 3.672 3.672 0 000 7.345zm25.702 0a3.672 3.672 0 100-7.344 3.672 3.672 0 000 7.345zm6.519-37.55a2.746 2.746 0 00-2.13-1.008H15.364l-.703-3.991a1.836 1.836 0 00-1.809-1.517H5.508a1.836 1.836 0 000 3.672h5.804l5.24 29.696a1.836 1.836 0 001.808 1.517h29.377a1.836 1.836 0 000-3.672H19.9l-.647-3.672h27.731a2.762 2.762 0 002.704-2.214l3.305-16.524a2.754 2.754 0 00-.574-2.288z" fill="#3CD52E"/></svg>