<svg width="620" height="990" fill="none" xmlns="http://www.w3.org/2000/svg"><path d="M366.937 754.642a160.484 160.484 0 00-1.892-9.012c-11.266-47.765-44.093-90.574-64.304-91.746-25.054-1.464-18.588-2.591-33.571 6.196-9.012 5.25-27.239 49.951-40.555 85.1a4313.808 4313.808 0 00-4.303 11.49h.18c1.441.384 2.816.984 4.078 1.78 8.111-22.283 16.74-44.431 26.451-66.038 5.182-11.581 10.207-26.586 21.494-33.436 9.216-5.61 23.906-3.357 32.851 2.479 28.388 18.52 45.264 58.58 51.82 90.304.474 2.253.857 4.506 1.195 6.871.451-.405.933-.774 1.442-1.104a40.086 40.086 0 015.114-2.884zm-32.262-581.07a267.875 267.875 0 005.137-2.14c-.451-7.39-1.397-14.713-2.073-22.08-1.6 1.081-3.267 2.253-4.979 3.289.721 6.151 1.6 13.248 1.915 20.931zm-10.546 50.672s.203 12.076 37.131 6.534c0 0 .18.36.473 1.013 35.013-13.698 56.575-52.023 63.086-65.136-3.424-11.266-5.587-22.216-4.145-34.202.788-6.759 2.253-13.203 3.447-19.76.969-5.182 1.059-12.166 3.402-16.898a9.981 9.981 0 0111.581-4.957c8.156 1.623 9.485 7.03 9.463 13.384a83.037 83.037 0 0111.04-13.361c5.588-5.453 15.772-15.772 24.784-13.068 7.255 2.253 2.253 13.113 0 17.574a115.46 115.46 0 01-6.759 11.04 26.402 26.402 0 019.012-1.126c6.421.45 9.666 2.793 8.269 9.44-1.262 6.038-5.385 9.012-9.305 12.843 5.903-2.253 12.346-3.425 15.321 2.929 4.393 9.373-8.247 18.024-14.375 22.733 5.542 11.086-9.779 27.037-22.058 32.895-2.861 5.228-31.183 56.688-39.677 64.371-9.012 8.111-50.198 42.809-50.198 42.809-21.968 10.319-27.623 38.415-27.623 38.415 10.319 17.056-4.507 219.676-4.507 219.676l71.514 186.24 5.046 13.158h1.239a10.193 10.193 0 002.682-.473 7.921 7.921 0 011.69-.158 174575.063 174575.063 0 00-30.71-79.939l-31.16-81.111-10.702-27.871c-.924-2.433-4.169-9.914-4.236-10.342-.631-4.303.698-9.756.991-14.082.721-10.935 1.42-21.862 2.096-32.782 1.757-29.29 3.289-58.468 4.28-87.735.811-24.649 2.254-50.064-.405-74.645-.744-6.759-2.862-10.161-.721-16.515 5.227-15.456 14.78-23.387 27.195-32.873 22.531-17.326 46.684-36.049 61.847-60.382 8.426-13.519 14.938-30.462 24.784-42.809 7.976-10.004 29.448-18.453 24.288-35.779 8.021-5.475 17.056-13.924 14.059-23.95a1.543 1.543 0 00-.473-.721 12.117 12.117 0 00-10.815-5.295c4.507-5.07 8.382-11.604 3.876-17.101-2.974-3.628-8.517-4.056-13.744-3.492 6.218-10.072 15.524-27.758-1.983-27.939-12.459-.135-23.702 9.148-32.332 19.084-4.731-6.354-14.239-7.66-22.756-3.515-7.593 3.718-8.787 10.793-9.891 18.588-1.419 10.004-4.168 19.895-4.506 30.011a75.371 75.371 0 001.329 17.124c.901 4.844 3.177 9.913 1.825 14.645-1.78 6.173-7.322 12.82-10.95 18.024-11.107 16.065-25.009 30.755-42.651 39.407-.565.005-1.13.05-1.689.135-4.507.631-29.29 5.182-31.724-3.988-.946-3.582 3.921-9.418 5.182-13a97.126 97.126 0 005.047-28.231v-5.633l-5.25 1.848a91.136 91.136 0 01-10.634 44.949zM176.078 754.403l-1.036-.789c0-.18 0-.383.158-.586l2.929.609c.315-4.507.585-7.931.721-9.463 0-.924.27-3.358.563-6.917 1.464-17.529 5.588-62.974 12.414-94.225l-1.194 1.555c.699-1.915 1.42-3.83 2.253-5.723l.406-1.757a4.502 4.502 0 00-2.755-4.266 4.519 4.519 0 00-1.751-.353 34.217 34.217 0 00-7.3 1.059l-.631.158c-1.127.293-2.253.608-3.335.991l-.405.135c-1.082.383-2.253.789-3.245 1.239l-.338.136c-1.081.473-2.253.968-3.267 1.487l-.585.293a78.842 78.842 0 00-3.087 1.622 4.497 4.497 0 00-.563.315c-1.037.563-2.051 1.172-3.065 1.78l-.18.113a120.982 120.982 0 00-15.479 11.4l-.292.248-1.285 1.127-.18.158-.879.788h-.112c-.19.162-.371.335-.541.518l-.225.203-.293.203v.113l-.293.202-.158.135-.36.293-.271.203-.383.316-.36.293-.451.382-.405.338-.541.451-.428.361-.676.585-.383.338-.901.834-.226.203-1.216 1.126-.248.226-.992.968c-5.835 5.723-12.887 14.06-15.523 22.982 0 .225-.136.428-.181.653-.045.226-.18.631-.247.924-.068.293-.136.721-.203 1.059-.068.338-.135.608-.181.924-.045.315.001.721-.112 1.081-.113.361 0 .609 0 .902v3.987c0 .406.135.789.225 1.195a18.36 18.36 0 001.555 4.754 42.335 42.335 0 012.411 6.398 69.526 69.526 0 012.253 12.55c.392 3.953.573 7.924.541 11.896 0 2.456-.001 4.867-.203 7.188 0 .788 0 1.532-.135 2.253a171.708 171.708 0 01-.767 8.314c-.135 1.239-.293 2.433-.428 3.515-.653 4.889-1.261 7.953-1.261 7.953a67.222 67.222 0 01-2.524 9.418 95.242 95.242 0 01-6.759 12.572c.104.595.142 1.199.113 1.803a46.278 46.278 0 01-18.025 17.483 22.068 22.068 0 01-5.25 2.254l-.856.247a49.578 49.578 0 01-11.626 1.893 78.86 78.86 0 01-9.756-.383l-1.757-.248-1.15-.135-1.87-.338-.878-.158-1.645-.383-.946-.225-1.442-.406-.969-.292c-.496-.136-.969-.316-1.442-.474l-.833-.293-1.33-.518-.81-.338-1.24-.563-.744-.338-.293-.18c-13.766-6.962-16.627-18.318-16.65-18.363 0-.112-3.672-48.013 22.734-20.278 19.016 19.94 39.406 4.98 43.687-23.004.18-1.216.338-2.478.451-3.74.248-2.523.36-5.137.36-7.841a88.26 88.26 0 00-4.258-25.933 90.89 90.89 0 01-1.284-4.506c0-.225 0-.45-.18-.698-.293-1.194-.586-2.388-.834-3.56-.135-.541-.203-1.082-.316-1.645-.112-.563-.338-1.622-.45-2.411-.113-.788-.136-.991-.203-1.487-.068-.495-.248-1.622-.316-2.41-.067-.789 0-.969-.112-1.465-.113-.496-.158-1.51-.18-2.253-.023-.744 0-1.104 0-1.667v-5.228l.135-1.509c0-.563 0-1.127.157-1.69.158-.563.18-1.036.248-1.555.068-.518.135-.991.226-1.464.09-.473.203-.969.315-1.442.113-.473.18-.969.293-1.419.113-.451.248-.902.383-1.33.135-.428.248-.924.383-1.374.135-.451.293-.856.428-1.284.135-.428.293-.857.45-1.262.158-.406.316-.789.474-1.194.158-.406.315-.811.496-1.194l.563-1.195.496-1.059c.157-.337.428-.766.63-1.149l.519-.946.608-.991.608-.969c.203-.316.428-.608.631-.901l.608-.902.721-.923.564-.744c.225-.293.473-.563.698-.833l.586-.699v-.113a38.956 38.956 0 0111.13-8.877l54.277-39.294s1.329-.946 3.492-2.613a41.281 41.281 0 002.254-1.803 229.591 229.591 0 0013.135-11.017l1.622-1.51c1.082-.991 2.253-2.028 3.245-3.086a141.032 141.032 0 005.114-5.25c-2.884-18.183-8.472-42.809-15.772-82.756-12.594-68.697-25.932-90.687-31.047-96.883a117.233 117.233 0 01-6.759 2.479c26.564 42.245 30.754 96.251 40.307 144.197a1364.598 1364.598 0 014.033 20.503c2.118 11.266 2.907 13.631-6.601 22.283a245.979 245.979 0 01-20.751 16.673 11098.915 11098.915 0 01-47.833 34.63l-3.38 2.456-.202.135c-1.037.653-2.073 1.217-3.087 1.87a47.74 47.74 0 00-14.69 15.479c-17.417 29.538 7.3 60.676-.338 91.768-1.645 6.759-4.506 14.983-10.026 19.512-9.17 7.458-16.516-1.059-23.275-7.165-6.173-5.588-13.158-9.17-21.404-5.745-11.13 4.664-12.392 23.139-10.635 31.363 3.335 15.366 20.796 23.274 34.923 25.144 28.524 3.718 47.788-9.621 60.833-34.112 9.013-16.92 9.621-41.254 7.053-59.616-.992-7.053-4.236-13.091-5.746-19.873-1.78-8.021 1.645-15.771 6.151-22.283a99.875 99.875 0 0118.34-18.655 154.66 154.66 0 0112.212-9.779 56.579 56.579 0 0113.293-7.728c3.2-1.081 9.824-5.294 11.851 1.24a31.2 31.2 0 01-2.253 5.722 1.131 1.131 0 00-.069.914 1.121 1.121 0 00.633.664c-7.593 37.108-10.815 75.072-13.519 112.902a11.262 11.262 0 014.979-5.61zm257.774 19.711c-.18-.495-.383-1.014-.585-1.532l.608 1.803s.022-.181-.023-.271zM148.793 393.205a63.09 63.09 0 01-20.436 3.334c-22.103-1.554-35.26-23.251-37.626-33.571-2.366-10.319 14.442-29.019 29.853-50.717 15.411-21.697 3.087-43.484 3.087-43.484l-1.082-1.713a184.752 184.752 0 01-18.993-39.586 188.135 188.135 0 01-7.773-1.577c5.497 15.951 13.518 29.785 21.246 44.881a41.64 41.64 0 01-2.681 41.862c-9.17 14.308-24.266 27.466-29.448 44.071-3.154 10.071 3.493 20.278 9.936 27.735a42.968 42.968 0 0036.568 15.141 48.598 48.598 0 009.553-1.577c.743-.203 2.253-.316 3.38-.586a18.264 18.264 0 014.416-4.213zM94.56 192.595a246.428 246.428 0 01-3.943-49.815S89.513 32.378 95.91 29.292c6.399-3.087 61.465 20.503 68.359 30.664 0 0 5.227-1.081 12.91-2.478a108.266 108.266 0 01-7.502-8.63l-6.962-8.742a14.478 14.478 0 01-2.794-4.506 4.758 4.758 0 011.171-4.912c.179-.173.395-.304.631-.383.297-.067.605-.067.902 0 6.916 1.375 14.261 7.661 21.178 9.013-2.095-2.253-3.807-9.71-4.1-12.482a1.987 1.987 0 01.36-1.577c.834-.924 2.569-.586 3.786-.136 6.15 2.253 15.658 8.36 21.517 11.04-.721-3.176-4.507-10.116-4.124-13.383 12.82 5.903 28.096 16.583 31.228 28.457h.473c17.079 1.982 55.99-44.814 55.99-44.814s43.664 22.53 29.718 91.115c-.203.969-.406 1.915-.586 2.839 4.078 6.353 14.69 24.288 13.834 37.333a61.76 61.76 0 00.383 9.643 178.232 178.232 0 005.047-3.942v-.429c-.406-6.759 0-12.91-2.05-19.556-2.254-7.503-6.557-13.519-9.621-20.684-3.29-7.593.338-16.808.833-25.009a109 109 0 00-.428-18.79 80.448 80.448 0 00-10.634-32.22c-5.385-9.012-12.933-17.71-22.328-22.688-2.817-1.487-8.449.495-10.342 2.77a253.332 253.332 0 01-29.47 30.327 85.882 85.882 0 01-11.491 8.675c-5.678 3.334-4.371 3.177-6.759-2.073-4.935-11.063-19.354-18.385-29.696-23.387-2.456-1.194-11.265.54-10.815 4.258v.631c-5.159-2.568-10.522-4.123-15.771-2.253a7.347 7.347 0 00-5.678 6.962c-5.881-2.614-11.919-4.033-16.943 0-7.098 5.678.721 15.772 7.683 22.914a110.443 110.443 0 00-17.574-9.869 226.091 226.091 0 00-34.428-14.24c-13.09-3.987-23.387-3.717-25.347 11.266-4.506 34.608-2.5 70.567-2.253 105.152a318.074 318.074 0 003.335 46.143 43.41 43.41 0 017.007 1.284zm8.07 32.045a232.751 232.751 0 01-6.76-25.28l-3.267-1.059c-.54-.203-2.253-.563-4.033-1.014a208.1 208.1 0 005.565 23.522c.293 1.014.654 1.983.97 2.974 2.545.316 5.046.609 7.525.857z" fill="#20221D"/><path d="M246.824 290.227a9.15 9.15 0 00-1.329 1.014 2.534 2.534 0 00-.428.45c-.519.969-1.037 1.961-1.623 2.975-.225.428-.473.833-.743 1.261a24.584 24.584 0 01-1.51 2.253c6.76-2.974 12.55-5.587 16.763-7.345.721-2.118 1.532-4.213 2.253-6.083a51.5 51.5 0 00-5.43 1.645l-1.442.54-1.937.789-2.253 1.059-1.375.743c-.326.218-.642.451-.946.699zm82.735-135.532c.608 6.061.923 11.851.968 16.808v3.763c1.42-.541 2.839-1.104 4.236-1.69-.315-7.683-1.194-14.781-1.915-20.931l-3.289 2.05zM102.13 201.203a228.396 228.396 0 01-6.264-1.848 232.892 232.892 0 006.759 25.28c2.749.293 5.43.541 8.066.744-1.126-2.772-2.253-5.588-3.424-8.449a119.814 119.814 0 01-5.137-15.727z" fill="#FF7A26"/><path d="M268.343 185.699s3.583-1.69 9.351-4.686c-4.255.385-8.53.483-12.798.293-2.253-.113-4.055-.316-5.249-.496-5.498-.924-9.554-5.52-13.519-10.86s-11.311-19.737-13.564-23.274a8.101 8.101 0 00-6.579-3.019h-.608a12.253 12.253 0 00-6.759 5.655c-1.915 4.393-7.886 21.359-11.266 28.051-3.379 6.691-6.917 12.707-12.256 15.771a100.407 100.407 0 01-41.953 10.838c-9.44-.902-15.569-3.515-20.03-12.55s-10.95-27.037-13.518-27.262h-.451a23.158 23.158 0 01-3.785-.451l-16.267 1.622a58.174 58.174 0 00-.428 6.331 119.62 119.62 0 002.095 22.869c3.447 1.127 7.39 2.569 11.986 4.506 47.495 19.445 103.304 3.358 103.304 3.358-43.98 15.118-92.061 5.137-113.758-.969a119.775 119.775 0 005.137 15.771c1.172 2.862 2.253 5.678 3.425 8.449 73.315 5.791 111.888-17.619 117.16-21.088l.631-.451-.631.451a141.589 141.589 0 01-55.448 23.364c18.948 7.142 41.862 9.688 55.674-8.314l.202-.225c-4.033-8.201 7.007-12.617 5.881-16.898-1.938-7.188-4.957-7.638-8.585-8.855-1.757-.563-7.345-5.385-7.3-7.232l-1.374-2.794c0-1.758-.879-2.771 5.881-4.912 6.759-2.14 18.926-5.227 20.818-1.307 2.411 4.912-.203 11.266-3.132 14.826-3.312 3.965 0 6.376 1.442 8.133a10.834 10.834 0 003.763 1.194 24.79 24.79 0 018.9 4.056c11.716 3.492 23.139-3.199 29.403-13.203a166.11 166.11 0 01-17.755 1.983s7.751-1.6 19.219-4.507a31.715 31.715 0 003.222-10.071c-3.019.586-5.926 1.036-8.674 1.329-3.921 1.307-7.774 2.952-11.807 4.574zm61.216-31.006c-3.65 2.253-7.57 4.664-11.716 7.075-3.583 6.759-8.674 10.499-15.952 13.992a90.502 90.502 0 01-8.9 2.703 35.745 35.745 0 01-2.253 9.644 411.73 411.73 0 0039.7-12.843v-3.763c.045-4.956-.271-10.747-.879-16.808zM290.76 80.444c-21.427-20.435-46.504-24.626-74.712-24.784l-27.308 3.177a116.463 116.463 0 00-52.767 30.89c-10.747 10.499-18.543 25.099-24.559 39.226-3.086 7.278-6.376 14.194-8.877 21.314l11.266-1.599a95.293 95.293 0 0122.147-8.292c12.978-3.109 41.3-9.012 53.939-10.274 4.431-.57 8.894-.849 13.361-.833a9.14 9.14 0 013.875.878c1.848.947 2.839 2.681 5.746 2.839h.833c3.222-.158 9.779-.834 11.086-.969 1.306-.135 7.795-2.14 10.972-3.199 3.56-1.172 4.304-3.47 6.219-5.25 1.915-1.78 4.506-3.041 16.92-6.511 12.415-3.47 45.332-10.049 54.074-10.049 1.258 0 2.491.351 3.56 1.014-7.074-10.387-17.033-19.264-25.775-27.578zm29.678 75.461a331.594 331.594 0 008.63-6.06 154.125 154.125 0 00-5.227-25.753 85.595 85.595 0 01-3.403 31.813z" fill="#fff"/><path d="M128.425 255.447c10.702 10.792 27.578 18.881 41.366 24.671a80.361 80.361 0 0028.344 5.205l-.495-1.307a23.124 23.124 0 01-5.002-8.697 3.894 3.894 0 011.397-3.92c.295-.246.611-.465.946-.654l.698-.247c1.938-.676 3.898-1.352 5.903-1.961l2.254-.653a67.926 67.926 0 018.313-1.87 65.599 65.599 0 012.929-.406 33.56 33.56 0 0112.347.744c.834.225 1.6.45 2.253.698 5.701 1.758 8.585 3.47 12.009 4.507.428.135.879.225 1.352.337h.293c0 .181 0 0 0 0a1.852 1.852 0 01-.135-1.104 1.871 1.871 0 01.901-1.351 17.45 17.45 0 003.898-1.014h.225a31.26 31.26 0 001.758-.676 19.082 19.082 0 002.118-1.127 1.985 1.985 0 012.253 1.42s0 .27 0 0l.112-.135c.451-.586.879-1.172 1.262-1.78.383-.609.451-.699.654-1.059.202-.361.473-.834.721-1.262l1.87-3.492c.202-.406.45-.834.698-1.285.586-1.036 1.262-2.253 2.073-3.424l.811-1.217.563-.811a25.05 25.05 0 012.501-3.087l1.104-1.104a39.523 39.523 0 013.425-2.906l1.397-.992a48.685 48.685 0 014.19-2.613l1.645-.902a78.342 78.342 0 015.881-2.793l1.893-.811a243.389 243.389 0 015.474-2.118h.226a4.057 4.057 0 014.731 2.005 12.893 12.893 0 011.352 4.754c0 .518.135 1.059.18 1.6.136 1.644.181 3.402.203 5.159v1.532c0 1.487 0 2.952.135 4.281 0 .563 0 1.082.158 1.6s0 .473.113.721c10.229-10.725 17.709-26.023 23.544-39.857a120.223 120.223 0 008.81-37.064 326.083 326.083 0 01-40.758 10.455c-5.858 11.964-18.025 20.931-31.341 19.309a5.914 5.914 0 01-.135 2.748s-3.425 11.784-15.028 14.105c-2.098.584-4.323.53-6.39-.156a10.956 10.956 0 01-5.213-3.697c-16.921 20.143-43.755 16.245-65.903 6.759a2.254 2.254 0 01-1.217-1.261 188.853 188.853 0 01-52.024-.248c4.146 9.62 8.675 18.723 16.358 26.451zm130.679-18.881a3.854 3.854 0 01.811 6.511c-3.673 4.236-20.458 12.528-29.088 3.245.023 0 23.68-.09 28.299-9.756h-.022z" fill="#fff"/><path d="M119.301 687.598c0 .315-.181.631-.248.923.067-.292.157-.608.248-.923zm20.752-28.299l-.428.36.428-.36zm-2.388 2.123l-.226.203.226-.203zm1.286-1.176l-.383.338.383-.338zm-2.73 2.494l-.247.226.247-.226zm33.932-25.048c1.082-.518 2.253-1.014 3.267-1.487-1.081.473-2.185.969-3.267 1.487zm-27.17 19.195l-.158.135.158-.135zm-1.984 1.629l-.405.338.405-.338zm.808-.68l-.361.293.361-.293zm-16.151 75.441c0 2.456 0 4.867-.203 7.188.113-2.321.18-4.732.203-7.188zm16.781-75.959l-.27.203.27-.203zm4.512-3.853l-1.284 1.126 1.284-1.126zm-28.1 36.209c0 .315-.135.608-.18.924.045-.406.113-.699.18-.924zm50.626-51.686a79.543 79.543 0 00-3.086 1.623c1.104-.564 2.14-1.105 3.086-1.623zm-25.032 17.658zm-25.885 35.942v.901c-.067-.293-.045-.563 0-.901zm47.357-51.662a80.762 80.762 0 00-3.064 1.78c1.013-.609 2.117-1.217 3.064-1.78zm-20.478 14.824l-.878.789.878-.789zm-20.887 96.324c-.135 1.239-.293 2.434-.428 3.515.135-1.081.293-2.276.428-3.515zm.765-8.32zm-30.44-76.714c.135-.473.248-.923.383-1.374-.135.451-.135.901-.383 1.374zM53.736 804.307l-.811-.338.81.338zm41.771-105.614a115.537 115.537 0 01-.833-3.56c.248 1.059.45 2.253.833 3.56zm-1.15-5.319c-.158-.811-.338-1.623-.45-2.411.112.788.292 1.6.45 2.411zm82.642-58.55c-1.081.383-2.253.789-3.244 1.239 1.081-.473 2.163-.856 3.244-1.239zm-83.295 54.643c0-.811-.248-1.622-.315-2.41.067.788.203 1.599.315 2.41zM63.221 807.064l-.878-.158.878.158zm3.022.468l-1.15-.136 1.15.136zM55.9 805.121l-.835-.293.834.293zm34.335.917a22.065 22.065 0 005.25-2.253 39.71 39.71 0 01-5.25 2.253zm-29.539.48l-.946-.225.946.225zm-2.386-.629l-.97-.293.97.293zm-6.628-2.481l-.744-.338.744.338zm41.576-128.47c0-.563 0-1.127.157-1.69-.067.653-.09 1.127-.157 1.69zm4.414-16.399c.18-.36.338-.721.496-1.059-.158.338-.316.654-.496 1.059zm-1.061 2.384zm2.186-4.586l.518-.946-.518.946zm-4.592 12.452c0-.474.18-.969.293-1.42-.113.451-.203.946-.293 1.42zm1.484-5.414c.157-.406.292-.856.45-1.262-.158.518-.293.856-.45 1.262zm-2.028 8.273c0-.496.135-.991.225-1.464-.09.518-.157 1.013-.225 1.464zm8.833-20.961l.563-.744-.563.744zm78.25-16.99c-1.127.293-2.253.609-3.335.992 1.082-.383 2.208-.699 3.335-.992zm-79.58 18.823l.608-.901-.608.901zm2.587-3.409l.586-.699-.586.699zm-10.473 36.478c0-.743-.158-1.51-.18-2.253.022.743.112 1.51.18 2.253zm-.225-3.92v-1.87c-.045.608-.022 1.262 0 1.87zm6.87-27.284l.608-.969-.608.969z" fill="#FF7A26"/><path d="M173.354 597.521a328.336 328.336 0 00-3.492 2.614l-15.772 11.446a41.549 41.549 0 008.45 30.349l.18-.113.18-.113a83.758 83.758 0 013.064-1.779c.18-.119.369-.224.564-.316a80.182 80.182 0 013.086-1.622l.586-.293c1.082-.518 2.253-1.014 3.267-1.487l.338-.135c1.081-.451 2.253-.856 3.244-1.239l.406-.136c1.104-.383 2.253-.698 3.335-.991l.63-.158a36.993 36.993 0 012.727-.586c-4.304-4.528-12.212-15.771-10.793-35.441zm-40.962 29.739l-14.735 10.747c1.307 9.395 11.987 20.728 17.417 25.956l.991-.969.248-.226 1.216-1.126.226-.203.901-.834.383-.337.676-.586.428-.361.541-.45.405-.338.451-.383.36-.293.383-.316.271-.203.36-.292.158-.136.293-.202v-.113l.293-.203.225-.203c.17-.183.351-.356.541-.518h.113l.878-.788.181-.158 1.284-1.127.293-.247v-.113c-5.07-5.543-13.879-16.042-14.781-25.978zm-27.942 21.047v.112l-.586.699c-.225.27-.473.54-.698.833l-.564.744-.721.924-.608.901c-.203.293-.428.586-.631.901l-.608.969-.609.991-.518.947c-.203.383-.428.743-.63 1.149-.203.405-.316.698-.496 1.059-.18.36-.383.766-.564 1.194-.18.428-.337.788-.495 1.194-.158.405-.338.788-.473 1.194-.135.406-.293.856-.451 1.262a16.79 16.79 0 00-.428 1.284c-.135.451-.248.901-.383 1.374-.135.474-.27.879-.383 1.33-.113.45-.203.946-.293 1.419-.09.473-.225.946-.315 1.442s-.158.969-.226 1.465c-.067.495-.18 1.036-.248 1.554-.067.518 0 1.127-.157 1.69l-.135 1.51v6.894c0 .563 0 1.51.18 2.253.18.744 0 .969.112 1.465.113.495.203 1.599.316 2.411.113.811 0 .968.203 1.487.203.518.293 1.599.45 2.41.158.811.18 1.104.316 1.645.248 1.172.54 2.366.833 3.56 0 .248.113.473.18.698.158.564.339 1.149.496 1.735 6.467-.202 16.087-2.568 22.531-3.199a.307.307 0 010-.135c0-.406-.158-.789-.225-1.194v-4.89c0-.315 0-.721.112-1.081.113-.361 0-.608.181-.924.18-.315.112-.698.203-1.059.09-.36.157-.608.247-.924.091-.315 0-.428.181-.653-6.399-6.917-16.718-20.931-15.096-38.64zm-4.168 68.541l-.158.112c.69 4.202 1.06 8.45 1.104 12.708v.383c12.798 1.419 19.737 16.38 22.779 25.482 0-.315 0-.608.135-.946.135-1.082.293-2.253.428-3.515.293-2.501.563-5.317.766-8.314 0-.766 0-1.509.135-2.253 0-2.253.181-4.731.203-7.187.033-3.972-.148-7.944-.541-11.897-8.674-6.962-19.421-5.835-24.851-4.573zm-6.059 42.988c-3.965 6.917-9.327 11.558-15.366 13.045 5.881 7.886 9.26 25.483 10.522 33.391l.856-.248a39.718 39.718 0 005.295-2.253 46.275 46.275 0 0018.025-17.484 8.177 8.177 0 00-.113-1.802c-1.104-8.63-13.946-20.21-19.219-24.649zm-24.939 12.722a23.638 23.638 0 01-5.43-2.478c-4.507 5.678-13.226 18.588-13.204 32.805l.293.18.744.338 1.24.564.81.337 1.33.519.833.293c.473.157.946.338 1.442.473l.969.293 1.442.405.946.225 1.645.384.879.157 1.87.338 1.149.135 1.757.248h1.217c.653-9.575 1.487-26.519.068-35.216zM206.314 472.5c8.021 72.572 49.23 127.141 77.979 123.92 31.386-3.47 41.39-46.684 31.544-136.064-5.791-52.294-19.647-93.684-36.433-113.398-11.822.48-23.662.292-35.463-.563l-24.018 13.833c-13.789 24.063-18.904 63.357-13.609 112.272z" fill="#fff"/><path d="M542.408 906.335a93.577 93.577 0 00-5.385-3.628c-.406-.27-1.037-.18-1.803-.293.338-.405.879-.991 1.78-2.005-1.149-5.25-2.028-11.108-3.785-16.695a40.43 40.43 0 00-8.229-14.71 40.43 40.43 0 00-13.513-10.074c-8.224-3.988-16.538-7.841-24.784-11.852a63.082 63.082 0 01-20.503-16.334c-1.848-2.254-3.29-4.777-4.957-7.165-1.667-2.389-3.763-5.34-5.588-8.044a143.166 143.166 0 01-21.787-41.096l-.609-1.803a128.755 128.755 0 01-5.024-21.607c.361-.293-1.622-.631-3.492-.608a7.927 7.927 0 00-1.69.158c-.868.277-1.77.436-2.681.473h-1.239l1.825 4.754-52.813 7.165c-.315-2.734-.721-5.46-1.216-8.179a40.1 40.1 0 00-4.957 2.816c-.509.33-.991.699-1.442 1.104a6.755 6.755 0 00-2.253 7.007c-2.253.429-2.051 1.758-1.622 3.425 2.253 8.855 4.821 17.642 6.759 26.587 1.509 7.209-.248 14.329-1.938 21.359-2.433 10.094-5.092 20.12-7.232 30.259a60.422 60.422 0 000 23.026 21.739 21.739 0 01-.856 7.616 16.274 16.274 0 001.351 9.688c1.623 3.808 5.048 5.362 8.63 6.557a63.66 63.66 0 007.322 1.87 2.569 2.569 0 012.389 2.523c.208 1.034.517 2.046.923 3.019-2.546 1.082-5.024 2.253-7.57 3.2a33.792 33.792 0 00-13.744 10.567 22.935 22.935 0 00-4.506 12.121c-.924 6.962-1.149 13.767 1.915 20.278 4.754 10.297 15.974 15.907 25.708 11.716a51.824 51.824 0 0024.784-20.278c1.937-3.177 1.937-6.601 2.636-9.958a5.834 5.834 0 011.938-3.065 25.783 25.783 0 012.253-1.509c7.48-11.153 27.285-10.635 38.978.203 1.127.36 2.253.743 3.402 1.081 1.149.338 1.825.946 1.668 2.253a5.81 5.81 0 003.131 6.286c-2.546 2.051-4.979 4.078-7.503 6.016a22.167 22.167 0 00-8.313 14.149 39.53 39.53 0 00.18 19.062c2.884 9.305 10.206 15.771 19.489 16.154a19.016 19.016 0 009.373-1.847c6.759-3.538 13.293-7.3 18.227-13.271.947-1.149 1.961-2.253 2.839-3.515 5.678-7.751 5.836-16.019 2.253-24.649a3.5 3.5 0 010-2.433c.428-1.104 1.352-1.262 2.479-.766a6.075 6.075 0 002.253.27 20.195 20.195 0 002.253-.135c.676 12.279 18.025 17.326 18.994 17.507a19.673 19.673 0 0017.866-4.754 35.974 35.974 0 013.042-2.051c7.458-5.182 13.519-11.671 16.065-20.525a22.964 22.964 0 00-1.217-15.096 29.291 29.291 0 00-10.454-12.324zM417.046 798.322a341.612 341.612 0 0116.966-7.075 126.886 126.886 0 004.754 9.012c-6.647.023-15.862.113-21.72-1.937zM526.952 898.99c-10.162 8.629-22.329 13.338-35.059 16.65a55.6 55.6 0 01-29.515 0 149.599 149.599 0 01-49.883-23.77 87.868 87.868 0 00-40.984-17.236c-4.326-.609-8.697-.856-13.518-1.307 0-3.83-.406-7.706-.316-11.581.361-12.685 3.357-24.964 6.174-37.266a137.481 137.481 0 003.627-20.143c.721-10.138-2.073-19.872-5.272-29.402a340.311 340.311 0 00-1.915-5.678c1.469.433 2.979.713 4.506.833a82.283 82.283 0 0010.567-.766c11.265-1.802 21.968-1.554 34.202-3.807 1.757-.338 12.121-4.506 13.924-2.772a142.674 142.674 0 008.156 23.748c-7.841 2.974-15.546 6.196-23.139 9.733-1.78.834-3.019 2.704-1.285 4.236 6.106 5.317 19.016 5.024 28.367 5.002a48.708 48.708 0 01-18.34 12.031c-2.253.857-3.042 3.538-.564 4.507 5.318 2.253 9.013 1.239 14.555 1.689a6.536 6.536 0 016.039 1.51c5.407.946 5.52 2.328.338 4.146-2.411 2.974-8.292 5.249-11.446 7.255-2.253 1.419-1.307 4.01 1.149 4.258 7.773.766 15.929.969 23.612 2.366 2.254.405 4.664-.744 4.507 1.802 0 .766-10.59 6.376-11.266 6.872a2.25 2.25 0 00.271 4.078c13.203 5.836 20.705-.788 34.066-2.005 4.146-.383 5.903-5.768.744-5.295-9.013.811-16.425 5.385-25.145 3.943 5.588-2.681 12.775-6.286 12.685-10.995a2.094 2.094 0 00-1.6-2.14c-8.133-2.794-18.317-2.929-27.623-3.403a66.049 66.049 0 0014.443-10.026c.383-.383.924-1.419.631-2.028-4.259-8.697-15.434-5.858-24.446-5.88a54.557 54.557 0 0014.442-11.401c20.909 32.67 48.238 48.599 48.058 47.721.406.18 1.262.473 2.073.878 5.272 2.524 10.432 5.272 15.772 7.616 11.265 4.956 17.889 13.811 21.336 25.234 2.344 7.413 3.065 5.678-2.928 10.793z" fill="#000"/><path d="M417.046 798.318c5.858 2.05 15.073 1.96 21.72 1.96a149.015 149.015 0 01-4.754-9.012 327.542 327.542 0 00-16.966 7.052z" fill="#fff"/><path d="M508.681 863.168c-5.339-2.253-10.499-5.092-15.771-7.615-.811-.406-1.668-.699-2.073-.879.18.879-27.15-15.051-48.058-47.72a54.563 54.563 0 01-14.443 11.4c9.013 0 20.278-2.816 24.446 5.881.293.608-.248 1.645-.631 2.028a66.1 66.1 0 01-14.442 10.026c9.305.473 19.489.608 27.623 3.402a2.094 2.094 0 011.6 2.14c0 4.709-7.098 8.314-12.685 10.996 8.719 1.442 16.109-3.132 25.144-3.943 5.16-.474 3.402 4.911-.743 5.294-13.361 1.217-20.864 7.841-34.067 2.006a2.25 2.25 0 01-1.437-1.953 2.254 2.254 0 011.166-2.125c.789-.496 11.266-6.106 11.266-6.872.135-2.546-2.253-1.397-4.506-1.803-7.683-1.397-15.772-1.6-23.613-2.366-2.455-.247-3.402-2.839-1.149-4.258 3.155-2.005 9.013-4.281 11.446-7.255 5.182-1.817 5.07-3.199-.338-4.146a6.532 6.532 0 00-6.038-1.509c-5.543-.451-9.238.518-14.555-1.69-2.478-1.036-1.69-3.717.563-4.506a48.703 48.703 0 0018.34-12.032c-9.35 0-22.26.316-28.366-5.001-1.735-1.533-.496-3.403 1.284-4.236 7.593-3.538 15.299-6.759 23.139-9.734a142.723 142.723 0 01-8.156-23.747c-1.802-1.825-12.166 2.433-13.924 2.771-12.234 2.253-22.869 2.005-34.202 3.808a82.463 82.463 0 01-10.567.766 22.05 22.05 0 01-4.506-.834c.631 1.825 1.284 3.74 1.915 5.678 3.2 9.531 5.993 19.264 5.272 29.403a137.481 137.481 0 01-3.627 20.143c-2.816 12.301-5.813 24.581-6.174 37.266 0 3.875.203 7.75.316 11.58 4.709.451 9.012.699 13.518 1.307a87.878 87.878 0 0140.984 17.236 149.625 149.625 0 0049.748 23.658 55.624 55.624 0 0029.516 0c12.73-3.312 24.896-8.021 35.058-16.651 5.993-5.114 5.249-3.379 3.064-10.634-3.447-11.513-10.071-20.368-21.337-25.28z" fill="#fff"/><path d="M222.355 756.567c-.878 2.41-1.757 4.754-2.568 6.984l-42.043-4.912c.136-1.757.271-3.424.383-5.001l-2.929-.609c0 .203 0 .406-.157.586l1.036.789a11.264 11.264 0 00-5.047 5.813 21.057 21.057 0 00-.879 2.951 18.663 18.663 0 01-2.117 5.7 12.837 12.837 0 00-2.501 6.963 27.278 27.278 0 01-2.501 10.386c-.293.699-8.404 18.814-8.652 19.197-1.442 2.14-2.952 4.235-4.506 6.376-1.555 2.14-2.456 3.898-3.921 5.633a49.72 49.72 0 01-16.222 12.932c-6.489 3.177-13.068 6.219-19.557 9.373a31.814 31.814 0 00-17.19 19.624c-1.398 4.507-2.096 9.013-3.02 13.204l1.42 1.577a3.942 3.942 0 00-1.442.248 66.265 66.265 0 00-4.236 2.861 22.915 22.915 0 00-7.976 9.621 18.022 18.022 0 00-.969 11.918c1.938 7.008 6.76 12.122 12.707 16.245l2.389 1.622c14.081 9.306 29.29-8.494 29.155-10.093.676 0 1.194.112 1.689.112a4.632 4.632 0 001.69-.225c.901-.406 1.622-.27 1.983.608a2.866 2.866 0 010 1.938 18.81 18.81 0 001.825 19.467c.698.968 1.487 1.87 2.253 2.793a45.176 45.176 0 0014.397 10.477 14.888 14.888 0 007.413 1.465 17.06 17.06 0 0015.411-12.775 30.926 30.926 0 00.135-15.051 17.53 17.53 0 00-6.556-11.265c-1.983-1.532-3.921-3.132-5.948-4.754a4.51 4.51 0 002.501-4.98c-.136-1.013.27-1.442 1.306-1.757 3.56-1.059 7.03-2.253 10.567-3.402a2.122 2.122 0 011.668.135 15.367 15.367 0 0018.678.676 49.233 49.233 0 014.371 2.771 4.513 4.513 0 011.509 2.411c.221 2.733.93 5.404 2.096 7.886a40.951 40.951 0 0019.624 16.109c7.683 3.312 16.56-1.149 20.278-9.26a27.936 27.936 0 001.509-16.109 18.221 18.221 0 00-3.65-9.576 26.742 26.742 0 00-10.86-8.359c-2.027-.743-3.965-1.667-5.993-2.523.315-.772.557-1.572.721-2.389a2.076 2.076 0 011.893-2.005 50.789 50.789 0 005.79-1.464 9.963 9.963 0 006.76-5.205 12.535 12.535 0 001.059-7.638 17.448 17.448 0 01-.654-6.038 47.57 47.57 0 000-18.205c-1.69-8.021-3.808-15.952-5.723-23.905-1.329-5.566-2.726-11.266-1.532-16.921 1.51-7.052 3.47-14.014 5.317-20.999.338-1.329.474-2.388-1.284-2.704a5.657 5.657 0 00-2.974-6.421l-1.847-1.149a14.769 14.769 0 00-4.079-1.78v.023zm-54.502 32.624c4.507 2.253 8.72 4.664 13.001 7.165a72.6 72.6 0 01-16.042-.608c1.081-2.231 2.118-4.416 3.041-6.557zm-6.444 13.068a40.566 40.566 0 008.562 8.314c-4.619-.608-9.508-1.667-13.383-.203 1.735-2.658 3.334-5.385 4.821-8.043v-.068zm-8.854 13.902a48.19 48.19 0 009.012 7.841 90.098 90.098 0 00-15.771.135 80.578 80.578 0 006.759-7.976zm-4.506 19.692c-4.349-.226-7.999-2.253-12.054-3.695a53.17 53.17 0 004.506-3.132c1.104 2.591 4.529 4.844 7.548 6.827zm78.002-66.264a17.815 17.815 0 003.65-.653 211.486 211.486 0 00-1.51 4.506c-2.523 7.571-4.754 15.254-4.168 23.252a107.63 107.63 0 002.884 15.952 153.35 153.35 0 014.866 29.448c0 3.064-.157 6.128-.248 9.17-3.717.338-7.187.541-10.611 1.036a69.464 69.464 0 00-32.4 13.519 118.36 118.36 0 01-39.429 18.813 44.417 44.417 0 01-23.364 0c-10.049-2.636-19.67-6.354-27.713-13.18-4.732-4.034-4.146-2.659-2.411-8.404a29.851 29.851 0 0116.875-19.963c4.214-1.847 8.292-4.01 12.46-6.016.631-.315 1.329-.54 1.645-.675a36.035 36.035 0 003.695-1.285c9.418 2.118 14.442 7.075 24.784 3.763 1.419-.473 3.582-2.14 1.757-3.56-1.825-1.419-3.785-2.614-5.43-4.146-2.704-2.523-4.213-1.374-1.419-2.703 4.078-1.915 14.465 0 18.971 0 1.712 0 4.506-2.096 2.546-3.673-2.253-1.892-7.21-4.258-8.472-6.759-1.667-3.357-1.487-3.335 2.771-3.492 4.89-.158 7.796 1.239 12.708 0 1.171-.293 3.853-2.456 1.757-3.538a39.42 39.42 0 01-13.023-10.567c7.255.676 15.772 1.262 20.819-2.546.924-.653 1.622-2.118.361-2.884-5.633-3.402-11.266-6.579-17.214-9.553a2.735 2.735 0 00-1.51-.203 137.544 137.544 0 006.917-20.165c1.42-.112 12.663 2.073 14.082 2.006 9.061-.249 18.123.453 27.037 2.095 2.767.315 5.552.45 8.337.405z" fill="#000"/><path d="M169.974 810.574a40.59 40.59 0 01-8.562-8.314 119.989 119.989 0 01-4.821 8.111c3.875-1.465 8.764-.406 13.383.203zm10.883-14.21c-4.28-2.501-8.584-4.912-13-7.165-.924 2.141-1.96 4.326-3.042 6.557a72.605 72.605 0 0016.042.608zm-19.24 27.641a48.222 48.222 0 01-9.012-7.841 80.328 80.328 0 01-6.759 7.976 90.098 90.098 0 0115.771-.135zm-13.564 11.85c-3.019-1.938-6.444-4.303-7.615-6.759a52.929 52.929 0 01-4.506 3.131c4.123 1.442 7.773 3.403 12.121 3.628z" fill="#fff"/><path d="M217.69 768.976a129.595 129.595 0 00-27.037-2.095c-1.42 0-12.662-2.118-14.082-2.006a137.597 137.597 0 01-6.917 20.166 2.727 2.727 0 011.51.202 267.32 267.32 0 0117.213 9.553c1.262.766.563 2.254-.36 2.884-5.115 3.808-13.519 3.222-20.819 2.546a39.42 39.42 0 0013.023 10.567c2.095 1.082-.586 3.245-1.757 3.538-4.912 1.284-7.819-.113-12.708 0-4.258.157-4.506.135-2.771 3.492 1.262 2.546 6.106 4.912 8.472 6.759 1.982 1.577-.834 3.673-2.546 3.673-4.507 0-14.893-1.825-18.971 0-2.794 1.329-1.285.18 1.419 2.703 1.645 1.533 3.65 2.794 5.43 4.146 1.78 1.352-.338 3.087-1.757 3.56-10.297 3.312-15.321-1.645-24.784-3.763a36.035 36.035 0 01-3.695 1.285c-.316.135-1.014.36-1.645.676-4.169 2.005-8.247 4.168-12.46 6.015a29.858 29.858 0 00-16.875 19.963c-1.735 5.745-2.254 4.371 2.41 8.404 8.044 6.759 17.665 10.544 27.713 13.18a44.42 44.42 0 0023.365 0 118.37 118.37 0 0039.429-18.813 69.465 69.465 0 0132.399-13.519c3.425-.495 6.895-.698 10.612-1.036 0-3.042.316-6.106.248-9.17a153.351 153.351 0 00-4.867-29.448 107.758 107.758 0 01-2.883-15.952c-.586-7.998 1.644-15.771 4.168-23.252.495-1.509 1.014-3.019 1.509-4.506a17.884 17.884 0 01-3.65.654 64.669 64.669 0 01-8.336-.406zM99.74 865.273a6.137 6.137 0 01-1.374-1.284c.338-.226.699-.699.947-.654.248.045.833.496 1.239.766l.473.834c-.451.113-.991.473-1.284.338zm5.228 4.844c.196-.337.414-.661.653-.969.406-.45.834-.878 1.262-1.307 0 .338.293.767.18 1.014-.36.744-.54 1.848-2.095 1.262zm4.934 2.095l1.217-4.258a2.974 2.974 0 01-1.217 4.213v.045zm4.934 3.02a4.843 4.843 0 01-.901 0c.451-1.758.856-3.403 1.33-5.025a5.357 5.357 0 011.013 0c-.473 1.735-.878 3.38-1.442 5.025zm5.16 2.681v-5.903c0-.158.383-.383.608-.406.226-.022.451.225.451.383v5.926h-1.059zm5.182.856l-.676-.113a11.777 11.777 0 01.654-6.421h.585c-.18 2.185-.383 4.439-.563 6.534zm4.506.879a.721.721 0 01-.608.405c-.203 0-.518-.36-.496-.541.18-2.433.428-4.844.654-7.254 0 0 .27-.158.766-.474a19.496 19.496 0 01-.271 7.864h-.045zm3.65.428h-.518c-.969-1.532-.518-7.886 1.059-9.463-.158 3.424-.315 6.444-.451 9.463h-.09zm66.985-48.87c-.293 3.515 2.253 5.701 4.19 8.562-3.492-1.014-6.06-6.421-4.145-8.562h-.045zm6.759 3.853c-1.465-2.253-2.862-4.664-4.236-7.03a11.765 11.765 0 01-.721-1.87l.496-.225c.18 0 .405.18.518.361 1.667 2.726 3.334 5.43 4.934 8.201.147.489.201 1.001.158 1.509a4.867 4.867 0 01-1.059-.946h-.09zm5.858-2.253c-2.456-1.51-6.219-8.472-5.565-10.77l6.151 10.477-.586.293zm.248-13.744c.969 2.253 1.735 4.033 2.591 5.813a27.053 27.053 0 013.041 5.362c-2.591-1.013-6.151-8.021-5.542-11.175h-.09zm9.373 10.815a8.7 8.7 0 01-.879-1.352c-1.33-3.312-2.659-6.646-3.921-9.981-.135-.361.136-.879.226-1.329.27.135.721.202.788.405 1.42 3.808 2.772 7.638 4.124 11.491.112.068.022.248-.248.766h-.09zm4.686-2.726c0 .248-.18.631-.27.946h-.699a460.829 460.829 0 01-4.303-12.572l.676-.271a106.545 106.545 0 014.686 11.852l-.09.045z" fill="#fff"/><path d="M213.276 819.066c-.609 3.155 2.951 10.162 5.632 11.266a27.033 27.033 0 00-3.041-5.363c-.856-1.87-1.622-3.695-2.591-5.903zm4.798-1.839c0 .45-.36.968-.225 1.329a366.434 366.434 0 003.92 9.981c.251.477.545.929.879 1.352.27-.586.36-.698.338-.766-1.352-3.853-2.704-7.683-4.123-11.491-.068-.203-.519-.27-.789-.405zm8.293 10.926h.698c0-.315.361-.698.27-.946a106.455 106.455 0 00-4.506-11.852l-.676.271a946.48 946.48 0 004.214 12.527zm-13.335 4.66l.586-.293-6.151-10.477c-.654 2.298 3.109 9.26 5.565 10.77zm-9.761-6.519c-.113-.18-.338-.248-.518-.36l-.496.225c.187.642.428 1.268.721 1.87 1.374 2.253 2.771 4.709 4.236 7.03.332.372.719.691 1.149.946a4.058 4.058 0 00-.158-1.51c-1.645-2.771-3.312-5.475-4.934-8.201zm1.288 13.477c-1.961-2.862-4.507-5.047-4.191-8.562-1.915 2.14.653 7.548 4.191 8.562zm-71.696 40.289h.563c.18-3.019.338-6.039.541-9.486-1.623 1.6-2.073 7.954-1.104 9.486zm-3.581-7.886c-.225 2.411-.473 4.822-.653 7.255 0 .18.293.518.496.541a.722.722 0 00.608-.406c.639-2.572.746-5.248.315-7.863-.495.473-.743.473-.766.473zm-4.866 6.48l.676.112c.18-2.253.383-4.326.563-6.489h-.586a11.78 11.78 0 00-.653 6.377zm-3.762-7.051c-.225 0-.608.247-.608.405v5.903h1.126v-5.925c-.067-.158-.383-.428-.518-.383zm-5.383-1.39c-.473 1.622-.879 3.267-1.33 5.024.3.029.602.029.902 0 .495-1.644.969-3.289 1.442-4.934a5.393 5.393 0 00-1.014-.09zm-5.364 1.957a2.967 2.967 0 001.644-3.094 2.983 2.983 0 00-.427-1.164l-1.217 4.258zm-4.283-3.017a8.544 8.544 0 00-.653.968c1.554.586 1.735-.518 2.095-1.261.113-.248 0-.676-.18-1.014-.496.428-.856.856-1.262 1.307zm-6.31-5.813c-.247 0-.608.428-.946.653.39.497.853.93 1.375 1.285.292.135.833-.226 1.284-.338l-.473-.834c-.406-.27-.789-.699-1.24-.766z" fill="#fff"/><path d="M297.496 255.361c0-1.33-.113-2.794-.135-4.281v-1.532c0-1.758 0-3.515-.203-5.16 0-.541 0-1.081-.18-1.6a12.898 12.898 0 00-1.352-4.754 4.053 4.053 0 00-4.731-2.005h-.226a250.306 250.306 0 00-5.475 2.118l-1.892.811a77.777 77.777 0 00-5.881 2.794l-1.645.901c-1.44.8-2.839 1.672-4.19 2.614l-1.397.991a39.21 39.21 0 00-3.425 2.907l-1.104 1.104a25.115 25.115 0 00-2.501 3.086l-.563.812-.811 1.216a70.092 70.092 0 00-2.073 3.425c-.248.45-.496.879-.699 1.284l-1.87 3.492c-.248.428-.473.857-.721 1.262-.247.406-.428.699-.653 1.059a74.09 74.09 0 005.7 16.425c-.27.511-.541 1.074-.811 1.69a24.018 24.018 0 01-6.151-16.335l-.112.135c0 .226 0 0 0 0a1.986 1.986 0 00-2.254-1.419 19.06 19.06 0 01-2.117 1.126c-.556.256-1.142.481-1.758.676h-.225a17.395 17.395 0 01-3.898 1.014 1.872 1.872 0 00-.901 1.352c-.07.373-.022.759.135 1.104 0 0 .135.248 0 0h-.293a69.553 69.553 0 006.129 17.033l2.253-1.059 1.937-.788 1.442-.541a51.428 51.428 0 015.43-1.645c-.811 1.87-1.622 3.966-2.253 6.084-4.213 1.757-10.071 4.371-16.763 7.345.541-.789 1.059-1.555 1.51-2.253.27-.428.518-.834.743-1.262.586-1.014 1.104-2.005 1.622-2.974.124-.167.268-.319.429-.451a9.222 9.222 0 011.329-1.014c.342-.228.695-.439 1.059-.631a24.56 24.56 0 01-4.868-8.397 24.559 24.559 0 01-1.238-9.627c-3.425-.947-6.309-2.659-12.009-4.506-.744-.248-1.51-.474-2.253-.699a33.582 33.582 0 00-12.347-.743 67.9 67.9 0 00-11.243 2.275l-2.253.654c-2.005.608-3.965 1.284-5.903 1.96l-.699.248a6.315 6.315 0 00-.946.653 3.899 3.899 0 00-1.397 3.92 23.155 23.155 0 004.844 8.855l.496 1.307.834.315a70.774 70.774 0 014.506 5.926c.386.62.724 1.267 1.014 1.938-.009.089-.009.18 0 .27a23.19 23.19 0 011.059 4.393l.202 1.623c.181 1.757.271 3.514.428 5.227 0 .541 0 1.059.136 1.599a20.512 20.512 0 001.374 5.791c-13.518 5.205-25.437 8.877-30.709 7.75l.36-8.787s-8.089-3.176-7.751-5.97c0 0-8.426 17.912-12.662 20.728-4.236 2.817-11.941 13.023-27.758 14.78 0 0 4.168 6.016 22.26-.698 5.43-2.005 14.015-5.34 23.838-9.012 22.937-8.652 52.722-19.445 65.34-20.886.585 0 1.171-.181 1.735-.271l15.884-9.395c0-.293.135-.564.203-.901a86.437 86.437 0 013.199-10.365 38.161 38.161 0 014.889-10.071c4.506-4.506 9.598.631 9.373 3.492 0 .248 0 .631-.158 1.082-.36 1.735-1.194 4.686-2.05 7.638l6.376-3.785c2.681-2.028 15.119-11.266 23.545-13.902 0 0 7.886-4.957 12.685.473 2.253 2.614-6.557 13.136-6.557 13.136s-12.482 6.984-12.054 9.575l3.335-.586c8.584-2.253 18.025-5.722 20.278-10.837 4.506-9.891 7.165-14.127 4.19-19.016-4.506-7.345-15.771-2.974-15.771-2.974l-7.03 4.123c-.946-1.307-1.892-2.636-2.726-4.033a20.139 20.139 0 01-1.036-1.96 22.56 22.56 0 01-.811-1.848 12.965 12.965 0 01-.496-2.253c0-.247 0-.473-.113-.721-.113-.247.045-1.081 0-1.644z" fill="#272727"/><path d="M260.615 284.123c.27-.616.54-1.179.811-1.69a74.18 74.18 0 01-5.701-16.425 23.55 23.55 0 01-1.261 1.78 24.015 24.015 0 006.151 16.335zm-12.731 5.474l1.375-.743a69.601 69.601 0 01-6.129-17.034c-.473 0-.923-.202-1.351-.338a24.59 24.59 0 001.219 9.676 24.595 24.595 0 004.886 8.439z" fill="#fff"/><path d="M259.938 243.082a3.858 3.858 0 001.413-3.483 3.85 3.85 0 00-2.224-3.029c-4.506 9.666-28.276 9.756-28.276 9.756 8.629 9.283 25.414.992 29.087-3.244zm69.082-93.221a287.282 287.282 0 01-8.629 6.061 37.973 37.973 0 01-2.546 5.836c4.145-2.411 8.066-4.754 11.716-7.075l3.199-2.05c1.712-1.127 3.38-2.253 4.98-3.29 25.55-17.304 36.905-30.709 36.905-30.709.789-4.8-10.95-5.273-10.95-5.273-4.213 10.027-14.33 20.458-26.429 30.169a173.688 173.688 0 01-5.047 3.943 97.488 97.488 0 01-3.199 2.388zm-49.008 30.934l-2.253.225c-5.768 2.997-9.351 4.687-9.351 4.687a585.268 585.268 0 0011.604-4.912z" fill="#272727"/><path d="M286.844 165.874c-1.149-2.546 2.613-4.777 3.785-2.253a28.95 28.95 0 012.366 9.012 417.45 417.45 0 0019.827-11.874 41.37 41.37 0 005.362-18.588c.676-14.374 1.825-22.17-7.367-24.468 0 0-3.605-.451-8.832-.721a105.808 105.808 0 00-23.725 1.172c-16.2 3.131-30.395 8.223-33.436 12.887-3.042 4.664-6.602 10.387-1.33 24.176 4.394 10.86 8.652 18.813 16.2 20.886a44.02 44.02 0 008.584 1.104c6.3.312 12.614-.051 18.836-1.082l1.848-1.013a24.137 24.137 0 00-2.118-9.238zm-21.359-23.184a6.761 6.761 0 01-4.78-11.539 6.763 6.763 0 017.366-1.465 6.761 6.761 0 014.173 6.244 6.76 6.76 0 01-6.759 6.76z" fill="#fff"/><path opacity=".5" d="M286.844 165.874c-1.149-2.546 2.613-4.777 3.785-2.253a28.95 28.95 0 012.366 9.012 417.45 417.45 0 0019.827-11.874 41.37 41.37 0 005.362-18.588c.676-14.374 1.825-22.17-7.367-24.468 0 0-3.605-.451-8.832-.721a105.808 105.808 0 00-23.725 1.172c-16.2 3.131-30.395 8.223-33.436 12.887-3.042 4.664-6.602 10.387-1.33 24.176 4.394 10.86 8.652 18.813 16.2 20.886a44.02 44.02 0 008.584 1.104c6.3.312 12.614-.051 18.836-1.082l1.848-1.013a24.137 24.137 0 00-2.118-9.238zm-21.359-23.184a6.761 6.761 0 01-4.78-11.539 6.763 6.763 0 017.366-1.465 6.761 6.761 0 014.173 6.244 6.76 6.76 0 01-6.759 6.76z" fill="#A2A2A2"/><path d="M307.932 167.361l.203-.203a356.3 356.3 0 01-14.736 7.48 35.371 35.371 0 0014.533-7.277z" fill="#fff"/><path opacity=".5" d="M307.932 167.361l.203-.203a356.3 356.3 0 01-14.736 7.48 35.371 35.371 0 0014.533-7.277z" fill="#A2A2A2"/><path d="M265.482 142.692a6.737 6.737 0 100-13.475 6.737 6.737 0 000 13.475z" fill="#272727"/><path opacity=".5" d="M265.482 142.692a6.737 6.737 0 100-13.475 6.737 6.737 0 000 13.475z" fill="#000"/><path d="M293.399 174.634a358.115 358.115 0 0014.735-7.481 28.56 28.56 0 004.687-6.286c-6.917 4.506-13.699 8.427-19.828 11.874a28.922 28.922 0 00-2.365-9.012c-1.172-2.569-4.935-.338-3.785 2.253a24.14 24.14 0 012.072 9.147l-1.847 1.014a59.997 59.997 0 006.331-1.509z" fill="#272727"/><path opacity=".5" d="M293.399 174.634a358.115 358.115 0 0014.735-7.481 28.56 28.56 0 004.687-6.286c-6.917 4.506-13.699 8.427-19.828 11.874a28.922 28.922 0 00-2.365-9.012c-1.172-2.569-4.935-.338-3.785 2.253a24.14 24.14 0 012.072 9.147l-1.847 1.014a59.997 59.997 0 006.331-1.509z" fill="#A2A2A2"/><path d="M195.859 136.014a115.567 115.567 0 00-24.942 2.253c-14.33 2.636-32.016 11.739-32.016 11.739-8.832 5.7-6.962 12.91-4.957 26.766 2.005 13.857 9.733 19.715 12.369 21.021a21.69 21.69 0 008.472 1.961c14.239.721 33.796-7.526 39.767-11.514 7.232-4.866 10.68-14.262 13.969-26.586 3.898-15.524-.135-19.805-3.56-23.274-1.397-1.352-4.641-2.141-9.102-2.366zm-14.871 32.917a6.757 6.757 0 01-6.629-8.077 6.76 6.76 0 116.629 8.077z" fill="#fff"/><path opacity=".5" d="M195.859 136.014a115.567 115.567 0 00-24.942 2.253c-14.33 2.636-32.016 11.739-32.016 11.739-8.832 5.7-6.962 12.91-4.957 26.766 2.005 13.857 9.733 19.715 12.369 21.021a21.69 21.69 0 008.472 1.961c14.239.721 33.796-7.526 39.767-11.514 7.232-4.866 10.68-14.262 13.969-26.586 3.898-15.524-.135-19.805-3.56-23.274-1.397-1.352-4.641-2.141-9.102-2.366zm-14.871 32.917a6.757 6.757 0 01-6.629-8.077 6.76 6.76 0 116.629 8.077z" fill="#A2A2A2"/><path d="M182.062 168.697a6.736 6.736 0 005.575-7.725 6.737 6.737 0 10-5.575 7.725z" fill="#272727"/><path opacity=".5" d="M182.062 168.697a6.736 6.736 0 005.575-7.725 6.737 6.737 0 10-5.575 7.725z" fill="#000"/><path d="M317.841 161.767a37.823 37.823 0 002.546-5.835 85.623 85.623 0 003.402-31.814c0-.653-.157-1.284-.247-1.847 0 0-1.533-10.77-7.165-14.15a6.772 6.772 0 00-3.56-1.014c-8.63 0-41.434 6.602-54.074 10.049-12.64 3.447-15.028 4.754-16.921 6.512-1.893 1.757-2.659 4.078-6.219 5.249-3.176 1.059-9.688 2.839-10.972 3.2-1.284.36-7.863.811-11.085.969h-.834c-2.906-.158-3.898-1.893-5.745-2.839a9.134 9.134 0 00-3.876-.879c-4.467-.015-8.93.263-13.36.834-12.64 1.284-40.961 7.164-53.939 10.274a95.36 95.36 0 00-22.148 8.291l-11.266 1.6-11.806 1.689 1.532 13.789 6.76-.653 16.267-1.622c1.247.254 2.513.404 3.785.45h.451c2.613.136 9.125 18.25 13.518 27.263 4.394 9.012 10.59 11.648 20.03 12.549a100.387 100.387 0 0041.953-10.837c5.34-2.974 8.877-9.012 12.257-15.772 3.379-6.759 9.35-23.657 11.265-28.05a12.259 12.259 0 016.759-5.656h.654a8.109 8.109 0 016.759 3.155c2.253 3.559 9.756 18.024 13.699 23.297 3.943 5.272 7.976 9.936 13.518 10.859 1.194.181 2.997.383 5.25.496 4.267.19 8.543.092 12.797-.293l2.253-.225c2.749-.293 5.656-.744 8.675-1.329 1.419-.293 2.839-.631 4.303-.992a90.502 90.502 0 008.9-2.703c7.21-3.515 12.302-7.368 15.884-14.015zm-109.32 0c-3.289 12.325-6.759 21.72-13.969 26.587-5.903 3.988-25.527 12.234-39.767 11.513a21.662 21.662 0 01-8.471-1.96c-2.637-1.307-10.365-7.142-12.37-21.021-2.005-13.879-3.875-21.067 4.957-26.767 0 0 17.687-9.012 32.016-11.739a115.567 115.567 0 0124.942-2.253c4.506.225 7.706 1.014 9.012 2.411 3.515 3.357 7.548 7.638 3.65 23.162v.067zm59.707 15.411a44.01 44.01 0 01-8.629-1.216c-7.548-2.073-11.806-10.026-16.2-20.886-5.272-13.789-1.712-19.535 1.33-24.176 3.041-4.641 17.236-9.756 33.435-12.888a105.872 105.872 0 0123.725-1.171c5.228.27 8.832.721 8.832.721 9.193 2.253 8.044 10.094 7.368 24.468a41.37 41.37 0 01-5.317 18.791 28.56 28.56 0 01-4.687 6.286l-.202.203a35.377 35.377 0 01-14.533 7.277 59.517 59.517 0 01-6.331 1.397 88.443 88.443 0 01-18.791 1.127v.067z" fill="#38D430"/><path d="M103.599 227.482c2.658.473 5.52.946 8.516 1.351a188.776 188.776 0 0052.024.248 2.242 2.242 0 001.217 1.262c22.148 9.44 48.982 13.338 65.903-6.759a10.945 10.945 0 0011.603 3.852c11.603-2.253 15.028-14.104 15.028-14.104.26-.893.306-1.834.135-2.749 13.519 1.623 25.483-7.345 31.341-19.309a325.906 325.906 0 0040.758-10.454l4.686-1.577 5.25-1.848c16.876-6.151 30.755-13.067 36.32-18.971 13.316-14.171-1.172-9.012-1.172-9.012-7.705 8.404-20.863 15.772-35.396 22.148-1.69.721-3.402 1.442-5.137 2.14-1.735.699-2.816 1.149-4.236 1.69a411.344 411.344 0 01-39.699 12.843 35.747 35.747 0 002.253-9.643c-1.464.36-2.884.698-4.303.991a31.715 31.715 0 01-3.222 10.071c-11.468 2.974-19.219 4.506-19.219 4.506a165.833 165.833 0 0017.754-1.982c-6.263 10.003-17.686 16.695-29.402 13.203a24.78 24.78 0 00-8.9-4.056 10.834 10.834 0 01-3.763-1.194c-1.555-1.757-4.754-4.168-1.442-8.134 2.929-3.469 5.543-9.913 3.132-14.825-1.893-3.92-14.104-.834-20.819 1.307-6.714 2.14-5.812 3.154-5.88 4.912l1.374 2.793c0 1.848 5.543 6.76 7.3 7.233 3.628 1.217 6.76 1.667 8.585 8.854 1.126 4.281-9.914 8.697-5.881 16.899l-.203.225c-13.811 18.025-36.725 15.456-55.674 8.314a141.589 141.589 0 0055.449-23.365c-5.295 3.47-43.868 26.88-117.161 21.089-2.636-.203-5.317-.45-8.066-.743a427.328 427.328 0 01-7.525-.856 364.963 364.963 0 01-15.771-2.389 145.454 145.454 0 0016.402 4.506 415.79 415.79 0 007.841 1.533zm124.28-23.195l.631-.451-.631.451z" fill="#272727"/><path d="M95.867 199.357c1.735.541 3.83 1.172 6.264 1.847 21.697 6.106 69.845 16.088 113.758.969 0 0-55.809 16.087-103.304-3.357-4.506-1.87-8.539-3.312-11.986-4.506-2.254-.744-4.236-1.329-6.039-1.78a43.38 43.38 0 00-7.007-1.262c-5.294-.36-6.33 1.555-4.506 4.033a16.954 16.954 0 005.61 1.915c1.825.451 3.493.812 4.033 1.014l3.177 1.127z" fill="#272727"/><path d="M98.935 165.174l-6.76.653-1.532-13.789 11.806-1.689c2.501-7.12 5.791-14.037 8.878-21.315 6.015-14.126 13.811-28.726 24.558-39.226a116.463 116.463 0 0152.767-30.89l27.308-3.176c28.209 0 53.285 4.258 74.712 24.783 8.742 8.314 18.701 17.191 25.618 27.668 5.632 3.38 7.165 14.15 7.165 14.15 0 .563.18 1.194.248 1.847a154.166 154.166 0 015.227 25.753c1.059-.766 2.253-1.555 3.199-2.253a61.765 61.765 0 01-.383-9.643c.856-13.046-9.756-30.98-13.834-37.334.18-.924.383-1.87.586-2.839C332.535 29.2 288.892 6.557 288.892 6.557s-38.933 46.796-56.011 44.813h-.474C229.276 39.498 214 28.84 201.18 22.915c-.316 3.267 3.402 10.206 4.123 13.383-5.858-2.68-15.366-8.81-21.517-11.04-1.217-.45-2.952-.788-3.785.135a1.976 1.976 0 00-.361 1.578c.293 2.77 2.005 10.341 4.101 12.482-6.917-1.375-14.262-7.66-21.179-9.013a2.027 2.027 0 00-.901 0c-.237.079-.453.21-.631.383a4.752 4.752 0 00-1.172 4.912 14.476 14.476 0 002.794 4.506l7.03 8.742a108.265 108.265 0 007.502 8.63c-7.683 1.396-12.91 2.478-12.91 2.478-6.894-10.161-62.072-33.796-68.471-30.755-6.399 3.042-5.182 113.353-5.182 113.353a246.444 246.444 0 003.943 49.816 81.848 81.848 0 016.038 1.78 119.637 119.637 0 01-2.096-22.824c.03-2.102.172-4.2.429-6.286zm26.338-78.993c-5.272 5.632-16.447 18.565-16.447 26.857l-4.507 8.268s-7.705-66.083-2.906-84.716c1.036-4.033 21.359 20.48 25.956 42.539a7.956 7.956 0 01-2.096 7.052zm187.006 6.624c-3.379-7.593-14.532-20.593-21.607-23.613a7.951 7.951 0 01-4.686-5.632c-4.732-22.035 3.154-51.821 6.511-49.41 22.171 16.244 22.171 81.516 22.171 81.516l-2.389-2.861z" fill="url(#paint0_linear_1079)"/><path d="M101.205 730.053v-.383c0 2.704-.113 5.317-.361 7.841 0 1.261-.27 2.523-.45 3.74-4.281 27.983-24.784 42.944-43.688 23.004-26.406-27.736-22.733 20.165-22.733 20.278 0 0 2.884 11.4 16.65 18.362 0-14.217 8.72-27.037 13.203-32.805a23.684 23.684 0 005.43 2.479c1.42 8.697.586 25.64 0 35.306H68.04c3.241.329 6.5.457 9.756.383a49.577 49.577 0 0011.626-1.893c-1.262-7.908-4.641-25.505-10.522-33.391 6.039-1.487 11.4-6.128 15.366-13.045 5.273 4.506 18.025 16.019 19.309 24.784a95.248 95.248 0 006.76-12.572 67.219 67.219 0 002.523-9.418s.608-3.064 1.262-7.954c0 .338 0 .631-.135.947-3.042-9.283-9.982-24.244-22.779-25.663z" fill="url(#paint1_linear_1079)"/><path d="M154.043 611.58l15.772-11.445-54.232 39.294a38.938 38.938 0 00-11.13 8.877c-1.622 17.709 8.629 31.723 15.005 38.618 2.636-9.013 9.689-17.259 15.524-22.982-5.43-5.227-16.109-16.56-17.416-25.955l14.848-10.748c.901 9.937 9.71 20.436 14.915 25.843v.113a120.99 120.99 0 0115.479-11.401l-.18.113a41.546 41.546 0 01-8.585-30.327z" fill="url(#paint2_linear_1079)"/><path d="M96.185 700.939c-.158-.586-.338-1.172-.496-1.735.384 1.465.812 2.929 1.285 4.506a88.26 88.26 0 014.258 25.933 83.765 83.765 0 00-1.104-12.707s0-.113.158-.113c5.43-1.262 16.177-2.456 24.784 4.506a69.5 69.5 0 00-2.253-12.549 42.306 42.306 0 00-2.411-6.399 18.348 18.348 0 01-1.555-4.754.307.307 0 000 .135c-6.579.676-16.2 3.042-22.666 3.177z" fill="url(#paint3_linear_1079)"/><path d="M342.579 551.51s14.803-202.62 4.506-219.676c0 0 5.655-28.096 27.623-38.415 0 0 41.232-34.766 50.199-42.809 8.494-7.683 36.815-59.144 39.677-64.371 12.279-5.835 27.6-21.81 22.057-32.895 6.129-4.641 18.769-13.361 14.375-22.734-2.974-6.353-9.418-5.204-15.321-2.929 3.92-3.74 8.044-6.759 9.305-12.842 1.397-6.647-1.847-9.012-8.268-9.441a26.436 26.436 0 00-9.013 1.127 191.257 191.257 0 006.76-11.04c2.388-4.506 7.3-15.344 0-17.574-9.013-2.772-19.287 7.615-24.784 13.068a83.036 83.036 0 00-11.041 13.361c0-6.354-1.307-11.762-9.463-13.384a9.98 9.98 0 00-11.581 4.957c-2.253 4.731-2.433 11.716-3.402 16.898-1.261 6.557-2.658 13.113-3.447 19.76-1.442 11.986.721 22.891 4.146 34.202-6.534 13.113-28.096 51.438-63.087 65.136-.293-.653-.473-1.014-.473-1.014-36.928 5.543-37.131-6.534-37.131-6.534a91.133 91.133 0 0010.68-45.061l-4.686 1.577a120.274 120.274 0 01-8.81 37.063c-5.835 13.834-13.316 29.133-23.545 39.857.099.764.265 1.518.496 2.253.248.631.518 1.262.811 1.848.31.672.656 1.326 1.037 1.96.833 1.397 1.779 2.726 2.726 4.033l7.029-4.123s11.423-4.371 15.772 2.974c2.974 4.889.36 9.012-4.191 19.016-2.253 5.115-11.783 8.629-20.278 10.837 3.11-.495 6.196-.923 8.72-1.104 9.328-.676 4.303 14.983 0 19.107a13.207 13.207 0 01-7.007 2.253c10.882 0 10.792 7.525-11.851 27.668-1.623 1.419-6.061 2.253-11.626 2.613 16.785 19.715 30.642 61.104 36.432 113.398 9.869 89.38-.135 132.594-31.543 136.064-28.75 3.177-69.958-51.393-77.979-123.92-5.408-48.914-.181-88.208 13.518-112.226l-17.304 9.936a494.439 494.439 0 01-50.672 24.964c5.115 6.241 18.453 28.231 31.048 96.883 7.345 39.992 12.933 64.573 15.772 82.756a141.062 141.062 0 01-5.115 5.25c-1.082 1.059-2.253 2.095-3.244 3.086l-1.623 1.51c-4.866 4.506-9.598 8.269-13.135 11.017-.856.676-1.622 1.285-2.253 1.803-1.42 19.669 6.489 30.912 10.747 35.441a34.217 34.217 0 014.574-.473c.601 0 1.196.12 1.751.353a4.524 4.524 0 011.476 1.006 4.514 4.514 0 011.279 3.26l-.406 1.757c-.743 1.893-1.464 3.808-2.253 5.723l1.194-1.555c-6.759 31.251-10.95 76.605-12.414 94.224-.293 3.56-.496 5.994-.563 6.917-.136 1.532-.406 5.047-.721 9.463-.113 1.577-.248 3.245-.383 5.002l42.042 4.912c.811-2.253 1.69-4.506 2.569-6.985 1.352-3.665 2.786-7.495 4.303-11.49 13.271-35.149 31.543-79.85 40.556-85.1 14.983-8.787 8.516-7.66 33.571-6.195 20.277 1.171 52.97 43.98 64.303 91.745a159.446 159.446 0 011.892 9.013c.496 2.733.902 5.46 1.217 8.178l52.812-7.165-1.825-4.754-5.046-13.158-71.491-186.262zm86.18-432.593c.676-3.537 1.352-7.052 2.006-10.59.518-2.658.45-8.246 2.005-10.589 4.348-6.444 7.953-1.893 9.508 2.591 1.329 3.853 0 10.747 0 15.006l-.541 1.126c-1.464 3.154 4.507 3.312 5.746.789a81.107 81.107 0 0111.265-18.025c3.538-4.258 14.465-17.642 20.548-15.028 3.583 0 4.169 1.735 1.78 5.385a31.271 31.271 0 01-2.253 5.002 98.877 98.877 0 01-6.939 10.003c-1.578 2.253-3.042 4.507-4.507 6.76-4.754 3.176-8.471 7.435-9.305 12.301a1.11 1.11 0 00.428 1.15c-1.644 2.838 3.605 3.807 5.25 1.577 3.335-4.506 6.759-9.283 10.229-14.105 6.534-3.988 14.104-5.565 15.411 1.127 1.397 7.21-8.697 12.662-12.459 17.416a.969.969 0 00-.293.879c-3.02 1.487.27 3.492 2.929 2.456 2.658-1.037 4.934-2.433 7.457-3.538 4.799-2.072 9.418.406 8.787 5.881-.63 5.475-6.759 10.319-11.265 13.744-1.803-1.69-7.367.631-5.452 2.591 8.178 8.291-5.182 24.671-15.772 29.943-1.847.586-3.83 1.262-5.836 1.735l-.383.113a13.522 13.522 0 01-7.525 0c-3.064-1.059-5.723-5.295-7.57-7.706-4.169-5.384-11.378-11.963-11.468-19.128 0-.654-.699-.924-1.623-.947a94.367 94.367 0 01-.158-37.896v-.023z" fill="url(#paint4_linear_1079)"/><path d="M302.524 316.728h-2.546c.856-6.466 10.116-19.241 1.171-18.791-2.005.113-2.996-.18-3.267-.698l3.267-.811-3.334.586c-.428-2.591 12.054-9.576 12.054-9.576s8.854-10.522 6.556-13.135c-4.799-5.43-12.685-.474-12.685-.474-8.426 2.682-20.863 11.874-23.544 13.902l-6.377 3.785c.856-2.951 1.69-5.903 2.051-7.638 0-.45.135-.833.157-1.081.226-2.862-4.979-7.909-9.373-3.493a38.168 38.168 0 00-4.889 10.072 86.422 86.422 0 00-3.199 10.364c0 .338-.135.608-.203.901l-15.884 9.396c-.563 0-1.149.202-1.735.27-12.707 1.442-42.493 12.234-65.34 20.886-9.823 3.718-18.407 7.052-23.837 9.012-18.025 6.76-22.261.699-22.261.699 15.772-1.758 23.545-11.964 27.758-14.78 4.214-2.817 12.663-20.729 12.663-20.729-.338 2.794 7.75 5.971 7.75 5.971l-.36 8.787c5.272 1.126 17.258-2.546 30.709-7.751a20.505 20.505 0 01-1.374-5.79c0-.541 0-1.059-.135-1.6-.158-1.712-.248-3.47-.428-5.227l-.203-1.622a23.125 23.125 0 00-1.059-4.394 1.353 1.353 0 010-.27 14.634 14.634 0 00-1.014-1.938 70.596 70.596 0 00-4.506-5.925l-.834-.316a80.383 80.383 0 01-28.344-5.204c-13.788-5.791-30.664-13.879-41.366-24.672-7.683-7.728-12.212-16.83-16.313-26.631a207.827 207.827 0 01-8.516-1.352 184.76 184.76 0 0018.993 39.587l1.082 1.712s12.347 21.81-3.087 43.485c-15.434 21.674-32.354 40.397-29.989 50.739C93.1 373.326 106.257 395 128.36 396.555a63.09 63.09 0 0020.436-3.334l.54-.429.428.136c3.786.698 90.124-53.016 98.46-53.016 8.337 0 33.797 4.507 41.367 0 7.57-4.506 17.349-17.01 11.558-19.894-1.059-.541-1.352-1.622-1.216-3.042.901 0 1.757-.135 2.613-.225l-.022-.023z" fill="url(#paint5_linear_1079)"/><path d="M101.322 36.593c-4.799 18.633 2.907 84.716 2.907 84.716l4.506-8.269c0-8.291 11.265-21.224 16.447-26.856a7.948 7.948 0 002.006-7.052c-4.507-22.058-24.829-46.572-25.866-42.539zm191.195-22.435c-3.357-2.456-11.265 27.375-6.511 49.41a7.945 7.945 0 004.686 5.633c7.075 3.02 18.228 16.02 21.607 23.612l2.389 2.862s0-65.272-22.171-81.517z" fill="#fff"/><path d="M151.927 395.173a494.439 494.439 0 0050.672-24.964l17.304-9.936 23.927-13.834a314.326 314.326 0 0035.464.563c5.565-.405 10.004-1.194 11.626-2.613 22.531-20.143 22.734-27.668 11.851-27.668h-.315c-.856 0-1.713.18-2.614.225-.135 1.419.158 2.501 1.217 3.042 5.79 2.884-4.011 15.411-11.558 19.894-7.548 4.484-33.098 0-41.367 0-8.269 0-94.63 53.714-98.46 53.016l-.428-.136-.541.428a18.263 18.263 0 00-4.506 4.214.692.692 0 000 .54l.924-.315c2.275-.721 4.506-1.555 6.804-2.456zm157.936-80.751c4.304-4.123 9.328-19.782 0-19.106-2.523.18-5.61.608-8.719 1.104l-3.267.811c.27.519 1.262.811 3.267.699 9.012-.451-.316 12.324-1.172 18.79h2.884a13.202 13.202 0 007.007-2.298z" fill="#272727"/><path d="M430.381 157.669c0 7.165 7.3 13.744 11.468 19.129 1.848 2.411 4.506 6.647 7.571 7.706 2.457.712 5.067.712 7.525 0l.383-.113c2.005-.473 3.988-1.149 5.835-1.735 10.545-5.272 23.906-21.652 15.772-29.943-1.915-1.961 3.65-4.281 5.452-2.592 4.507-3.424 10.748-8.133 11.266-13.743.518-5.611-3.988-7.954-8.787-5.881-2.524 1.104-4.867 2.524-7.458 3.537-2.591 1.014-5.948-.968-2.929-2.455a.976.976 0 01.293-.879c3.763-4.754 13.857-10.207 12.46-17.416-1.307-6.76-8.878-5.115-15.412-1.127-3.379 4.822-6.894 9.531-10.228 14.104-1.645 2.253-6.895 1.262-5.25-1.577a1.102 1.102 0 01-.428-1.149c.833-4.867 4.506-9.012 9.305-12.302 1.442-2.253 2.906-4.506 4.506-6.759a98.891 98.891 0 006.94-10.004 31.271 31.271 0 002.253-5.002c2.388-3.65 1.802-5.43-1.78-5.385-6.084-2.613-17.011 10.77-20.549 15.029a81.135 81.135 0 00-11.265 18.024c-1.172 2.524-7.21 2.253-5.745-.788l.541-1.127c0-4.258 1.374-11.153 0-15.005-1.555-4.507-5.16-9.013-9.508-2.591-1.555 2.253-1.487 7.93-2.006 10.589-.653 3.537-1.329 7.052-2.005 10.59a94.374 94.374 0 000 37.784c1.081.158 1.78.428 1.78 1.081zm12.595-18.024c6.218-1.645 14.262-5.318 17.732 0 3.469 5.317 7.119 8.021 6.218 10.589-.901 2.569-2.569 10.973-7.12 10.973s-17.551 2.906-18.655-1.465c-1.104-4.371-4.371-4.934-1.645-7.683 2.726-2.749 4.754-2.546 4.754-2.546h.744s4.506 0 4.123 2.546c0 0-4.687-1.554-5.385 0-.699 1.555.563 4.506.563 4.506s7.796 3.966 12.888 0c5.092-3.965 7.705-9.35 1.712-12.414a13.515 13.515 0 00-14.825 1.802 8.142 8.142 0 01-6.039 2.456s-1.261-7.097 4.935-8.742v-.022z" fill="#fff"/><path d="M438.046 148.432a8.13 8.13 0 006.039-2.456 13.515 13.515 0 0114.825-1.803c5.993 3.065 3.605 8.292-1.713 12.415-5.317 4.123-12.887 0-12.887 0s-1.284-2.839-.563-4.506c.721-1.668 5.385 0 5.385 0 .27-2.546-4.124-2.546-4.124-2.546h-.743s-2.005-.203-4.754 2.546c-2.749 2.749.563 3.289 1.644 7.683 1.082 4.393 14.082 1.464 18.656 1.464 4.574 0 6.196-8.404 7.12-10.972.924-2.569-2.749-5.295-6.219-10.59-3.469-5.294-11.513-1.644-17.731 0-6.219 1.645-4.935 8.765-4.935 8.765z" fill="#272727"/><path d="M96.435 412.765l-22.103 53.848c-.969 2.253 5.565 4.169 6.624 1.6l22.103-53.781c1.081-2.411-5.565-4.146-6.624-1.667zm-83.66 13.855c6.061-6.917 12.257-13.676 18.701-20.278 3.38-3.44 6.827-6.827 10.342-10.161 2.05-1.961 6.759-8.247 9.756-8.72 2.996-.473 5.16-5.678 1.036-5.047-7.75 1.194-13.947 10.049-19.332 15.321-8.764 8.539-17.123 17.462-25.19 26.677-2.748 3.199 2.57 4.619 4.687 2.208zm54.975-18.338A1700.783 1700.783 0 01.496 514.831c-2.254 3.47 3.807 4.506 5.542 1.96a1701.269 1701.269 0 0068.043-107.788c1.848-3.222-4.866-3.222-6.33-.721zM485.836 49.046l44.837-36.996c3.154-2.613-1.938-6.76-4.506-4.506a10272.286 10272.286 0 00-44.859 36.996c-3.155 2.523 1.847 6.714 4.528 4.506zm79.506 27.538a488.097 488.097 0 01-26.023 9.012c-4.191 1.307-22.531 9.013-27.443 7.323-4.078-1.442-2.253 2.073.36 2.997 7.278 2.546 16.696-2.254 23.703-4.304 11.671-3.424 23.162-7.3 34.562-11.58 1.397-.519-3.312-4.124-5.159-3.448zM614.438.225a1667.928 1667.928 0 00-110.672 62.861c-2.073 1.285 3.627 4.687 5.7 3.403a1700.488 1700.488 0 01109.725-62.32c2.884-1.69-2.726-5.07-4.753-3.944z" fill="#20221D"/><defs><linearGradient id="paint0_linear_1079" x1="211.329" y1="6.557" x2="211.329" y2="194.284" gradientUnits="userSpaceOnUse"><stop stop-color="#FF9B26"/><stop offset=".571" stop-color="#FF7A26"/><stop offset="1" stop-color="#ED4B02"/></linearGradient><linearGradient id="paint1_linear_1079" x1="78.959" y1="729.67" x2="78.959" y2="808.278" gradientUnits="userSpaceOnUse"><stop stop-color="#FF9B26"/><stop offset=".571" stop-color="#FF7A26"/><stop offset="1" stop-color="#ED4B02"/></linearGradient><linearGradient id="paint2_linear_1079" x1="137.048" y1="600.135" x2="137.048" y2="686.924" gradientUnits="userSpaceOnUse"><stop stop-color="#FF9B26"/><stop offset=".571" stop-color="#FF7A26"/><stop offset="1" stop-color="#ED4B02"/></linearGradient><linearGradient id="paint3_linear_1079" x1="110.38" y1="697.627" x2="110.38" y2="729.643" gradientUnits="userSpaceOnUse"><stop stop-color="#FF9B26"/><stop offset=".571" stop-color="#FF7A26"/><stop offset="1" stop-color="#ED4B02"/></linearGradient><linearGradient id="paint4_linear_1079" x1="326.935" y1="77.449" x2="326.935" y2="763.683" gradientUnits="userSpaceOnUse"><stop stop-color="#FF9B26"/><stop offset=".571" stop-color="#FF7A26"/><stop offset="1" stop-color="#ED4B02"/></linearGradient><linearGradient id="paint5_linear_1079" x1="203.658" y1="227.461" x2="203.658" y2="396.555" gradientUnits="userSpaceOnUse"><stop stop-color="#FF9B26"/><stop offset=".571" stop-color="#FF7A26"/><stop offset="1" stop-color="#ED4B02"/></linearGradient></defs></svg>