<svg width="123" height="123" fill="none" xmlns="http://www.w3.org/2000/svg"><path d="M5.766 53.813v26.906c0 8.49 24.953 15.375 55.734 15.375 30.78 0 55.734-6.884 55.734-15.375V53.813L61.5 42.28 5.766 53.813z" fill="#FCBC04"/><path d="M34.594 82.64V55.735L5.766 53.812V80.72c0 8.49 24.953 15.375 55.734 15.375.592 0 1.178 0 1.766-.012-17.099-2.627-28.672-7.66-28.672-13.441z" fill="#E59730"/><path d="M61.5 51.89l44.203 11.284c7.228-2.593 11.531-5.837 11.531-9.361 0-8.491-24.953-15.376-55.734-15.376-30.78 0-55.734 6.885-55.734 15.376 0 8.49 24.953 15.374 55.734 15.374 5.381 0 10.57-.215 15.498-.607L61.5 51.89z" fill="#F9E109"/><path d="M104.579 62.89l-43.079-11 15.498 16.69h-.123v26.906a116.393 116.393 0 0028.828-5.408V63.422l-1.124-.532z" fill="#E59730"/><path d="M80.719 73.031a3.844 3.844 0 100-7.687 3.844 3.844 0 000 7.687zm13.453 11.532a3.844 3.844 0 100-7.688 3.844 3.844 0 000 7.688z" fill="#B27525"/><path d="M61.44 88.072a5.698 5.698 0 01-1.862.334 5.75 5.75 0 01-2.523-10.926l-4.057-9.801a3.844 3.844 0 11-3.03-6.179c.164.006.326.023.487.05l-2.408-5.816H36.516v27.839l-10.213 24.655a30.653 30.653 0 0010.213 6.769v2.237h11.53a30.639 30.639 0 0021.744-9.006l-8.35-20.156z" fill="#F9E109"/><path d="M26.305 108.23a30.598 30.598 0 0010.21 6.769v2.237h11.532a30.635 30.635 0 0021.742-9.006H26.305z" fill="#E59730"/><path d="M36.516 55.734l-9.744 23.524a3.83 3.83 0 01-1.788 7.226 3.783 3.783 0 01-1.128-.192l-9.085 21.936a30.754 30.754 0 0021.745 9.008 30.758 30.758 0 0021.744-9.008L36.516 55.734z" fill="#FCBC04"/><path d="M42.281 109.547a3.844 3.844 0 100-7.688 3.844 3.844 0 000 7.688zm-15.375-1.922a3.844 3.844 0 100-7.688 3.844 3.844 0 000 7.688zm11.532-13.453a3.844 3.844 0 100-7.688 3.844 3.844 0 000 7.688zm-1.922-15.375a1.922 1.922 0 100-3.844 1.922 1.922 0 000 3.844zm21.14 19.219a1.922 1.922 0 100-3.844 1.922 1.922 0 000 3.844z" fill="#E59730"/><path d="M94.172 71.11a1.922 1.922 0 100-3.844 1.922 1.922 0 000 3.843zm-9.609 17.296a1.922 1.922 0 100-3.844 1.922 1.922 0 000 3.844z" fill="#B27525"/></svg>