<svg width="79" height="79" fill="none" xmlns="http://www.w3.org/2000/svg"><g clip-path="url(#clip0_1047:1943)"><path d="M72.056 48.252h2.314V22.326H25.848v2.315c0 .995-.81 1.805-1.805 1.805-.995 0-1.805-.81-1.805-1.805v-2.315H4.628V69.67H74.37V51.862h-2.314c-.995 0-1.805-.81-1.805-1.805 0-.996.81-1.805 1.805-1.805z" fill="#FFF79F"/><path d="M72.056 48.252h2.315V22.326H39.5V69.67h34.87V51.862h-2.314c-.995 0-1.805-.81-1.805-1.805 0-.996.81-1.805 1.805-1.805zM20.805 58.74a6.79 6.79 0 100-13.58 6.79 6.79 0 000 13.58z" fill="#FFDA44"/><path d="M52.703 47.467a8.404 8.404 0 100-16.809 8.404 8.404 0 000 16.809zM30.242 34.88h4.63v4.63h-4.63v-4.63zm6.943 18.438h4.63v4.63h-4.63v-4.63zm20.034 2.625h4.629v4.63h-4.63v-4.63z" fill="#FFDA44"/><path d="M0 66.582h79v12.344H0V66.582z" fill="#725D57"/><path d="M52.703 47.467a8.404 8.404 0 100-16.809 8.404 8.404 0 000 16.809zm4.516 8.476h4.629v4.63h-4.63v-4.63zM39.5 53.318h2.315v4.63H39.5v-4.63z" fill="#FFB242"/><path d="M39.5 66.582H79v12.344H39.5V66.582z" fill="#53433F"/></g><defs><clipPath id="clip0_1047:1943"><path fill="#fff" d="M0 0h79v79H0z"/></clipPath></defs></svg>