<svg width="79" height="79" fill="none" xmlns="http://www.w3.org/2000/svg"><path d="M64.838 25.997l-3.38-8.98a2.314 2.314 0 012.164-3.13h10.37a2.313 2.313 0 012.315 2.314c0 5.307-3.592 9.92-8.736 11.224a2.313 2.313 0 01-2.733-1.428z" fill="#FE9923"/><path d="M53.162 0c-3.379 0-6.434 1.852-8.054 4.722a9.255 9.255 0 00-5.925 1.203c-2.685 1.62-4.536 4.536-4.536 7.962a9.235 9.235 0 004.536 7.961 9.149 9.149 0 004.721 1.297c2.13 0 4.536-.51 4.63-2.639.23-5.045 5.6-8.008 9.766-6.018 1.111.556 2.454.093 3.055-.972a8.938 8.938 0 001.065-4.258C62.42 4.166 58.254 0 53.162 0z" fill="#FD003A"/><path d="M62.419 9.258a8.94 8.94 0 01-1.065 4.258c-.601 1.065-1.944 1.528-3.055.973-4.166-1.991-9.535.972-9.767 6.017-.093 2.13-2.5 2.639-4.629 2.639a9.15 9.15 0 01-4.721-1.297V5.925a9.255 9.255 0 015.925-1.203C46.727 1.852 49.782 0 53.16 0c5.092 0 9.258 4.166 9.258 9.258z" fill="#E50027"/><path d="M74.27 38.404l-8.471-23.036c-1.25-2.916-5.6-6.11-10.322-6.11-6.203 0-11.295 4.86-11.573 11.155v12.53l4.63 2.082c0 .324-.093.648-.232.973a2.06 2.06 0 01-1.25 1.157c-.278.138-5.185 4.814-5.462 4.814H27.1l-4.536-4.63h-1.25c-.88 0-1.713-.462-2.083-1.25l-1.759-3.563c-1.342-2.685-4.166-4.444-7.175-4.444-4.443 0-8.054 3.61-8.054 8.054v3.518C2.244 58.725 12.798 79 32.332 79H46.08c23.839 0 36.337-18.655 28.19-40.596z" fill="#FEDB41"/><path d="M46.079 79h-6.897V41.969h2.407c.278 0 5.184-4.676 5.462-4.814a2.059 2.059 0 001.25-1.157c.139-.325.231-.649.231-.973l-4.629-2.083V20.413c.278-6.295 5.37-11.155 11.573-11.155 4.721 0 9.073 3.194 10.322 6.11l8.471 23.036C82.416 60.345 69.918 79 46.08 79z" fill="#FCBF29"/><path d="M57.789 48.912c0 10.739-8.147 19.58-18.608 20.737-.74.047-1.482.093-2.222.093H32.33c-4.953 0-8.285-5-6.434-9.49-4.027-1.11-6.203-5.461-4.629-9.257-7.823-2.222-6.203-13.655 1.805-13.655h18.516c.278 0 .555-.047.833-.185a2.059 2.059 0 001.25-1.157c.139-.325.232-.649.232-.973v-2.268c4.073-.093 8.054 1.852 10.692 5h.047c3.1 3.795 3.147 6.897 3.147 11.155z" fill="#FEA832"/><path d="M57.791 20.83a2.292 2.292 0 01-2.314 2.315 2.292 2.292 0 01-2.315-2.315 2.292 2.292 0 012.315-2.314 2.292 2.292 0 012.314 2.314z" fill="#713708"/><path d="M57.79 48.912c0 10.739-8.147 19.58-18.608 20.737V37.34h2.407c.278 0 .555-.046.833-.184a2.06 2.06 0 001.25-1.157c.139-.325.231-.649.231-.973v-2.268c4.074-.093 8.055 1.852 10.693 5h.047c3.1 3.795 3.147 6.897 3.147 11.155z" fill="#FE9923"/></svg>