<svg width="79" height="79" fill="none" xmlns="http://www.w3.org/2000/svg"><path d="M67.83 39.843a39.753 39.753 0 00-7.561-17.86.68.68 0 00-1.226.463c1.09 12.684-17.928 14.168-14.086-1.199 1.321-5.285 2.397-12.942-2.644-16.729-.395-.3-.994-.545-1.335-.19-.668.708.218 1.716.382 2.424a3.906 3.906 0 01-.327 2.684c-2.016 4.237-7.111 5.653-9.686 9.468-2.494 3.706-2.82 8.392-2.412 12.67a15.74 15.74 0 01-.15 4.591 5.226 5.226 0 01-5.326 4.237c-5.517-.436-5.055-7.93-4.646-11.811a.682.682 0 00-1.199-.504c-2.493 2.833-7.043 10.244-3.991 24.494a20.99 20.99 0 001.13 3.665l13.875 13.48 34.494-8.573 4.708-21.31z" fill="#F0C419"/><path d="M52.068 42.537c-2.139-2.983-5.462-4.945-8.46-6.948-3.283-2.193-9.345-7.26-6.825-11.73-3.488 5.722.545 11.976 2.561 17.63a7.327 7.327 0 01-.45 5.762 7.506 7.506 0 01-5.054 3.842 8.517 8.517 0 01-7.52-2.439c-2.902-2.738-2.234 5.409-1.948 6.444.355 1.339.93 2.61 1.703 3.76l15.136 6.893 14.191-12.558-3.334-10.656z" fill="#E57E25"/><path d="M75.158 60.778l-1.9-9.5-6.524-6.471-13.808 2.383c-2.536 2.452-10.5 9.388-20.956 11.226a28.191 28.191 0 01-13.864-.944c-7.843-2.564-12.42-5.848-15.09-8.864A1.707 1.707 0 00.06 50.15a27.66 27.66 0 00.857 2.738C6.256 67.233 22.83 73.72 37 74.894c13.835 1.141 29.726-2.064 38.157-14.116z" fill="#E64C3C"/><path d="M65.926 48.22s-10.562 4.751-16.212-4.706a.85.85 0 01.927-1.26c2.783.651 8.052 1.257 11.324-2.304 4.609-5.016 17.25 8.914 16.2 12.574-.787 2.745-.87 6.139.682 8.108a.868.868 0 01-.914 1.335c-2.44-.496-5.492-2.267-5.733-7.985 0 0-.763 7.63-8.164 5.63a.86.86 0 01-.46-1.361c1.698-2.127 5.294-7.326 2.35-10.032z" fill="#4C8056"/><path d="M72.567 44.721a1.363 1.363 0 01-1.107-2.155 13.223 13.223 0 002.526-9.945c-.748-3.98-3.699-7.676-8.77-10.988a1.363 1.363 0 111.49-2.282c5.721 3.734 9.069 8.03 9.96 12.767a15.915 15.915 0 01-2.99 12.04c-.258.355-.67.565-1.11.563z" fill="#527F72"/><path d="M30.436 64.767c-.613 0-1.238-.015-1.875-.045a1.363 1.363 0 01-1.294-1.426 1.402 1.402 0 011.428-1.291 33.493 33.493 0 0020.868-5.79 1.363 1.363 0 011.69 2.137 35.452 35.452 0 01-20.817 6.416zm25.419-10.211a1.362 1.362 0 11-2.724 0 1.362 1.362 0 012.724 0z" fill="#FB7B76"/></svg>