<svg width="80" height="80" fill="none" xmlns="http://www.w3.org/2000/svg"><g clip-path="url(#clip0_1079:8780)" fill="#3CD52E"><path d="M60.381 41.105a6.776 6.776 0 00-1.968.322 6.781 6.781 0 00-9.333-3.845 6.837 6.837 0 00-5.477-2.77 6.717 6.717 0 00-1.529.186V22.795a6.864 6.864 0 00-13.725 0v26.107a10.176 10.176 0 00-13.19-.766 6.005 6.005 0 00-1.397 8.131l9.443 14.166A21.445 21.445 0 0041.085 80h4.8a21.467 21.467 0 0019.752-13.023 19.897 19.897 0 001.606-7.891v-11.12a6.87 6.87 0 00-6.862-6.861zm1.528 17.98a14.57 14.57 0 01-1.187 5.79 16.136 16.136 0 01-14.85 9.792h-4.8a16.125 16.125 0 01-13.443-7.2l-9.43-14.16a.672.672 0 01.158-.907 4.872 4.872 0 016.763.862l3.81 4.76a2.667 2.667 0 004.75-1.664V22.795a1.53 1.53 0 013.058 0v23.072a2.667 2.667 0 105.334 0v-4.195a1.528 1.528 0 013.056-.001v6.295a2.667 2.667 0 005.333 0V43.77a1.53 1.53 0 013.059 0v6.293a2.667 2.667 0 005.333 0v-2.098a1.528 1.528 0 113.056-.002v11.122zM35.243 13.333a2.667 2.667 0 002.666-2.666v-8a2.667 2.667 0 10-5.333 0v8a2.667 2.667 0 002.667 2.666zm7.999 2.666c.708 0 1.386-.281 1.886-.782l5.656-5.656a2.667 2.667 0 10-3.771-3.77l-5.656 5.656a2.667 2.667 0 001.885 4.552zm-17.885-.779a2.667 2.667 0 003.77-3.77l-5.655-5.657A2.667 2.667 0 0019.7 9.564l5.656 5.656z"/><path d="M16.575 24.001h8a2.667 2.667 0 100-5.333h-8a2.667 2.667 0 100 5.333zm26.668-2.666A2.667 2.667 0 0045.91 24h8a2.667 2.667 0 100-5.333h-8a2.667 2.667 0 00-2.667 2.667z"/></g><defs><clipPath id="clip0_1079:8780"><path fill="#fff" d="M0 0h80v80H0z"/></clipPath></defs></svg>