<svg width="23" height="23" fill="none" xmlns="http://www.w3.org/2000/svg"><g clip-path="url(#clip0_987:1757)" fill="#505050"><path d="M20.838 5.14l-.508-1.52a1.416 1.416 0 00-1.345-.97h-4.268V1.26A1.26 1.26 0 0013.458 0H9.55a1.26 1.26 0 00-1.26 1.26v1.39H4.024c-.612 0-1.152.389-1.346.969L2.17 5.14a1.142 1.142 0 001.08 1.5h.531L4.95 21.088A2.09 2.09 0 007.02 23h9.203a2.09 2.09 0 002.071-1.912l1.168-14.447h.294a1.143 1.143 0 001.081-1.5zm-11.2-3.792h3.732v1.301H9.637V1.348zm7.314 19.631a.735.735 0 01-.728.673H7.02a.735.735 0 01-.728-.673L5.133 6.641h12.978l-1.16 14.338zM3.54 5.293l.416-1.248a.07.07 0 01.067-.048h14.962c.03 0 .057.02.067.048l.416 1.248H3.54z"/><path d="M14.803 20.931l.035.001a.673.673 0 00.672-.639l.633-12.146a.674.674 0 00-1.346-.07l-.632 12.146a.674.674 0 00.638.708zm-7.276-.634a.674.674 0 001.346-.074L8.21 8.077a.674.674 0 10-1.345.073l.662 12.147zm3.984.635a.674.674 0 00.674-.674V8.111a.674.674 0 10-1.347 0v12.147c0 .372.301.674.673.674z"/></g><defs><clipPath id="clip0_987:1757"><path fill="#fff" d="M0 0h23v23H0z"/></clipPath></defs></svg>