<svg width="1920" height="928" fill="none" xmlns="http://www.w3.org/2000/svg"><path d="M2335.51 605.703c-1.16 6.55-2.31 13.007-3.55 19.361-.29 1.45-.56 2.889-.86 4.328l-.16.794a443.74 443.74 0 01-2.44 11.511c-1.54 6.845-3.11 13.563-4.72 20.155-.3 1.151-.61 2.418-.9 3.615a820.248 820.248 0 01-13.93 48.609c-.77 2.525-1.58 5.019-2.44 7.482a984.262 984.262 0 01-6.59 19.234c-1.59 4.398-3.17 8.668-4.72 12.812-8.38 22.273-16.45 40.782-22.96 54.722a2418.586 2418.586 0 01-13.95 29.375H1012.57V577.997c94.96 7.298 221.09-72.736 313.02-23.585 104.14 55.688 375.59 195.071 548.73 94.307 150.01-87.321 362.97-83.488 461.19-43.016z" fill="#2E412D"/><path d="M1251.76 310.222V249.48h-18.44V145.043h-98.86V249.48h-92.43V79.294H940.031v110.48h-23.252V57.873H814.783v247.296H685.794v144.206h-48.206v36.327H526.889v-62.56h-63.562V253.163h-78.514v313.782h-78.526V839.99H1330.53V310.222h-78.77z" fill="#495F47"/><path d="M916.779 74.578H814.726v25.197h102.053V74.578zm0 47.33H814.726v25.197h102.053v-25.197zm0 42.59H814.726v25.197h102.053v-25.197zm125.221 0H939.951v25.197H1042v-25.197zm0-42.59H939.951v25.197H1042v-25.197zm0-42.523H939.951v25.197H1042V79.385zm.03 126.402H814.726v25.197h227.304v-25.197zm0 41.285H814.726v25.197h227.304v-25.197zm-577.977 6.104h-79.206v38.894h79.206v-38.894zm0 57.84h-79.206v38.894h79.206v-38.894zm0 57.841h-79.206v38.895h79.206v-38.895zm0 60.625h-79.206v38.895h79.206v-38.895zm0 58.766h-79.206v38.895h79.206v-38.895zm0 58.75h-79.206v38.895h79.206v-38.895zm0 61.465h-79.206v38.895h79.206v-38.895zm577.977-321.031H814.726v16h227.304v-16z" fill="#2E412D"/><path d="M492.15 253.176h-29.202v169.967h29.202V253.176z" fill="#2E412D"/><path d="M585.64 423.139h-58.751v62.56h58.751v-62.56z" fill="#F7EE22"/><path d="M1042 79.385h20.27v170.093h-20.24L1042 79.385zM929.222 57.883h-12.443v131.809h12.443V57.882z" fill="#2E412D"/><g opacity=".8"><path opacity=".8" d="M724.16 329.982h-17.289v24.368h17.289v-24.368zm32.333 0h-17.289v24.368h17.289v-24.368zm31.608 0h-17.289v24.368h17.289v-24.368zm29.974 0h-17.289v24.368h17.289v-24.368zm30.538 0h-17.289v24.368h17.289v-24.368zm30.895 0h-17.289v24.368h17.289v-24.368zm32.333 0h-17.289v24.368h17.289v-24.368zm31.608 0h-17.288v24.368h17.288v-24.368z" fill="#7ED329"/><path opacity=".8" d="M973.424 329.982h-17.289v24.368h17.289v-24.368zm30.546 0h-17.286v24.368h17.286v-24.368z" fill="#68D335"/><path opacity=".8" d="M1035.8 329.982h-17.29v24.368h17.29v-24.368zm32.33 0h-17.29v24.368h17.29v-24.368zm31.61 0h-17.29v24.368h17.29v-24.368zm29.98 0h-17.29v24.368h17.29v-24.368zm30.55 0h-17.29v24.368h17.29v-24.368zm30.89 0h-17.29v24.368h17.29v-24.368zm32.33 0h-17.29v24.368h17.29v-24.368z" fill="#CDFFC1"/><path opacity=".8" d="M1255.1 329.982h-17.29v24.368h17.29v-24.368zm29.97 0h-17.28v24.368h17.28v-24.368zm30.54 0h-17.29v24.368h17.29v-24.368z" fill="#68D335"/><path opacity=".8" d="M724.16 372.984h-17.289v24.368h17.289v-24.368zm32.333 0h-17.289v24.368h17.289v-24.368zm31.608 0h-17.289v24.368h17.289v-24.368zm29.974 0h-17.289v24.368h17.289v-24.368zm30.538 0h-17.289v24.368h17.289v-24.368zm30.895 0h-17.289v24.368h17.289v-24.368zm32.333 0h-17.289v24.368h17.289v-24.368z" fill="#7ED329"/><path opacity=".8" d="M943.449 372.984h-17.288v24.368h17.288v-24.368zm29.975 0h-17.289v24.368h17.289v-24.368zm30.546 0h-17.286v24.368h17.286v-24.368z" fill="#68D335"/><path opacity=".8" d="M1035.8 372.984h-17.29v24.368h17.29v-24.368zm32.33 0h-17.29v24.368h17.29v-24.368zm31.61 0h-17.29v24.368h17.29v-24.368zm29.98 0h-17.29v24.368h17.29v-24.368zm30.55 0h-17.29v24.368h17.29v-24.368zm30.89 0h-17.29v24.368h17.29v-24.368zm32.33 0h-17.29v24.368h17.29v-24.368z" fill="#CDFFC1"/><path opacity=".8" d="M1255.1 372.984h-17.29v24.368h17.29v-24.368zm29.97 0h-17.28v24.368h17.28v-24.368zm30.54 0h-17.29v24.368h17.29v-24.368z" fill="#68D335"/><path opacity=".8" d="M724.16 415.332h-17.289V439.7h17.289v-24.368zm32.333 0h-17.289V439.7h17.289v-24.368zm31.608 0h-17.289V439.7h17.289v-24.368zm29.974 0h-17.289V439.7h17.289v-24.368zm30.538 0h-17.289V439.7h17.289v-24.368zm30.895 0h-17.289V439.7h17.289v-24.368zm32.333 0h-17.289V439.7h17.289v-24.368z" fill="#7ED329"/><path opacity=".8" d="M943.449 415.332h-17.288V439.7h17.288v-24.368zm29.975 0h-17.289V439.7h17.289v-24.368zm30.546 0h-17.286V439.7h17.286v-24.368z" fill="#68D335"/><path opacity=".8" d="M1035.8 415.332h-17.29V439.7h17.29v-24.368zm32.33 0h-17.29V439.7h17.29v-24.368z" fill="#CDFFC1"/><path opacity=".8" d="M1099.74 415.332h-17.29V439.7h17.29v-24.368zm29.98 0h-17.29V439.7h17.29v-24.368zm30.55 0h-17.29V439.7h17.29v-24.368zm30.89 0h-17.29V439.7h17.29v-24.368zm32.33 0h-17.29V439.7h17.29v-24.368zm31.61 0h-17.29V439.7h17.29v-24.368zm29.97 0h-17.28V439.7h17.28v-24.368zm30.54 0h-17.29V439.7h17.29v-24.368z" fill="#68D335"/><path opacity=".8" d="M724.16 460.328h-17.289v24.368h17.289v-24.368zm32.333 0h-17.289v24.368h17.289v-24.368zm31.608 0h-17.289v24.368h17.289v-24.368zm29.974 0h-17.289v24.368h17.289v-24.368zm30.538 0h-17.289v24.368h17.289v-24.368zm30.895 0h-17.289v24.368h17.289v-24.368z" fill="#7ED329"/><path opacity=".8" d="M911.841 460.328h-17.289v24.368h17.289v-24.368zm31.608 0h-17.288v24.368h17.288v-24.368zm29.975 0h-17.289v24.368h17.289v-24.368zm30.546 0h-17.286v24.368h17.286v-24.368z" fill="#68D335"/><path opacity=".8" d="M1035.8 460.328h-17.29v24.368h17.29v-24.368zm32.33 0h-17.29v24.368h17.29v-24.368z" fill="#CDFFC1"/><path opacity=".8" d="M1099.74 460.328h-17.29v24.368h17.29v-24.368zm29.98 0h-17.29v24.368h17.29v-24.368zm30.55 0h-17.29v24.368h17.29v-24.368z" fill="#68D335"/><path opacity=".8" d="M1191.16 460.328h-17.29v24.368h17.29v-24.368zm32.33 0h-17.29v24.368h17.29v-24.368z" fill="#CDFFC1"/><path opacity=".8" d="M1255.1 460.33h-17.29v24.368h17.29V460.33zm29.97 0h-17.28v24.368h17.28V460.33zm30.54 0h-17.29v24.368h17.29V460.33z" fill="#68D335"/><path opacity=".8" d="M724.16 503.336h-17.289v24.368h17.289v-24.368zm32.333 0h-17.289v24.368h17.289v-24.368zm31.608 0h-17.289v24.368h17.289v-24.368zm29.974 0h-17.289v24.368h17.289v-24.368zm30.538 0h-17.289v24.368h17.289v-24.368z" fill="#7ED329"/><path opacity=".8" d="M879.508 503.336h-17.289v24.368h17.289v-24.368zm32.333 0h-17.289v24.368h17.289v-24.368zm31.608 0h-17.288v24.368h17.288v-24.368zm29.975 0h-17.289v24.368h17.289v-24.368zm30.546 0h-17.286v24.368h17.286v-24.368z" fill="#68D335"/><path opacity=".8" d="M1035.8 503.336h-17.29v24.368h17.29v-24.368zm32.33 0h-17.29v24.368h17.29v-24.368z" fill="#CDFFC1"/><path opacity=".8" d="M1099.74 503.336h-17.29v24.368h17.29v-24.368zm29.98 0h-17.29v24.368h17.29v-24.368zm30.55 0h-17.29v24.368h17.29v-24.368z" fill="#68D335"/><path opacity=".8" d="M1191.16 503.336h-17.29v24.368h17.29v-24.368zm32.33 0h-17.29v24.368h17.29v-24.368z" fill="#CDFFC1"/><path opacity=".8" d="M1255.1 503.336h-17.29v24.368h17.29v-24.368zm29.97 0h-17.28v24.368h17.28v-24.368zm30.54 0h-17.29v24.368h17.29v-24.368z" fill="#68D335"/><path opacity=".8" d="M724.16 545.678h-17.289v24.368h17.289v-24.368zm32.333 0h-17.289v24.368h17.289v-24.368zm31.608 0h-17.289v24.368h17.289v-24.368zm29.974 0h-17.289v24.368h17.289v-24.368zm30.538 0h-17.289v24.368h17.289v-24.368z" fill="#7ED329"/><path opacity=".8" d="M879.508 545.678h-17.289v24.368h17.289v-24.368zm32.333 0h-17.289v24.368h17.289v-24.368zm31.608 0h-17.288v24.368h17.288v-24.368zm29.975 0h-17.289v24.368h17.289v-24.368zm30.546 0h-17.286v24.368h17.286v-24.368z" fill="#68D335"/><path opacity=".8" d="M1035.8 545.678h-17.29v24.368h17.29v-24.368zm32.33 0h-17.29v24.368h17.29v-24.368zm31.61 0h-17.29v24.368h17.29v-24.368z" fill="#CDFFC1"/><path opacity=".8" d="M1129.72 545.678h-17.29v24.368h17.29v-24.368zm30.55 0h-17.29v24.368h17.29v-24.368z" fill="#68D335"/><path opacity=".8" d="M1191.16 545.678h-17.29v24.368h17.29v-24.368z" fill="#CDFFC1"/><path opacity=".8" d="M1223.49 545.678h-17.29v24.368h17.29v-24.368zm31.61 0h-17.29v24.368h17.29v-24.368z" fill="#96C5BC"/><path opacity=".8" d="M1285.07 545.678h-17.28v24.368h17.28v-24.368zm30.54 0h-17.29v24.368h17.29v-24.368z" fill="#68D335"/></g><path d="M986.384 622.035H585.628V838.24h400.756V622.035zm432.886 33.695h-400.76v182.514h400.76V655.73z" fill="#2E412D"/><path d="M687.072 647.348h-74.67v40.045h74.67v-40.045zm95.849 0h-74.67v40.045h74.67v-40.045z" fill="#7ED329"/><path d="M876.941 647.348h-74.67v40.045h74.67v-40.045z" fill="#41B537"/><path d="M969.153 647.348h-74.67v40.045h74.67v-40.045z" fill="#7ED329"/><path d="M1020.69 622.035h-38.472v218.059h38.472V622.035z" fill="#495F47"/><path d="M1497.84 579.857h-38.47v260.234h38.47V579.857z" fill="#8EC63F"/><path d="M1460.56 655.73h-41.29v180.753h41.29V655.73z" fill="#8EC63F"/><path d="M1388.31 666.466c-1.07 2.878-3.66 4.605-5.75 3.764-2.1-.84-2.99-3.764-1.92-6.63 1.07-2.866 8.89-12.075 8.89-12.075s-.15 12.064-1.22 14.941zm-21-70.615c-1.07 2.866-3.66 4.547-5.76 3.752-2.09-.794-2.99-3.764-1.92-6.63 1.07-2.866 8.89-12.075 8.89-12.075s-.15 12.087-1.21 14.953zm-80.54 106.494c-1.07 2.866-3.66 4.547-5.76 3.752-2.09-.794-2.99-3.764-1.92-6.63 1.07-2.866 8.89-12.074 8.89-12.074s-.14 12.086-1.21 14.952z" fill="#57C055"/><path d="M1353.26 818.981s-7.41 16.011 7.04 17.185c14.44 1.174 23.02-4.685 26.56-11.718 0 0-17.96 7.413-15.24-1.565 2.73-8.978 9.76-23.436 9.76-23.436s-15.21 27.35-22.81 26.037c-3.38-.575-5.31-6.503-5.31-6.503z" fill="#97D9CE"/><path d="M402.689 236.258h-2.083v16.92h2.083v-16.92zm74.842 0h-2.083v16.92h2.083v-16.92z" fill="#2E412D"/><path d="M1460.56 579.229h-220.57v257.252h220.57V579.229z" fill="#41B537"/><path d="M1445.76 527.707h-4.07v52.155h4.07v-52.155z" fill="#41B537"/><path d="M1515.15 651.422h-275.16v185.057h275.16V651.422z" fill="#495F47"/><path d="M1515.15 627.25h-275.16v60.143h275.16V627.25zm-242.29 77.973h-14.13v19.913h14.13v-19.913zm26.43 0h-14.13v19.913h14.13v-19.913zm25.84 0H1311v19.913h14.13v-19.913zm24.5 0h-14.14v19.913h14.14v-19.913zm24.95 0h-14.13v19.913h14.13v-19.913zm25.26 0h-14.14v19.913h14.14v-19.913zm26.43 0h-14.14v19.913h14.14v-19.913zm25.84 0h-14.14v19.913h14.14v-19.913zm24.49 0h-14.13v19.913h14.13v-19.913zm24.97 0h-14.14v19.913h14.14v-19.913zm-228.71 35.14h-14.13v19.914h14.13v-19.914zm26.43 0h-14.13v19.914h14.13v-19.914zm25.84 0H1311v19.914h14.13v-19.914zm24.5 0h-14.14v19.914h14.14v-19.914zm24.95 0h-14.13v19.914h14.13v-19.914zm25.26 0h-14.14v19.914h14.14v-19.914zm26.43 0h-14.14v19.914h14.14v-19.914zm25.84 0h-14.14v19.914h14.14v-19.914zm24.49 0h-14.13v19.914h14.13v-19.914zm24.97 0h-14.14v19.914h14.14v-19.914zm-228.71 34.616h-14.13v19.913h14.13v-19.913zm26.43 0h-14.13v19.913h14.13v-19.913zm25.84 0H1311v19.913h14.13v-19.913zm24.5 0h-14.14v19.913h14.14v-19.913zm24.95 0h-14.13v19.913h14.13v-19.913zm25.26 0h-14.14v19.913h14.14v-19.913zm26.43 0h-14.14v19.913h14.14v-19.913zm25.84 0h-14.14v19.913h14.14v-19.913zm24.49 0h-14.13v19.913h14.13v-19.913zm24.97 0h-14.14v19.913h14.14v-19.913z" fill="#68D335"/><path d="M1272.86 644.146h-11.88v20.547h11.88v-20.547zm117.91 0h-11.88v20.547h11.88v-20.547zm93.77 0h-11.88v20.547h11.88v-20.547z" fill="#8EC63F"/><path d="M319.052 705.223h-14.135v19.913h14.135v-19.913zm24.967 0h-14.135v19.913h14.135v-19.913zm-24.967 35.14h-14.135v19.914h14.135v-19.914zm24.967 0h-14.135v19.914h14.135v-19.914zm-24.967 34.616h-14.135v19.913h14.135v-19.913zm24.967 0h-14.135v19.913h14.135v-19.913z" fill="#7ED329"/><path d="M327.006 644.146h-11.879v20.547h11.879v-20.547z" fill="#2E412D"/><path d="M2354.08 842H307.524c-.721-.006-1.411-.376-1.921-1.032-.509-.655-.798-1.542-.802-2.468.002-.927.29-1.816.8-2.472.51-.655 1.201-1.025 1.923-1.028H2354.08c.72.003 1.41.373 1.92 1.028.51.656.8 1.545.8 2.472 0 .926-.29 1.813-.8 2.468-.51.656-1.2 1.026-1.92 1.032z" fill="#212121"/><path d="M335.271 834.671s25.324-75.51 97.841-90.048c72.517-14.538 126.134 42.221 190.709 20.098 64.575-22.124 166.375-139.199 287.525-53.629 121.154 85.571 113.194 109.928 189.604 89.945 76.41-19.983 93.89 33.634 93.89 33.634H335.271z" fill="#8EC63F"/><path d="M409.676 763.63s-52.857-55.424-79.861-40.564c-27.004 14.861 79.861 40.564 79.861 40.564zm-13.48 14.019s-48.724-15.885-60.926-7.943c-12.201 7.943 60.926 7.943 60.926 7.943zm155.027-5.089s33.496-75.119 45.11-61.456c11.615 13.664-45.11 61.456-45.11 61.456zm-8.196-5.078s13.663-55.009-6.837-51.591c-20.501 3.419 6.837 51.591 6.837 51.591z" fill="#8EC63F"/><path d="M1477.33 549.947l-5.82-4.742 78-101.939 28.14-1.174-100.32 107.855zm-101.91 0l-4.82-4.742 64.54-101.939 23.29-1.174-83.01 107.855zM899.145 284.275c0-19.349 15.321-35.027 34.21-35.027 18.889 0 34.198 15.678 34.198 35.027s-15.309 35.027-34.198 35.027c-18.889 0-34.21-15.678-34.21-35.027zm433.905 472.207H985.302a6.905 6.905 0 01-6.906-6.906v-32.875a6.906 6.906 0 016.906-6.906h307.228c1.84 0 3.59.728 4.89 2.023a6.925 6.925 0 012.02 4.883l33.61 39.781z" fill="#34A539"/><path d="M1513.55 804.232c40.59-40.592 40.59-106.404 0-146.996-40.59-40.591-106.4-40.591-147 .001-40.59 40.591-40.59 106.403 0 146.995 40.6 40.592 106.41 40.592 147 0z" fill="#58595B"/><path d="M1387.03 730.732a52.933 52.933 0 0132.68-48.918 52.942 52.942 0 0130.59-3.013 52.892 52.892 0 0127.11 14.491 52.975 52.975 0 0114.5 27.111 52.955 52.955 0 01-3.02 30.592 52.881 52.881 0 01-19.5 23.763 52.948 52.948 0 01-66.86-6.585 52.941 52.941 0 01-15.5-37.441z" fill="#F7EE22"/><path d="M905.81 584.028a153.881 153.881 0 00-79.815-3.545 154.303 154.303 0 00-118.848 127.251 20.04 20.04 0 004.646 16.066 20.053 20.053 0 0015.21 6.955h.679a12.777 12.777 0 0012.662-11.614 119.516 119.516 0 01238.467 11.614h34.379a154.137 154.137 0 00-107.38-146.727z" fill="#34A539"/><path d="M1065.29 709.759l-52.07 20.972c-36.068-70.123-72.902-104.54-104.407-121.507-56.667-30.561-96.102-4.685-82.877-28.776l97.208-205.109a89.242 89.242 0 0135.48-29.133 89.241 89.241 0 0145.266-7.644c4.35.418 8.54 1.81 12.28 4.074a29.052 29.052 0 019.28 9.001 28.985 28.985 0 014.46 12.142c.55 4.331.12 8.73-1.26 12.872-12.72 38.054-17.62 76.304-17.62 112.632.06 120.931 54.26 220.476 54.26 220.476z" fill="#34A539"/><path d="M1012.19 362.321l-39.216-14.964c-5.341 0-15.528 4.823-15.528-.518l5.755-95.804a9.741 9.741 0 019.715-9.703h25.324c5.34 0 26.74 10.233 25.23 29.398l6.72 96.575c0 5.318-12.66-4.984-18-4.984zm665.39 47.581h-255.7c-9.13 0-16.53 7.401-16.53 16.53v3.879c0 9.129 7.4 16.529 16.53 16.529h255.7c9.13 0 16.53-7.4 16.53-16.529v-3.879c0-9.129-7.4-16.53-16.53-16.53z" fill="#34A539"/><path d="M961.162 751.664c11.543-56.233-24.686-111.176-80.918-122.719-56.233-11.543-111.176 24.685-122.719 80.918-11.543 56.233 24.685 111.176 80.918 122.719 56.233 11.543 111.176-24.685 122.719-80.918z" fill="#58595B"/><path d="M912.302 730.731a52.69 52.69 0 01-6.113 24.713c-.253.472-.506.944-.782 1.416a52.954 52.954 0 01-65.229 23.159 52.947 52.947 0 01-1.211-98.197l.598-.254a52.946 52.946 0 0149.438 5.245 52.945 52.945 0 0123.299 43.918z" fill="#495F47"/><path d="M1240.01 521.376s40.52 90.267-50 188.395h208.94l-28.35-214.812-130.59 26.417z" fill="#34A539"/><path d="M1649.58 742.738a13.795 13.795 0 01-4.04 9.702 13.836 13.836 0 01-9.71 4.042H1302.4a13.836 13.836 0 01-9.71-4.042 13.847 13.847 0 01-4.05-9.702l4.44-218.082 112.27-6.906c149.56.023 244.23 75.418 244.23 224.988z" fill="#34A539"/><path d="M967.553 282.289a53.668 53.668 0 01-33.189 49.719 53.66 53.66 0 01-20.601 4.059V228.488a53.788 53.788 0 0149.698 33.213 53.796 53.796 0 014.092 20.588z" fill="#FE8D71"/><path d="M1052.46 289.547c-.21 0-2.44-.437-2.66-.483l-59.168-16.415c-2.303-.46-3.972-3.361-3.626-6.492.345-3.13 2.521-5.306 4.869-4.846l59.315 11.58c2.3.461 4.21 4.029 4.78 7.102.92 5.157-1.42 9.554-3.51 9.554z" fill="#58595B"/><path d="M909.469 613.365c.541 3.315 1.059 6.527 1.543 9.611l-.449-.218a119.516 119.516 0 00-170.197 96.356 12.776 12.776 0 01-12.662 11.614h-.679a20.053 20.053 0 01-19.856-23.021 154.245 154.245 0 01118.226-127.101l.622-.15 97.208-205.109a88.968 88.968 0 0134.244-28.558c-16.564 27.879-62.273 117.041-51.637 237.212a425.914 425.914 0 003.004 25.197c.196 1.439.403 2.786.633 4.167zm553.841-134.602v32.402a10.285 10.285 0 01-3 7.221 10.269 10.269 0 01-7.23 3h-213.07a10.266 10.266 0 01-7.22-3.003 10.278 10.278 0 01-3-7.218v-32.402a10.276 10.276 0 013-7.218 10.267 10.267 0 017.22-3.004h213.07c2.71.006 5.31 1.085 7.23 3a10.286 10.286 0 013 7.222z" fill="#FE8D71"/><path d="M1623.17 756.484H1302.4s-19.57-118.756 52.61-158.848c17.4-9.657 39.23-12.984 63.04-10.659 75 7.321 169.45 70.86 205.12 169.507z" fill="#41B537"/><path d="M966.655 292.176a53.811 53.811 0 01-52.949 43.89v-30.008c15.861.633 38.629-1.094 52.949-13.882zm429.195 229.21h-155.84a10.266 10.266 0 01-7.22-3.003 10.278 10.278 0 01-3-7.218v-32.402a10.276 10.276 0 013-7.218 10.267 10.267 0 017.22-3.004h106.73c9.32 13.099 26.76 35.315 49.11 52.845z" fill="#F36523"/><path d="M1623.17 756.482h-133.23c-80.41-40.805-75.5-139.279-71.89-169.529 75 7.344 169.45 70.883 205.12 169.529z" fill="#68D335"/><path d="M905.407 756.829a52.954 52.954 0 01-65.229 23.159 52.944 52.944 0 01-32.099-36.254 52.954 52.954 0 0130.888-61.943c4.604 22.964 19.43 65.461 66.44 75.038z" fill="#F7EE22"/><path d="M909.47 613.371c.541 3.315 1.059 6.527 1.542 9.612l-.449-.219c-19.199-17.749-59.752-33.473-85.179-42.129l.622-.15 97.208-205.109a88.977 88.977 0 0134.244-28.558c-16.564 27.879-62.273 117.041-51.637 237.213.729 8.241 1.73 16.64 3.004 25.196.207 1.416.415 2.763.645 4.144z" fill="#F36523"/><path d="M1426.79 409.896h166.07V272.965h-166.07v136.931z" fill="#ED4B02"/><path d="M1675.89 272.975h-166.06v136.931h166.06V272.975zM1426.9 375.169h26.31l-2.31-7.401 2.31-5.284h-26.31v12.685z" fill="#FE8D71"/><path d="M1675.89 363.759v46.147h-166.06V272.975h29.41l136.65 90.784z" fill="#F47032"/><path opacity=".4" d="M1675.89 303.688h-26.32l2.33-7.401-2.33-5.295h26.32v12.696z" fill="#ED4B02"/><path d="M1675.89 387.86h-26.32l2.33-7.401-2.33-5.295h26.32v12.696z" fill="#FE8D71"/><path d="M1258.54 148.892c28.71 11.66 81.19-13.272 81.19-13.272s-17.42-15.424-20.72-44.627c-.17-1.473-.3-2.97-.39-4.512l-14.84-5.272-25.43 17.266c-.36 7.803-.26 15.621.3 23.413.15 2.601.35 5.398.62 8.38-13.22 5.974-20.73 18.624-20.73 18.624z" fill="#FFB3A3"/><path d="M1278.33 98.521c-.37 7.803-.27 15.621.3 23.413 23.14-4.202 35.87-22.895 40.36-30.94-.18-1.474-.3-2.97-.4-4.513l-14.83-5.272-25.43 17.312z" fill="#FE8D71"/><path d="M1273.63 110.925s49.5-1.612 47.98-32.391c-1.52-30.78 3.9-51.706-27.73-51.983-31.63-.276-37.19 11.765-39.14 22.159-1.94 10.394 6 61.835 18.89 62.215z" fill="#FFB3A3"/><path d="M1318.99 90.99s1.93-10.233-3.64-16.99c0 0 3.59-10.037-.27-12.282-3.85-2.244-5.87 6.32-7.56 4.708-1.69-1.611-9.21-9.209-11.51-19.223-2.3-10.014-36.59-2.831-40.63-1.623-4.04 1.209 22.74-48.794 51.68-36.95 28.94 11.845 31.08 26.694 27.76 38.734-3.31 12.04-3.05 41.151-15.83 43.626zm47.32 293.743s-3.46 60.396-17.18 77.605c-13.72 17.208-277.31 10.52-277.31 10.52s-1.15-38.722 9.2-48.678c10.36-9.957 58.44-38.561 212.11-54.78l73.18 15.333z" fill="#58595B"/><path d="M1369.76 258.31c-4.31 51.879 1.36 130.784-3.52 144.459-4.2 11.799-52.15 4.777-71.27.852-7.09-1.474-15.66-3.545-24.53-6.009-24.7-6.906-51.63-16.667-54.51-23.965-.11-.267-.2-.545-.26-.829a5.642 5.642 0 010-3.05c.7-2.751 2.92-5.663 4.21-10.717.51-2.032.81-4.111.9-6.204.43-9.404.41-20.328.73-32.08l.11-3.258c0-1.462 0-3.05.22-4.512v-1.3c.41-14.504 1.26-29.733 2.23-44.892.31-4.708.64-9.393 1.01-14.02.12-1.646.25-3.269.38-4.892.25-3.016.51-6.02.77-8.979 2.17-23.24 5.07-43.913 8.91-56.977 6.29-21.307 20.13-35.189 32.74-45.364l9.13-7.022c10.17 1.992 22.2.656 33.09-3.959 11.76-5.031 15.84-8.622 17.89-7.264 27.32 18.832 46.89 76.558 41.77 139.982z" fill="#F36523"/><path d="M1166.62 671.554s-2.3 37.605-9.6 38.135c-.97.08-36.84.08-36.84.08l-45.85-.265s.29-11.05 13.7-13.387c13.41-2.336 35.84-11.763 43.96-29.478 8.49-18.636 34.63 4.915 34.63 4.915z" fill="#414143"/><path d="M1176.21 674.01s-8.88 6.825-26.93 7.689c-4.22.199-8.46.033-12.66-.495a59.96 59.96 0 01-16.17-4.144l-48.66-204.2s52.71-46.042 80.21-17.415c3.59 3.729 6.65 10.21 9.21 18.647 17.47 56.299 15 199.918 15 199.918z" fill="#58595B"/><path d="M1293.06 218.884s-34.11 124.937-73.09 140.165c.51-2.032.81-4.111.9-6.204.44-9.404.41-20.328.74-32.08l.1-3.258c0-1.462 0-3.05.22-4.512v-1.301c.41-14.503 1.26-29.732 2.23-44.891.31-4.708.64-9.393 1.01-14.02 17.19-20.743 40.48-35.649 67.89-33.899z" fill="#ED4B02"/><path d="M1088.37 267.011s-14.86 1.151-18.68 0c-3.82-1.151-21.77-11.844-28.26-9.554-6.49 2.291-22.93 19.108-18.72 26.74 0 0 7.63.195 14.7-7.068 7.07-7.263 14.71-2.302 13.94-1.335-.77.967-11.83 5.352-9.92 7.263 1.91 1.911 16.41 1.531 19.86-.771 3.44-2.302 29.02.575 29.02.575l-1.94-15.85z" fill="#FFB3A3"/><path d="M1293.06 152.995s-92.4 78.767-116.73 86.33c-24.32 7.562-110.27 24.299-110.27 24.299s-2.37 20.351 5.69 27.982c0 0 110.43-6.4 124.19-9.312 13.75-2.912 116.25-55.999 124.56-60.017 8.32-4.017 7.06-75.786-27.44-69.282z" fill="#F36523"/><path d="M1176.21 674.008s-8.88 6.825-26.93 7.689c-4.22.199-8.46.033-12.66-.495 27.77-35.108 24.65-207.112 24.65-207.112 17.41 56.299 14.94 199.918 14.94 199.918z" fill="#414143"/><path d="M1342.13 49.402v.472c.03.564-.09 1.126-.34 1.63a3.32 3.32 0 01-1.11 1.247c-.27.157-.58.24-.9.242h-117.14c-1.29 0-2.3-1.404-2.3-3.12v-.471c0-1.715 1.06-3.131 2.3-3.131l26.16-3.361c2.44-19.43 15.36-35.292 32.42-40.76 4.24-1.36 8.66-2.05 13.11-2.048 24.04 0 43.74 19.855 45.79 45.168l.07.886.49.368c.47.313.85.743 1.11 1.247.25.505.37 1.066.34 1.63z" fill="#F36523"/><path d="M1302.56 45.27c8.74-46.193-20.34-43.235-21.32-43.12 4.24-1.36 8.66-2.05 13.11-2.048 24.05 0 43.74 19.855 45.79 45.168h-37.58z" fill="#ED4B02"/><path d="M1453.03 834.674s96.17-24.23 123.3-53.537c27.13-29.306 50.59 3.902 33 22.458-17.59 18.555-156.3 31.079-156.3 31.079zm381.91-65.187h-134.82a6.035 6.035 0 01-4.27-1.774 6.058 6.058 0 01-1.78-4.269c.01-1.6.65-3.132 1.78-4.263a6.06 6.06 0 014.27-1.769h134.79c1.59.006 3.12.644 4.25 1.773a6.079 6.079 0 011.78 4.259 6.097 6.097 0 01-1.76 4.253 6.053 6.053 0 01-4.24 1.79zm-64.24-26.909h-73.31a3.284 3.284 0 01-2.32-.968 3.271 3.271 0 01-.96-2.324c0-.869.35-1.701.96-2.316a3.306 3.306 0 012.32-.964h73.31c.87.003 1.7.349 2.32.964.61.615.96 1.447.96 2.316 0 .871-.34 1.707-.96 2.324-.61.617-1.45.965-2.32.968z" fill="#DDD"/></svg>