<svg width="79" height="79" fill="none" xmlns="http://www.w3.org/2000/svg"><g clip-path="url(#clip0_1049:2176)"><path d="M72.62 50.948c0 16.613-8.303 24.851-20.145 27.947-2.019.527-3.994-.989-3.994-3.075V61.212a8.95 8.95 0 00-2.63-6.35 8.98 8.98 0 00-15.33 6.349V75.82c0 2.086-1.975 3.602-3.993 3.075C14.684 75.799 6.383 67.56 6.383 50.948 6.383 28.748 21.21 0 39.5 0c18.292 0 33.12 28.748 33.12 50.948z" fill="#5B5B68"/><path d="M67.695 50.95c0 .185-.001.369-.003.55-.09 7.146-1.947 12.713-5.523 16.557-.092.098-.184.195-.28.292-3.24 3.322-7.728 5.128-12.368 5.128h-1.042V61.211a8.954 8.954 0 00-2.63-6.349 8.94 8.94 0 00-6.348-2.63 8.982 8.982 0 00-8.982 8.98v12.265h-1.04c-4.64 0-9.13-1.806-12.369-5.128-.093-.097-.187-.194-.279-.292-3.577-3.844-5.435-9.412-5.525-16.56v-.001a46.168 46.168 0 01.08-3.321v-.002c.558-9.433 3.865-20.1 8.913-28.486 5.646-9.384 12.643-14.765 19.202-14.765 6.555 0 13.555 5.381 19.198 14.765 5.048 8.388 8.356 19.058 8.913 28.491.056.937.083 1.862.083 2.772z" fill="#FF884D"/><path d="M68.54 50.675c-.28.28-.562.556-.847.827a40.79 40.79 0 01-18.965 10.212l-.248.056v-.557c0-.645-.068-1.274-.197-1.88a38.404 38.404 0 0018.54-10.362l.79-.792.064-.066.862 2.562zM30.717 59.33a8.917 8.917 0 00-.198 1.88v.558l-.247-.056a40.78 40.78 0 01-18.966-10.215v-.002a31.473 31.473 0 01-.845-.824l.862-2.562.063.063v.002l.79.793a38.386 38.386 0 0018.541 10.364zm15.811-15.742a1.21 1.21 0 01-.21-2.4 38.44 38.44 0 0017.828-8.314 1.209 1.209 0 111.549 1.858 40.863 40.863 0 01-18.953 8.837 1.2 1.2 0 01-.214.02zm-14.056-.002c-.07 0-.142-.006-.213-.019a40.86 40.86 0 01-18.953-8.837 1.21 1.21 0 111.549-1.858 38.44 38.44 0 0017.828 8.315 1.21 1.21 0 01-.21 2.4zm7.03-17.196a40.942 40.942 0 01-20.042-5.234 1.21 1.21 0 011.186-2.108 38.517 38.517 0 0018.856 4.924 38.53 38.53 0 0018.855-4.922 1.21 1.21 0 011.185 2.107 40.952 40.952 0 01-20.04 5.234z" fill="#E86328"/><path d="M39.5 38.573a1.21 1.21 0 01-1.209-1.209V4.922a1.21 1.21 0 012.418 0v32.442a1.21 1.21 0 01-1.209 1.21z" fill="#E86328"/><path d="M39.5 52.231a7.961 7.961 0 100-15.923 7.961 7.961 0 000 15.923z" fill="#E4E4EF"/><path d="M68.906 50.95c0 7.725-1.97 13.76-5.852 17.93-.1.107-.198.212-.302.315-3.401 3.49-8.225 5.492-13.231 5.492h-1.04v-2.419h1.04c4.358 0 8.551-1.736 11.503-4.764.092-.092.176-.182.261-.272 3.452-3.709 5.203-9.187 5.203-16.282 0-9.854-3.38-21.595-8.824-30.64-5.42-9.012-12.04-14.179-18.163-14.179-6.123 0-12.743 5.17-18.165 14.18-5.443 9.044-8.824 20.785-8.824 30.639 0 7.093 1.751 12.572 5.204 16.283.086.092.174.184.263.276 2.949 3.023 7.142 4.76 11.5 4.76h1.042v2.418h-1.042c-5.006 0-9.83-2.003-13.235-5.493-.103-.107-.2-.208-.296-.312-3.884-4.175-5.854-10.208-5.854-17.932 0-10.269 3.514-22.486 9.17-31.887 5.869-9.756 13.245-15.35 20.237-15.35 6.992 0 14.368 5.594 20.235 15.35 5.656 9.4 9.17 21.618 9.17 31.887z" fill="#E4E4EF"/></g><defs><clipPath id="clip0_1049:2176"><path fill="#fff" d="M0 0h79v79H0z"/></clipPath></defs></svg>