<svg width="128" height="123" fill="none" xmlns="http://www.w3.org/2000/svg"><path d="M92.837 43.813H4.564c-1.68 0-3.044 1.352-3.044 3.021 0 1.669 1.363 3.022 3.044 3.022h88.272c1.68 0 3.043-1.353 3.043-3.022a3.032 3.032 0 00-3.043-3.022z" fill="#A15C27"/><path d="M48.7 60.434H24.35v18.13h48.7v-18.13H48.7zm0 13.597c-5.89 0-10.653-2.025-10.653-4.533 0-2.508 4.764-4.532 10.653-4.532 5.89 0 10.654 2.025 10.654 4.532 0 2.508-4.764 4.533-10.654 4.533z" fill="#FFDD52"/><path d="M48.7 74.03c5.884 0 10.654-2.03 10.654-4.533 0-2.503-4.77-4.532-10.654-4.532-5.883 0-10.653 2.03-10.653 4.532 0 2.504 4.77 4.533 10.653 4.533z" fill="#88AB00"/><path d="M92.837 89.137a3.066 3.066 0 012.15.887 3.02 3.02 0 01.893 2.134 3.033 3.033 0 01-.898 2.13c-.57.566-1.34.886-2.145.892H4.564a3.064 3.064 0 01-2.15-.888 3.02 3.02 0 01-.893-2.134 2.935 2.935 0 01.897-2.13 2.978 2.978 0 012.146-.891h88.272z" fill="#A15C27"/><path d="M91.315 89.14H6.088V69.5H24.35v9.065h48.701V69.5h18.263v19.64z" fill="#E5AA5C"/><path d="M6.088 49.86h85.227V69.5H73.052v-9.065H24.351V69.5H6.088V49.86z" fill="#F5B662"/><path d="M92.837 43.813h-6.088c.404 0 .79.159 1.076.442a1.506 1.506 0 010 2.137 1.528 1.528 0 01-1.076.442H10.653c-.404 0-.79-.159-1.076-.442a1.505 1.505 0 010-2.137 1.528 1.528 0 011.076-.443H4.565a2.995 2.995 0 00-2.146.892 2.953 2.953 0 00-.897 2.13c.002.8.323 1.568.894 2.134.57.566 1.343.885 2.15.888h88.27a3.078 3.078 0 002.146-.892 3.03 3.03 0 00.898-2.13 3.02 3.02 0 00-.894-2.134 3.064 3.064 0 00-2.15-.888zm0 45.324h-6.088c.404 0 .79.159 1.076.442a1.505 1.505 0 010 2.137 1.528 1.528 0 01-1.076.442H10.653c-.404 0-.79-.159-1.076-.442a1.505 1.505 0 010-2.137 1.527 1.527 0 011.076-.442H4.565a2.994 2.994 0 00-2.146.891 2.953 2.953 0 00-.897 2.13c.002.801.323 1.568.894 2.134.57.567 1.343.886 2.15.888h88.27a3.078 3.078 0 002.146-.892 3.03 3.03 0 00.898-2.13 3.02 3.02 0 00-.894-2.134 3.064 3.064 0 00-2.15-.887z" fill="#78451D"/><path d="M6.088 49.86V69.5h7.61v-9.065c0-1.603.64-3.14 1.782-4.273a6.11 6.11 0 014.305-1.77h71.53v-4.533H6.088zm0 19.64h7.61v19.64h-7.61V69.5z" fill="#D28E43"/><path d="M6.088 67.988H24.35v3.022H6.088v-3.022zm66.965 0h18.263v3.022H73.053v-3.022z" fill="#A15C27"/><path d="M6.088 67.988h7.61v3.022h-7.61v-3.022z" fill="#5C3516"/><path d="M82.184 57.412c.84 0 1.522-.676 1.522-1.51 0-.835-.681-1.511-1.522-1.511-.84 0-1.522.676-1.522 1.51 0 .835.681 1.511 1.522 1.511zm0 27.196c.84 0 1.522-.677 1.522-1.511 0-.835-.681-1.511-1.522-1.511-.84 0-1.522.676-1.522 1.51 0 .835.681 1.512 1.522 1.512zM15.22 57.412c.84 0 1.521-.676 1.521-1.51 0-.835-.681-1.511-1.522-1.511-.84 0-1.522.676-1.522 1.51 0 .835.682 1.511 1.522 1.511zm0 27.196c.84 0 1.521-.677 1.521-1.511 0-.835-.681-1.511-1.522-1.511-.84 0-1.522.676-1.522 1.51 0 .835.682 1.512 1.522 1.512z" fill="#78451D"/><path d="M48.702 64.21c-6.508 0-11.415 2.275-11.415 5.289s4.907 5.288 11.415 5.288c6.507 0 11.414-2.267 11.414-5.288 0-3.022-4.907-5.288-11.414-5.288zm0 9.821c-5.884 0-10.654-2.029-10.654-4.532 0-2.504 4.77-4.533 10.654-4.533 5.883 0 10.653 2.03 10.653 4.533 0 2.503-4.77 4.532-10.653 4.532z" fill="#FAAB1B"/><path d="M77.617 16.621h3.044v13.597h-3.044V16.621z" fill="#78451D"/><path d="M47.18 39.282c10.653 0 24.35-6.044 24.35-6.044h12.176c4.398 0 8.142 4.669 8.858 8.96l.273 1.616H6.088v-3.626a2.897 2.897 0 01.609-1.813c1.263-1.586 4.611-4.729 11.703-5.091a2.918 2.918 0 002.162 2.009 184.743 184.743 0 0020.271 3.596c2.108.24 4.226.371 6.347.392z" fill="#D2F7FF"/><path d="M88.27 6.043v6.043a5.658 5.658 0 01-2.678-.921 5.604 5.604 0 01-1.887-2.1 5.604 5.604 0 011.887-2.1 5.658 5.658 0 012.679-.922zm-4.565 3.022l-1.857 1.843a4.071 4.071 0 01-2.86 1.178h-1.37c-6.088 0-7.61-3.021-7.61-3.021s1.522-3.022 7.61-3.022h1.37a4.07 4.07 0 012.86 1.178l1.857 1.844z" fill="#2C3D45"/><path d="M62.398 1.512h33.483V16.62H62.398V1.512zm25.873 10.575V6.044a5.658 5.658 0 00-2.679.922 5.604 5.604 0 00-1.887 2.1L81.85 7.223a4.07 4.07 0 00-2.862-1.179h-1.37c-6.087 0-7.609 3.022-7.609 3.022s1.522 3.021 7.61 3.021h1.37a4.07 4.07 0 002.86-1.178l1.857-1.843a5.604 5.604 0 001.887 2.1c.8.529 1.722.846 2.679.921z" fill="#F5B662"/><path d="M20.15 38.697c7.83 2.11 15.877 3.32 23.985 3.606 10.679 0 23.699-2.325 28.791-4.934a3.012 3.012 0 001.647-2.689v-1.442H71.53s-13.697 6.044-24.35 6.044a61.264 61.264 0 01-6.347-.393 184.744 184.744 0 01-20.272-3.596 2.928 2.928 0 01-1.356-.713 2.897 2.897 0 01-.805-1.296c-.581.03-1.128.084-1.659.15v.882c0 1.002.334 1.976.951 2.769a4.559 4.559 0 002.46 1.612z" fill="#99EFFF"/><path d="M79.14 40.793h-1.522l-.76 1.51.76 1.512h1.522l.761-1.511-.76-1.511z" fill="#fff"/><path d="M78.175 34.75h-2.636l-1.318 2.266 1.318 2.266h2.636l1.318-2.266-1.318-2.266z" fill="#99EFFF"/><path d="M82.74 37.77h-2.637l-1.318 2.266 1.318 2.266h2.636l1.318-2.266-1.318-2.267z" fill="#69E5FD"/><path d="M85.784 34.75h-2.636l-1.318 2.266 1.318 2.266h2.636l1.318-2.266-1.318-2.266z" fill="#99EFFF"/><path d="M88.271 38.527H86.75l-.76 1.511.76 1.511h1.522l.761-1.51-.76-1.512zM86.75 34.75h-1.522l-.761 1.51.76 1.512h1.523l.76-1.511-.76-1.511zm-16.743 3.023h-1.521l-.761 1.511.76 1.511h1.522l.761-1.51-.76-1.512zm-3.042 1.508h-1.522l-.761 1.511.76 1.51h1.523l.76-1.51-.76-1.51zm-3.045-1.508h-1.522l-.761 1.511.76 1.511h1.523l.76-1.51-.76-1.512zm-7.61 1.508h-1.522l-.76 1.511.76 1.51h1.522l.761-1.51-.76-1.51zm3.045 1.512h-1.522l-.76 1.51.76 1.512h1.522l.761-1.511-.76-1.511zm-25.873-1.512H31.96l-.76 1.511.76 1.51h1.522l.761-1.51-.76-1.51zm3.043 1.512h-1.522l-.76 1.51.76 1.512h1.522l.761-1.511-.76-1.511zm38.049-1.512h-1.522l-.761 1.511.761 1.51h1.522l.76-1.51-.76-1.51zm-47.18-1.508h-1.522l-.76 1.511.76 1.511h1.522l.761-1.51-.76-1.512zm53.268-3.023H79.14l-.761 1.51.76 1.512h1.523l.76-1.511-.76-1.511z" fill="#fff"/><path d="M12.731 36.262h-2.636l-1.318 2.266 1.318 2.266h2.636l1.318-2.266-1.318-2.266zm4.567 3.019h-2.636l-1.318 2.267 1.318 2.266h2.636l1.318-2.267-1.318-2.266z" fill="#99EFFF"/><path d="M20.34 36.262h-2.635l-1.318 2.266 1.318 2.266h2.636l1.318-2.266-1.318-2.266z" fill="#69E5FD"/><path d="M15.218 36.262h-1.521l-.761 1.51.76 1.511h1.522l.761-1.51-.76-1.511zm-4.564 3.019H9.132l-.76 1.511.76 1.51h1.522l.76-1.51-.76-1.51zm12.174 0h-1.522l-.761 1.511.76 1.51h1.523l.76-1.51-.76-1.51z" fill="#fff"/><path d="M29.677 30.217c1.261 0 2.283-.676 2.283-1.51 0-.835-1.022-1.512-2.283-1.512-1.26 0-2.282.677-2.282 1.511 0 .835 1.022 1.51 2.282 1.51z" fill="#2C3D45"/><path d="M85.12 31.547l.107 1.692H71.529v-3.021l10.654-1.511 2.937 2.84z" fill="#F5B662"/><path d="M79.139 23.963l3.044-1.299v6.043l-10.654 1.511v-3.021l7.61-3.234z" fill="#FAD27A"/><path d="M28.261 20.624a22.167 22.167 0 00-9.649 10.395c-.2.373-.315.786-.334 1.208h-.016a258.248 258.248 0 01-6.833-1.465 2.965 2.965 0 01-1.655-1.036 2.926 2.926 0 01-.643-1.835c0-.49.12-.971.35-1.405a21.601 21.601 0 0111.856-11.361l6.924 5.5zm32.599 2.098c-6.3-2.282-14.382-4.593-21.291-4.593a25.717 25.717 0 00-9.117 1.526c-.749.28-1.48.603-2.191.967l-6.925-5.5a25.72 25.72 0 019.101-1.526c13.697 0 30.438 9.065 30.438 9.065l-.015.06z" fill="#B8CFCD"/><path d="M54.789 30.218l-4.566 3.021h-9.131v-4.532h9.131l4.566 1.51z" fill="#E5AA5C"/><path d="M41.091 33.238v3.022l-.259 2.629a184.744 184.744 0 01-20.272-3.596 2.928 2.928 0 01-1.356-.712 2.896 2.896 0 01-.805-1.297 2.69 2.69 0 01-.137-.861.85.85 0 01.016-.197c.02-.422.133-.835.334-1.209a22.167 22.167 0 019.65-10.394 20.78 20.78 0 012.19-.967l10.64 9.05v4.532zm-9.131-4.532c0-.831-1.02-1.51-2.283-1.51-1.264 0-2.283.679-2.283 1.51 0 .83 1.02 1.51 2.283 1.51s2.283-.68 2.283-1.51z" fill="#FCDE88"/><path d="M71.53 33.24s-13.698 6.043-24.351 6.043a61.264 61.264 0 01-6.346-.393l.258-2.629V33.24h9.132l4.566-3.022-4.566-1.51H41.09l-10.638-9.05a25.72 25.72 0 019.116-1.526c6.91 0 14.991 2.311 21.292 4.593 6.179 2.25 10.669 4.472 10.669 4.472v6.043z" fill="#FCDE88"/><path d="M30.453 19.656c-.391.151-.737.324-1.104.487l7.896 9.145a3.297 3.297 0 01.497 3.535 3.316 3.316 0 01-1.23 1.404 3.351 3.351 0 01-1.798.522H21.306a3.047 3.047 0 01-2.012-.763 3.005 3.005 0 01-.995-1.896c0 .045-.02.09-.021.136a.85.85 0 00-.016.197 2.69 2.69 0 00.137.86 2.918 2.918 0 002.161 2.01 184.744 184.744 0 0020.272 3.596l.26-2.629v-7.554l-10.64-9.05z" fill="#F2CA70"/><path d="M49.462 30.219h-8.37v1.51h8.37a.753.753 0 100-1.51z" fill="#CF9953"/><path d="M68.333 25.727c.098.317.149.646.152.977a3.5 3.5 0 01-1.036 2.484 3.552 3.552 0 01-2.502 1.029H54.788l-4.566 3.021h-9.131v3.022l-.259 2.629c2.107.24 4.225.371 6.346.392 10.654 0 24.351-6.043 24.351-6.043v-6.043s-1.195-.59-3.196-1.468z" fill="#F2CA70"/><path d="M82.183 28.708v-1.51l-9.132 1.51v-2.157l-1.522.646v6.044h1.522V31.73l10.654-1.511-1.522-1.51z" fill="#E5AA5C"/><path d="M21.337 15.125a20.49 20.49 0 00-2.665 1.209l.951.755a3.026 3.026 0 011.17 2.278 3.002 3.002 0 01-1.008 2.353 7.68 7.68 0 00-2.11 2.416 7.621 7.621 0 00-.934 3.06h-4.566a3.05 3.05 0 01-2.426-1.208c-.1.19-.191.365-.268.504a2.944 2.944 0 00.82 3.74c.372.283.806.474 1.265.56 1.64.376 3.99.891 6.697 1.435h.015c.02-.422.134-.835.335-1.208a22.168 22.168 0 019.649-10.395l-6.925-5.499z" fill="#A3B7B6"/><path d="M18.262 24.174c.84 0 1.522-.677 1.522-1.51 0-.835-.681-1.512-1.522-1.512-.84 0-1.522.677-1.522 1.511 0 .834.682 1.511 1.522 1.511z" fill="#2C3D45"/><path d="M25.836 18.697l2.426 1.926a20.77 20.77 0 012.191-.967 25.72 25.72 0 019.117-1.526c6.91 0 14.99 2.312 21.291 4.593l.016-.06s-16.742-6.044-25.873-6.044a18.563 18.563 0 00-9.168 2.078z" fill="#A3B7B6"/><path d="M62.398 1.512V16.62h33.483V1.512H62.398zm31.96 13.597H63.92V3.023h30.44v12.086z" fill="#BD7D35"/><g clip-path="url(#clip0)"><path d="M71.206 98.298c8.166 1.12 7.44-9.46 19.28-8.217 10.489 1.1 19.711 5.113 25.349-7.51 5.603-12.543-11.403-31.59-30.827-27.41-20.235 4.356-32.417 40.582-13.802 43.137z" fill="#FF7B8B"/><path d="M72.225 94.816c4.132.575 8.967-10.587 19.244-8.396 9.486 2.022 17.775 2.429 21.248-4.167 4.722-8.965-10.097-27.149-27.178-23.181-16.662 3.87-27.958 33.706-13.314 35.744z" fill="#FF4755"/><path d="M90.486 90.078c-11.84-1.243-11.113 9.338-19.28 8.217-11.863-1.629-11.217-16.933-3.95-28.947l-.002-.001-3.02 4.994h.004c-6.487 10.975-7.467 25.336 3.008 30.168 7.397 3.412 14.29-8.727 19.76-8.723 9.795.008 18.396 4.408 24.089-5.073l.002.001 3.053-5.007c-5.701 8.754-14.162 5.368-23.664 4.37z" fill="#994E37"/><path d="M87.206 93.418c-7.41.398-12.364 12.135-19.76 8.723-5.83-2.69-8.11-8.33-7.87-14.694-.947 7.308 1.127 14.045 7.67 17.064 7.397 3.412 14.29-8.727 19.761-8.723 9.794.008 18.396 4.408 24.089-5.073l.002.001 3.052-5.007c-7.664 12.59-17.163 7.184-26.944 7.709z" fill="#8C4534"/><path d="M93.372 75.21c2.33 1.42 4.969 1.34 5.895-.18.926-1.52-.212-3.902-2.541-5.322-2.33-1.42-4.969-1.34-5.895.18-.926 1.519.212 3.902 2.541 5.322z" fill="#F4E9D3"/><path d="M94.48 73.394c-1.842-1.122-2.937-2.846-2.859-4.27a2.236 2.236 0 00-.79.765c-.926 1.52.212 3.902 2.541 5.322 2.33 1.42 4.97 1.34 5.895-.18.194-.318.297-.675.318-1.052-1.23.722-3.264.538-5.105-.585z" fill="#E5D6BE"/></g><defs><clipPath id="clip0"><path fill="#fff" transform="rotate(31.364 -36.34 159.693)" d="M0 0h58.755v58.755H0z"/></clipPath></defs></svg>