<svg width="249" height="28" fill="none" xmlns="http://www.w3.org/2000/svg"><g clip-path="url(#clip0)" fill-rule="evenodd" clip-rule="evenodd"><path d="M16.611 24.137h12.315V2.889H16.61v21.248z" fill="#FF5F00"/><path d="M17.395 13.513c0-4.31 2.102-8.15 5.375-10.624C20.376 1.08 17.356 0 14.073 0 6.3 0 0 6.05 0 13.513s6.3 13.513 14.072 13.513c3.284 0 6.304-1.08 8.698-2.889-3.273-2.474-5.375-6.313-5.375-10.624z" fill="#EB001B"/><path d="M45.1 21.887v-.525h-.142l-.164.361-.164-.36h-.143v.524h.1v-.396l.154.341h.105L45 21.49v.397h.1zm-.903 0v-.435h.183v-.089h-.466v.089h.183v.435h.1zm1.343-8.374c0 7.463-6.301 13.513-14.073 13.513-3.283 0-6.304-1.08-8.697-2.889 3.273-2.474 5.375-6.313 5.375-10.624 0-4.31-2.102-8.15-5.375-10.624C25.163 1.08 28.184 0 31.466 0 39.24 0 45.54 6.05 45.54 13.513z" fill="#F79E1B"/></g><g clip-path="url(#clip1)"><path d="M94.73 26.674h-6.578l4.114-26.2h6.577l-4.113 26.2zm23.84-25.559C117.273.585 115.215 0 112.671 0c-6.496 0-11.07 3.567-11.098 8.668-.054 3.763 3.275 5.853 5.765 7.108 2.545 1.282 3.41 2.119 3.41 3.262-.026 1.755-2.057 2.564-3.95 2.564-2.626 0-4.033-.417-6.172-1.394l-.866-.418-.92 5.88c1.543.725 4.385 1.367 7.335 1.395 6.902 0 11.395-3.512 11.448-8.947.027-2.983-1.731-5.268-5.521-7.136-2.3-1.198-3.709-2.007-3.709-3.233.027-1.115 1.191-2.257 3.788-2.257 2.139-.056 3.71.473 4.9 1.003l.595.278.894-5.658zm8.743 16.278c.542-1.505 2.626-7.33 2.626-7.33-.027.055.541-1.534.865-2.51l.46 2.258s1.246 6.272 1.516 7.582h-5.467zM135.432.475h-5.088c-1.568 0-2.76.473-3.437 2.173l-9.77 24.026h6.901l1.381-3.93h8.444c.189.92.785 3.93.785 3.93h6.09l-5.306-26.2zm-52.775 0L76.216 18.34l-.704-3.623c-1.191-4.18-4.926-8.723-9.094-10.982l5.9 22.912h6.956L89.612.475h-6.955z" fill="#00579F"/><path d="M70.234.475H59.65l-.108.529c8.255 2.174 13.722 7.415 15.968 13.714l-2.3-12.041C72.832 1.004 71.668.53 70.234.475z" fill="#FAA61A"/></g><g clip-path="url(#clip2)" fill-rule="evenodd" clip-rule="evenodd"><path d="M238.364 0h-17.979c.966 5.993 6.766 11.6 13.146 11.6h14.306c.193-.58.193-1.354.193-1.934 0-5.413-4.253-9.666-9.666-9.666z" fill="url(#paint0_linear)"/><path d="M221.934 12.566v14.5h8.699v-7.733h7.733c4.253 0 7.926-2.9 9.086-6.767h-25.518zM191.004 0v27.065h7.733s1.933 0 2.9-1.933l6.766-13.533h.967v15.466h8.699V0h-7.733s-1.933.193-2.9 1.933l-6.766 13.533h-.967V0h-8.699zm-36.733 27.065V0h8.7s2.513 0 3.866 3.866c3.48 10.247 3.867 11.6 3.867 11.6s.773-2.513 3.866-11.6C175.924 0 178.437 0 178.437 0h8.699v27.065h-8.699V12.566h-.967l-4.833 14.5h-3.866l-4.833-14.5h-.967v14.5h-8.7z" fill="#4DB45F"/></g><defs><clipPath id="clip0"><path fill="#fff" d="M0 0h46.011v27.065H0z"/></clipPath><clipPath id="clip1"><path fill="#fff" transform="translate(59.543)" d="M0 0h81.196v27.065H0z"/></clipPath><clipPath id="clip2"><path fill="#fff" transform="translate(154.271)" d="M0 0h94.728v27.065H0z"/></clipPath><linearGradient id="paint0_linear" x1="220.335" y1="5.8" x2="248.03" y2="5.8" gradientUnits="userSpaceOnUse"><stop stop-color="#00B4E6"/><stop offset="1" stop-color="#088CCB"/></linearGradient></defs></svg>