<svg width="150" height="150" fill="none" xmlns="http://www.w3.org/2000/svg"><path d="M31.19 58.107a2.324 2.324 0 01-2.323-2.324v-1.55a6.98 6.98 0 00-6.973-6.971 2.324 2.324 0 010-4.649c6.408 0 11.621 5.213 11.621 11.62v1.55a2.324 2.324 0 01-2.324 2.324z" fill="#353744"/><path d="M40.487 51.91a13.89 13.89 0 00-9.297 3.554 13.89 13.89 0 00-9.296-3.554c-7.702 0-13.945 6.243-13.945 13.945 0 13.17 9.297 23.241 16.269 23.241h13.945c6.972 0 16.269-10.071 16.269-23.241 0-7.702-6.244-13.945-13.945-13.945z" fill="#91B945"/><path d="M19.57 65.855a4.648 4.648 0 100-9.296 4.648 4.648 0 000 9.296z" fill="#AFD763"/><path d="M42.812 33.316c-6.418 0-11.62 5.203-11.62 11.621v2.324h2.324c6.417 0 11.62-5.203 11.62-11.62a2.324 2.324 0 00-2.324-2.325z" fill="#69A041"/><path d="M79.996 37.964a4.648 4.648 0 01-4.648-4.648c0-4.24 1.65-8.225 4.648-11.222l2.723-2.723a15.765 15.765 0 0111.222-4.648 4.648 4.648 0 110 9.296 6.53 6.53 0 00-4.649 1.926l-2.723 2.722a6.53 6.53 0 00-1.925 4.649 4.648 4.648 0 01-4.648 4.648z" fill="#4B8C41"/><path d="M61.404 37.964a4.648 4.648 0 01-4.649-4.648 6.531 6.531 0 00-1.925-4.649l-2.723-2.722a6.53 6.53 0 00-4.648-1.926 4.648 4.648 0 110-9.296c4.239 0 8.224 1.65 11.221 4.648l2.724 2.723a15.767 15.767 0 014.648 11.222 4.648 4.648 0 01-4.649 4.648zm11.619-.001a4.648 4.648 0 01-4.648-4.648v-6.243a23.088 23.088 0 016.807-16.434l3.851-3.85a4.648 4.648 0 016.574 6.573l-3.851 3.85a13.853 13.853 0 00-4.085 9.86v6.244a4.648 4.648 0 01-4.648 4.648z" fill="#69A041"/><path d="M68.377 37.963a4.648 4.648 0 01-4.649-4.648v-6.243a13.85 13.85 0 00-4.084-9.86l-3.85-3.851a4.648 4.648 0 116.573-6.574l3.85 3.85a23.088 23.088 0 016.808 16.435v6.243a4.648 4.648 0 01-4.648 4.648z" fill="#91B945"/><path d="M93.941 112.336V42.613a9.296 9.296 0 00-9.296-9.297h-27.89a9.297 9.297 0 00-9.296 9.297v69.723h46.482z" fill="#FAA037"/><path d="M93.94 112.337V42.613H75.347a4.648 4.648 0 00-4.648 4.648v65.076H93.94zM59.08 56.554H47.459v-4.648h11.62a2.324 2.324 0 010 4.648zm0 25.566H47.459v-4.647h11.62a2.324 2.324 0 010 4.648zm0 25.567H47.459v-4.648h11.62a2.324 2.324 0 010 4.648z" fill="#F57828"/><path d="M82.32 70.5h11.62v-4.648H82.32a2.324 2.324 0 000 4.648zm0 23.242h11.62v-4.648H82.32a2.324 2.324 0 000 4.648z" fill="#D65A0A"/><path d="M112.533 44.937a2.324 2.324 0 01-2.324-2.324v-2.324c0-6.408 5.213-11.621 11.621-11.621a2.324 2.324 0 010 4.648 6.98 6.98 0 00-6.973 6.973v2.324a2.324 2.324 0 01-2.324 2.324z" fill="#4B8C41"/><path d="M112.534 98.392c15.403 0 27.889-12.486 27.889-27.89 0-15.402-12.486-27.889-27.889-27.889-15.403 0-27.89 12.487-27.89 27.89s12.487 27.89 27.89 27.89z" fill="#E1322D"/><path d="M103.237 70.503H84.644c0-15.403 12.487-27.89 27.89-27.89v18.593a9.296 9.296 0 01-9.297 9.297z" fill="#F04B37"/><path d="M98.59 61.207a4.648 4.648 0 100-9.297 4.648 4.648 0 000 9.297z" fill="#F5826E"/><path d="M128.803 40.29H96.266a2.324 2.324 0 000 4.647h10.657l-3.004 3.005a2.324 2.324 0 103.286 3.287l5.329-5.329 5.329 5.329c.454.454 1.049.68 1.644.68s1.189-.226 1.643-.68a2.324 2.324 0 000-3.287l-3.005-3.005h10.658a2.324 2.324 0 100-4.648z" fill="#69A041"/><path d="M140.424 93.741H10.274a4.648 4.648 0 01-4.649-4.648v-9.296a4.648 4.648 0 014.648-4.649h130.151a4.648 4.648 0 014.648 4.649v9.296a4.648 4.648 0 01-4.648 4.648z" fill="#555A66"/><path d="M140.423 75.148H75.348v18.593h65.075a4.648 4.648 0 004.648-4.648v-9.296a4.648 4.648 0 00-4.648-4.649zm-21.565 65.077H31.84a9.297 9.297 0 01-9.116-7.474l-7.802-39.009h120.854l-7.802 39.009a9.296 9.296 0 01-9.116 7.474z" fill="#333940"/><path d="M31.84 140.225h34.212a9.296 9.296 0 009.297-9.297V98.391H15.852l6.872 34.361a9.297 9.297 0 009.116 7.473z" fill="#555A66"/></svg>