<svg width="150" height="150" fill="none" xmlns="http://www.w3.org/2000/svg"><path d="M39.559 130.926l36.01-50.75 36.014 50.75H39.559z" fill="#E9EDF5"/><path d="M75.573 80.184l-.005 50.743h36.015l-36.01-50.743z" fill="#CDD2E1"/><path d="M4.787 75.781h141.564v20.562H4.787V75.781z" fill="#555A66"/><path d="M75.563 75.781h70.782v20.561H75.563v-20.56z" fill="#333940"/><g clip-path="url(#clip0)"><path d="M119.72 6.977c-14.193 0-25.823 11.863-25.823 26.34 0 14.476 11.63 26.34 25.823 26.34s25.824-11.864 25.824-26.34c0-14.477-11.631-26.34-25.824-26.34z" fill="#FFE470"/><path d="M145.542 33.317c0 14.476-11.63 26.34-25.823 26.34V6.977c14.193 0 25.823 11.863 25.823 26.34z" fill="#FFD400"/><path d="M119.719 13.254c-10.834 0-19.67 9.013-19.67 20.064 0 11.05 8.836 20.063 19.67 20.063 10.834 0 19.67-9.013 19.67-20.063 0-11.051-8.836-20.064-19.67-20.064z" fill="#FDBF00"/><path d="M139.389 33.318c0 11.05-8.836 20.063-19.67 20.063V13.254c10.834 0 19.67 9.013 19.67 20.064z" fill="#FF9F00"/><path d="M127.285 37.946c0 3.396-2.723 6.174-6.052 6.174v1.543c0 .864-.666 1.543-1.513 1.543-.848 0-1.513-.679-1.513-1.543V44.12h-4.54c-.847 0-1.513-.68-1.513-1.544s.666-1.543 1.513-1.543h7.566c1.664 0 3.026-1.39 3.026-3.087 0-1.698-1.362-3.087-3.026-3.087h-3.026c-3.329 0-6.053-2.778-6.053-6.173s2.724-6.174 6.053-6.174V20.97c0-.864.665-1.543 1.513-1.543.847 0 1.513.679 1.513 1.543v1.543h4.539c.848 0 1.513.68 1.513 1.544s-.665 1.543-1.513 1.543h-7.565c-1.665 0-3.027 1.39-3.027 3.087 0 1.698 1.362 3.087 3.027 3.087h3.026c3.329 0 6.052 2.778 6.052 6.173zm-18.159-4.629c0 .852-.678 1.543-1.513 1.543-.836 0-1.513-.69-1.513-1.543s.677-1.544 1.513-1.544c.835 0 1.513.691 1.513 1.544z" fill="#FFE470"/><path d="M133.335 33.317c0 .852-.678 1.543-1.513 1.543-.836 0-1.513-.69-1.513-1.543s.677-1.544 1.513-1.544c.835 0 1.513.691 1.513 1.544zm-6.051 4.63c0 3.395-2.723 6.173-6.052 6.173v1.544c0 .864-.666 1.543-1.513 1.543v-6.173h1.513c1.664 0 3.026-1.39 3.026-3.087 0-1.698-1.362-3.087-3.026-3.087h-1.513v-3.087h1.513c3.329 0 6.052 2.778 6.052 6.174zM125.771 25.6h-6.052v-6.174c.847 0 1.513.679 1.513 1.543v1.543h4.539c.848 0 1.513.68 1.513 1.544s-.665 1.543-1.513 1.543z" fill="#FFD400"/></g><g clip-path="url(#clip1)"><path d="M31.402 59.657c14.548 0 26.34-11.793 26.34-26.34 0-14.548-11.792-26.34-26.34-26.34-14.547 0-26.34 11.792-26.34 26.34 0 14.547 11.793 26.34 26.34 26.34z" fill="url(#paint0_linear)"/><path d="M39.12 19.426c-3.388 0-5.987 1.904-7.717 4.739-1.73-2.835-4.33-4.74-7.717-4.74-2.625 0-5.02 1.109-6.744 3.12-1.622 1.894-2.516 4.424-2.516 7.123 0 2.935 1.1 5.648 3.464 8.538 2.072 2.535 5.046 5.142 8.49 8.161 1.274 1.116 2.59 2.27 3.99 3.53a1.54 1.54 0 002.065 0c1.4-1.26 2.716-2.414 3.99-3.53 3.444-3.019 6.419-5.626 8.49-8.16 2.364-2.891 3.465-5.604 3.465-8.539 0-5.519-3.781-10.242-9.26-10.242z" fill="url(#paint1_linear)"/></g><defs><linearGradient id="paint0_linear" x1="31.402" y1="59.657" x2="31.402" y2="6.977" gradientUnits="userSpaceOnUse"><stop stop-color="#FD803A"/><stop offset="1" stop-color="#FFA68D"/></linearGradient><linearGradient id="paint1_linear" x1="31.403" y1="50.293" x2="31.403" y2="19.426" gradientUnits="userSpaceOnUse"><stop stop-color="#FFC2CC"/><stop offset="1" stop-color="#FFF2F4"/></linearGradient><clipPath id="clip0"><path fill="#fff" transform="translate(93.897 6.977)" d="M0 0h51.647v52.68H0z"/></clipPath><clipPath id="clip1"><path fill="#fff" transform="translate(5.063 6.977)" d="M0 0h52.68v52.68H0z"/></clipPath></defs></svg>