<svg width="80" height="80" fill="none" xmlns="http://www.w3.org/2000/svg"><g clip-path="url(#clip0_1079:8794)" fill="#3CD52E"><path d="M74.256 41.328a2.436 2.436 0 010-2.656l2.921-4.49c2.661-4.09.868-9.586-3.68-11.327l-5.003-1.916a2.437 2.437 0 01-1.561-2.149l-.276-5.35c-.251-4.872-4.932-8.266-9.635-7l-5.174 1.39a2.437 2.437 0 01-2.526-.82l-3.368-4.167c-3.067-3.794-8.847-3.788-11.91 0L30.676 7.01a2.437 2.437 0 01-2.526.82l-5.173-1.39c-4.713-1.267-9.385 2.137-9.636 7l-.275 5.35a2.437 2.437 0 01-1.562 2.15l-5.003 1.915c-4.558 1.744-6.336 7.244-3.68 11.327l2.922 4.49a2.44 2.44 0 010 2.656l-2.922 4.49c-2.661 4.091-.868 9.587 3.68 11.327l5.004 1.916a2.437 2.437 0 011.56 2.149l.277 5.35c.251 4.873 4.932 8.265 9.635 7l5.173-1.39c.93-.25 1.922.072 2.527.82l3.368 4.166c3.067 3.796 8.848 3.788 11.91 0l3.367-4.166a2.439 2.439 0 012.526-.82l5.174 1.39c4.712 1.268 9.385-2.136 9.635-7l.276-5.35a2.437 2.437 0 011.561-2.149l5.003-1.916c4.558-1.744 6.337-7.244 3.68-11.327l-2.921-4.49zm-2.626 10.94l-5.003 1.916a7.663 7.663 0 00-4.91 6.757l-.275 5.35a2.435 2.435 0 01-3.065 2.226l-5.173-1.39a7.662 7.662 0 00-7.943 2.58l-3.368 4.166a2.435 2.435 0 01-3.788 0l-3.367-4.166a7.664 7.664 0 00-7.944-2.58l-5.173 1.39a2.435 2.435 0 01-3.064-2.226l-.276-5.35a7.663 7.663 0 00-4.91-6.757L8.37 52.268a2.435 2.435 0 01-1.17-3.602l2.92-4.49a7.663 7.663 0 000-8.352l-2.92-4.49a2.435 2.435 0 011.17-3.602l5.003-1.916a7.662 7.662 0 004.909-6.757l.276-5.35a2.435 2.435 0 013.064-2.226l5.174 1.39a7.662 7.662 0 007.943-2.58l3.368-4.167a2.435 2.435 0 013.787 0l3.368 4.167a7.662 7.662 0 007.943 2.58l5.174-1.39c1.5-.403 2.984.68 3.064 2.226l.276 5.35a7.662 7.662 0 004.909 6.757l5.003 1.916a2.435 2.435 0 011.17 3.602l-2.921 4.49a7.662 7.662 0 000 8.352l2.921 4.49a2.435 2.435 0 01-1.17 3.603z"/><path d="M53.043 26.692a2.611 2.611 0 00-3.692 0l-24.37 24.37a2.611 2.611 0 003.693 3.692l24.37-24.37a2.61 2.61 0 000-3.692zM29.44 25.93a5.228 5.228 0 00-5.222 5.222 5.228 5.228 0 005.222 5.222 5.228 5.228 0 005.222-5.222 5.228 5.228 0 00-5.222-5.222zm19.148 19.146a5.228 5.228 0 00-5.222 5.222 5.228 5.228 0 005.222 5.222 5.228 5.228 0 005.222-5.222 5.228 5.228 0 00-5.222-5.222z"/></g><defs><clipPath id="clip0_1079:8794"><path fill="#fff" d="M0 0h80v80H0z"/></clipPath></defs></svg>