<svg width="123" height="123" fill="none" xmlns="http://www.w3.org/2000/svg"><path d="M51.89 67.266c8.492 0 15.376-6.884 15.376-15.375 0-8.492-6.884-15.375-15.375-15.375-8.492 0-15.375 6.883-15.375 15.375 0 8.491 6.883 15.375 15.375 15.375z" fill="#FCBC04"/><path d="M67.266 51.887a15.375 15.375 0 01-30.75 0c-.007-2.53.62-5.021 1.826-7.246a15.315 15.315 0 0015.413 4.843L46.49 39.01a8.848 8.848 0 01-.71-1.23 15.126 15.126 0 016.11-1.268 15.376 15.376 0 0115.376 15.375z" fill="#E59730"/><path d="M30.906 50.168l1.346-3.602a7.69 7.69 0 019.893-4.512L40.8 45.655a7.69 7.69 0 01-9.894 4.513z" fill="#7AB92D"/><path d="M42.128 42.068l-1.345 3.594a7.688 7.688 0 01-9.879 4.517l1.307-3.479a7.687 7.687 0 008.572-4.882l.038-.115c.444.092.88.214 1.307.365z" fill="#5BA006"/><path d="M42.281 44.203c-.51 0-.998-.203-1.359-.563l-5.765-5.766a1.922 1.922 0 012.717-2.717l5.766 5.765a1.922 1.922 0 01-1.359 3.28z" fill="#A1D51C"/><path d="M56.318 32.276l-14.345-9.471 5.696-5.508L58.685 28.69l-2.367 3.586z" fill="#7AB92D"/><path d="M58.693 28.694l-2.383 3.574-14.337-9.455 1.98-1.922 4.938 3.248a4.228 4.228 0 002.883.672l-1.326-4.631 8.245 8.514z" fill="#5BA006"/><path d="M59.648 30.354l-1.03-17.159L51 15.375l4.359 15.236 4.29-.257z" fill="#A1D51C"/><path d="M59.654 30.344l-4.305.27-4.343-15.241 2.96-.846 1.172 4.113a5.326 5.326 0 004.036 3.767l.48 7.937z" fill="#7AB92D"/><path d="M78.162 66.268a6.267 6.267 0 01-8.281-1.855L52.257 39.014a8.84 8.84 0 016.292-13.816 8.84 8.84 0 018.97 5.02l13.178 27.959a6.267 6.267 0 01-2.535 8.091z" fill="#F9E109"/><path d="M78.163 66.264a6.269 6.269 0 01-8.283-1.845L52.256 39.012a8.814 8.814 0 011.576-11.782L66.055 47.2a6.29 6.29 0 008.168 2.325 5.91 5.91 0 001.768-1.345l4.709 9.994a6.266 6.266 0 01-2.537 8.09z" fill="#FCBC04"/><path d="M61.117 40.592l-5.535 3.21-2.191-3.152a.576.576 0 01.134-.096l5.67-3.287a1.941 1.941 0 012.633.712 1.9 1.9 0 01-.711 2.613zm-.5-8.573a1.922 1.922 0 01.692-2.633l3.844-2.21a8.69 8.69 0 012.364 3.036l.019.039a.067.067 0 01-.038.019l-4.267 2.46a1.922 1.922 0 01-2.614-.711zm7.687 13.319a1.922 1.922 0 01-.711 2.614l-6.515 3.767-2.191-3.152a.575.575 0 01.134-.096l6.65-3.844a1.942 1.942 0 012.633.711zm-2.19-7.632l3.748-2.152c.057-.02.096-.058.153-.058l1.634 3.46-3.613 2.094a1.922 1.922 0 01-2.614-.71 1.923 1.923 0 01.692-2.634zm11.281 13.476l-4.286 2.479a1.947 1.947 0 01-2.633-.711 1.897 1.897 0 01.711-2.614l4.44-2.575a.299.299 0 01.134-.058l1.634 3.479z" fill="#E59730"/><path d="M92.273 51.473a9.61 9.61 0 009.61-9.61 9.61 9.61 0 00-9.61-9.61 9.61 9.61 0 00-9.609 9.61 9.61 9.61 0 009.61 9.61z" fill="#5BA006"/><path d="M77.918 41.793a5.766 5.766 0 100-11.531 5.766 5.766 0 000 11.531zm39.125-3.242a5.77 5.77 0 10-11.147-2.985 5.707 5.707 0 00.012 2.93 5.785 5.785 0 00-4.08 4.919 5.79 5.79 0 1011.35-.864 5.751 5.751 0 003.865-4z" fill="#5BA006"/><path d="M101.323 30.36l-9.184 19.425-4.307-21.05-8.42 1.721 4.257 21.235-3.928 14.668 14.85 3.98L98.594 55.4l10.156-23.05-7.427-1.99z" fill="#C4F236"/><path d="M94.73 67.418l.595.154-.73 2.767-14.856-3.978 3.94-14.664-4.267-21.237 8.418-1.73 2.556 12.473a7.437 7.437 0 01-2.748-.211 7.025 7.025 0 01-2.076-.942l1.23 6.131a15.328 15.328 0 01-.23 7.111 11.558 11.558 0 008.168 14.126zm14.029-35.075l-5.861 13.28a7.583 7.583 0 01-4.632.211 7.373 7.373 0 01-3.344-1.922l6.4-13.549 7.437 1.98z" fill="#A1D51C"/><path d="M115.809 28.273a9.564 9.564 0 00-4.752-10.974 9.561 9.561 0 00-4.125-1.103 9.588 9.588 0 00-18.214-4.949 9.598 9.598 0 00-10.036 7.076 9.071 9.071 0 00-.163 1.004 7.661 7.661 0 106.15 13.774 7.575 7.575 0 0010.142 3.548 7.653 7.653 0 0015.038-1.867 9.581 9.581 0 005.96-6.509z" fill="#A1D51C"/><path d="M116.101 25.08a9.083 9.083 0 01-.288 3.19 9.581 9.581 0 01-5.958 6.516 7.044 7.044 0 01-.25 1.768 7.67 7.67 0 01-14.798.096 7.541 7.541 0 01-8.13-.996 7.627 7.627 0 01-1.999-2.56 7.658 7.658 0 11-6.15-13.76c.022-.337.073-.671.154-1a9.538 9.538 0 018.014-7.033c-.138.709-.21 1.43-.211 2.152a11.531 11.531 0 0011.531 11.532c.328 0 .655-.02.98-.058a11.475 11.475 0 0017.105.154z" fill="#7AB92D"/><path d="M91.866 117.234H31.134a11.53 11.53 0 01-11.416-9.899l-6.265-43.913h96.094l-6.273 43.913a11.53 11.53 0 01-11.408 9.899z" fill="#57B7EB"/><path d="M47.836 67.266H25.81l.23 1.595a38.42 38.42 0 0038.053 32.998h37.381c.887.006 1.771-.097 2.633-.307l-.826 5.785a11.562 11.562 0 01-11.416 9.897H31.134a11.556 11.556 0 01-11.416-9.897l-6.265-43.915h96.094l-.557 3.844H64.287a3.625 3.625 0 01-.193 1.556 3.843 3.843 0 01-4.881 2.383l-11.377-3.94z" fill="#4891D3"/><path d="M113.391 55.734H9.609a3.844 3.844 0 100 7.688h103.782a3.844 3.844 0 000-7.688z" fill="#84D2F4"/><path d="M65.344 82.64a3.844 3.844 0 00-7.688 0v23.063a3.844 3.844 0 107.688 0V82.641zm15.375 0a3.844 3.844 0 00-7.688 0v23.063a3.844 3.844 0 107.688 0V82.641zm-46.125 0a3.844 3.844 0 00-7.688 0v23.063a3.844 3.844 0 107.688 0V82.641zm15.375 0a3.844 3.844 0 00-7.688 0v23.063a3.844 3.844 0 107.688 0V82.641z" fill="#2D72BC"/><path d="M117.234 59.578a3.871 3.871 0 01-3.843 3.844H9.609a3.855 3.855 0 01-3.843-3.844 3.873 3.873 0 013.843-3.844h.596a3.86 3.86 0 003.825 3.517h19.814l-10.167-3.517h38.88l.384.135a61.856 61.856 0 0020.122 3.382h34.152c.017.108.023.218.019.327z" fill="#57B7EB"/><path d="M12.785 42.488a3.844 3.844 0 00-2.514 7.265L61.124 67.35a3.844 3.844 0 002.514-7.265L12.785 42.488z" fill="#84D2F4"/><path d="M66.016 64.978a3.844 3.844 0 01-4.881 2.383L10.282 49.757a3.823 3.823 0 01-2.556-4.132c.2.119.413.216.634.288l50.853 17.605a3.843 3.843 0 004.882-2.383 5.26 5.26 0 00.173-.75 3.82 3.82 0 011.748 4.593z" fill="#57B7EB"/><path d="M103.781 82.637c-1.995.002-3.965.45-5.765 1.312a13.428 13.428 0 00-19.22 12.14c0 7.431 6.024 21.142 13.454 21.142a13.394 13.394 0 005.766-1.313c1.8.862 3.77 1.31 5.765 1.313 7.43 0 13.453-13.711 13.453-21.141a13.453 13.453 0 00-13.453-13.453z" fill="#F8664F"/><path d="M98.016 86.484a2.178 2.178 0 01-2.16-1.906l-1.207-9.654a3.396 3.396 0 013.367-3.815 3.394 3.394 0 013.367 3.815l-1.206 9.654a2.178 2.178 0 01-2.16 1.906z" fill="#A1D51C"/><path d="M113.66 108.739c-2.441 4.69-5.958 8.495-9.879 8.495a13.422 13.422 0 01-5.765-1.307 13.422 13.422 0 01-5.766 1.307c-7.438 0-13.453-13.703-13.453-21.14a13.391 13.391 0 015.823-11.07c-.038.48-.058.96-.058 1.46a23.063 23.063 0 0023.063 23.063 22.338 22.338 0 006.035-.808z" fill="#CC5144"/><path d="M100.419 82.58l-.25 1.999a2.172 2.172 0 01-2.153 1.896 2.17 2.17 0 01-2.152-1.896l-1.21-9.667a3.377 3.377 0 011.96-3.498l1.172 9.321a2.177 2.177 0 002.152 1.903c.162 0 .324-.019.481-.058zm12.972-7.627a7.681 7.681 0 01-7.688 7.688h-3.844a7.677 7.677 0 011.038-3.844h2.806a7.735 7.735 0 005.439-2.249 8.105 8.105 0 001.211-1.595h1.038z" fill="#7AB92D"/><path d="M108.953 96.283a1.924 1.924 0 01-1.804-1.267 5.248 5.248 0 00-2.484-2.852 1.923 1.923 0 011.799-3.398 9.086 9.086 0 014.296 4.938 1.922 1.922 0 01-1.807 2.579z" fill="#F89C8D"/></svg>