<svg width="79" height="79" fill="none" xmlns="http://www.w3.org/2000/svg"><path d="M23.904 32.658v14.587c0 1.304.518 2.555 1.44 3.477l13.064 13.064v6.954h-6.953L18.39 57.676a14.75 14.75 0 01-4.32-10.431V32.658h9.833z" fill="#FFD17B"/><path d="M55.096 32.658v14.587a4.917 4.917 0 01-1.44 3.477L40.592 63.786v6.954h6.953L60.61 57.676a14.75 14.75 0 004.32-10.431V32.658h-9.833z" fill="#F7BA5E"/><path d="M3.39 28.707c0-8.613 6.983-15.596 15.597-15.596 4.973 0 9.403 2.328 12.259 5.954l5.96.633L34.583 34.2H3.391v-5.493z" fill="#A05F4B"/><path d="M75.61 28.707c0-8.613-6.983-15.596-15.597-15.596a15.572 15.572 0 00-12.43 6.175l-4.997.617L44.417 34.2h31.192v-5.493z" fill="#7D4B3B"/><path d="M34.582 19.287V70.74h4.917l1.543-26.24-1.543-25.212h-4.917z" fill="#FFE898"/><path d="M39.5 19.287h4.917V70.74H39.5V19.287z" fill="#FFD17B"/><path d="M0 69.166V79h39.5l1.543-4.917-1.543-4.917H0z" fill="#A5E887"/><path d="M39.5 69.166H79V79H39.5v-9.834z" fill="#6FBF6B"/><path d="M23.904 15.596v5.492h15.597l3.085-7.976L39.501 0c-8.614 0-15.597 6.983-15.597 15.596z" fill="#BD8472"/><path d="M55.096 15.596C55.096 6.983 48.114 0 39.5 0v21.088h15.596v-5.492z" fill="#A05F4B"/></svg>