<svg width="60" height="19" fill="none" xmlns="http://www.w3.org/2000/svg"><path d="M58.131 11.612l1.665 1.07a4.9 4.9 0 01-4.067 2.086c-2.774 0-4.84-2.071-4.84-4.706 0-2.804 2.088-4.707 4.607-4.707 2.533 0 3.774 1.945 4.176 2.995l.219.535-6.527 2.607c.497.944 1.27 1.423 2.365 1.423 1.096 0 1.855-.521 2.402-1.303zm-5.117-1.698l4.358-1.747c-.24-.585-.956-1-1.81-1-1.088 0-2.6.93-2.548 2.747z" fill="#FF302F"/><path d="M47.743.557h2.102v13.78h-2.102V.557z" fill="#20B15A"/><path d="M44.429 5.721h2.029v8.37c0 3.473-2.124 4.903-4.636 4.903a4.641 4.641 0 01-4.321-2.782l1.861-.747c.336.768 1.146 1.676 2.46 1.676 1.614 0 2.607-.965 2.607-2.768v-.677h-.073c-.482.564-1.402 1.071-2.57 1.071-2.438 0-4.672-2.05-4.672-4.692 0-2.656 2.234-4.727 4.672-4.727 1.16 0 2.088.5 2.57 1.05h.073V5.72zm.146 4.354c0-1.663-1.147-2.874-2.607-2.874-1.474 0-2.715 1.211-2.715 2.874 0 1.642 1.24 2.832 2.715 2.832 1.46.007 2.607-1.19 2.607-2.832z" fill="#3686F7"/><path d="M25.572 10.041c0 2.713-2.19 4.707-4.876 4.707-2.687 0-4.877-2.001-4.877-4.707 0-2.726 2.19-4.713 4.877-4.713 2.686 0 4.876 1.987 4.876 4.713zm-2.131 0c0-1.69-1.27-2.853-2.745-2.853s-2.745 1.163-2.745 2.853c0 1.677 1.27 2.854 2.745 2.854 1.474 0 2.744-1.177 2.744-2.854z" fill="#FF302F"/><path d="M36.223 10.062c0 2.712-2.19 4.706-4.876 4.706-2.687 0-4.877-1.994-4.877-4.706 0-2.727 2.19-4.707 4.877-4.707 2.686 0 4.876 1.973 4.876 4.707zm-2.139 0c0-1.691-1.27-2.854-2.745-2.854-1.474 0-2.744 1.163-2.744 2.854 0 1.677 1.27 2.853 2.745 2.853 1.481 0 2.744-1.184 2.744-2.853z" fill="#FFBA40"/><path d="M7.803 12.704c-3.058 0-5.453-2.382-5.453-5.334 0-2.951 2.395-5.333 5.453-5.333 1.65 0 2.855.627 3.746 1.43l1.467-1.416C11.775.903 10.118.03 7.803.03 3.613.03.087 3.326.087 7.37c0 4.045 3.526 7.342 7.716 7.342 2.263 0 3.972-.719 5.308-2.058 1.372-1.324 1.796-3.184 1.796-4.692 0-.472-.059-.958-.124-1.317h-6.98v1.958h4.972c-.146 1.226-.548 2.065-1.139 2.635-.715.698-1.847 1.466-3.833 1.466z" fill="#3686F7"/></svg>