<svg width="41" height="41" fill="none" xmlns="http://www.w3.org/2000/svg"><path d="M0 0v41h41V0H0zm23.901 22.225c-.701 4.605-4.135 7.246-8.58 7.246a9.046 9.046 0 010-18.091c2.416 0 4.534.862 6.075 2.36L18.8 16.334c-.88-.886-2.082-1.358-3.48-1.358-2.94 0-5.324 2.508-5.324 5.448 0 2.942 2.384 5.377 5.325 5.377 2.464 0 4.33-1.192 4.87-3.577h-4.87v-3.633h8.558c.103.585.155 1.198.155 1.833 0 .63-.046 1.229-.133 1.8zm10.863-1.127h-3.17v3.169h-2.25v-3.169h-3.17v-2.252h3.17v-3.17h2.25v3.17h3.17v2.252z" fill="#DD4B39"/></svg>