<svg width="283" height="93" fill="none" xmlns="http://www.w3.org/2000/svg"><path d="M274.186 56.837l7.851 5.242c-2.548 3.759-8.642 10.208-19.179 10.208-13.084 0-22.829-10.139-22.829-23.036 0-13.725 9.848-23.036 21.727-23.036 11.948 0 17.802 9.518 19.696 14.656l1.033 2.62-30.783 12.76c2.341 4.621 5.991 6.966 11.156 6.966 5.165 0 8.746-2.552 11.328-6.38zm-24.137-8.31l20.556-8.553c-1.136-2.862-4.51-4.897-8.539-4.897-5.13 0-12.258 4.552-12.017 13.45z" fill="#FF302F"/><path d="M225.188 2.73h9.916v67.453h-9.916V2.73z" fill="#20B15A"/><path d="M209.556 28.007h9.572v40.968c0 17.001-10.019 24.002-21.864 24.002-11.156 0-17.871-7.518-20.384-13.622l8.78-3.655c1.584 3.759 5.406 8.207 11.604 8.207 7.609 0 12.292-4.724 12.292-13.552v-3.31h-.344c-2.273 2.758-6.611 5.24-12.12 5.24-11.501 0-22.037-10.034-22.037-22.966 0-13 10.536-23.14 22.037-23.14 5.474 0 9.847 2.45 12.12 5.139h.344v-3.31zm.689 21.312c0-8.138-5.406-14.07-12.293-14.07-6.955 0-12.809 5.932-12.809 14.07 0 8.035 5.854 13.863 12.809 13.863 6.887.034 12.293-5.828 12.293-13.863z" fill="#3686F7"/><path d="M120.617 49.148c0 13.277-10.33 23.036-23 23.036-12.672 0-23.002-9.793-23.002-23.036 0-13.345 10.33-23.07 23.001-23.07 12.671 0 23.001 9.725 23.001 23.07zm-10.054 0c0-8.276-5.991-13.966-12.947-13.966-6.955 0-12.946 5.69-12.946 13.966 0 8.208 5.99 13.967 12.946 13.967 6.956 0 12.947-5.76 12.947-13.967z" fill="#FF302F"/><path d="M170.854 49.25c0 13.277-10.33 23.037-23.001 23.037-12.672 0-23.001-9.76-23.001-23.036 0-13.346 10.329-23.036 23.001-23.036 12.671 0 23.001 9.656 23.001 23.036zm-10.089 0c0-8.276-5.991-13.966-12.947-13.966-6.955 0-12.947 5.69-12.947 13.967 0 8.207 5.992 13.966 12.947 13.966 6.99 0 12.947-5.793 12.947-13.966z" fill="#FFBA40"/><path d="M36.807 62.183c-14.427 0-25.72-11.656-25.72-26.105 0-14.45 11.293-26.105 25.72-26.105 7.782 0 13.464 3.069 17.664 7l6.921-6.931C55.54 4.42 47.722.145 36.807.145 17.043.145.412 16.283.412 36.078c0 19.794 16.631 35.933 36.395 35.933 10.674 0 18.732-3.518 25.033-10.07 6.473-6.483 8.47-15.587 8.47-22.967 0-2.31-.275-4.69-.585-6.448H36.807v9.586h23.449c-.689 6-2.582 10.105-5.371 12.898-3.375 3.414-8.712 7.173-18.078 7.173z" fill="#3686F7"/></svg>