<svg width="79" height="79" fill="none" xmlns="http://www.w3.org/2000/svg"><g clip-path="url(#clip0_1047:1921)"><path d="M78.119 38.259l-10.953-3.833a17.115 17.115 0 00-21.975 11l-2.866 9.076-2.822 2.116V37.665a7.535 7.535 0 013.364-6.284l-1.462-2.192a10.166 10.166 0 00-4.535 8.476v2.608l-1.703-1.702-1.861 1.862 3.564 3.564V72.92l-2.633-1.317v-2.708A20.605 20.605 0 007.115 49.349l-6.21 2.07a1.317 1.317 0 000 2.502l1.41.47A60.172 60.172 0 0120.94 64.518l11.158 8.927c.075.053.157.097.242.132l-.008.017 4.539 2.272v3.136h2.633V59.91l4.74-3.555-.015-.018c.054-.032.106-.067.156-.104A53.202 53.202 0 0175.257 41.13l2.59-.323a1.318 1.318 0 00.272-2.55z" fill="#3D7606"/><path d="M50.652 11.151l-.617-9.915a1.318 1.318 0 00-1.13-1.222 1.328 1.328 0 00-1.423.861l-4.259 11.918a41.162 41.162 0 00-2.405 13.874v3.617a1.317 1.317 0 002.248.931 26.085 26.085 0 007.586-20.064zm-30.986 6.303l-8.711-2.896a1.318 1.318 0 00-1.703 1.535l1.449 6.534c2.319 10.66 11.778 18.244 22.687 18.19h.85c.727 0 1.316-.589 1.316-1.316a23.214 23.214 0 00-15.888-22.047z" fill="#5FA819"/><path d="M26.139 35.023a33.655 33.655 0 01-11.99-12.703l-4.153-7.715a1.29 1.29 0 00-.745 1.48L10.7 22.62c2.316 10.663 11.776 18.25 22.687 18.198h.85c.299-.005.587-.114.815-.308l-8.913-5.486zm28.133 9.348a19.087 19.087 0 00-6.35 7.783l-.61 1.37a53.246 53.246 0 0127.945-12.397l2.509-.31H65.37a19.09 19.09 0 00-11.099 3.554zM33.61 74.234l-.026-.144C30.965 59.686 17.858 49.61 3.265 50.784l-.612.05-1.748.582a1.317 1.317 0 000 2.502l1.41.47a60.175 60.175 0 0118.623 10.13l11.158 8.926c.075.053.157.097.242.132l-.008.017 1.279.641z" fill="#589C17"/></g><defs><clipPath id="clip0_1047:1921"><path fill="#fff" d="M0 0h79v79H0z"/></clipPath></defs></svg>