<svg width="79" height="79" fill="none" xmlns="http://www.w3.org/2000/svg"><g clip-path="url(#clip0_1047:2015)"><path d="M43.037 65.297c.652 0 1.18.529 1.18 1.18v7.53l5.698-1.982a1.18 1.18 0 11.775 2.229l-3.804 1.322 3.752 1.112a1.18 1.18 0 11-.671 2.262l-7.265-2.153a1.18 1.18 0 01-.845-1.132v-9.189c0-.65.529-1.18 1.18-1.18zm-13.211-.807c.652 0 1.18.528 1.18 1.18v8.337l5.698-1.982a1.18 1.18 0 01.775 2.23l-3.803 1.322 3.751 1.112a1.18 1.18 0 01-.67 2.262l-7.266-2.154a1.18 1.18 0 01-.845-1.131V65.67c0-.652.528-1.18 1.18-1.18z" fill="#FFA812"/><path d="M69.174 37.514c.526-4.468.565-8.18.264-11.27 0 0 7.733 5.402 5.192 9.402-1.3 2.044-3.563 2.242-5.466 1.946l.01-.078z" fill="#FF4755"/><path d="M69.537 33.394c1.755.204 3.734-.064 4.963-1.802.703 1.346.945 2.771.13 4.053-1.3 2.044-3.563 2.241-5.466 1.946l.01-.077a67.64 67.64 0 00.363-4.12z" fill="#FC2B3A"/><path d="M67.72 18.89c4.203 1.162 7.157 2.235 6.892 4.191-.243 1.8-3.656 2.802-5.175 3.161-.293-3.002-.908-5.415-1.717-7.351z" fill="#FFA812"/><path d="M73.314 20.965c.926.593 1.413 1.273 1.299 2.117-.244 1.8-3.657 2.802-5.176 3.16-.093-.96-.22-1.86-.376-2.702 1.535-.435 3.734-1.27 4.253-2.575z" fill="#FF9A00"/><path d="M62.843 12.723c-2.395-1.553-4.696-1.72-5.509-1.74-4.7-.114-7.247 1.61-8.924 4.112-1.441-.76-4.396-2.659-3.497-5.103 1.277-3.474 4.772-1.44 4.772-1.44S48.674 6.09 50.862 4.49c2.188-1.6 4.867-.102 4.867-.102.668-5.097 7.833-6.211 10.594-.898 2.194 4.223-1.984 8.046-3.48 9.232z" fill="#FF4755"/><path d="M48.41 15.095c-.825-.434-2.142-1.241-2.953-2.31 2.34-2.429 5.602-4.717 9.718-4.977 4.607-.291 8.049.903 10.327 2.153-.908 1.282-2.026 2.26-2.66 2.763-2.395-1.553-4.696-1.722-5.509-1.74-4.701-.114-7.247 1.61-8.924 4.11z" fill="#FC2B3A"/><path d="M57.335 10.984c2.16.052 14.829 1.147 11.84 26.53-2.623 22.27-18.367 29.309-30.696 29.271C20.56 66.73-1.782 51.674 4.762 27.983c0 0 1.98-8.804 8.803-8.425 6.823.38 6.6 13.795 21.322 12.32 14.935-1.497 6.874-21.27 22.448-20.894z" fill="#FFE9C8"/><path d="M38.477 62.537c12.329.038 28.074-7.001 30.696-29.271.212-1.8.343-3.475.407-5.04.123 2.664.011 5.738-.407 9.287-2.622 22.27-18.367 29.31-30.696 29.271-16.32-.05-36.31-12.545-34.8-32.674 1.363 17.624 19.66 28.38 34.8 28.427z" fill="#FFDCA7"/><path d="M34.53 54.51c4.232 0 8.844-1.186 12.718-5.006 3.53-3.481 4.727-7.491 4.777-7.66a1.18 1.18 0 00-2.265-.663c-.015.05-1.116 3.668-4.236 6.708-4.133 4.028-9.746 5.22-16.683 3.543-4.339-1.049-6.841-3.462-8.176-5.302-1.617-2.23-2.396-4.877-2.083-7.083a1.179 1.179 0 10-2.335-.332c-.8 5.627 3.576 12.965 12.04 15.01 1.863.45 4 .784 6.242.784z" fill="#FFCF86"/><path d="M57.736 19.27c1.352 0 2.41 1.317 2.41 2.997s-1.058 2.997-2.41 2.997c-1.351 0-2.41-1.316-2.41-2.997 0-1.68 1.059-2.997 2.41-2.997z" fill="#433F43"/></g><defs><clipPath id="clip0_1047:2015"><path fill="#fff" transform="matrix(-1 0 0 1 79 0)" d="M0 0h79v79H0z"/></clipPath></defs></svg>