<svg width="689" height="816" fill="none" xmlns="http://www.w3.org/2000/svg"><path d="M369.078 496.42c-13.389-50.289-41.926-91.249-76.865-116.227-31.213-22.327-52.886-55.766-59.723-93.496a145.9 145.9 0 00-2.688-11.946c-16.125-60.481-66.206-99.641-111.911-87.469-45.705 12.171-69.705 71.072-53.601 131.554a146.61 146.61 0 0013.814 34.159c18.54 32.951 24.586 71.67 15.475 108.378-8.143 32.794-8.1 70.196 1.935 107.899 14.97 56.228 48.914 100.802 89.481 124.403a145.426 145.426 0 0140.158 34.407c18.49 22.973 45.522 34.676 71.183 27.843 27.682-7.376 46.022-34.256 48.764-66.54 1.548-18.279 6.676-36.02 14.459-52.616 18.41-39.23 23.059-89.502 9.519-140.349z" fill="#90FF86"/><path d="M151.149 247.475c16.61 38.383 31.967 77.271 46.927 116.321 3.761 9.759 7.329 19.582 10.945 29.388l5.422 14.711 5.304 14.758c3.492 9.85 7.125 19.657 10.51 29.571l10.156 29.668c6.518 19.893 13.203 39.684 19.344 59.68 3.09 9.989 6.373 19.893 9.253 29.974l8.797 30.108c11.316 40.271 21.628 80.842 29.871 121.854l-1.768.371-7.329-30.447-1.817-7.613-2.004-7.57-4.041-15.167-4.014-15.135c-1.327-5.044-2.842-10.044-4.256-15.055-2.89-10.032-5.701-20.081-8.662-30.108-12.084-39.97-24.717-79.778-38.151-119.322-6.873-19.716-13.573-39.496-20.575-59.169l-5.218-14.764-5.314-14.737c-3.552-9.818-7.109-19.641-10.747-29.421a4120.465 4120.465 0 00-21.854-58.728 4348.514 4348.514 0 00-22.434-58.507l1.655-.661z" fill="#5B9F55"/><path d="M229.224 596.082c-20.959-22.179-47.162-35.314-72.13-38.432a86.771 86.771 0 01-56.965-31.502 90.986 90.986 0 00-4.724-5.409c-25.258-26.674-62.005-32.862-82.104-13.818-20.099 19.044-15.934 56.106 9.313 82.801a86.203 86.203 0 0016.687 13.748c18.776 11.828 32.743 30.066 38.354 51.53 5.009 19.184 15.515 38.443 31.25 55.073 23.474 24.797 53.423 38.293 80.922 39.115a85.23 85.23 0 0130.309 6.517c15.956 6.672 33.147 5.151 44.433-5.538 12.172-11.533 14.069-30.513 6.449-47.917a91.109 91.109 0 01-7.314-31.185c-1.548-25.345-13.253-52.562-34.48-74.983z" fill="#0C9300"/><path d="M46.96 528.621c19.34 15.172 38.18 30.952 56.857 46.932 4.672 3.992 9.274 8.081 13.893 12.111l6.933 6.078 6.873 6.136c4.57 4.111 9.194 8.157 13.721 12.316l13.569 12.478c8.935 8.437 17.946 16.799 26.73 25.398 4.398 4.31 8.882 8.501 13.188 12.887l12.994 13.087c17.143 17.628 33.851 35.693 49.617 54.56l-.802.69-12.332-13.674-3.079-3.421-3.159-3.346-6.33-6.681-6.32-6.713c-2.099-2.23-4.306-4.385-6.421-6.589-4.306-4.369-8.58-8.771-12.918-13.113a2407.76 2407.76 0 00-53.17-50.935c-9.081-8.259-18.086-16.599-27.226-24.783l-6.835-6.169-6.885-6.11c-4.591-4.073-9.177-8.151-13.806-12.181a2531.607 2531.607 0 00-27.759-24.207 7362.75 7362.75 0 00-27.99-23.932l.657-.819z" fill="#085A00"/><path d="M314.53 374.348a1.54 1.54 0 00-2.847.301c-1.383 4.967-4.732 13.629-11.754 16.699-.357.151-.692.313-1.016.469a3.564 3.564 0 01.443-3.232c2.161-3.329-1.761-7.876-1.761-7.876s-.259 4.003-3.311 6.524c-2.625 2.154-3.889 7.002-2.096 10.967 3.781 14.722 9.496 34.2-12.678 48.426-22.174 14.226-53.396-26.852-53.396-26.852l15.497 49.018s23.919 17.604 51.744-7.148c27.824-24.752 9.383-60.778 9.383-60.778s21.223-8.543 11.792-26.518z" fill="url(#paint0_linear_1046)"/><path d="M222.488 347.697s6.411-28.68-26.532-21.088c0 0-15.997-2.607-16.806 12.448 0 0-10.309 6.774-2.766 19.802 0 0-30.636-11.829-43.98 14.974-13.344 26.804-1.078 41.515 11.781 45.354 0 0-10.422 5.215-5.489 17.001 4.934 11.786 29.913 20.087 44.67 5.758 0 0 41.99 5.533 41.149-24.045 0 0 19.529-12.576-.981-37.019-20.51-24.442-1.046-33.185-1.046-33.185z" fill="#000"/><path d="M224.106 414.222c-6.557-1.982-25.632-5.645-43.789 11.264a11.32 11.32 0 00-3.195 5.197 11.398 11.398 0 00-.046 6.115c4.875 18.115 17.745 71.643 6.461 94.806 0 0 19.887 22.086 41.579 4.309 0 0 9.735-42.792 22.482-61.58 8.806-12.966-14.034-48.702-19.812-57.337a6.787 6.787 0 00-3.68-2.774z" fill="url(#paint1_linear_1046)"/><path d="M205.952 378.469s-9.98 27.734-10.733 39.951a21.702 21.702 0 0011.188 1.182 21.535 21.535 0 0010.245-4.572s1.099-27.696 2.665-32.658l-13.365-3.903z" fill="url(#paint2_linear_1046)"/><path d="M219.655 340.981s25.49 35.736 10.255 46.118c-15.234 10.381-33.383-15.016-33.383-15.016s-5.903-19.565.274-26.199c6.176-6.634 22.854-4.903 22.854-4.903z" fill="url(#paint3_linear_1046)"/><path d="M207.646 332.607s11.769 2.761 13.42 8.011c1.651 5.249-16.721 10.146-21.829 10.397l-4.143 21.276s-12.239-20.015-7.39-31.572c4.849-11.556 19.942-8.112 19.942-8.112z" fill="#000"/><path d="M201.398 369.479s-10.074-11.354-14.078-3.951c-4.004 7.403 9.066 12.96 13.593 9.328l.485-5.377z" fill="url(#paint4_linear_1046)"/><path d="M250.887 625.633c-.075 1.933 3.325 17.3 5.172 25.496a13.462 13.462 0 01-1.45 9.668L190.526 768.69a14.494 14.494 0 00-1.681 4.195c-1.177 5.065-3.615 17.472-2.342 28.762l3.314 6.886-14.34-3.26-3.121-38.511 4.061-2.476a19.291 19.291 0 007.803-9.131c5.795-14.082 20.189-49.918 23.9-67.385 4.216-19.872 26.258-35.986 26.258-35.986l-3.873-9.13 20.382-17.021z" fill="url(#paint5_linear_1046)"/><path d="M159.38 791.967s7.752-12.158 8.661-16.891c.908-4.733 3.451-13.088 8.23-10.573 0 0 2.252 22.991 1.478 31.974-.774 8.983 10.262 8.69 10.262 8.69a10.385 10.385 0 015.274 2.627 2.536 2.536 0 01-.375 3.824c-.399.284-.871.45-1.362.479a62.762 62.762 0 01-15.374-.862 4.712 4.712 0 01-2.64-1.503 4.623 4.623 0 01-1.155-2.789l-1.613-26.458-9.778 12.232-1.608-.75z" fill="url(#paint6_linear_1046)"/><path d="M212.185 642.434s-2.257 96.586-2.562 110.3c-.306 13.714 2.144 44.119 15.873 53.22l-5.967 4.43s-7.457-6.355-14.742-18.59c-8.18-13.74-10.657-16.251-10.657-16.251l2.718-5.574a12.29 12.29 0 00.986-7.865c-2.959-14.386-12.866-62.219-15.546-72.524-3.184-12.16-3.409-28.401 7.666-41.996 11.075-13.595 22.231-5.15 22.231-5.15z" fill="url(#paint7_linear_1046)"/><path d="M199.492 814.689a.848.848 0 01-.85-.724c-.457-3.215-2.362-16.077-3.923-19.411-1.792-3.815-7.63-19.877 0-21.243 0 0 18.969 27.599 22.601 31.319 3.632 3.719 8.233 1.302 8.233 1.302a13.72 13.72 0 016.226 4.448 2.494 2.494 0 01-.662 3.636c-.395.247-.851.38-1.318.383l-12.775.124a9.017 9.017 0 01-5.079-1.518 8.966 8.966 0 01-3.337-4.104c-2.249-5.595-6.113-13.8-10.617-17.439l2.341 22.31a.842.842 0 01-.213.653.855.855 0 01-.627.285v-.021z" fill="url(#paint8_linear_1046)"/><path d="M228.114 525.644s-2.858 9.168 1.534 24.257l27.249 95.683a2.984 2.984 0 01-.214 2.169 2.953 2.953 0 01-1.63 1.436c-8.148 2.94-34.937 11.253-71.504 8.716a4.13 4.13 0 01-2.424-.98 4.178 4.178 0 01-1.359-2.244c-2.41-10.903-10.632-48.121-12.326-55.767-6.449-29.136-13.651-60.561 18.032-79.562 14.597 6.265 28.211 9.973 42.642 6.292z" fill="url(#paint9_linear_1046)"/><path d="M177.618 429.517s-31.313 25.873-39.092 61.228c-7.78 35.356 45.765 39.112 45.765 39.112s7.267-8.05 15.899-5.189c8.633 2.86.67-14.082-9.426-14.039-10.096.043-5.399 7.98-19.705 1.551-13.913-6.263-22.508-25.637 12.989-55.008a15.973 15.973 0 004.686-6.365c6.894-17.238 1.425-28.545-11.116-21.29z" fill="url(#paint10_linear_1046)"/><path d="M265.514 311.244c56.687 32.236 104.006 30.228 157.51 2.107a10.05 10.05 0 005.382-9.38l-.105-2.261a10.053 10.053 0 00-1.34-4.557 10.05 10.05 0 00-7.779-4.967 10.03 10.03 0 00-4.697.7c-46.467 18.933-81.409 29.32-139.591.618a10.029 10.029 0 00-14.441 8.335 10.067 10.067 0 005.061 9.405z" fill="#EE4C03"/><path d="M276.259 337.369l-31.291-44.347a2.18 2.18 0 011.52-3.429l51.83-6.34a2.53 2.53 0 012.326.985 2.531 2.531 0 01.319 2.506c-11.839 16.424-18.537 33.182-20.916 50.205a2.177 2.177 0 01-2.903 1.151 2.17 2.17 0 01-.885-.731z" fill="#EE4C03"/><path d="M417.005 29.22C358.051-7.2 307.723-6.885 249.844 20.92a10.686 10.686 0 00-6.074 9.75v2.41a10.666 10.666 0 009.323 10.45c1.692.216 3.41.023 5.012-.563 50.05-18.321 87.576-27.997 148.254 4.727a10.672 10.672 0 0015.664-8.305 10.683 10.683 0 00-5.018-10.17z" fill="#F46637"/><path d="M406.607 1.061l31.513 48.295a2.317 2.317 0 01-1.743 3.584l-55.29 4.74a2.693 2.693 0 01-2.675-3.807c13.204-16.986 20.934-34.522 24.141-52.522a2.32 2.32 0 014.054-.29z" fill="#F46637"/><path d="M278.948 65.353l-26.7 182.352 85.026 12.449 26.699-182.352-85.025-12.449z" fill="#7DF490"/><path opacity=".5" d="M295.408 78.05l48.648 7.125c-.575 3.912 2.527 7.73 6.865 8.36.155.03.312.049.47.056l-21.559 147.191s-.328-.062-.464-.08c-4.325-.618-8.348 2.021-8.928 6a.758.758 0 01-.05.13l-47.578-6.964c.982-6.717-3.38-7.996-7.712-8.651-.142 0-.173 0-.179.037L286.504 84.1l.161.037c4.338.624 8.169-2.175 8.743-6.086z" fill="#fff"/><path d="M334.396 168.019c2.974-14.631-6.475-28.903-21.106-31.877-14.631-2.974-28.903 6.476-31.877 21.107s6.476 28.902 21.107 31.876 28.902-6.476 31.876-21.106z" fill="url(#paint11_linear_1046)"/><path d="M325.55 167.983l-2.83-.414a23.256 23.256 0 01-2.88 7.681 1.641 1.641 0 01-2.064.618l-2.533-1.106a1.677 1.677 0 01-.921-1.028 1.662 1.662 0 01.173-1.37 19.35 19.35 0 002.614-7.1c.414-2.836-.235-5.097-2.212-5.388-1.78-.259-3.09 1.236-4.715 5.012-2.366 5.406-5.413 9.095-10.368 8.366-4.48-.655-7.415-4.43-7.495-10.245l-2.83-.414a1.653 1.653 0 01-1.096-.65 1.66 1.66 0 01-.313-1.234l.241-1.663a1.665 1.665 0 011.891-1.408l2.539.37a21.348 21.348 0 012.052-6.123 1.658 1.658 0 012.131-.735l2.336 1.019a1.671 1.671 0 01.915.988 1.668 1.668 0 01-.118 1.342 17.198 17.198 0 00-2.027 6.006c-.494 3.367.76 4.535 2.015 4.72 1.538.223 2.892-1.643 4.881-5.826 2.799-5.982 5.778-8.2 10.443-7.514 4.288.618 7.674 4.368 7.73 10.671l3.17.463a1.658 1.658 0 011.402 1.854l-.241 1.662a1.668 1.668 0 01-1.89 1.446z" fill="#fff"/><path d="M274.214 246.487h-.062l-15.942-2.348a.415.415 0 01-.358-.476l6.593-45.026a.41.41 0 01.312-.346.425.425 0 01.522.469l-6.531 44.613 15.522 2.274a.427.427 0 01.358.476.42.42 0 01-.414.364z" fill="url(#paint12_linear_1046)"/><path d="M351.941 127.31h-.062a.42.42 0 01-.352-.476l6.45-44.056-16.646-2.435a.426.426 0 01-.304-.633.426.426 0 01.262-.194.417.417 0 01.166-.007l17.06 2.472a.45.45 0 01.272.166.42.42 0 01.072.147.424.424 0 01.008.163l-6.512 44.489a.423.423 0 01-.414.364z" fill="#fff"/><path d="M273.139 58.22l-26.7 182.352 85.582 12.531 26.7-182.352-85.582-12.53z" fill="#ACFA91"/><path opacity=".5" d="M289.767 70.94l48.647 7.124c-.574 3.911 2.725 7.736 7.063 8.366.136 0 .105 0 .667.062L324.61 233.683l-.661-.111c-4.325-.618-8.453 2.027-9.033 6.012 0 .056-.149.136-.149.136l-47.578-6.964c.982-6.716-3.461-8.032-7.798-8.65a.604.604 0 00-.254 0L280.69 76.915c.075.044.16.07.247.074 4.338.63 8.255-2.157 8.83-6.05z" fill="#fff"/><path d="M321.379 174.598c10.557-10.557 10.557-27.674 0-38.231-10.558-10.557-27.674-10.557-38.231 0-10.557 10.557-10.557 27.674 0 38.231 10.557 10.557 27.673 10.557 38.231 0z" fill="url(#paint13_linear_1046)"/><path d="M319.914 160.827l-2.83-.414a23.315 23.315 0 01-2.879 7.681 1.65 1.65 0 01-2.064.617l-2.533-1.106a1.663 1.663 0 01-.981-1.731c.029-.236.109-.463.233-.666a19.357 19.357 0 002.614-7.1c.414-2.842-.235-5.097-2.212-5.388-1.78-.259-3.09 1.236-4.715 5.011-2.367 5.407-5.413 9.09-10.369 8.367-4.479-.655-7.414-4.431-7.501-10.245l-2.824-.414a1.666 1.666 0 01-1.409-1.891l.241-1.662a1.672 1.672 0 011.891-1.403l2.54.371a21.346 21.346 0 012.051-6.123 1.652 1.652 0 012.132-.736l2.336 1.014a1.663 1.663 0 01.915.991 1.675 1.675 0 01-.118 1.344 17.212 17.212 0 00-2.027 6.006c-.494 3.368.76 4.536 2.014 4.715 1.539.229 2.892-1.637 4.882-5.821 2.793-5.981 5.777-8.199 10.443-7.52 4.288.618 7.674 4.369 7.73 10.672l3.169.463a1.67 1.67 0 011.403 1.891l-.241 1.662a1.677 1.677 0 01-1.891 1.415z" fill="#fff"/><path d="M269.043 238.874h-.044l-16.504-2.416a.404.404 0 01-.272-.167.394.394 0 01-.08-.309l6.513-44.489a.395.395 0 01.162-.278.39.39 0 01.149-.069.395.395 0 01.164-.005.421.421 0 01.277.164.427.427 0 01.076.312l-6.451 44.05 16.065 2.361a.416.416 0 01.352.475.427.427 0 01-.407.371z" fill="url(#paint14_linear_1046)"/><path d="M346.126 120.18h-.056a.428.428 0 01-.278-.164.423.423 0 01-.08-.312l6.451-44.056-16.066-2.355a.426.426 0 01-.304-.632.423.423 0 01.262-.191.418.418 0 01.166-.005l16.498 2.416a.414.414 0 01.352.476l-6.506 44.489a.423.423 0 01-.159.247.421.421 0 01-.28.087z" fill="#fff"/><path d="M299.125 47.458l-80.443 165.813 77.82 37.754 80.443-165.813-77.82-37.754z" fill="#6FFF58"/><path opacity=".5" d="M311.208 64.639l44.242 21.466c-1.73 3.559.204 8.212 4.146 10.127.13.062.049.037.562.278l-64.929 133.838-.556-.284c-3.943-1.915-8.651-.618-10.387 2.979 0 .055-.149.055-.149.055l-43.253-21.009c2.966-6.105-.933-8.65-4.875-10.591a.628.628 0 00-.303-.049l64.93-133.838.271.123c3.93 1.94 8.577.464 10.301-3.095z" fill="#fff"/><path d="M309.404 124.766a27.037 27.037 0 019.754 40.639 27.037 27.037 0 01-28.38 9.84 27.034 27.034 0 1118.626-50.479z" fill="#3CD52E"/><path d="M312.82 159.484l-2.57-1.236a23.444 23.444 0 01-5.067 6.464 1.67 1.67 0 01-2.156-.031l-2.083-1.817a1.675 1.675 0 010-2.515 19.233 19.233 0 004.635-5.981c1.235-2.583 1.316-4.943-.482-5.802-1.619-.785-3.3.234-6.006 3.355-3.887 4.443-7.904 7.038-12.408 4.85-4.072-1.977-5.734-6.457-4.06-12.03l-2.576-1.236a1.667 1.667 0 01-.767-2.231l.73-1.507a1.66 1.66 0 012.224-.773l2.311 1.119a21.444 21.444 0 013.8-5.222c.3-.291.699-.458 1.117-.469.418-.01.824.138 1.139.414l1.921 1.674c.177.152.32.34.42.55a1.674 1.674 0 01.03 1.353c-.09.216-.224.409-.394.569a17.42 17.42 0 00-3.745 5.116c-1.483 3.09-.618 4.56.501 5.11 1.396.68 3.256-.692 6.414-4.078 4.467-4.863 7.977-6.08 12.222-4.022 3.893 1.89 5.993 6.475 4.152 12.506l2.88 1.396a1.662 1.662 0 01.772 2.225l-.735 1.514c-.2.388-.544.683-.959.821a1.674 1.674 0 01-1.26-.086z" fill="#fff"/><path d="M240.619 219.004a.52.52 0 01-.186-.043l-15.003-7.279a.428.428 0 01-.197-.563l19.865-40.942a.428.428 0 01.563-.198.413.413 0 01.235.404.425.425 0 01-.044.159l-19.68 40.565 14.626 7.081a.421.421 0 01-.179.797v.019zm109.536-90.414a.4.4 0 01-.186-.043.413.413 0 01-.191-.562l19.433-40.06-14.626-7.093a.426.426 0 01-.198-.562.41.41 0 01.241-.215.413.413 0 01.322.023l15.002 7.28a.396.396 0 01.217.234.422.422 0 010 .322l-19.607 40.41a.415.415 0 01-.407.266z" fill="#BDD0FB"/><path d="M279.095 192.972a7.651 7.651 0 014.299 7.34 7.66 7.66 0 01-5.135 6.781 7.656 7.656 0 11.836-14.121zm53.301-92.538a7.655 7.655 0 10-12.731-8.507 7.656 7.656 0 0012.731 8.507z" fill="#3CD52E"/><path d="M333.452 219.671c1.405-12.644-7.707-24.033-20.351-25.438-12.645-1.405-24.034 7.707-25.439 20.351-1.404 12.644 7.707 24.033 20.351 25.438 12.645 1.405 24.034-7.706 25.439-20.351z" fill="#5B9F55"/><path d="M320.186 237.181c11.082-5.334 15.743-18.642 10.409-29.724-5.333-11.082-18.641-15.743-29.723-10.409-11.083 5.333-15.743 18.641-10.41 29.723 5.334 11.083 18.642 15.743 29.724 10.41z" fill="url(#paint15_linear_1046)"/><path opacity=".68" d="M290.322 218.188a.667.667 0 01-.333.086.728.728 0 01-.534-.204.734.734 0 01-.226-.525 21.19 21.19 0 0111.32-19.266 21.525 21.525 0 013.559-1.495.743.743 0 01.884.501.75.75 0 01-.433.92 19.833 19.833 0 00-13.841 19.309.743.743 0 01-.396.674z" fill="#fff"/><path opacity=".68" d="M318.021 234.896c9.704-3.774 14.511-14.699 10.737-24.403-3.773-9.704-14.699-14.512-24.403-10.738-9.704 3.774-14.511 14.699-10.738 24.403 3.774 9.704 14.7 14.512 24.404 10.738z" fill="#fff"/><path d="M316.12 230.544l-.957-1.811c-1.783.86-3.703 1.4-5.673 1.594a1.194 1.194 0 01-1.236-.933l-.432-1.934a1.192 1.192 0 01.585-1.303c.149-.084.314-.134.484-.149a13.727 13.727 0 005.215-1.501c1.817-.964 2.848-2.299 2.181-3.566-.618-1.136-2.014-1.235-4.906-.617-4.128.926-7.551.729-9.269-2.472-1.52-2.867-.587-6.179 2.744-8.651l-.964-1.81a1.196 1.196 0 01.494-1.619l1.069-.562a1.189 1.189 0 011.319.133c.121.1.221.223.294.361l.865 1.625a15.511 15.511 0 014.412-1.415 1.183 1.183 0 011.328.921l.408 1.785a1.197 1.197 0 01-1.013 1.452 12.257 12.257 0 00-4.326 1.378c-2.162 1.144-2.304 2.367-1.853 3.164.525.989 2.181.983 5.444.352 4.646-.92 7.192-.142 8.78 2.849 1.452 2.75.729 6.29-2.892 9.003l1.075 2.026a1.202 1.202 0 01-.494 1.619l-1.063.563a1.198 1.198 0 01-1.619-.482z" fill="#3CD52E"/><path d="M355.661 202.345c22.147 0 40.102-17.955 40.102-40.102 0-22.148-17.955-40.102-40.102-40.102-22.148 0-40.102 17.954-40.102 40.102 0 22.147 17.954 40.102 40.102 40.102z" fill="#5B9F55"/><path d="M363.982 200.112c20.911-4.597 34.136-25.276 29.538-46.188-4.597-20.911-25.276-34.135-46.187-29.538-20.911 4.598-34.136 25.277-29.539 46.188 4.598 20.911 25.277 34.136 46.188 29.538z" fill="url(#paint16_linear_1046)"/><path opacity=".68" d="M320.217 163.656a.674.674 0 01-.334.087.75.75 0 01-.76-.729 36.4 36.4 0 0119.415-33.046 37.262 37.262 0 016.098-2.564.74.74 0 01.598.017.739.739 0 01.425.754.743.743 0 01-.572.65 35.376 35.376 0 00-5.851 2.472 34.916 34.916 0 00-18.624 31.698.74.74 0 01-.395.661z" fill="#fff"/><path opacity=".68" d="M376.004 189.157c14.694-10.61 18.005-31.123 7.396-45.817-10.61-14.694-31.123-18.006-45.817-7.396-14.695 10.609-18.006 31.122-7.396 45.817 10.609 14.694 31.122 18.006 45.817 7.396z" fill="#fff"/><path d="M365.392 185.655l-1.668-3.151a29.328 29.328 0 01-9.887 2.774 2.066 2.066 0 01-2.15-1.625l-.76-3.361a2.077 2.077 0 01.353-1.684 2.083 2.083 0 011.501-.843 24.161 24.161 0 009.083-2.614c3.163-1.681 4.943-4.004 3.788-6.179-1.051-1.99-3.504-2.2-8.534-1.045-7.186 1.613-13.149 1.267-16.065-4.263-2.651-4.993-1.02-10.739 4.77-15.114l-1.675-3.158a2.08 2.08 0 01.866-2.811l1.853-.982a2.071 2.071 0 012.3.234c.21.175.384.389.512.631l1.501 2.811a26.67 26.67 0 017.681-2.472 2.07 2.07 0 012.317 1.601l.704 3.089a2.065 2.065 0 01-.324 1.653 2.086 2.086 0 01-1.443.868 21.692 21.692 0 00-7.538 2.398c-3.757 1.996-4.004 4.121-3.263 5.518.908 1.718 3.788 1.699 9.473.618 8.082-1.607 12.518-.247 15.28 4.943 2.534 4.783 1.273 10.955-5.029 15.67l1.853 3.528a2.071 2.071 0 01-.234 2.3c-.175.21-.389.384-.631.512l-1.853.988a2.086 2.086 0 01-2.781-.834z" fill="#3CD52E"/><path d="M425.466 269.549c22.712-1.879 39.6-21.814 37.721-44.526-1.88-22.712-21.815-39.6-44.526-37.721-22.712 1.88-39.6 21.815-37.721 44.526 1.879 22.712 21.814 39.6 44.526 37.721z" fill="url(#paint17_linear_1046)"/><path d="M461.935 229.559c.638-22.022-16.697-40.393-38.72-41.031-22.022-.638-40.392 16.697-41.031 38.72-.638 22.022 16.698 40.392 38.72 41.031 22.022.638 40.393-16.697 41.031-38.72z" fill="url(#paint18_linear_1046)"/><path opacity=".68" d="M385.591 229.847a.747.747 0 01-1.093-.642 37.41 37.41 0 0119.964-33.985 37.84 37.84 0 016.272-2.632.74.74 0 01.885 1.048.735.735 0 01-.434.367 36.461 36.461 0 00-6.025 2.533 35.933 35.933 0 00-19.155 32.638.746.746 0 01-.414.673z" fill="#fff"/><path opacity=".68" d="M432.116 261.334c17.992-4.895 28.609-23.449 23.714-41.442-4.895-17.992-23.449-28.61-41.441-23.714-17.993 4.895-28.61 23.449-23.715 41.441 4.895 17.993 23.449 28.61 41.442 23.715z" fill="#fff"/><path d="M432.083 252.498l-1.724-3.244a30.08 30.08 0 01-10.152 2.855 2.116 2.116 0 01-2.212-1.669l-.779-3.46a2.134 2.134 0 01.362-1.736 2.139 2.139 0 011.547-.865 24.754 24.754 0 009.343-2.688c3.263-1.73 5.104-4.122 3.905-6.383-1.087-2.045-3.608-2.268-8.78-1.075-7.415 1.656-13.532 1.304-16.548-4.387-2.725-5.135-1.05-11.049 4.906-15.553l-1.717-3.25a2.141 2.141 0 01.237-2.364 2.14 2.14 0 01.646-.528l1.91-1.013a2.142 2.142 0 012.891.889l1.545 2.917a27.195 27.195 0 017.909-2.534 2.129 2.129 0 012.379 1.644l.723 3.201a2.129 2.129 0 01-1.81 2.595 22.316 22.316 0 00-7.761 2.472c-3.868 2.051-4.122 4.238-3.362 5.678.94 1.767 3.906 1.749 9.751.618 8.323-1.656 12.883-.253 15.726 5.104 2.607 4.943 1.31 11.264-5.178 16.121l1.927 3.633a2.141 2.141 0 01-.237 2.364 2.14 2.14 0 01-.646.528l-1.909 1.014a2.147 2.147 0 01-2.892-.884z" fill="#3CD52E"/><path d="M454.445 181.672c15.338-6.599 22.422-24.383 15.823-39.722-6.6-15.338-24.384-22.423-39.722-15.823-15.338 6.599-22.423 24.383-15.823 39.722 6.599 15.338 24.383 22.422 39.722 15.823z" fill="url(#paint19_linear_1046)"/><path d="M460.95 176.631c12.52-10.189 14.409-28.598 4.22-41.117-10.188-12.52-28.597-14.409-41.117-4.22-12.519 10.188-14.409 28.597-4.22 41.117 10.189 12.519 28.598 14.409 41.117 4.22z" fill="url(#paint20_linear_1046)"/><path opacity=".68" d="M415.856 155.159a.844.844 0 01-.334.087.756.756 0 01-.76-.705 27.622 27.622 0 0114.737-25.08 28.345 28.345 0 014.629-1.947.748.748 0 01.451 1.421 26.407 26.407 0 00-4.381 1.854 26.148 26.148 0 00-13.946 23.734.753.753 0 01-.396.636z" fill="#fff"/><path opacity=".68" d="M468.123 154.6c.21-13.662-10.696-24.908-24.358-25.118-13.662-.21-24.908 10.696-25.118 24.358-.21 13.663 10.696 24.908 24.358 25.118 13.662.21 24.908-10.696 25.118-24.358z" fill="#fff"/><path d="M449.829 171.598l-1.236-2.379a22.056 22.056 0 01-7.415 2.089 1.555 1.555 0 01-1.625-1.236l-.568-2.54a1.556 1.556 0 01.267-1.268 1.575 1.575 0 011.129-.635 18.14 18.14 0 006.853-1.971c2.385-1.236 3.738-3.021 2.854-4.677-.79-1.496-2.638-1.656-6.432-.791-5.419 1.236-9.886.957-12.123-3.207-1.996-3.763-.773-8.101 3.596-11.401l-1.236-2.379a1.564 1.564 0 01.618-2.119l1.397-.741a1.57 1.57 0 012.119.648l1.137 2.138a19.93 19.93 0 015.79-1.853 1.552 1.552 0 011.742 1.205l.532 2.341a1.577 1.577 0 01-.717 1.689 1.59 1.59 0 01-.612.215c-1.99.247-3.918.861-5.685 1.81-2.83 1.502-3.021 3.09-2.471 4.152.686 1.298 2.854 1.286 7.143.464 6.092-1.236 9.441-.186 11.524 3.707 1.909 3.603.957 8.255-3.794 11.815l1.408 2.663a1.543 1.543 0 01.117 1.194 1.568 1.568 0 01-.765.925l-1.397.742a1.57 1.57 0 01-1.749-.132 1.582 1.582 0 01-.401-.468z" fill="#3CD52E"/><path d="M246.505 792.787v-37.094c-.014-2.342 3.58-4.59 10-6.255 6.419-1.665 15.143-2.612 24.273-2.635 57.023-.159 174.643-.168 270.879 1.911 6.346.139 12.275.869 16.665 2.052 4.39 1.183 6.937 2.738 7.161 4.37l8.994 35.857c.159 1.126-.559 2.249-2.111 3.304-1.552 1.054-3.907 2.019-6.928 2.837-3.021.819-6.647 1.475-10.668 1.931-4.02.455-8.354.701-12.748.723l-272.394 1.326c-4.317.021-8.608-.178-12.622-.587-4.013-.409-7.668-1.019-10.752-1.794-3.084-.776-5.534-1.701-7.208-2.722-1.674-1.02-2.538-2.116-2.541-3.224z" fill="url(#paint21_linear_1046)"/><path d="M292.23 735.362v-34.137c-.005-2.155 2.519-4.223 7.024-5.755s10.626-2.404 17.034-2.427c40.032-.148 122.606-.156 190.163 1.759 4.455.127 8.616.799 11.697 1.888 3.082 1.089 4.87 2.519 5.026 4.022l6.315 33.005c.115 1.037-.386 2.072-1.474 3.043-1.088.972-2.741 1.861-4.862 2.615-2.121.755-4.668 1.359-7.493 1.779-2.824.42-5.868.646-8.955.666l-191.227 1.213a64.443 64.443 0 01-8.864-.541c-2.818-.377-5.385-.939-7.549-1.653-2.165-.715-3.884-1.567-5.058-2.507-1.173-.941-1.778-1.95-1.777-2.97z" fill="url(#paint22_linear_1046)"/><path d="M310.207 707.022c-.175 6.095.087 15.742.299 21.98.026.767.28 1.522.748 2.216.468.694 1.138 1.312 1.969 1.815.83.503 1.802.879 2.852 1.105 1.051.226 2.158.296 3.25.206l33.273-2.721a10.458 10.458 0 002.989-.683c.921-.366 1.727-.856 2.37-1.443.643-.587 1.111-1.258 1.375-1.973.264-.716.32-1.461.163-2.192l-4.088-18.989c-.275-1.309-1.215-2.505-2.65-3.37-1.435-.865-3.268-1.34-5.165-1.34h-29.484c-2.066-.003-4.052.56-5.53 1.568-1.477 1.008-2.329 2.38-2.371 3.821z" fill="#fff"/><path opacity=".37" d="M401.523 797.477l27.253 3.595a5.091 5.091 0 002.656-.354c.854-.356 1.632-.937 2.281-1.702a7.8 7.8 0 001.471-2.726c.32-1.03.451-2.134.382-3.232l-5.963-99.085c-11.423-.442-22.675-.749-33.565-.989v97.026c-.004 1.853.555 3.642 1.568 5.022 1.013 1.379 2.409 2.25 3.917 2.445z" fill="#fff"/><path d="M412.661 780.037c.039.854.351 1.659.873 2.247.522.588 1.214.916 1.933.915h.163c.369-.025.73-.137 1.063-.328a2.92 2.92 0 00.877-.787c.245-.328.435-.711.556-1.127.122-.416.174-.856.152-1.295l-4.22-86.52-5.662-.158 4.265 87.053z" fill="#fff"/><path d="M325.757 725.114c-.264 0-.519-.063-.712-.177-.193-.113-.31-.269-.326-.434l-1.592-15.993c-.017-.173.076-.344.258-.474.183-.13.441-.21.717-.221.138-.008.277.002.409.029.131.027.253.07.357.127a.791.791 0 01.249.205c.06.079.094.164.1.25l1.613 15.993c.018.173-.075.344-.258.474s-.44.21-.717.221h-.098zm2.668 0a1.07 1.07 0 01-.611-.181c-.164-.116-.26-.274-.268-.441l-.713-16.012a.499.499 0 01.055-.248.659.659 0 01.181-.213.927.927 0 01.279-.147c.105-.035.219-.054.334-.057.117-.008.235.002.346.03a.933.933 0 01.299.132c.086.058.153.13.199.209.045.08.067.165.064.251l.713 16.012a.484.484 0 01-.053.248.651.651 0 01-.181.214.92.92 0 01-.28.147 1.125 1.125 0 01-.335.056h-.029zm4.22-.004c-.25 0-.49-.064-.671-.178-.181-.114-.288-.27-.3-.436-.189-2.63-1.134-15.772-1.134-16.036 0-.171.103-.336.286-.458.184-.121.432-.19.691-.19.26 0 .508.069.692.19.183.122.286.287.286.458 0 .35.749 10.607 1.134 15.98.01.171-.081.337-.254.463a1.232 1.232 0 01-.672.211l-.058-.004zm5.946.622c-.484.001-.949-.131-1.298-.367-.349-.236-.555-.558-.575-.899-.786-15.787-.624-16.143-.555-16.381.148-.302.446-.556.84-.715a2.56 2.56 0 011.302-.148c.445.063.842.238 1.118.493.275.254.41.57.379.889-.057.95.355 10.134.624 15.77.013.346-.167.682-.502.936-.335.253-.798.403-1.29.418l-.043.004zm3.992-.618c-.244 0-.478-.069-.651-.192-.172-.123-.269-.29-.269-.463v-15.987c0-.175.097-.343.271-.466.174-.124.41-.194.655-.194.246 0 .482.07.656.194.174.123.271.291.271.466v15.987a.495.495 0 01-.069.253.696.696 0 01-.203.214c-.087.061-.19.109-.304.142a1.281 1.281 0 01-.357.046zm3.263 0a.877.877 0 01-.547-.185.607.607 0 01-.237-.451c-.153-5.546-.527-14.602-.817-15.69a.588.588 0 01-.112-.34c0-.12.039-.237.112-.34a.812.812 0 01.499-.282.921.921 0 01.591.093c.427.237.833.439 1.27 16.528a.552.552 0 01-.054.251.64.64 0 01-.165.215.792.792 0 01-.251.146.91.91 0 01-.299.055h.01zm-25.193 1.854c-.473.001-.929-.13-1.274-.366-.344-.235-.551-.558-.578-.9l-1.235-17.093a1.01 1.01 0 01.105-.519 1.35 1.35 0 01.37-.451c.163-.131.36-.237.58-.313a2.518 2.518 0 011.418-.053c.229.059.441.15.621.268.181.119.328.261.433.421.105.159.165.332.178.508l1.234 17.093c.022.352-.148.697-.474.959-.326.262-.781.421-1.267.442l-.111.004z" fill="#91B3FA"/><path d="M366.943 374.997l13.489 7.26c16.189 9.886 30.667 15.058 43.698 17.017 40.689 6.105 67.216-19.569 86.977-35.146 26.088-20.564 46.392-10.56 46.392-10.56l-27.806 53.109c-41.554 39.175-84.158 30.475-111.019 17.783-17.097-8.082-27.806-17.783-27.806-17.783-30.598-18.229-23.925-31.68-23.925-31.68z" fill="url(#paint23_linear_1046)"/><path d="M327.187 394.011a9.96 9.96 0 015.821-6.364l27.385-11.011s.414-3.516-5.789-5.901c-6.204-2.385-4.746-9.331-4.746-9.331s8.465 3.844 20.867 10.023c7.093 3.503 11.073 9.688 13.18 14.347l-7.051 9.269c-16.875 5.067-33.953 6.037-51.181 4.029l1.514-5.061z" fill="url(#paint24_linear_1046)"/><path d="M563.48 781.061s2.089 11.802 3.09 23.48a8.041 8.041 0 01-1.982 6.009 8.037 8.037 0 01-5.718 2.71c-15.558.618-48.814 1.909-60.777 1.371a2.61 2.61 0 01-2.073-1.199 2.614 2.614 0 01-.231-2.385 5.841 5.841 0 013.003-3.157l54.993-25.266 9.695-1.563z" fill="url(#paint25_linear_1046)"/><path d="M565.192 774.128l-1.674 14.113s-9.633 4.486-16.208-.562l3.992-15.732 13.89 2.181z" fill="url(#paint26_linear_1046)"/><path d="M567.88 499.438c.723 3.818-1.297 200.201-20.57 283.958-.315 1.365-2.305 4.047-1.619 5.221 1.675 2.861 13.983 2.058 20.929 2.299 2.15.074 3.305-2.472 3.911-4.585 5.512-19.433 31.902-116.784 35.344-209.816 3.85-103.925 0-3.534 0-3.534l1.712-65.844-39.707-7.699z" fill="url(#paint27_linear_1046)"/><path d="M626.71 787.215s3.324 5.963 6.531 21.793a4.897 4.897 0 01-.853 3.902 4.911 4.911 0 01-3.472 1.975c-5.135.506-13.044 1.155-19.378 1.112a4.91 4.91 0 01-2-.432 4.897 4.897 0 01-2.85-5.03c.704-5.778 2.892-15.257 9.645-22.647l12.377-.673z" fill="url(#paint28_linear_1046)"/><path d="M629.627 769.062l-3.911 21.349s-3.868 2.879-11.524.791l1.854-22.968 13.581.828z" fill="url(#paint29_linear_1046)"/><path d="M639.032 507.095c15.762 99.279-2.25 252.989-8.719 281.586a4.358 4.358 0 01-3.448 3.386c-2.886.501-7.643.908-12.358-.513a4.084 4.084 0 01-2.006-1.434 4.085 4.085 0 01-.812-2.329c-.865-23.122.699-165.036-13.989-221.13a12.73 12.73 0 00-4.708-7.025l-24.167-19.693-.445-42.468 70.652 9.62z" fill="url(#paint30_linear_1046)"/><path d="M548.737 347.822c41.536-.686 87.366 10.906 87.366 10.906 10.201 59.554 6.105 125.552 3.985 147.284-.438 4.455 1.947 9.17-2.471 9.887-21.738 3.509-55.896-.062-66.512-3.146-3.88-1.13-3.219-5.258-4.047-9.212-7.124-34.183-27.503-109.574-27.503-109.574-9.886 12.711-23.82 30.494-44.427 35.221 10.504-12.173-9.64-37.692-7.489-46.862 18.636-20.922 48.295-34.287 61.098-34.504z" fill="url(#paint31_linear_1046)"/><path d="M590.811 314.104l13.21 38.223a1.371 1.371 0 01-.618 1.656c-3.602 1.99-16.584 7.749-32.223-2.169a6.47 6.47 0 01-2.985-4.628l-4.282-33.082h26.898z" fill="url(#paint32_linear_1046)"/><path d="M562.053 278.742s-14.515 27.318-12.655 38.354c1.86 11.035 19.847 10.244 35.554 1.285l10.974-29.499-33.873-10.14z" fill="url(#paint33_linear_1046)"/><path d="M584.26 303.859a1.13 1.13 0 01-.667-1.195c.024-.162.083-.317.173-.455 1.161-1.773 3.343-5.394 4.035-8.57 0 0 2.613-1.668-6.637-3.887-5.036-1.235-13.964-2.199-17.919-5.82-4.393-4.054 3.707-11.71 7.106-13.761 4.492-2.713 9.961-4.325 15.027-2.954 2.472.662 4.659 1.965 6.841 3.263 3.707 2.2 7.544 4.523 9.886 8.132 1.526 2.335 2.33 5.066 3.059 7.76 1.056 3.869 2.014 7.836 1.854 11.84-.489 10.677-12.977 20.242-23.061 21.41a1.134 1.134 0 01-1.238-.939 1.134 1.134 0 01.046-.563l4.115-11.956a1.14 1.14 0 00-.618-1.403l-2.002-.902z" fill="#1C1C1C"/><path d="M582.605 305.559s10.331-7.094 11.085-1.118c.754 5.975-9.269 8.65-14.286 6.42l3.201-5.302z" fill="url(#paint34_linear_1046)"/><path d="M556.764 272.013c21.2-40.047 76.156-3.664 50.581 30.067-19.019-12.642-40.516-31.433-50.581-30.067z" fill="url(#paint35_linear_1046)"/><path d="M589.884 288.973l-38.076-1.174a2.76 2.76 0 01-2.317-1.415 25.772 25.772 0 00-14.644-12.234.77.77 0 01-.261-1.289.769.769 0 01.471-.207l23.338-1.588h.081c11.635.896 21.929 7.897 31.754 17.067a.494.494 0 01.113.538.485.485 0 01-.459.302z" fill="url(#paint36_linear_1046)"/><path d="M631.4 419.353c-23.252-26.101-20.898-46.189 5.345-60.654 0 0 43.488 29.555 50.668 67.018-8.218.618-23.171 2.744-37.81 10.134-3.237-17.691-18.203-16.498-18.203-16.498z" fill="url(#paint37_linear_1046)"/><path d="M580.874 446.195s48.815 27.596 65.313 4.029c3.417-4.888 4.232-9.751 3.392-14.391 14.638-7.415 29.591-9.528 37.81-10.134a51.686 51.686 0 01-5.623 35.449c-28.857 52.8-107.349-2.916-107.349-2.916l6.457-12.037z" fill="url(#paint38_linear_1046)"/><path d="M586.745 481.125l-26.651-93.069a2.707 2.707 0 00-2.298-1.952 1162.086 1162.086 0 00-34.974-3.51c-19.458-1.65-42.054-2.985-55.556-1.854a2.727 2.727 0 00-2.152 1.368 2.72 2.72 0 00-.072 2.55c7.674 15.534 39.262 78.727 55.08 99.433a2.733 2.733 0 002.194 1.075l61.833-.575a2.716 2.716 0 002.155-1.091 2.737 2.737 0 00.441-2.375z" fill="url(#paint39_linear_1046)"/><path d="M520.06 374.518l-19.347-3.214a1.39 1.39 0 00-1.28.463 1.384 1.384 0 00-.264 1.336l1.909 5.796a1.389 1.389 0 001.137.939l18.593 2.471a1.382 1.382 0 001.532-1.687l-1.18-5.06a1.399 1.399 0 00-1.1-1.044z" fill="url(#paint40_linear_1046)"/><path d="M534.525 390.88l-1.588-8.292a1.925 1.925 0 00-1.693-1.545l-39.021-3.961a1.921 1.921 0 00-1.637.645 1.91 1.91 0 00-.42 1.709l2.471 10.332a1.922 1.922 0 001.767 1.47l38.138 1.916a1.913 1.913 0 001.951-1.413c.076-.281.087-.575.032-.861z" fill="#BDD0FB"/><path d="M580.306 458.64s3.707-15.263 2.212-20.682c-1.495-5.419-4.399-12.358-14.07-10.832-9.67 1.527-21.076 5.623-21.076 5.623s.574 7.057 7.927 4.777l-4.56 3.528s.618 5.648 6.859 2.632l-4.239 4.678s2.669 4.634 7.236 1.662c4.566-2.972 6.753 10.455 19.711 8.614z" fill="url(#paint41_linear_1046)"/><path d="M595.778 400.529c3.053.241 28.832 1.069 28.832 1.069l-1.038 25.952-13.359 7.52-14.435-7.538v-27.003z" fill="url(#paint42_linear_1046)"/><path d="M593.733 400.529l30.821 1.069 1.254 9.961-16.035 4.165-17.054-7.601 1.014-7.594z" fill="url(#paint43_linear_1046)"/><defs><linearGradient id="paint0_linear_1046" x1="323.99" y1="339.951" x2="240.956" y2="473.38" gradientUnits="userSpaceOnUse"><stop stop-color="#FF928E"/><stop offset="1" stop-color="#FEB3B1"/></linearGradient><linearGradient id="paint1_linear_1046" x1="246.145" y1="752.952" x2="281.551" y2="1052.03" gradientUnits="userSpaceOnUse"><stop stop-color="#ED4B02"/><stop offset="1" stop-color="#FF928E"/></linearGradient><linearGradient id="paint2_linear_1046" x1="12661.7" y1="28955.4" x2="7315.23" y2="36606.1" gradientUnits="userSpaceOnUse"><stop stop-color="#FF928E"/><stop offset="1" stop-color="#FEB3B1"/></linearGradient><linearGradient id="paint3_linear_1046" x1="182490" y1="3117.29" x2="185211" y2="-2813.98" gradientUnits="userSpaceOnUse"><stop stop-color="#FF928E"/><stop offset="1" stop-color="#FEB3B1"/></linearGradient><linearGradient id="paint4_linear_1046" x1="63038.8" y1="-2971.6" x2="63582.3" y2="-4820.62" gradientUnits="userSpaceOnUse"><stop stop-color="#FF928E"/><stop offset="1" stop-color="#FEB3B1"/></linearGradient><linearGradient id="paint5_linear_1046" x1="42329.4" y1="246630" x2="15911.5" y2="248600" gradientUnits="userSpaceOnUse"><stop stop-color="#FF928E"/><stop offset="1" stop-color="#FEB3B1"/></linearGradient><linearGradient id="paint6_linear_1046" x1="88252.6" y1="69822.9" x2="90469.9" y2="69801.8" gradientUnits="userSpaceOnUse"><stop stop-color="#09005D"/><stop offset="1" stop-color="#1A0F91"/></linearGradient><linearGradient id="paint7_linear_1046" x1="33205.1" y1="198185" x2="20251.8" y2="201034" gradientUnits="userSpaceOnUse"><stop stop-color="#FF928E"/><stop offset="1" stop-color="#FEB3B1"/></linearGradient><linearGradient id="paint8_linear_1046" x1="108051" y1="60267.5" x2="111214" y2="60237.6" gradientUnits="userSpaceOnUse"><stop stop-color="#09005D"/><stop offset="1" stop-color="#1A0F91"/></linearGradient><linearGradient id="paint9_linear_1046" x1="133.673" y1="733.126" x2="6.213" y2="959.125" gradientUnits="userSpaceOnUse"><stop stop-color="#585858"/><stop offset="1" stop-color="#4F52FF"/></linearGradient><linearGradient id="paint10_linear_1046" x1="173482" y1="73817.7" x2="209440" y2="47305.7" gradientUnits="userSpaceOnUse"><stop stop-color="#FF928E"/><stop offset="1" stop-color="#FEB3B1"/></linearGradient><linearGradient id="paint11_linear_1046" x1="284.19" y1="145.692" x2="518.037" y2="197.534" gradientUnits="userSpaceOnUse"><stop stop-color="#50E7B7"/><stop offset="1" stop-color="#323992"/></linearGradient><linearGradient id="paint12_linear_1046" x1="12643.5" y1="26943.6" x2="13099.3" y2="26943.6" gradientUnits="userSpaceOnUse"><stop stop-color="#DAE3FE"/><stop offset="1" stop-color="#E9EFFD"/></linearGradient><linearGradient id="paint13_linear_1046" x1="173690" y1="-154531" x2="194093" y2="-149905" gradientUnits="userSpaceOnUse"><stop stop-color="#50E7B7"/><stop offset="1" stop-color="#323992"/></linearGradient><linearGradient id="paint14_linear_1046" x1="12870.7" y1="26106.9" x2="13356.8" y2="26106.9" gradientUnits="userSpaceOnUse"><stop stop-color="#DAE3FE"/><stop offset="1" stop-color="#E9EFFD"/></linearGradient><linearGradient id="paint15_linear_1046" x1="67789.5" y1="-18226.7" x2="66633.2" y2="-6350.75" gradientUnits="userSpaceOnUse"><stop stop-color="#3CD52E"/><stop offset="1" stop-color="#3CD52E"/></linearGradient><linearGradient id="paint16_linear_1046" x1="123510" y1="-42129.7" x2="120120" y2="-6229.09" gradientUnits="userSpaceOnUse"><stop stop-color="#3CD52E"/><stop offset="1" stop-color="#3CD52E"/></linearGradient><linearGradient id="paint17_linear_1046" x1="137672" y1="-17414.2" x2="140182" y2="-28458.7" gradientUnits="userSpaceOnUse"><stop stop-color="#5B9F55"/><stop offset="1" stop-color="#E9605A"/></linearGradient><linearGradient id="paint18_linear_1046" x1="136180" y1="-34178.6" x2="132335" y2="3857.82" gradientUnits="userSpaceOnUse"><stop stop-color="#3CD52E"/><stop offset="1" stop-color="#3CD52E"/></linearGradient><linearGradient id="paint19_linear_1046" x1="103375" y1="-22223.4" x2="104722" y2="-28152.6" gradientUnits="userSpaceOnUse"><stop stop-color="#5B9F55"/><stop offset="1" stop-color="#E9605A"/></linearGradient><linearGradient id="paint20_linear_1046" x1="101329" y1="-31419.4" x2="99421.2" y2="-10991" gradientUnits="userSpaceOnUse"><stop stop-color="#3CD52E"/><stop offset="1" stop-color="#3CD52E"/></linearGradient><linearGradient id="paint21_linear_1046" x1="240273" y1="82383.6" x2="254131" y2="25983.1" gradientUnits="userSpaceOnUse"><stop stop-color="#ED4B02"/><stop offset="1" stop-color="#FF928E"/></linearGradient><linearGradient id="paint22_linear_1046" x1="188744" y1="58446.5" x2="199636" y2="25587.1" gradientUnits="userSpaceOnUse"><stop stop-color="#ED4B02"/><stop offset="1" stop-color="#FF928E"/></linearGradient><linearGradient id="paint23_linear_1046" x1="227183" y1="70050.3" x2="172382" y2="74523" gradientUnits="userSpaceOnUse"><stop stop-color="#FF928E"/><stop offset="1" stop-color="#FEB3B1"/></linearGradient><linearGradient id="paint24_linear_1046" x1="69353.8" y1="31282.2" x2="52598.9" y2="32188.9" gradientUnits="userSpaceOnUse"><stop stop-color="#FF928E"/><stop offset="1" stop-color="#FEB3B1"/></linearGradient><linearGradient id="paint25_linear_1046" x1="-378312" y1="48577.7" x2="-377984" y2="51936.1" gradientUnits="userSpaceOnUse"><stop stop-color="#042D00"/><stop offset="1" stop-color="#4F52FF"/></linearGradient><linearGradient id="paint26_linear_1046" x1="565.186" y1="781.012" x2="547.31" y2="781.012" gradientUnits="userSpaceOnUse"><stop stop-color="#F9B776"/><stop offset="1" stop-color="#F47960"/></linearGradient><linearGradient id="paint27_linear_1046" x1="-211606" y1="1844220" x2="-159852" y2="1856400" gradientUnits="userSpaceOnUse"><stop stop-color="#595959"/><stop offset="1" stop-color="#1A0F91"/></linearGradient><linearGradient id="paint28_linear_1046" x1="-145486" y1="41757.8" x2="-145513" y2="44510.2" gradientUnits="userSpaceOnUse"><stop stop-color="#042D00"/><stop offset="1" stop-color="#4F52FF"/></linearGradient><linearGradient id="paint29_linear_1046" x1="124059" y1="35347.9" x2="124444" y2="35347.9" gradientUnits="userSpaceOnUse"><stop stop-color="#F9B776"/><stop offset="1" stop-color="#F47960"/></linearGradient><linearGradient id="paint30_linear_1046" x1="-260324" y1="1855320" x2="-197779" y2="1873370" gradientUnits="userSpaceOnUse"><stop stop-color="#595958"/><stop offset="1" stop-color="#1A0F91"/></linearGradient><linearGradient id="paint31_linear_1046" x1="207880" y1="128952" x2="156522" y2="203047" gradientUnits="userSpaceOnUse"><stop stop-color="#ED4B02"/><stop offset="1" stop-color="#FF928E"/></linearGradient><linearGradient id="paint32_linear_1046" x1="50756.4" y1="27509.6" x2="52806.7" y2="40036.3" gradientUnits="userSpaceOnUse"><stop stop-color="#FF928E"/><stop offset="1" stop-color="#FEB3B1"/></linearGradient><linearGradient id="paint33_linear_1046" x1="-96903.2" y1="-33955.3" x2="-97637.8" y2="-27946.8" gradientUnits="userSpaceOnUse"><stop stop-color="#FF928E"/><stop offset="1" stop-color="#FEB3B1"/></linearGradient><linearGradient id="paint34_linear_1046" x1="-25863.5" y1="-14257.7" x2="-26259.9" y2="-12937.9" gradientUnits="userSpaceOnUse"><stop stop-color="#FF928E"/><stop offset="1" stop-color="#FEB3B1"/></linearGradient><linearGradient id="paint35_linear_1046" x1="71009.5" y1="34682.1" x2="74887.5" y2="25513.6" gradientUnits="userSpaceOnUse"><stop stop-color="#3CD52E"/><stop offset="1" stop-color="#4F52FF"/></linearGradient><linearGradient id="paint36_linear_1046" x1="74642.6" y1="10197.2" x2="72691.5" y2="16535.8" gradientUnits="userSpaceOnUse"><stop stop-color="#3CD52E"/><stop offset="1" stop-color="#3CD52E"/></linearGradient><linearGradient id="paint37_linear_1046" x1="101696" y1="62190.3" x2="78488.8" y2="96324.2" gradientUnits="userSpaceOnUse"><stop stop-color="#ED4B02"/><stop offset="1" stop-color="#FF928E"/></linearGradient><linearGradient id="paint38_linear_1046" x1="143251" y1="57101.7" x2="164793" y2="40351.3" gradientUnits="userSpaceOnUse"><stop stop-color="#FF928E"/><stop offset="1" stop-color="#FEB3B1"/></linearGradient><linearGradient id="paint39_linear_1046" x1="-1241890" y1="87271.3" x2="-1251150" y2="132220" gradientUnits="userSpaceOnUse"><stop stop-color="#595959"/><stop offset="1" stop-color="#4F52FF"/></linearGradient><linearGradient id="paint40_linear_1046" x1="26765.7" y1="9252.5" x2="27642.8" y2="9252.5" gradientUnits="userSpaceOnUse"><stop stop-color="#DAE3FE"/><stop offset="1" stop-color="#E9EFFD"/></linearGradient><linearGradient id="paint41_linear_1046" x1="-29456.4" y1="213464" x2="-37171" y2="208062" gradientUnits="userSpaceOnUse"><stop stop-color="#FF928E"/><stop offset="1" stop-color="#FEB3B1"/></linearGradient><linearGradient id="paint42_linear_1046" x1="-154039" y1="35619.1" x2="-138422" y2="27695.2" gradientUnits="userSpaceOnUse"><stop stop-color="#3CD52E"/><stop offset="1" stop-color="#3CD52E"/></linearGradient><linearGradient id="paint43_linear_1046" x1="46045.8" y1="11670.6" x2="45185.5" y2="14793.1" gradientUnits="userSpaceOnUse"><stop stop-color="#3CD52E"/><stop offset="1" stop-color="#E9605A"/></linearGradient></defs></svg>