<svg width="150" height="150" fill="none" xmlns="http://www.w3.org/2000/svg"><g clip-path="url(#clip0)"><path d="M145.315 136.159h-43.866v-8.716l13.073-13.073v-8.715a4.355 4.355 0 014.358-4.358h26.435a4.35 4.35 0 013.839 2.302 4.334 4.334 0 01-.213 4.473l-7.107 10.656 7.107 10.656a4.334 4.334 0 01.213 4.473 4.353 4.353 0 01-3.839 2.302z" fill="#BF283F"/><path d="M49.157 136.159H5.291a4.35 4.35 0 01-3.838-2.302 4.334 4.334 0 01.212-4.473l7.107-10.656-7.107-10.656a4.334 4.334 0 01-.212-4.473 4.35 4.35 0 013.838-2.302h26.435a4.355 4.355 0 014.358 4.358v8.715l13.073 13.073v8.716z" fill="#D9415A"/><path d="M118.88 110.012h-17.43c-2.441 0-4.358 1.917-4.358 4.357V131.8a4.316 4.316 0 004.358 4.358c10.545 0 19.348-7.495 21.352-17.431l-3.922-8.715z" fill="#4D2E2E"/><path d="M49.157 110.012h-17.43l-3.922 8.715c2.005 9.936 10.807 17.431 21.352 17.431a4.316 4.316 0 004.358-4.358v-17.431a4.315 4.315 0 00-4.358-4.357z" fill="#664747"/><path d="M118.881 83.866H99.359c-2.975 0-4.761 2.77-4.27 5.054l.086.436-17.867-9.325a4.101 4.101 0 00-4.009 0l-17.866 9.325.087-.436c.493-2.298-1.315-5.054-4.27-5.054H31.726a4.315 4.315 0 00-4.358 4.358v26.146c0 1.481.175 2.963.436 4.358h94.998c.261-1.395.436-2.877.436-4.358V88.223a4.315 4.315 0 00-4.358-4.357z" fill="#F26178"/><path d="M122.802 118.727c.261-1.394.436-2.876.436-4.357V88.223a4.315 4.315 0 00-4.358-4.358H99.357c-2.974 0-4.76 2.77-4.27 5.055l.087.436-17.867-9.325a4.045 4.045 0 00-2.004-.523v39.219h47.499z" fill="#D9415A"/><path d="M75.304 62.075L60.312 75.616l-10.457-5.349-19.087-18.563c-1.22-1.133-1.569-2.877-1.133-4.533a4.24 4.24 0 013.573-2.876l26.408-3.835 15.463-.058.225 21.673z" fill="#FFCF40"/><path d="M119.839 51.707l-19.087 18.564-11.913 4.88L75.303 62.08l-.225-21.673 15.912.058L117.4 44.3a4.242 4.242 0 013.573 2.876c.435 1.656.087 3.4-1.133 4.532z" fill="#FFAF40"/><path d="M105.199 96.591c.348 1.656-.349 3.312-1.743 4.271-1.089.952-3.031 1.206-4.532.348l-23.62-12.375V62.078l25.449 8.193 4.446 26.32z" fill="#FFCF40"/><path d="M75.303 62.078v26.757L51.684 101.21c-1.481.784-3.225.698-4.532-.348-1.395-.96-2.091-2.615-1.743-4.271l4.445-26.32 25.45-8.193zM47.395 31.08l-7.277-10.018a4.355 4.355 0 01.962-6.086c1.94-1.404 4.673-.995 6.086.962l7.277 10.018a4.355 4.355 0 01-.962 6.085 4.353 4.353 0 01-6.086-.962z" fill="#FFEA80"/><path d="M98.81 32.25a4.365 4.365 0 01-.85-6.103l7.77-10.273a4.342 4.342 0 016.103-.851 4.365 4.365 0 01.851 6.102l-7.771 10.273c-1.44 1.922-4.175 2.302-6.102.851z" fill="#FFCF40"/><path d="M90.99 40.462L75.304 62.076 59.615 40.463l11.766-23.88c1.481-2.963 6.362-2.963 7.844 0l11.766 23.88z" fill="#FFEA80"/><path d="M90.992 40.462l-11.765-23.88c-.741-1.482-2.332-2.223-3.922-2.223v47.717l15.687-21.614z" fill="#FFCF40"/></g><defs><clipPath id="clip0"><path fill="#fff" transform="translate(.932 .777)" d="M0 0h148.744v148.744H0z"/></clipPath></defs></svg>