<svg width="25" height="25" fill="none" xmlns="http://www.w3.org/2000/svg"><g clip-path="url(#clip0)"><path d="M24.836 7.265c0-2.197-1.616-3.965-3.613-3.965a177.58 177.58 0 00-8.283-.175h-.88c-2.812 0-5.575.049-8.28.176C1.787 3.3.17 5.078.17 7.275A72.637 72.637 0 000 12.49c-.006 1.738.05 3.478.165 5.22 0 2.197 1.617 3.979 3.609 3.979 2.842.132 5.757.19 8.72.186 2.97.01 5.876-.053 8.721-.186 1.997 0 3.613-1.782 3.613-3.98.118-1.743.171-3.481.166-5.224a70.964 70.964 0 00-.159-5.22zM10.108 17.28V7.685l7.08 4.795-7.08 4.8z" fill="#fff"/></g><defs><clipPath id="clip0"><path fill="#fff" d="M0 0h25v25H0z"/></clipPath></defs></svg>