<svg width="31" height="31" fill="none" xmlns="http://www.w3.org/2000/svg"><g clip-path="url(#clip0)" fill="#3CD52E"><path d="M19.375 16.793c-.715 0-1.292.58-1.292 1.292v5.167c0 .711-.578 1.291-1.292 1.291h-3.875V5.168a2.603 2.603 0 00-1.759-2.455l-.382-.128h6.016c.713 0 1.292.58 1.292 1.292v3.875a1.291 1.291 0 102.583 0V3.877A3.88 3.88 0 0016.791.002H2.906c-.049 0-.09.022-.138.028-.062-.005-.121-.028-.185-.028A2.586 2.586 0 000 2.585v23.25c0 1.103.703 2.088 1.76 2.455l7.772 2.591c.264.082.526.12.801.12a2.586 2.586 0 002.583-2.583v-1.291h3.875a3.88 3.88 0 003.875-3.875v-5.167c0-.713-.577-1.292-1.291-1.292z"/><path d="M30.62 12.004l-5.166-5.166a1.291 1.291 0 00-2.205.913v3.875h-5.166a1.292 1.292 0 000 2.583h5.166v3.875a1.292 1.292 0 002.205.913l5.167-5.166a1.29 1.29 0 000-1.827z"/></g><defs><clipPath id="clip0"><path fill="#fff" d="M0 0h31v31H0z"/></clipPath></defs></svg>