<svg width="27" height="27" fill="none" xmlns="http://www.w3.org/2000/svg"><path d="M18.422 3.656a4.937 4.937 0 014.922 4.922v9.844a4.937 4.937 0 01-4.922 4.922H8.578a4.937 4.937 0 01-4.922-4.922V8.578a4.937 4.937 0 014.922-4.922h9.844zm0-1.969H8.578c-3.79 0-6.89 3.101-6.89 6.891v9.844c0 3.79 3.1 6.89 6.89 6.89h9.844c3.79 0 6.89-3.1 6.89-6.89V8.578c0-3.79-3.1-6.89-6.89-6.89z" fill="#fff"/><path d="M19.898 8.578a1.477 1.477 0 110-2.953 1.477 1.477 0 010 2.953zm-6.398.984a3.938 3.938 0 110 7.876 3.938 3.938 0 010-7.876zm0-1.968a5.906 5.906 0 100 11.812 5.906 5.906 0 000-11.812z" fill="#fff"/></svg>