<svg width="27" height="27" fill="none" xmlns="http://www.w3.org/2000/svg"><path fill-rule="evenodd" clip-rule="evenodd" d="M25.56 6.96c.188-.594 0-1.026-.83-1.026h-2.762c-.697 0-1.018.378-1.206.783 0 0-1.42 3.46-3.404 5.702-.644.65-.939.865-1.287.865-.188 0-.43-.216-.43-.81V6.933c0-.702-.214-1.027-.804-1.027h-4.343c-.43 0-.697.325-.697.649 0 .675.992.838 1.099 2.73v4.11c0 .891-.158 1.054-.51 1.054-.938 0-3.216-3.486-4.583-7.459-.266-.786-.536-1.084-1.233-1.084H1.782c-.804 0-.938.378-.938.784 0 .73.938 4.405 4.37 9.269 2.278 3.322 5.522 5.108 8.444 5.108 1.77 0 1.984-.406 1.984-1.081v-2.514c0-.81.16-.945.724-.945.401 0 1.125.216 2.76 1.81 1.877 1.892 2.199 2.757 3.244 2.757h2.762c.804 0 1.18-.406.965-1.19-.241-.783-1.153-1.918-2.333-3.269-.643-.756-1.608-1.594-1.903-2-.402-.54-.295-.756 0-1.243-.027 0 3.351-4.81 3.7-6.433" fill="#fff"/></svg>