<svg width="79" height="79" fill="none" xmlns="http://www.w3.org/2000/svg"><g clip-path="url(#clip0_1049:2129)"><path d="M14.457 46.52C6.63 44.462 0 40.731 0 34.031c0-16.34 20.38-9.532 33.968-13.616 5.666-1.703 9.396-5.38 13.481-9.423C51.534 6.948 57.421 3.87 63.32 4.21c6.903.395 11.617 6.169 13.995 12.228.177.463.34.926.503 1.39a21.19 21.19 0 01-1.263 16.857c-3.95 7.068-11.822 10.704-19.376 12.501a72.383 72.383 0 01-15.123 1.784l-27.599-2.452z" fill="#5E5F62"/><path d="M36.348 43.578c.284.014.57.014.869.014 1.225 0 1.956-.027 1.997-.027h.191c12.419 0 22.038-2.261 27.84-6.523a14.275 14.275 0 006.319-11.956c0-6.005-3.288-14.19-9.825-15.456-5.34-1.035-10.272 2.982-13.763 6.536-3.132 3.228-7.066 7.245-14.443 9.464a62.368 62.368 0 01-15.49 1.92c-13.167.518-14.607 1.77-14.607 6.482 0 3.037 4.239 5.652 11.141 7.38l19.77 2.166z" fill="#FDD7AD"/><path d="M68.087 23.07c-.677 0-1.25-.498-1.347-1.168a5.768 5.768 0 00-2.505-4.527c-2.616-1.478-6.468.123-6.507.137a1.361 1.361 0 01-1.07-2.505c.207-.088 5.11-2.142 8.903-.014a8.3 8.3 0 013.876 6.519 1.362 1.362 0 01-1.35 1.558z" fill="#5E5F62"/><path d="M0 56.473v.04c.054 10.118 17.702 18.302 39.49 18.302s39.435-8.184 39.49-18.301v-.041H0z" fill="#2C2F38"/><path d="M78.98 56.474v.041a.93.93 0 01-.014.204c-.299 2.056-4.956 3.895-12.282 5.216-.136.027-.259.04-.395.068A163.013 163.013 0 0139.49 63.99c-8.608.066-17.208-.54-25.723-1.811h-.027C5.597 60.859.368 58.91.014 56.733a1.141 1.141 0 01-.013-.218v-.04c.04-2.357 5.814-4.467 14.815-5.816h.027l27.371-1.62h.109c20.44.272 36.575 3.486 36.657 7.435z" fill="#5E5F62"/><path d="M66.535 61.936l-.246.068a163.013 163.013 0 01-26.798 1.988c-8.608.066-17.209-.54-25.723-1.811h-.027c-.259-1.28-.64-4.862 3.295-4.862a31.278 31.278 0 01-2.22-6.659 16.378 16.378 0 01-.353-4.14 7.115 7.115 0 012.11-5.105c1.607-1.457 4.262-2.247 8.456-1.825 7.013.708 9.695 2.26 11.316 3.99 1.77 1.892 2.247 3.99 5.706 5.392.054.027.109.041.163.068h.028a21.046 21.046 0 005.16 1.185c14.38 1.77 12.787 7.094 12.787 7.094s5.814 0 6.346 4.617z" fill="#FAC176"/><path d="M46.162 60.285a205.503 205.503 0 01-21.89-1.753 1.363 1.363 0 01-.914-2.19 1.36 1.36 0 011.276-.508c.198.025 20.228 2.678 26.726 1.374a1.362 1.362 0 01.534 2.671c-1.894.31-3.813.447-5.732.406z" fill="#F18D46"/></g><defs><clipPath id="clip0_1049:2129"><path fill="#fff" d="M0 0h79v79H0z"/></clipPath></defs></svg>