<svg width="79" height="79" fill="none" xmlns="http://www.w3.org/2000/svg"><path d="M11.448 58.184a1.479 1.479 0 01-.888-2.662c.063-.046 6.291-4.74 13.876-12.614a140.498 140.498 0 007.254-8.13l.038-.049c4.271-5.181 7.975-10.482 11.01-15.756l.233-.408c3.298-5.793 5.82-11.62 7.499-17.326a1.479 1.479 0 012.837.835c-1.744 5.924-4.355 11.963-7.763 17.947-.078.139-.161.284-.245.428-3.106 5.399-6.892 10.821-11.25 16.114a143.336 143.336 0 01-7.483 8.396c-7.763 8.06-13.972 12.735-14.233 12.93-.265.2-.576.295-.885.295z" fill="#B27214"/><path d="M33.916 47.505l-2.492-11.52a1.48 1.48 0 01-.033-.313l1.483-.001 1.44-.312 2.492 11.52-2.89.626zm-9.88-3.361l1.778 12.329 2.927-.423-1.778-12.328-2.927.422z" fill="#B27214"/><path d="M52.84 55.944c2.832 9.038-.752 18.209-8.006 20.482-3.182.995-6.541.5-9.547-1.133-3.85-2.09-7.125-6.044-8.713-11.119-1.19-3.789-1.248-7.603-.38-10.92.22-.848.502-1.662.84-2.437 1.497-3.424 4.109-6.048 7.545-7.124 7.254-2.271 15.43 3.213 18.26 12.251z" fill="#564C89"/><path d="M38.695 64.174c-1.188-3.789-1.248-7.603-.38-10.921.22-.848.502-1.662.841-2.437 1.103-2.524 2.815-4.61 5.014-5.966-3.019-1.652-6.395-2.159-9.592-1.158-3.436 1.077-6.048 3.7-7.545 7.124a16.43 16.43 0 00-.841 2.437c-3.363 1.496-6.283 4.786-7.637 9.113-2.22 7.085.587 14.273 6.273 16.053 3.615 1.133 7.52-.191 10.457-3.127l-.003-.002.003.002c3.007 1.634 6.366 2.13 9.547 1.134.904-.284 1.75-.674 2.535-1.158-3.832-2.095-7.089-6.038-8.672-11.094z" fill="#423D72"/><path d="M78.999 58.475a58.456 58.456 0 01-8.93-6.061h-.004c-.548-15.524-6.746-27.54-12.106-35.12 8.27 6.798 19.857 19.998 21.04 41.181z" fill="#90BC42"/><path d="M68.75 67.882C45.995 46.138 48.16 19.1 49.51 10.704c.27-1.678.507-2.61.507-2.61s3.71 3.219 7.94 9.198l.003.002c5.36 7.58 11.557 19.595 12.105 35.119.174 4.825-.2 9.992-1.316 15.469zM44.26 19.29l-.24.42C41.438 22.437 25.14 38.341 0 33.22c18.587-19.452 42.385-14.37 44.26-13.93z" fill="#9AD14B"/><path d="M68.75 67.882C45.995 46.138 48.16 19.1 49.51 10.704l.507-2.61L68.75 67.882zM44.26 19.29L0 33.22c18.587-19.452 42.385-14.37 44.26-13.93z" fill="#90BC42"/></svg>