<svg width="79" height="79" fill="none" xmlns="http://www.w3.org/2000/svg"><g clip-path="url(#clip0_1047:1808)"><path d="M35.853 8.105c2.336 6.65 2.384 13.915.02 20.555-.844 2.373-1.823 4.138-2.867 4.138s-2.023-1.765-2.867-4.138c-2.363-6.64-2.316-13.905.02-20.555L33.006 0l2.847 8.105z" fill="#A8DB58"/><path d="M30.16 13.578l2.847-8.105 2.846 8.105a31.354 31.354 0 011.65 7.611 31.166 31.166 0 00-1.65-13.084L33.007 0 30.16 8.105a31.165 31.165 0 00-1.65 13.084c.23-2.58.78-5.138 1.65-7.611z" fill="#8ECC3E"/><path d="M25.103 22.325h6.374l.672-4.581c1.144-7.802-6.966-13.649-13.971-10.072 5.031 2.286 7.947 7.637 7.149 13.12l-.224 1.532z" fill="#8ECC3E"/><path d="M18.178 7.672c.445.202.873.43 1.284.678 5.92-.563 11.42 4.588 10.464 11.104l-.42 2.87h1.971l.672-4.58c1.144-7.802-6.966-13.649-13.971-10.072z" fill="#75AF23"/><path d="M41.056 22.325h-6.373l-.672-4.581C32.867 9.942 40.976 4.095 47.982 7.672c-5.031 2.286-7.947 7.637-7.149 13.12l.223 1.532z" fill="#8ECC3E"/><path d="M36.234 19.796c-.93-6.338 4.248-11.386 9.98-11.14a12.421 12.421 0 011.768-.984c-7.005-3.577-15.115 2.27-13.971 10.072l.672 4.58h1.922l-.371-2.528z" fill="#75AF23"/><path d="M37.368 78.147a1.013 1.013 0 01-1.013-1.013v-2.04a1.013 1.013 0 012.026 0v2.04c0 .56-.453 1.013-1.013 1.013zm-8.581.213c-.56 0-1.013-.454-1.013-1.014v-2.29a1.013 1.013 0 012.026 0v2.29c0 .56-.454 1.013-1.013 1.013zm12.873-1.282c-.56 0-1.013-.453-1.013-1.013V74.19a1.013 1.013 0 112.026 0v1.876c0 .56-.454 1.013-1.013 1.013z" fill="#913A8D"/><path d="M41.23 15.472l-3.952 5.204-4.2-8.613-3.993 8.465-4.158-5.056.023.061c1.678 4.538-.387 9.61-4.753 11.67-8.748 4.125-15.302 12.245-15.302 22.132 0 14.381 14.067 26.014 28.183 26.04 17.17.032 28.26-13.365 28.184-26.04-.06-9.891-6.544-18.062-15.281-22.183-4.37-2.061-6.436-7.139-4.751-11.68z" fill="#BA4AA5"/><path d="M50.179 54.852c-14.117-.026-28.184-11.658-28.184-26.04 0-.978.066-1.937.19-2.878a9.29 9.29 0 01-1.986 1.269C11.45 31.329 4.896 39.449 4.896 49.335c0 14.382 14.068 26.014 28.184 26.04 15.556.03 26.123-10.966 27.914-22.46-3.243 1.24-6.868 1.944-10.815 1.937z" fill="#AF46A0"/><path d="M61.262 49.335c-.041-6.916-3.226-12.988-8.123-17.425a18.503 18.503 0 00-.408-.006c-13.668 0-24.749 11.103-24.749 24.799 0 7.364 3.205 13.977 8.291 18.519 15.338-1.514 25.06-14.016 24.99-25.887z" fill="#9E3F95"/><path d="M10.537 50.874c0-9.886 6.555-18.006 15.302-22.132 4.318-2.037 6.383-7.02 4.805-11.518l-1.559 3.305-4.158-5.056.023.06c1.678 4.539-.387 9.61-4.753 11.67-8.748 4.126-15.302 12.246-15.302 22.132 0 12.908 11.332 23.599 23.86 25.674-10.094-3.867-18.218-13.206-18.218-24.135z" fill="#9E3F95"/><path d="M25.46 73.257c-8.146-5.734-13.01-14.706-13.01-24.002 0-4.458 1.068-8.714 3.174-12.65a1.013 1.013 0 00-1.787-.956 28.55 28.55 0 00-3.413 13.606c0 9.773 5 19.194 13.403 25.319v1.492a1.013 1.013 0 002.025 0v-1.709a1.012 1.012 0 00-.391-1.1zm16.554 1.84a1.013 1.013 0 01-.615-1.818c7.525-5.74 12.356-15.168 12.307-24.02a27.03 27.03 0 00-3.188-12.66 1.013 1.013 0 111.788-.95 29.035 29.035 0 013.426 13.599c.052 9.465-5.092 19.53-13.105 25.64-.183.14-.4.209-.614.209z" fill="#913A8D"/><path d="M47.105 39.128a1.013 1.013 0 00-1.899.704 27.478 27.478 0 011.704 9.429c.046 8.403-3.984 16.792-10.543 22.451 2.137-4.126 3.617-8.609 4.414-13.382 1.01-6.064.88-12.303-.39-18.544a1.013 1.013 0 00-1.984.404c2.435 11.972.53 23.719-5.353 33.263-6.082-9.89-8.052-22.093-5.39-33.748a1.013 1.013 0 00-1.974-.45c-2.526 11.06-1.057 22.598 4.004 32.372-6.536-5.666-10.448-13.878-10.448-22.372 0-3.288.518-6.466 1.539-9.446a1.013 1.013 0 00-1.917-.657c-1.093 3.192-1.647 6.591-1.647 10.103 0 10.588 5.675 20.754 14.845 26.673v2.06a1.013 1.013 0 002.025 0V75.93c4.405-2.827 8.12-6.786 10.762-11.488 2.7-4.803 4.111-10.056 4.083-15.192a29.508 29.508 0 00-1.83-10.122z" fill="#913A8D"/><path d="M52.73 78.08c11.805 0 21.374-9.57 21.374-21.378 0-11.806-9.57-21.378-21.373-21.378-11.805 0-21.374 9.572-21.374 21.378 0 11.807 9.57 21.378 21.374 21.378z" fill="#E086DC"/><path d="M52.731 75.769c10.547 0 19.097-8.537 19.097-19.067s-8.55-19.067-19.097-19.067c-10.546 0-19.096 8.536-19.096 19.067 0 10.53 8.55 19.067 19.096 19.067z" fill="#FFDDF4"/><path d="M52.73 72.48c-8.698 0-15.775-7.078-15.775-15.779 0-8.7 7.077-15.78 15.776-15.78 8.698 0 15.775 7.08 15.775 15.78s-7.077 15.78-15.775 15.78z" fill="#E086DC"/><path d="M52.73 70.443c-7.575 0-13.738-6.165-13.738-13.742 0-7.578 6.163-13.742 13.739-13.742 7.575 0 13.739 6.164 13.739 13.742 0 7.577-6.164 13.742-13.74 13.742z" fill="#FFDDF4"/><path d="M52.729 66.882c-5.612 0-10.178-4.567-10.178-10.18 0-5.613 4.566-10.18 10.178-10.18 5.612 0 10.178 4.567 10.178 10.18 0 5.614-4.566 10.18-10.178 10.18z" fill="#E086DC"/><path d="M52.73 65.033c-4.593 0-8.33-3.737-8.33-8.33 0-4.595 3.737-8.332 8.33-8.332 4.592 0 8.329 3.737 8.329 8.331 0 4.594-3.737 8.331-8.33 8.331z" fill="#FFDDF4"/><path d="M52.731 61.282a4.586 4.586 0 01-4.58-4.581 4.586 4.586 0 014.58-4.582 4.586 4.586 0 014.58 4.582 4.586 4.586 0 01-4.58 4.581z" fill="#E2A1DC"/><path d="M52.732 59.278a2.58 2.58 0 01-2.576-2.576 2.58 2.58 0 012.576-2.577 2.58 2.58 0 012.576 2.577 2.58 2.58 0 01-2.576 2.576z" fill="#FFDDF4"/><path d="M60.111 7.569h-1.723V5.845a1.013 1.013 0 00-2.025 0v1.724H54.64a1.013 1.013 0 000 2.025h1.723v1.724a1.013 1.013 0 002.025 0V9.594h1.723a1.013 1.013 0 000-2.025z" fill="#AF46A0"/><path d="M11.22 23.445c-2.35 0-4.261-1.94-4.261-4.325 0-2.385 1.912-4.325 4.262-4.325 2.35 0 4.261 1.94 4.261 4.325 0 2.384-1.912 4.325-4.261 4.325zm0-6.624c-1.232 0-2.235 1.031-2.235 2.299s1.003 2.3 2.236 2.3c1.232 0 2.236-1.032 2.236-2.3 0-1.268-1.004-2.3-2.236-2.3zm56.426 18.532a4.267 4.267 0 01-4.261-4.263 4.267 4.267 0 014.261-4.262 4.267 4.267 0 014.262 4.262 4.267 4.267 0 01-4.262 4.263zm0-6.5a2.239 2.239 0 00-2.236 2.237 2.239 2.239 0 002.236 2.237 2.239 2.239 0 002.236-2.237 2.239 2.239 0 00-2.236-2.236z" fill="#E0E0E0"/><path d="M39.472 32.759c1.026 0 1.857-1.304 1.857-2.912 0-1.608-.831-2.912-1.857-2.912-1.025 0-1.857 1.304-1.857 2.912 0 1.608.832 2.912 1.857 2.912zm-5.556 1.095c.051 1.053-.482 1.88-1.191 1.847-.709-.032-1.325-.912-1.376-1.964-.05-1.053.482-1.88 1.191-1.847.71.032 1.325.912 1.376 1.964zM42.17 53.6c.034.7-.32 1.25-.791 1.228-.47-.022-.88-.606-.914-1.305-.034-.7.32-1.25.791-1.228.471.022.88.606.914 1.306z" fill="#fff"/></g><defs><clipPath id="clip0_1047:1808"><path fill="#fff" d="M0 0h79v79H0z"/></clipPath></defs></svg>