<svg width="64" height="64" fill="none" xmlns="http://www.w3.org/2000/svg"><g clip-path="url(#clip0)"><path d="M54.624 9.37C42.125-3.127 21.864-3.124 9.369 9.375c-12.495 12.499-12.492 32.76.007 45.255 12.499 12.495 32.76 12.492 45.255-.007a32 32 0 00-.007-45.255zm-6.161 35.206l-.004.004v-.01l-1.622 1.61a8.533 8.533 0 01-8.053 2.304 28.351 28.351 0 01-8.235-3.69 38.041 38.041 0 01-6.496-5.238 38.343 38.343 0 01-4.853-5.888 29.862 29.862 0 01-3.648-7.381 8.533 8.533 0 012.133-8.715l1.899-1.899a1.355 1.355 0 011.916-.004l.004.004 5.994 5.995a1.355 1.355 0 010 1.92l-3.52 3.52a2.87 2.87 0 00-.298 3.733 41.167 41.167 0 004.213 4.918 40.917 40.917 0 005.547 4.661c1.146.8 2.7.664 3.69-.32l3.403-3.456a1.355 1.355 0 011.916-.004l.004.004 6.005 6.016c.53.528.533 1.385.005 1.916z" fill="url(#paint0_linear)"/></g><defs><linearGradient id="paint0_linear" x1="32" y1="0" x2="32" y2="64" gradientUnits="userSpaceOnUse"><stop offset=".154" stop-color="#FF5000"/><stop offset="1" stop-color="#FF8A00"/></linearGradient><clipPath id="clip0"><path fill="#fff" d="M0 0h64v64H0z"/></clipPath></defs></svg>