<svg width="208" height="208" fill="none" xmlns="http://www.w3.org/2000/svg"><path d="M198.25 104a93.807 93.807 0 01-11.127 44.46 91 91 0 01-3.27 5.618 94.163 94.163 0 01-76.603 44.115 94.849 94.849 0 01-3.25.057c-1.089 0-2.169-.02-3.25-.057a94.175 94.175 0 01-76.733-44.314 92.05 92.05 0 01-3.253-5.63 94.398 94.398 0 01.036-88.567 94.106 94.106 0 013.258-5.626 94.176 94.176 0 0176.692-44.25A95.986 95.986 0 01104 9.75c1.089 0 2.169.02 3.25.057a94.19 94.19 0 0176.724 44.301 91.542 91.542 0 013.254 5.631A93.795 93.795 0 01198.25 104z" fill="#F5A12C"/><path d="M104 182c43.078 0 78-34.922 78-78s-34.922-78-78-78-78 34.922-78 78 34.922 78 78 78z" fill="#FCC50F"/><path d="M146.25 68.25a6.499 6.499 0 01-4.596-11.096 6.5 6.5 0 114.596 11.096zM91 81.25a6.5 6.5 0 100-13 6.5 6.5 0 000 13zm71.5 42.25a6.5 6.5 0 100-13 6.5 6.5 0 000 13zm-42.25 13a6.5 6.5 0 100-13 6.5 6.5 0 000 13zM91 169a6.5 6.5 0 100-13 6.5 6.5 0 000 13zm-29.25-52a6.5 6.5 0 100-13 6.5 6.5 0 000 13z" fill="#914616"/><path d="M66.625 71.5C72.907 71.5 78 66.407 78 60.125S72.907 48.75 66.625 48.75 55.25 53.843 55.25 60.125 60.343 71.5 66.625 71.5zm58.5-9.75c6.282 0 11.375-5.093 11.375-11.375S131.407 39 125.125 39s-11.375 5.093-11.375 11.375 5.093 11.375 11.375 11.375zm19.5 52c6.282 0 11.375-5.093 11.375-11.375S150.907 91 144.625 91s-11.375 5.093-11.375 11.375 5.093 11.375 11.375 11.375zm-19.5 52c6.282 0 11.375-5.093 11.375-11.375S131.407 143 125.125 143s-11.375 5.093-11.375 11.375 5.093 11.375 11.375 11.375zm-58.5-6.5c6.282 0 11.375-5.093 11.375-11.375S72.907 136.5 66.625 136.5s-11.375 5.093-11.375 11.375 5.093 11.375 11.375 11.375zM47.125 104c6.282 0 11.375-5.093 11.375-11.375S53.407 81.25 47.125 81.25 35.75 86.343 35.75 92.625 40.843 104 47.125 104z" fill="#E05114"/><path d="M78 39h6.5v6.5H78V39zm9.75 13h6.5v6.5h-6.5V52zm26 22.75h6.5v6.5h-6.5v-6.5zm13-6.5h6.5v6.5h-6.5v-6.5zM156 84.5h6.5V91H156v-6.5zm6.5 13h6.5v6.5h-6.5v-6.5zm-26 35.75h6.5v6.5h-6.5v-6.5zm6.5 13h6.5v6.5H143v-6.5zm-61.75-19.5h6.5v6.5h-6.5v-6.5zm6.5 13h6.5v6.5h-6.5v-6.5zm-45.5-26h6.5v6.5h-6.5v-6.5zm26-19.5h6.5v6.5h-6.5v-6.5z" fill="#FADD5C"/><path d="M110.5 104l76.623 44.46a91 91 0 01-3.27 5.618l-76.603-44.447v88.562c-1.08.037-2.161.057-3.25.057s-2.169-.02-3.25-.057v-88.562l-76.732 44.248a92.102 92.102 0 01-3.254-5.63L97.5 104 20.8 59.682a94.053 94.053 0 013.258-5.626l76.692 44.313V9.807A95.986 95.986 0 01104 9.75c1.089 0 2.17.02 3.25.057v88.562l76.725-44.26a92.582 92.582 0 013.254 5.63L110.5 104z" fill="#ED961C"/></svg>