<svg width="123" height="123" fill="none" xmlns="http://www.w3.org/2000/svg"><path d="M34.594 63.418c3.184 0 5.765-1.72 5.765-3.844 0-2.123-2.581-3.843-5.765-3.843-3.184 0-5.766 1.72-5.766 3.843s2.582 3.844 5.766 3.844zm-11.531 0c3.184 0 5.765-1.72 5.765-3.844 0-2.123-2.581-3.843-5.765-3.843-3.185 0-5.766 1.72-5.766 3.843s2.581 3.844 5.765 3.844zm16.08 7.602l.255-2.022.231-1.769.479-3.788c-3.072.087-5.514 1.767-5.514 3.827 0 1.833 1.947 3.377 4.549 3.751zm-10.315.086c3.184 0 5.766-1.721 5.766-3.844 0-2.123-2.582-3.844-5.766-3.844s-5.765 1.72-5.765 3.844c0 2.123 2.58 3.844 5.765 3.844zm-11.531 0c3.184 0 5.765-1.721 5.765-3.844 0-2.123-2.58-3.844-5.765-3.844-3.184 0-5.766 1.72-5.766 3.844 0 2.123 2.582 3.844 5.766 3.844zm21.823.094c-2.59.384-4.526 1.921-4.526 3.75 0 1.607 1.493 2.987 3.609 3.56l.6-4.79.317-2.52zm-10.292 7.597c3.184 0 5.766-1.721 5.766-3.844 0-2.123-2.582-3.844-5.766-3.844s-5.765 1.721-5.765 3.844c0 2.123 2.58 3.844 5.765 3.844zm-11.531 0c3.184 0 5.765-1.721 5.765-3.844 0-2.123-2.58-3.844-5.765-3.844-3.184 0-5.766 1.721-5.766 3.844 0 2.123 2.582 3.844 5.766 3.844z" fill="#CAA473"/><path d="M11.531 74.95c3.184 0 5.766-1.722 5.766-3.844 0-2.123-2.582-3.844-5.766-3.844s-5.765 1.72-5.765 3.844c0 2.122 2.581 3.843 5.765 3.843z" fill="#FFDFB8"/><path d="M23.063 74.95c3.184 0 5.765-1.722 5.765-3.844 0-2.123-2.581-3.844-5.765-3.844-3.185 0-5.766 1.72-5.766 3.844 0 2.122 2.581 3.843 5.765 3.843zm16.335-5.953l-.595 4.73a7.14 7.14 0 01-4.21 1.228c-3.19 0-5.765-1.73-5.765-3.844s2.575-3.844 5.766-3.844a6.793 6.793 0 014.804 1.73zm1.192-9.384l-.96 7.61c-2.845-.23-5.036-1.845-5.036-3.801 0-2.114 2.575-3.844 5.765-3.844l.231.035z" fill="#FFDFB8"/><path d="M28.828 67.262c3.184 0 5.766-1.721 5.766-3.844 0-2.123-2.582-3.844-5.766-3.844s-5.765 1.721-5.765 3.844c0 2.123 2.58 3.844 5.765 3.844zm-11.531 0c3.184 0 5.765-1.721 5.765-3.844 0-2.123-2.58-3.844-5.765-3.844-3.184 0-5.766 1.721-5.766 3.844 0 2.123 2.582 3.844 5.766 3.844zm5.766-7.688c3.184 0 5.765-1.72 5.765-3.843s-2.581-3.844-5.765-3.844c-3.185 0-5.766 1.72-5.766 3.843s2.581 3.844 5.765 3.844zm11.531 0c3.184 0 5.765-1.72 5.765-3.843s-2.581-3.844-5.765-3.844c-3.184 0-5.766 1.72-5.766 3.843s2.582 3.844 5.766 3.844zM7.688 82.637c3.184 0 5.765-1.721 5.765-3.844 0-2.123-2.581-3.844-5.765-3.844-3.185 0-5.766 1.721-5.766 3.844 0 2.123 2.581 3.844 5.766 3.844zm11.531 0c3.184 0 5.765-1.721 5.765-3.844 0-2.123-2.581-3.844-5.765-3.844-3.184 0-5.766 1.721-5.766 3.844 0 2.123 2.582 3.844 5.766 3.844zm11.531 0c3.184 0 5.766-1.721 5.766-3.844 0-2.123-2.582-3.844-5.766-3.844s-5.766 1.721-5.766 3.844c0 2.123 2.582 3.844 5.766 3.844z" fill="#FFDFB8"/><path d="M23.063 59.578c3.19 0 5.765-1.73 5.765-3.844H17.297c0 2.114 2.575 3.844 5.765 3.844z" fill="#E7C699"/><path d="M23.063 51.89c-3.19 0-5.766 1.73-5.766 3.844h11.531c0-2.114-2.575-3.843-5.765-3.843z" fill="#FFDFB8"/><path d="M34.594 59.578c3.19 0 5.765-1.73 5.765-3.844H28.83c0 2.114 2.574 3.844 5.765 3.844z" fill="#F7D5A9"/><path d="M34.594 51.89c-3.19 0-5.766 1.73-5.766 3.844H40.36c0-2.114-2.575-3.843-5.765-3.843z" fill="#FFECD4"/><path d="M25.945 57.652c1.592 0 2.883-.86 2.883-1.922 0-1.061-1.29-1.921-2.883-1.921-1.592 0-2.883.86-2.883 1.922 0 1.06 1.291 1.921 2.883 1.921z" fill="#B9976A"/><path d="M37.477 57.652c1.592 0 2.882-.86 2.882-1.922 0-1.061-1.29-1.921-2.882-1.921-1.593 0-2.883.86-2.883 1.922 0 1.06 1.29 1.921 2.883 1.921z" fill="#DBB27D"/><path d="M23.063 74.953c3.19 0 5.765-1.73 5.765-3.844H17.297c0 2.114 2.575 3.844 5.765 3.844z" fill="#E7C699"/><path d="M23.063 67.266c-3.19 0-5.766 1.73-5.766 3.843h11.531c0-2.114-2.575-3.843-5.765-3.843z" fill="#FFDFB8"/><path d="M11.531 74.953c3.19 0 5.766-1.73 5.766-3.844H5.766c0 2.114 2.575 3.844 5.765 3.844z" fill="#F7D5A9"/><path d="M11.531 67.266c-3.19 0-5.765 1.73-5.765 3.843h11.53c0-2.114-2.574-3.843-5.765-3.843z" fill="#FFECD4"/><path d="M25.945 73.027c1.592 0 2.883-.86 2.883-1.921 0-1.062-1.29-1.922-2.883-1.922-1.592 0-2.883.86-2.883 1.922 0 1.06 1.291 1.921 2.883 1.921z" fill="#B9976A"/><path d="M14.414 73.027c1.592 0 2.883-.86 2.883-1.921 0-1.062-1.29-1.922-2.883-1.922-1.592 0-2.883.86-2.883 1.922 0 1.06 1.29 1.921 2.883 1.921z" fill="#DBB27D"/><path d="M7.688 82.64c3.19 0 5.765-1.73 5.765-3.843H1.922c0 2.114 2.575 3.844 5.766 3.844z" fill="#E7C699"/><path d="M7.688 74.953c-3.19 0-5.766 1.73-5.766 3.844h11.531c0-2.114-2.575-3.844-5.765-3.844z" fill="#FFDFB8"/><path d="M30.75 82.64c3.19 0 5.766-1.73 5.766-3.843H24.984c0 2.114 2.576 3.844 5.766 3.844z" fill="#E7C699"/><path d="M30.75 74.953c-3.19 0-5.766 1.73-5.766 3.844h11.532c0-2.114-2.576-3.844-5.766-3.844z" fill="#FFDFB8"/><path d="M19.219 82.64c3.19 0 5.765-1.73 5.765-3.843h-11.53c0 2.114 2.574 3.844 5.765 3.844z" fill="#F7D5A9"/><path d="M19.219 74.953c-3.19 0-5.766 1.73-5.766 3.844h11.531c0-2.114-2.575-3.844-5.765-3.844z" fill="#FFECD4"/><path d="M33.633 80.719c1.592 0 2.883-.86 2.883-1.922 0-1.061-1.291-1.922-2.883-1.922s-2.883.86-2.883 1.922c0 1.061 1.29 1.922 2.883 1.922zm-23.063 0c1.592 0 2.883-.86 2.883-1.922 0-1.061-1.29-1.922-2.883-1.922-1.592 0-2.883.86-2.883 1.922 0 1.061 1.291 1.922 2.883 1.922z" fill="#B9976A"/><path d="M22.102 80.719c1.592 0 2.882-.86 2.882-1.922 0-1.061-1.29-1.922-2.882-1.922-1.593 0-2.883.86-2.883 1.922 0 1.061 1.29 1.922 2.883 1.922z" fill="#DBB27D"/><path d="M17.297 67.266c3.19 0 5.765-1.73 5.765-3.844h-11.53c0 2.114 2.575 3.844 5.765 3.844z" fill="#E7C699"/><path d="M17.297 59.578c-3.19 0-5.766 1.73-5.766 3.844h11.531c0-2.114-2.575-3.844-5.765-3.844z" fill="#FFDFB8"/><path d="M28.828 67.266c3.19 0 5.766-1.73 5.766-3.844H23.062c0 2.114 2.576 3.844 5.766 3.844z" fill="#F7D5A9"/><path d="M28.828 59.578c-3.19 0-5.765 1.73-5.765 3.844h11.53c0-2.114-2.575-3.844-5.765-3.844z" fill="#FFECD4"/><path d="M20.18 65.34c1.592 0 2.883-.86 2.883-1.922 0-1.061-1.291-1.922-2.883-1.922s-2.883.86-2.883 1.922c0 1.061 1.29 1.922 2.883 1.922z" fill="#B9976A"/><path d="M31.71 65.34c1.593 0 2.884-.86 2.884-1.922 0-1.061-1.29-1.922-2.883-1.922-1.592 0-2.883.86-2.883 1.922 0 1.061 1.29 1.922 2.883 1.922z" fill="#DBB27D"/><path d="M34.594 67.267c-3.19 0-5.766 1.73-5.766 3.844h10.303l.267-2.114a6.793 6.793 0 00-4.804-1.73z" fill="#FFECD4"/><path d="M34.594 74.953a7.14 7.14 0 004.209-1.23l.328-2.614H28.828c0 2.114 2.575 3.844 5.766 3.844zm5.996-15.34l-.23-.035c-3.19 0-5.766 1.73-5.766 3.844h5.515l.481-3.81z" fill="#FFDFB8"/><path d="M39.63 67.223l.48-3.801h-5.516c0 1.956 2.19 3.57 5.035 3.801z" fill="#E7C699"/><path d="M37.688 82.64l-.73 5.824-.442-.058H1.922v-5.765h35.766z" fill="#B4AAA1"/><path d="M34.844 109.547a6.965 6.965 0 001.057 2.383l6.15 9.148H24.984A23.063 23.063 0 011.922 98.016v-9.61h34.594l.442.058-2.307 18.24a7.456 7.456 0 00.193 2.843z" fill="#FFD15F"/><path d="M115.312 28.829h-73.03L72.396 3.664a7.263 7.263 0 019.129-.25l33.786 25.415z" fill="#FFECD4"/><path d="M86.484 57.656v38.438H51.891V57.656h34.593zm-11.53 19.219v-1.922c0-2.114-1.288-3.844-2.884-3.844h-1.44c-.788 0-1.442.865-1.442 1.922 0-1.059-.653-1.922-1.44-1.922h-1.442c-1.596 0-2.883 1.73-2.883 3.844v1.922c0 2.114 1.288 3.844 2.883 3.844h1.441c.788 0 1.442-.865 1.442-1.922 0 1.057.653 1.922 1.44 1.922h1.442c1.596 0 2.883-1.73 2.883-3.844z" fill="#FF9B3A"/><path d="M74.953 74.953v1.922c0 2.114-1.288 3.844-2.883 3.844h-1.44c-.788 0-1.442-.865-1.442-1.922V73.03c0-1.059.654-1.922 1.442-1.922h1.441c1.596 0 2.883 1.73 2.883 3.844z" fill="#FFECD4"/><path d="M69.188 73.031v5.766c0 1.057-.654 1.922-1.442 1.922h-1.441c-1.596 0-2.883-1.73-2.883-3.844v-1.922c0-2.114 1.288-3.844 2.883-3.844h1.441c.788 0 1.442.861 1.442 1.922z" fill="#F7D5A9"/><path d="M117.234 28.824l-3.843 19.22H96.094v-19.22h21.14zm-13.742 80.723h17.355a7.37 7.37 0 01-1.057 2.383l-6.131 9.148H96.305l6.111-9.148a7.374 7.374 0 001.076-2.383z" fill="#E7C699"/><path d="M34.844 109.547h68.649a7.395 7.395 0 01-1.076 2.383l-6.15 9.148H42.05l-6.15-9.148a6.968 6.968 0 01-1.057-2.383zm7.437-61.502l-3.843-19.22h57.656v19.22H42.28z" fill="#CAA473"/><path d="M121.02 106.703a7.85 7.85 0 01-.172 2.844h-17.355a7.85 7.85 0 00.173-2.844l-7.572-58.656h17.297l7.629 58.656z" fill="#FFECD4"/><path d="M39.399 68.995l.23-1.768.962-7.61 1.46-11.57h54.043l7.572 58.656c.117.95.058 1.914-.173 2.844H34.844a7.451 7.451 0 01-.192-2.844l2.306-18.241.73-5.821 1.115-8.918.596-4.728zm47.086 27.099V57.656H51.89v38.438h34.594z" fill="#F7D5A9"/><path d="M110.168 24.954c-23.64-.346-43.46-4.482-51.078-10.173L42.281 28.828h73.031l-5.144-3.874z" fill="#FFDFB8"/><path d="M56.136 42.281a7.687 7.687 0 01-7.513-6.025l-1.645-7.428h-8.54l3.843 19.219h53.813V42.28H56.136zm-7.954 73.031a3.84 3.84 0 01-3.198-1.712l-1.934-2.9a3.866 3.866 0 01-.513-1.153H34.85a6.965 6.965 0 001.057 2.383l6.144 9.148h54.216l3.876-5.766H48.182z" fill="#A88A61"/><path d="M42.424 108.169l5.266-50.912a3.844 3.844 0 013.817-3.444h45.331l-.744-5.766H42.051l-1.46 11.57-.962 7.61-.23 1.768-.596 4.73-1.115 8.916-.73 5.823-2.306 18.24a7.455 7.455 0 00.192 2.845h7.688a3.86 3.86 0 01-.108-1.38z" fill="#E7C699"/><path d="M96.305 48.045h5.554v-19.22h-5.765v19.22h.211zm14.037 67.267a1.918 1.918 0 01-1.885-2.296c.075-.373.258-.715.526-.984l1.103-1.105c.387-.392.684-.863.871-1.38h-7.465a7.374 7.374 0 01-1.076 2.383l-6.111 9.148h17.354l3.865-5.766h-7.182z" fill="#DBB27D"/><path d="M111.167 107.625l-9.308-59.578h-5.765l7.572 58.656a7.85 7.85 0 01-.173 2.844h7.465a3.827 3.827 0 00.209-1.922z" fill="#FFDFB8"/><path d="M36.515 88.406l.442.058.73-5.823h-7.194l-.768 5.765h6.79z" fill="#766F61"/><path d="M42.051 121.078l-6.15-9.148a6.972 6.972 0 01-1.057-2.383 7.453 7.453 0 01-.192-2.844l2.306-18.241-.442-.056h-6.79l-2.702 20.259a3.85 3.85 0 00.163 1.729 3.742 3.742 0 01-3.547 4.919H9.762a22.95 22.95 0 0015.223 5.765H42.05z" fill="#FEAD4D"/><path d="M87.066 15.993c1.232-1.232.84-3.622-.875-5.338-1.716-1.715-4.106-2.107-5.338-.875-1.233 1.233-.841 3.623.875 5.338 1.715 1.716 4.105 2.108 5.338.875zm4.212 4.244c.62-.619.423-1.82-.439-2.68-.861-.862-2.061-1.06-2.68-.44-.62.62-.423 1.82.438 2.681.862.862 2.062 1.059 2.681.44z" fill="#F7FAFD"/><path d="M84.563 111.469h-30.75a1.922 1.922 0 100 3.843h30.75a1.921 1.921 0 100-3.843zm.195-74.957H73.227a1.922 1.922 0 100 3.843h11.53a1.922 1.922 0 000-3.843zm8.497 74.972h-2.01a1.878 1.878 0 00-1.878 1.878v.088c0 1.037.84 1.878 1.878 1.878h2.01a1.878 1.878 0 001.878-1.878v-.088c0-1.037-.84-1.878-1.878-1.878zm-.765-74.91h-2.01a1.877 1.877 0 100 3.754h2.01a1.877 1.877 0 100-3.754z" fill="#DBB27D"/></svg>