<svg width="80" height="80" fill="none" xmlns="http://www.w3.org/2000/svg"><path d="M67.5 17.501H60v-6.95a5 5 0 00-5.975-5l-9.275 1.95h-9.5l-9.275-1.85a5 5 0 00-5.975 4.9v6.95h-7.5a7.5 7.5 0 00-7.5 7.5v5a2.5 2.5 0 002.5 2.5H10v35a7.5 7.5 0 007.5 7.5h45a7.5 7.5 0 007.5-7.5v-35h2.5a2.5 2.5 0 002.5-2.5v-5a7.5 7.5 0 00-7.5-7.5zm-30-5h5v5h-5v-5zm-7.5 57.5H17.5a2.5 2.5 0 01-2.5-2.5v-35h15v37.5zm0-42.5H10v-2.5a2.5 2.5 0 012.5-2.5H30v5zm2.5-10H25v-6.95l7.5 1.5v5.45zm12.5 12.5v40H35v-47.5h10v7.5zm2.5-17.95l7.5-1.5v6.95h-7.5v-5.45zM65 67.501a2.5 2.5 0 01-2.5 2.5H50v-37.5h15v35zm5-40H50v-5h17.5a2.5 2.5 0 012.5 2.5v2.5z" fill="#3CD52E"/></svg>