<svg width="208" height="208" fill="none" xmlns="http://www.w3.org/2000/svg"><path d="M19.5 65v91c0 25.514 37.115 45.5 84.5 45.5s84.5-19.986 84.5-45.5V65h-169z" fill="#373737"/><path d="M104 110.5c43.078 0 78-20.371 78-45.5s-34.922-45.5-78-45.5S26 39.871 26 65s34.922 45.5 78 45.5z" fill="#E9F4F3"/><path d="M104 117c-47.385 0-84.5-22.842-84.5-52S56.615 13 104 13s84.5 22.842 84.5 52-37.115 52-84.5 52zm0-91c-38.757 0-71.5 17.86-71.5 39s32.743 39 71.5 39 71.5-17.86 71.5-39-32.743-39-71.5-39z" fill="#4D4D4D"/><path d="M104 42.25c10.77 0 19.5-8.73 19.5-19.5s-8.73-19.5-19.5-19.5-19.5 8.73-19.5 19.5 8.73 19.5 19.5 19.5z" fill="#FF7D14"/><path d="M104.004 21.121a6.5 6.5 0 100-13 6.5 6.5 0 000 13z" fill="#FF9119"/><path d="M133.254 48.75c10.769 0 19.5-8.73 19.5-19.5s-8.731-19.5-19.5-19.5c-10.77 0-19.5 8.73-19.5 19.5s8.73 19.5 19.5 19.5z" fill="#FF640A"/><path d="M74.746 48.75c10.77 0 19.5-8.73 19.5-19.5s-8.73-19.5-19.5-19.5-19.5 8.73-19.5 19.5 8.73 19.5 19.5 19.5z" fill="#FA5046"/><path d="M133.254 27.621a6.5 6.5 0 100-13 6.5 6.5 0 000 13z" fill="#FF7D14"/><path d="M74.746 27.621a6.5 6.5 0 100-13 6.5 6.5 0 000 13z" fill="#FF695F"/><path d="M87.746 71.5c10.77 0 19.5-8.73 19.5-19.5s-8.73-19.5-19.5-19.5-19.5 8.73-19.5 19.5 8.73 19.5 19.5 19.5z" fill="#FF640A"/><path d="M120.254 71.5c10.769 0 19.5-8.73 19.5-19.5s-8.731-19.5-19.5-19.5c-10.77 0-19.5 8.73-19.5 19.5s8.73 19.5 19.5 19.5z" fill="#FA5046"/><path d="M120.25 48.627a6.5 6.5 0 100-13 6.5 6.5 0 000 13z" fill="#FF695F"/><path d="M87.746 49.436a6.5 6.5 0 100-13 6.5 6.5 0 000 13zm66.629 25.314c10.77 0 19.5-8.73 19.5-19.5s-8.73-19.5-19.5-19.5-19.5 8.73-19.5 19.5 8.73 19.5 19.5 19.5zm-100.75 0c10.77 0 19.5-8.73 19.5-19.5s-8.73-19.5-19.5-19.5-19.5 8.73-19.5 19.5 8.73 19.5 19.5 19.5z" fill="#FF7D14"/><path d="M154.375 51.877a6.5 6.5 0 100-13 6.5 6.5 0 000 13zM53.621 52a6.5 6.5 0 100-13 6.5 6.5 0 000 13z" fill="#FF9119"/><path d="M136.496 89.375c10.77 0 19.5-8.73 19.5-19.5s-8.73-19.5-19.5-19.5c-10.769 0-19.5 8.73-19.5 19.5s8.731 19.5 19.5 19.5z" fill="#FF640A"/><path d="M71.504 89.375c10.77 0 19.5-8.73 19.5-19.5s-8.73-19.5-19.5-19.5-19.5 8.73-19.5 19.5 8.73 19.5 19.5 19.5z" fill="#FA5046"/><path d="M136.496 68.246a6.5 6.5 0 100-13 6.5 6.5 0 000 13z" fill="#FF7D14"/><path d="M71.504 68.246a6.5 6.5 0 100-13 6.5 6.5 0 000 13z" fill="#FF695F"/><path d="M104 94.25c10.77 0 19.5-8.73 19.5-19.5s-8.73-19.5-19.5-19.5-19.5 8.73-19.5 19.5 8.73 19.5 19.5 19.5z" fill="#FF7D14"/><path d="M104 73.121a6.5 6.5 0 100-13 6.5 6.5 0 000 13z" fill="#FF9119"/></svg>