<svg width="79" height="79" fill="none" xmlns="http://www.w3.org/2000/svg"><path d="M33.768 55.235a1.192 1.192 0 00-1.486.797l-1.268 4.196a4.336 4.336 0 01-4.208 3.076l2.473-8.18a1.192 1.192 0 00-2.282-.69l-2.473 8.18a4.336 4.336 0 01-1.8-4.891l1.27-4.197a1.192 1.192 0 00-2.283-.69l-1.269 4.197c-.953 3.154.537 6.473 3.374 7.92l-3.407 11.27a1.192 1.192 0 102.283.69l3.406-11.268c.257.03.513.045.768.045 2.882 0 5.554-1.873 6.43-4.772l1.269-4.197a1.192 1.192 0 00-.797-1.486z" fill="#2796AF"/><path d="M70.82 49.63c-7.108 6.277-17.08 8.23-24.192 8.763a63.85 63.85 0 01-4.739.175c-6.585 0-12.956-1.006-17.377-2.81-9.734-3.976-16.687-10.291-20.67-18.77C.399 29.656 0 22.465 0 17.693c0-2.241.896-4.278 2.353-5.762a8.204 8.204 0 015.889-2.48c2.11 0 4.032.793 5.49 2.095a8.224 8.224 0 012.751 6.147c0 2.074.104 4.204.45 6.31.137.841.313 1.679.537 2.509 1.058 3.915 3.172 7.642 7.268 10.676.623.462 1.292.908 2.01 1.336 1.193.709 2.52 1.37 3.997 1.972 1.359.557 3.312.997 5.593 1.27.765.094 1.566.167 2.396.22 4.431.281 9.626-.029 14.045-1.227a26.61 26.61 0 002.32-.744 18.866 18.866 0 002.716-1.259 12.733 12.733 0 002.095-1.48 8.24 8.24 0 0113.554 4.643 8.237 8.237 0 01-2.644 7.71z" fill="#FB4239"/><path d="M70.82 49.63c-7.108 6.276-17.079 8.23-24.193 8.761a64.08 64.08 0 01-4.739.175c-6.585 0-12.955-1.005-17.376-2.81-9.733-3.976-16.687-10.29-20.67-18.77C.4 29.656 0 22.464 0 17.693a8.21 8.21 0 012.352-5.763 8.258 8.258 0 012.61-1.8 8.007 8.007 0 00-.779.697 7.886 7.886 0 00-2.26 5.537c0 4.585.383 11.495 3.691 18.54 3.828 8.148 10.51 14.215 19.862 18.036 4.248 1.734 10.37 2.7 16.696 2.7 1.515 0 3.04-.056 4.554-.169 6.836-.51 16.416-2.388 23.245-8.42a7.91 7.91 0 002.437-7.876A8.233 8.233 0 0170.82 49.63z" fill="#E21717"/><path d="M73.464 41.92a7.86 7.86 0 01-.427.063 9.83 9.83 0 01-1.136.067c-4.434 0-7.025-3.186-7.857-5.07l-.051-.114-.038-.118a22.858 22.858 0 01-.383-1.339 8.238 8.238 0 019.892 6.511zM13.732 11.546a9.812 9.812 0 01-.643.536c-1.581 1.2-3.333 1.81-5.21 1.81-2.813 0-4.855-1.413-5.077-1.574l-.101-.073-.094-.082c-.016-.015-.107-.096-.255-.233A8.21 8.21 0 018.24 9.451c2.11 0 4.033.793 5.49 2.095z" fill="#E21717"/><path d="M4.438 6.227S4.36 1.475 7.39 1.247c3.03-.228 2.803 4.224 2.803 4.224S8.4 8.518 4.438 6.227z" fill="#FB4239"/><path d="M14.07 7.11c-.609 1.135-1.478 2.245-2.476 3.003-3.71 2.819-7.348.2-7.348.2S2.583 8.84 1.406 7.227C.193 5.56-.504 3.742 1.687 3.235c2.662-.618 2.256 4.939 8.903.653 4.86-3.132 5.133.136 3.48 3.223z" fill="#FF6C56"/><path d="M68.535 32.554s2.338-4.138 5.067-2.802c2.728 1.337.28 5.062.28 5.062s-3.088 1.72-5.347-2.26z" fill="#FB4239"/><path d="M76.398 38.189c-1.098.67-2.41 1.189-3.654 1.337-4.627.553-6.44-3.547-6.44-3.547s-.69-2.11-.887-4.098c-.203-2.052.117-3.972 2.263-3.302 2.608.816-.554 5.402 7.348 5.07 5.777-.243 4.359 2.715 1.37 4.54z" fill="#FF6C56"/><path d="M17.471 26.512c-1.173 1.024-4.134 3.133-8.6 3.133-.17 0-.341-.003-.516-.01a1.193 1.193 0 01.086-2.382c4.992.181 7.8-2.85 7.827-2.88.183-.2.418-.326.666-.37.136.842.313 1.68.537 2.51zm9.278 12.013c-.34.92-1.479 3.603-3.532 4.63a1.196 1.196 0 01-1.6-.532 1.194 1.194 0 01.533-1.601c1.24-.62 2.195-2.804 2.43-3.521.039-.114.091-.218.158-.311.623.46 1.292.907 2.01 1.335zm28.235 12.57a1.192 1.192 0 01-2.122-1.09c2.826-5.499.172-8.79.145-8.821a1.2 1.2 0 01-.227-.424 26.61 26.61 0 002.32-.744c.79 1.187 2.893 5.223-.116 11.079zM36.67 47.868a1.188 1.188 0 01-1.68.143 1.19 1.19 0 01-.141-1.68c1.785-2.116 1.511-4.168 1.499-4.255a1.124 1.124 0 01-.01-.308c.765.093 1.566.166 2.395.219.064.844.045 3.384-2.063 5.881zm25.664-5.278a1.19 1.19 0 01-1.142 1.239l-.05.001a1.192 1.192 0 01-1.19-1.142c-.085-2.081-1.882-3.642-1.9-3.658a1.195 1.195 0 01-.237-.273c.723-.414 1.382-.87 1.969-1.372.613.582 2.44 2.53 2.55 5.204z" fill="#E21717"/></svg>