<svg width="79" height="79" fill="none" xmlns="http://www.w3.org/2000/svg"><g clip-path="url(#clip0_1047:2050)"><path d="M11.922 58.018c-.634.123-3.451.73-3.95.887-3.067.96-8.306 4.057-7.955 5.34.362 1.325 6.32.61 6.955 1.792.647 1.202-5.34 8.018-4.45 9.035.894 1.024 8.324-3.883 9.422-3.083 1.093.796-.348 6.435.908 6.976 1.235.53 5.339-5.096 6.41-7.11.628-1.183 1.468-3.381 1.72-4.618l-9.06-9.22z" fill="#C62430"/><path d="M77.92 37.733L51.864 63.709c-10.151 10.121-26.61 10.121-36.761 0-10.152-10.121-10.152-26.531 0-36.652L41.157 1.08 77.92 37.733z" fill="#E5646E"/><path d="M41.156 1.08l28.019 36.653L43.12 63.709a25.903 25.903 0 01-14.01 7.224c8.023 1.357 16.56-1.051 22.753-7.224l26.053-25.976L41.156 1.08z" fill="#DA2F3C"/><path d="M66.343 12.618C76.53 22.774 81.6 34.183 77.668 38.101c-3.93 3.92-15.373-1.136-25.559-11.29C41.924 16.654 36.853 5.245 40.784 1.326c3.93-3.919 15.374 1.136 25.56 11.291z" fill="#FFC6BD"/><path d="M53.018 3.215c1.085 1.078 1.425 2.486.76 3.144-.666.659-2.084.319-3.169-.758-1.084-1.078-1.424-2.485-.76-3.144.666-.659 2.084-.319 3.169.758zm9.855 23.365c1.085 1.078 1.425 2.486.76 3.145-.665.658-2.084.318-3.168-.76-1.085-1.076-1.425-2.484-.76-3.143.666-.658 2.084-.319 3.168.759zm7.34-5.236c-1.115 1.104-.545 3.463 1.273 5.27 1.818 1.806 4.195 2.375 5.31 1.271 0 0 .205-.125.437-.335-.894-1.981-2.109-4.103-3.609-6.28a16.76 16.76 0 00-.537-.238c-1.12-.474-2.224-.331-2.874.312zM55.32 14.209c1.773 1.763 2.33 4.065 1.242 5.143-1.088 1.077-3.408.522-5.183-1.241-1.774-1.763-2.33-4.066-1.242-5.143 1.088-1.078 3.408-.522 5.183 1.24z" fill="#FFF7D7"/><path d="M32.246 65.709c-1.522 0-2.516-.134-2.644-.153a1.191 1.191 0 01.335-2.36c.118.016 9.548 1.25 15.86-4.769a1.192 1.192 0 111.645 1.726c-5.04 4.806-11.596 5.556-15.196 5.556z" fill="#C62430"/></g><defs><clipPath id="clip0_1047:2050"><path fill="#fff" d="M0 0h79v79H0z"/></clipPath></defs></svg>