<svg width="156" height="148" fill="none" xmlns="http://www.w3.org/2000/svg"><path d="M48.937 82.947c3.303 4.405 7.098 8.3 12 11.057 5.552 3.123 11.528 4.065 17.832 3.778 2.945-.139 3.83-.895 3.967-3.784.091-1.979.323-3.952 1.313-5.73.973-1.745 2.449-2.075 4.151-.99.848.548 1.562 1.234 2.238 1.969 1.659 1.782 3.265 3.629 4.984 5.353 2.16 2.166 4.724 3.442 7.939 3.182l12.459.005c2.005-.133 3.048-2.553 1.897-4.763-.811-1.542-1.875-2.915-2.999-4.246-2.546-3.011-5.546-5.577-8.383-8.3-2.557-2.458-2.719-3.884-.665-6.72 2.248-3.097 4.658-6.072 6.923-9.152 2.113-2.878 4.282-5.752 5.388-9.195.709-2.197.082-3.165-2.198-3.553-.395-.064-.805-.064-1.205-.064l-13.557-.017c-1.67-.026-2.589.692-3.178 2.15-.8 1.969-1.621 3.938-2.574 5.832-2.15 4.31-4.557 8.476-7.93 11.998-.745.776-1.572 1.761-2.815 1.357-1.55-.559-2.01-3.08-1.984-3.931l-.011-15.405c-.301-2.196-.8-3.18-3.02-3.608H65.428c-1.875 0-2.821.72-3.827 1.873-.573.672-.752 1.102.438 1.326 2.334.435 3.66 1.925 4.005 4.23.557 3.688.519 7.39.195 11.088-.092 1.08-.28 2.156-.715 3.166-.68 1.59-1.783 1.91-3.226.932-1.302-.884-2.22-2.128-3.124-3.379-3.378-4.699-6.07-9.763-8.27-15.085-.632-1.538-1.729-2.469-3.383-2.496a349.725 349.725 0 00-12.205.005c-2.443.043-3.173 1.214-2.173 3.4 4.427 9.7 9.357 19.129 15.794 27.717z" fill="#295C24"/><path d="M106.999 12.254a30.873 30.873 0 0121.705 9 30.684 30.684 0 019.028 21.64v61.272a30.685 30.685 0 01-9.028 21.639 30.873 30.873 0 01-21.705 9h-61.46a30.874 30.874 0 01-21.704-9 30.685 30.685 0 01-9.028-21.639V42.893a30.684 30.684 0 019.028-21.638 30.873 30.873 0 0121.705-9.001h61.459zm0-12.254h-61.46C21.877 0 2.517 19.302 2.517 42.893v61.273c0 23.592 19.36 42.893 43.024 42.893H107c23.664 0 43.025-19.301 43.025-42.893V42.893C150.024 19.302 130.663 0 106.999 0z" fill="#295C24"/></svg>