<svg width="158" height="148" fill="none" xmlns="http://www.w3.org/2000/svg"><path d="M49.885 99.293c9.64 1.044 19.396 1.051 29.111 1.044 9.718.007 19.476 0 29.112-1.044a9.73 9.73 0 008.406-7.428c1.355-5.722 1.359-11.973 1.359-17.867 0-5.892.013-12.14-1.344-17.862a9.723 9.723 0 00-8.406-7.428c-9.64-1.047-19.397-1.051-29.11-1.047-9.716-.004-19.477 0-29.118 1.047a9.714 9.714 0 00-8.397 7.428c-1.355 5.722-1.371 11.97-1.371 17.863 0 5.894 0 12.144 1.356 17.866a9.718 9.718 0 008.402 7.428zM68.968 60.74l24.715 12.533c-8.268 4.167-16.454 8.295-24.715 12.46V60.739z" fill="#295C24"/><path d="M109.159 12.254a30.732 30.732 0 0130.633 30.64v61.272a30.732 30.732 0 01-8.999 21.639 30.722 30.722 0 01-21.634 9h-61.26a30.723 30.723 0 01-30.632-30.639V42.893a30.735 30.735 0 018.999-21.638A30.722 30.722 0 0147.9 12.254h61.259zm0-12.254h-61.26C24.314 0 5.017 19.302 5.017 42.893v61.273c0 23.592 19.297 42.893 42.884 42.893h61.259c23.587 0 42.884-19.301 42.884-42.893V42.893C152.043 19.302 132.746 0 109.159 0z" fill="#295C24"/></svg>