<svg width="147" height="148" fill="none" xmlns="http://www.w3.org/2000/svg"><path d="M103.942 12.749a30.446 30.446 0 0121.501 8.997 30.817 30.817 0 018.944 21.63v61.248a30.82 30.82 0 01-8.944 21.63 30.446 30.446 0 01-21.501 8.997H43.058a30.446 30.446 0 01-21.5-8.997 30.814 30.814 0 01-8.944-21.63V43.376a30.812 30.812 0 018.943-21.63 30.445 30.445 0 0121.501-8.997h60.884zm0-12.249H43.058C19.616.5.438 19.794.438 43.376v61.248c0 23.582 19.178 42.876 42.62 42.876h60.884c23.442 0 42.62-19.294 42.62-42.876V43.376C146.562 19.794 127.384.5 103.942.5z" fill="#295C24"/><path d="M113.074 43.373a9.09 9.09 0 01-5.073-1.548 9.175 9.175 0 01-3.364-4.123 9.244 9.244 0 01-.52-5.309 9.205 9.205 0 012.5-4.704 9.113 9.113 0 014.676-2.514 9.08 9.08 0 015.276.522 9.142 9.142 0 014.099 3.384 9.223 9.223 0 011.539 5.104 9.208 9.208 0 01-2.669 6.503 9.108 9.108 0 01-2.966 1.991 9.065 9.065 0 01-3.498.694zM73.5 49.496c4.817 0 9.526 1.437 13.531 4.129a24.47 24.47 0 018.97 10.996 24.638 24.638 0 011.386 14.156 24.547 24.547 0 01-6.665 12.545 24.311 24.311 0 01-12.47 6.705c-4.725.946-9.622.46-14.072-1.394a24.387 24.387 0 01-10.93-9.024 24.605 24.605 0 01-4.105-13.612 24.602 24.602 0 017.14-17.317A24.308 24.308 0 0173.5 49.496zm0-12.249a36.377 36.377 0 00-20.296 6.193A36.705 36.705 0 0039.75 59.933a36.955 36.955 0 00-2.078 21.233 36.819 36.819 0 009.998 18.817 36.463 36.463 0 0018.704 10.058 36.333 36.333 0 0021.107-2.091 36.584 36.584 0 0016.395-13.536 36.907 36.907 0 006.156-20.417 36.863 36.863 0 00-10.7-25.986A36.421 36.421 0 0073.5 37.247z" fill="#295C24"/></svg>