<svg width="792" height="849" viewBox="0 0 792 849" fill="none" xmlns="http://www.w3.org/2000/svg">
<g clip-path="url(#clip0_971_276)">
<path d="M792.019 279.849H574.597C574.597 279.849 596.157 220.914 629.33 220.914C662.504 220.914 672.896 261.666 672.896 261.666C672.896 261.666 695.29 239.582 713.612 239.582C731.934 239.582 747.988 268.691 747.988 268.691C747.988 268.691 774.085 252.992 792.019 279.849Z" fill="#EBEBEB"/>
<path d="M670.318 76.2436H568.722C568.722 76.2436 591.426 43.2539 609.302 43.2539C627.179 43.2539 632.549 65.2794 632.549 65.2794C632.549 65.2794 645.171 55.0332 656.882 56.8573C668.592 58.6814 670.318 76.2436 670.318 76.2436Z" fill="#EBEBEB"/>
<path d="M201.718 496.939H100.103C100.103 496.939 122.806 463.949 140.702 463.949C158.598 463.949 163.968 485.897 163.968 485.897C163.968 485.897 176.59 475.651 188.281 477.475C199.973 479.299 201.718 496.939 201.718 496.939Z" fill="#EBEBEB"/>
<path d="M197.918 262.305H0C0 262.305 27.1439 201.739 56.1103 197.955C85.0767 194.171 98.9588 242.957 98.9588 242.957C98.9588 242.957 117.669 225.706 132.365 225.706C147.062 225.706 158.423 248.41 158.423 248.41C158.423 248.41 187.836 232.866 197.918 262.305Z" fill="#EBEBEB"/>
<path d="M337.03 112.473H203.25C203.25 112.473 226.225 68.5966 251.139 67.9562C276.053 67.3158 289.14 101.179 289.14 101.179C289.14 101.179 327.976 70.0521 337.03 112.473Z" fill="#EBEBEB"/>
<path d="M655.292 532.026H521.511C521.511 532.026 544.564 488.092 569.478 487.509C594.393 486.927 607.48 520.713 607.48 520.713C607.48 520.713 646.237 489.586 655.292 532.026Z" fill="#EBEBEB"/>
<path d="M396.009 849.019C534.314 849.019 646.431 836.986 646.431 822.143C646.431 807.299 534.314 795.266 396.009 795.266C257.705 795.266 145.588 807.299 145.588 822.143C145.588 836.986 257.705 849.019 396.009 849.019Z" fill="#EBEBEB"/>
<path d="M254.668 649.995C244.973 650.344 234.135 650.888 226.089 644.581C218.663 638.759 212.052 630.104 213.021 620.149C213.312 617.316 213.952 615.55 216.899 616.772C221.533 618.616 225.1 623.72 228.299 627.31C232.38 631.986 236.892 636.268 241.774 640.098C245.225 642.757 248.948 645.046 252.477 647.608C252.923 647.919 253.369 648.248 253.795 648.598L254.299 648.966H254.571C254.65 648.969 254.728 648.989 254.799 649.026C254.869 649.063 254.931 649.116 254.978 649.18C254.986 649.238 254.986 649.297 254.978 649.355C255.021 649.481 255.013 649.619 254.955 649.739C254.897 649.859 254.793 649.951 254.668 649.995Z" fill="#2F412D"/>
<path d="M260.019 655.914L259.786 657.04C259.778 657.085 259.757 657.127 259.726 657.161C259.695 657.195 259.656 657.221 259.612 657.234C259.518 657.269 259.416 657.268 259.323 657.233C259.23 657.197 259.153 657.128 259.108 657.04C259.089 657.004 259.079 656.964 259.079 656.923C259.079 656.883 259.089 656.843 259.108 656.807C259.101 656.755 259.101 656.703 259.108 656.652L259.224 656.322C259.224 656.322 259.224 656.322 259.224 656.205C257.498 649.782 256.839 643.087 255.017 636.664C253.194 630.241 251.139 624.496 249.898 618.228C249.103 614.347 246.369 594.456 255.094 596.882C258.972 597.988 261.609 603.596 263.082 606.934C264.988 611.454 266.078 616.277 266.301 621.178C266.882 633.326 262.462 644.329 260.019 655.914Z" fill="#2F412D"/>
<path d="M262.811 631.229C262.979 626.703 262.509 622.176 261.415 617.781C261.027 616.268 259.127 608.971 256.665 609.146C255.056 609.262 254.726 612.406 254.726 613.454C254.183 617.859 255.599 622.361 256.471 626.65C258.175 635.39 259.244 644.243 259.67 653.138C259.67 653.682 259.496 654.264 259.437 654.827C259.379 655.39 259.321 655.758 259.263 656.224V656.709C259.252 656.832 259.252 656.955 259.263 657.078C259.309 657.166 259.385 657.235 259.478 657.271C259.571 657.306 259.674 657.307 259.767 657.272C259.767 656.923 259.864 656.554 259.922 656.185C259.922 656.496 259.922 656.787 259.922 657.078L260.097 656.146V655.933C260.097 655.448 260.097 654.943 260.097 654.458C261.464 646.776 262.371 639.02 262.811 631.229ZM259.864 651.256C259.618 646.081 259.121 640.906 258.371 635.731C257.789 631.579 256.995 627.465 256.122 623.37C255.561 621.07 255.191 618.726 255.017 616.365C255.017 614.54 255.191 607.865 258.643 611.998C261.124 615.026 261.725 621.41 262.036 625.117C262.33 629.217 262.245 633.335 261.784 637.42C261.318 642.038 260.562 646.637 259.864 651.256Z" fill="white"/>
<path d="M265.235 682.576C265.119 682.599 265.001 682.599 264.886 682.576C256.006 682.129 244.179 682.964 236.792 677.084C231.343 672.757 225.992 664.179 227.698 656.883C229.637 648.694 240.747 658.532 243.674 660.9C251.315 667.573 258.577 674.667 265.428 682.149C265.428 682.149 265.428 682.246 265.545 682.304C265.622 682.459 265.448 682.537 265.235 682.576Z" fill="#2F412D"/>
<path d="M281.462 664.276C279.144 674.456 273.845 683.712 266.243 690.862C266.203 690.91 266.148 690.944 266.087 690.959C266.004 690.991 265.912 690.993 265.827 690.964C265.742 690.936 265.67 690.879 265.622 690.804C265.561 690.73 265.527 690.638 265.527 690.542C265.527 690.446 265.561 690.353 265.622 690.28L266.107 689.911C267.561 677.841 269.19 665.829 270.43 653.719C270.721 650.867 272.951 632.684 278.535 635.653C281.967 637.477 282.199 644.929 282.509 648.266C282.969 653.625 282.616 659.023 281.462 664.276Z" fill="#2F412D"/>
<path d="M278.244 648.092C277.934 647.083 277.41 646.035 276.305 646.753C274.134 648.092 273.281 656.65 272.912 658.998C271.419 668.701 269.035 678.112 266.766 687.66L266.184 690.086L265.642 690.804C265.686 690.878 265.755 690.934 265.836 690.962C265.918 690.991 266.007 690.989 266.088 690.959C266.099 690.882 266.099 690.803 266.088 690.726C266.34 690.416 266.592 690.086 266.824 689.756C270.624 684.536 273.588 678.755 275.607 672.621C276.881 668.737 277.745 664.73 278.186 660.667C278.671 656.921 279.369 651.74 278.244 648.092ZM266.844 689.077C266.844 689.251 266.611 689.406 266.514 689.562C266.514 689.232 266.727 688.921 266.805 688.591C269.105 681.326 270.925 673.916 272.253 666.411C272.893 662.53 273.3 658.765 274.076 654.981C274.405 653.389 275.2 648.829 276.519 648.092C277.837 647.354 277.818 649.12 277.953 650.149C278.089 651.177 277.953 652.225 277.953 652.924C278.163 665.847 274.274 678.505 266.844 689.077Z" fill="white"/>
<path d="M267.716 716.923H265.933C265.933 715.351 265.933 713.779 265.933 712.227C265.719 705.92 265.467 699.613 265.099 693.306C264.886 689.697 264.633 686.126 264.246 682.594C264.236 682.471 264.236 682.348 264.246 682.225C264.246 681.954 264.246 681.663 264.129 681.352C264.013 681.042 264.129 680.731 264.013 680.421C263.208 672.42 261.153 664.595 257.925 657.231C256.781 654.766 255.56 652.379 254.261 649.993L253.892 649.313L253.776 649.139C253.66 648.906 253.524 648.673 253.388 648.44C253.252 648.207 253.194 648.091 253.078 647.897C248.987 640.678 244.276 633.769 239.836 626.803C238.556 624.862 237.276 622.805 235.958 620.806C235.875 620.69 235.804 620.567 235.745 620.438C235.637 620.303 235.539 620.16 235.454 620.011C229.851 611.162 224.344 602.254 218.528 593.58C218.314 593.27 218.838 592.979 219.051 593.289C222.929 599.111 227.039 604.7 231.072 610.405L232.681 612.675C233.748 614.189 234.814 615.664 235.861 617.177C237.955 620.185 240.049 623.213 242.065 626.259C248.026 634.743 253.465 643.583 258.352 652.729C258.701 653.408 259.03 654.107 259.36 654.825C259.573 655.252 259.786 655.698 259.961 656.125C260.135 656.552 260.426 657.134 260.659 657.658C264.279 666.561 266.3 676.034 266.63 685.641C266.63 686.301 266.63 686.98 266.747 687.581C266.747 687.872 266.747 688.183 266.747 688.513C266.737 688.674 266.737 688.836 266.747 688.998C266.747 689.212 266.747 689.425 266.747 689.658V690.124C266.747 690.706 266.747 691.269 266.747 691.87C266.999 698.177 267.173 704.484 267.309 710.771C267.561 712.886 267.639 714.905 267.716 716.923Z" fill="#2F412D"/>
<path d="M214.727 602.586C209.88 596.046 203.637 582.559 210.85 575.534C212.153 574.183 213.908 573.361 215.779 573.225C217.65 573.089 219.505 573.649 220.99 574.797C224.868 577.533 226.477 582.714 227.698 586.983C230.994 598.433 233.166 610.096 237.257 621.312C237.429 621.704 237.578 622.106 237.703 622.515C237.703 622.748 237.412 622.845 237.334 622.612L236.927 621.526C229.152 615.898 220.486 610.348 214.727 602.586Z" fill="#2F412D"/>
<path d="M538.185 620.884C537.39 627.366 536.149 633.77 534.831 640.173C534.094 643.802 533.319 647.412 532.582 651.06C531.768 655.058 530.643 659.133 531.671 663.169C531.689 663.356 531.689 663.545 531.671 663.732C531.617 663.799 531.546 663.851 531.466 663.882C531.386 663.913 531.299 663.922 531.214 663.908C531.129 663.894 531.05 663.858 530.983 663.803C530.917 663.748 530.867 663.677 530.837 663.596C530.831 663.506 530.831 663.415 530.837 663.324C530.232 662.269 529.763 661.141 529.441 659.967C525.624 650.626 523.466 640.69 523.062 630.606C522.91 624.538 523.562 618.476 525.001 612.578C526.164 607.882 527.793 600.935 531.302 597.248C534.482 593.988 537.119 599.189 538.049 601.847C539.93 607.824 538.941 614.733 538.185 620.884Z" fill="#2F412D"/>
<path d="M575.392 638.777C571.049 647.257 563.758 653.739 556.197 659.289C552.145 662.258 547.976 665.11 543.866 667.924C540.05 670.293 536.483 673.043 533.222 676.133C533.076 676.272 532.94 676.421 532.814 676.579C531.965 677.508 531.224 678.53 530.604 679.626C530.58 679.661 530.548 679.689 530.511 679.709C530.474 679.729 530.433 679.741 530.391 679.742C530.354 679.875 530.309 680.004 530.255 680.13H530.081V679.703C530.043 679.661 530.021 679.606 530.021 679.548C530.021 679.491 530.043 679.436 530.081 679.393C530.071 679.348 530.071 679.302 530.081 679.257C530.071 679.115 530.071 678.972 530.081 678.83C531.302 668.933 538.224 658.939 544.079 651.313C549.935 643.687 557.128 636.953 566.163 633.479C568.431 632.606 573.588 630.2 575.857 632.043C578.125 633.887 576.322 636.992 575.392 638.777Z" fill="#2F412D"/>
<path d="M529.228 699.789C529.178 699.861 529.111 699.92 529.033 699.961C528.956 700.001 528.87 700.022 528.782 700.022L528.898 700.178C528.926 700.206 528.941 700.245 528.941 700.284C528.941 700.324 528.926 700.362 528.898 700.391C528.888 700.407 528.873 700.42 528.856 700.429C528.839 700.438 528.82 700.443 528.801 700.443C528.782 700.443 528.763 700.438 528.746 700.429C528.729 700.42 528.715 700.407 528.704 700.391C520.678 692.241 512.961 682.305 508.967 671.496C507.241 666.936 506.272 662.125 506.097 657.252C506 653.934 505.826 647.219 508.676 644.794C514.493 639.923 519.631 660.609 520.406 663.734C521.821 669.419 522.771 675.222 524.07 680.927C525.505 687.176 527.405 693.327 529.267 699.46C529.285 699.514 529.291 699.572 529.284 699.629C529.278 699.686 529.258 699.741 529.228 699.789Z" fill="#2F412D"/>
<path d="M554.995 679.938C554.042 683.919 552.25 687.65 549.741 690.883C544.972 697.461 538.903 702.914 533.707 709.144C532.931 710.075 532.156 711.084 531.438 711.977C531.438 712.093 530.76 713.471 530.76 713.355C530.76 713.238 530.76 712.811 531.031 711.919C531.865 707.552 534.599 694.453 538.011 687.681C540.05 683.42 542.603 679.425 545.611 675.785C547.085 674.116 550.536 670.507 553.134 671.302C555.732 672.098 555.344 677.842 554.995 679.938Z" fill="#2F412D"/>
<path d="M582.876 587.819C574.616 606.836 552.901 615.705 543.498 634.043V634.14C543.207 634.683 542.935 635.266 542.664 635.828C542.64 635.886 542.601 635.937 542.551 635.976C542.502 636.015 542.443 636.041 542.381 636.051C542.319 636.06 542.255 636.054 542.196 636.032C542.137 636.01 542.084 635.973 542.044 635.925C542.009 635.881 541.99 635.826 541.99 635.77C541.99 635.714 542.009 635.659 542.044 635.615C542.1 635.475 542.165 635.339 542.238 635.207C544.104 623.503 548.044 612.226 553.871 601.907C558.621 593.136 565.135 584.947 574.151 580.328C576.381 579.183 580.704 576.777 583.186 578.659C585.668 580.541 583.903 585.471 582.876 587.819Z" fill="#2F412D"/>
<path d="M553.987 610.116C551.506 615.472 549.14 620.925 546.794 626.359C545.67 628.92 544.584 631.482 543.498 634.121V634.257C543.11 635.188 542.703 636.197 542.296 637.032C538.729 645.376 534.773 653.915 532.602 662.764C531.513 667.454 530.864 672.236 530.663 677.046C530.663 677.551 530.663 678.056 530.663 678.541C530.663 678.812 530.663 679.084 530.663 679.356C530.653 679.504 530.653 679.653 530.663 679.802C530.508 683.974 530.566 688.166 530.663 692.241C530.779 697.908 531.245 703.535 531.788 709.163C531.77 709.331 531.77 709.5 531.788 709.667C531.788 709.92 531.788 710.172 531.788 710.424C531.788 710.677 531.788 710.677 531.788 710.812V711.55C531.981 713.354 532.137 715.159 532.292 716.983H530.566C529.449 711.462 528.749 705.863 528.472 700.236C528.463 700.12 528.463 700.003 528.472 699.887C528.472 699.344 528.472 698.781 528.375 698.237C528.278 697.694 528.375 696.898 528.375 696.297C528.375 694.667 528.259 693.056 528.24 691.465C527.778 682.074 528.429 672.661 530.178 663.424L530.353 662.667C530.353 662.57 530.353 662.453 530.353 662.356C530.387 662.173 530.432 661.991 530.489 661.813L530.702 660.959C530.838 660.435 530.993 659.931 531.148 659.426C531.184 659.275 531.229 659.126 531.283 658.98C533.927 651.071 537.114 643.355 540.823 635.887C541.462 634.509 542.102 633.17 542.761 631.812L543.847 629.541L545.534 626.145C545.534 626.145 545.534 626.145 545.534 626.029C548.19 620.692 550.943 615.395 553.561 610.039C553.697 609.67 554.123 609.864 553.987 610.116Z" fill="#2F412D"/>
<path d="M224.635 716.399H103.244C103.244 716.399 103.515 698.313 115.458 693.5C118.696 692.088 122.305 691.77 125.74 692.592C129.175 693.415 132.249 695.334 134.498 698.06C134.498 698.06 139.364 664.799 161.642 664.799C183.919 664.799 194.602 693.5 194.602 693.5C194.602 693.5 199.585 684.826 211.935 686.436C224.286 688.047 224.635 716.399 224.635 716.399Z" fill="#2F412D"/>
<path d="M779.087 716.399C779.087 716.399 775.365 698.934 767.939 696.334C760.513 693.733 755.976 701.457 755.976 701.457C755.976 701.457 754.212 684.846 743.665 679.858C733.117 674.871 725.207 685.078 725.207 685.078C725.207 685.078 717.122 663.984 702.677 663.984C688.233 663.984 681.02 694.839 681.02 694.839C681.02 694.839 672.489 685.641 663.745 690.842C655.001 696.043 655.001 716.399 655.001 716.399H779.087Z" fill="#2F412D"/>
<path d="M124.939 716.399H12.9321C12.9321 716.399 16.6159 700.602 24.0417 699.477C31.4675 698.351 34.9187 705.687 34.9187 705.687C34.9187 705.687 34.5891 683.642 48.4906 679.877C62.3922 676.112 74.0058 695.615 74.0058 695.615C74.0058 695.615 82.6919 684.496 94.5576 685.214C106.423 685.932 109.409 704.27 109.409 704.27C109.409 704.27 120.17 697.905 124.939 716.399Z" fill="#25921C"/>
<path d="M662.931 716.401H594.121C594.121 716.401 594.276 706.155 601.043 703.438C602.875 702.632 604.92 702.448 606.866 702.914C608.813 703.38 610.553 704.47 611.823 706.019C611.823 706.019 614.576 687.176 627.198 687.176C639.82 687.176 645.83 703.438 645.83 703.438C646.901 701.884 648.401 700.676 650.147 699.963C651.893 699.249 653.809 699.061 655.66 699.421C662.659 700.352 662.931 716.401 662.931 716.401Z" fill="#25921C"/>
<path d="M274.134 220.953C274.134 239.544 274.134 328.286 357.504 342.744C357.504 342.744 358.861 352.117 361.518 366.768C364.697 384.544 369.777 410.082 376.505 436.066C376.494 436.123 376.494 436.183 376.505 436.24C378.832 445.186 381.352 454.171 384.066 462.904C384.056 462.968 384.056 463.034 384.066 463.098C384.338 463.932 384.59 464.747 384.842 465.562C390.151 482.218 394.489 499.168 397.832 516.328C423.464 649.063 368.847 716.925 368.847 716.925H483.646C483.646 716.925 512.089 592.728 451.713 468.085C440.603 445.012 485.061 426.246 504.585 383.302C521.046 346.935 520.561 168.073 512.573 156.546C504.585 145.019 491.828 147.891 491.828 163.765C491.828 179.639 491.828 328.151 480.64 356.987C469.453 385.824 421.738 420.444 421.738 420.444C421.738 420.444 397.212 380.274 383.465 292.366C377.028 250.993 372.957 199.083 374.934 135.801C375.348 122.411 376.053 108.517 377.048 94.1177C378.192 77.6034 361.052 84.8418 355.352 99.299C349.652 113.756 341.625 197.337 353.045 309.832C353.045 309.832 295.907 301.778 295.907 211.775C295.829 195.066 274.134 202.363 274.134 220.953Z" fill="#ED4B02"/>
<path opacity="0.5" d="M274.134 220.953C274.134 239.544 274.134 328.286 357.504 342.744C357.504 342.744 358.861 352.117 361.518 366.768C364.697 384.544 369.777 410.082 376.505 436.066C376.494 436.123 376.494 436.183 376.505 436.24C378.832 445.186 381.352 454.171 384.066 462.904C384.056 462.968 384.056 463.034 384.066 463.098C384.338 463.932 384.59 464.747 384.842 465.562C390.151 482.218 394.489 499.168 397.832 516.328C423.464 649.063 368.847 716.925 368.847 716.925H483.646C483.646 716.925 512.089 592.728 451.713 468.085C440.603 445.012 485.061 426.246 504.585 383.302C521.046 346.935 520.561 168.073 512.573 156.546C504.585 145.019 491.828 147.891 491.828 163.765C491.828 179.639 491.828 328.151 480.64 356.987C469.453 385.824 421.738 420.444 421.738 420.444C421.738 420.444 397.212 380.274 383.465 292.366C377.028 250.993 372.957 199.083 374.934 135.801C375.348 122.411 376.053 108.517 377.048 94.1177C378.192 77.6034 361.052 84.8418 355.352 99.299C349.652 113.756 341.625 197.337 353.045 309.832C353.045 309.832 295.907 301.778 295.907 211.775C295.829 195.066 274.134 202.363 274.134 220.953Z" fill="black"/>
<g opacity="0.1">
<path opacity="0.1" d="M426.838 466.863C433.43 489.335 442.445 511.224 448.979 533.774C455.684 556.43 460.624 579.573 463.753 602.994C466.672 625.51 467.425 648.254 466.002 670.914C464.994 686.439 461.446 701.633 458.751 716.925H469.201C481.61 681.335 479.943 641.243 473.544 605.323C469.063 581.754 462.921 558.532 455.164 535.831C447.409 512.544 440.119 488.675 430.308 465.97C429.474 464.088 426.237 464.806 426.838 466.863Z" fill="black"/>
<path opacity="0.1" d="M380.654 332.848C385.249 380.276 406.228 426.325 421.254 471.599C436.285 517.132 442.414 565.136 439.304 612.989C439.304 614.114 437.366 614.134 437.366 612.989C436.9 587.082 436.454 561.001 431.123 535.463C426.295 512.39 418.675 489.743 411.036 467.33C403.513 445.343 395.176 423.531 388.991 401.195C382.918 378.882 379.38 355.955 378.444 332.848C378.386 331.49 380.499 331.528 380.654 332.848Z" fill="black"/>
<path opacity="0.1" d="M380.868 716.926H392.501C395.719 710.445 398.608 703.866 401.342 697.521C409.476 678.672 415.491 658.977 419.276 638.799C426.741 599.231 425.093 559.992 416.058 520.773C415.786 519.648 414.022 520.152 414.119 521.22C420.924 560.167 418.908 601.21 409.931 639.711C405.524 658.699 399.445 677.259 391.764 695.172C388.5 702.603 384.864 709.863 380.868 716.926Z" fill="black"/>
<path opacity="0.1" d="M423.871 665.751C426.527 657.019 428.136 646.346 432.634 638.176C433.421 636.632 434.586 635.313 436.02 634.343C437.454 633.372 439.111 632.781 440.836 632.626C441.092 632.543 441.362 632.51 441.631 632.529C442.035 632.549 442.437 632.601 442.833 632.684C443.564 632.776 444.285 632.938 444.985 633.169C446.4 633.654 447.99 634.625 448.242 636.119C448.242 636.119 448.242 636.274 448.242 636.352C453.341 643.629 451.461 659.192 450.743 664.917C449.658 673.843 446.982 697.247 431.471 695.151C416.445 693.113 421.311 674.212 423.871 665.751Z" fill="black"/>
<path opacity="0.1" d="M361.557 366.768C364.736 384.543 369.816 410.081 376.544 436.065C376.533 436.123 376.533 436.182 376.544 436.24C377.397 439.209 378.289 442.062 379.161 445.108C380.945 451.047 382.613 456.965 384.105 462.903C384.095 462.968 384.095 463.033 384.105 463.098C384.377 463.932 384.629 464.747 384.881 465.562C390.19 482.218 394.528 499.168 397.871 516.327C400.508 494.05 396.262 471.927 389.709 449.727C381.507 421.647 372.182 394.11 361.557 366.768Z" fill="black"/>
<path opacity="0.1" d="M501.774 309.443C501.735 307.809 502.115 306.192 502.879 304.747C503.289 304.164 503.852 303.705 504.505 303.421C505.158 303.137 505.877 303.038 506.582 303.136C507.269 303.212 507.92 303.477 508.465 303.902C509.009 304.327 509.425 304.895 509.665 305.543C509.734 305.698 509.786 305.861 509.82 306.028C510.086 306.339 510.266 306.713 510.344 307.114C510.459 307.828 510.459 308.555 510.344 309.269C510.759 310.201 510.854 311.245 510.616 312.238C510.378 313.231 509.819 314.118 509.025 314.76C508.578 315.14 508.058 315.423 507.496 315.593C506.935 315.762 506.345 315.814 505.763 315.744C505.18 315.675 504.619 315.487 504.113 315.19C503.606 314.894 503.167 314.497 502.821 314.023C502.338 313.374 501.996 312.632 501.816 311.843C501.635 311.055 501.621 310.237 501.774 309.443Z" fill="black"/>
<path opacity="0.1" d="M436.726 425.568C463.87 396.654 495.589 362.752 495.492 322.718C495.492 321.709 497.043 321.787 497.179 322.718C503.306 366.73 472.129 399.39 439.014 427.684C437.54 428.984 435.446 427.005 436.726 425.568Z" fill="black"/>
<path opacity="0.1" d="M440.914 444.955C442.252 437.755 448.475 431.584 453.73 426.325C460.826 419.242 468.504 412.741 474.533 404.863C475.328 403.834 477.132 404.746 476.472 405.872C471.902 412.929 466.634 419.508 460.748 425.51C454.602 432.128 449.6 439.832 443.143 446.119C442.945 446.317 442.689 446.447 442.411 446.49C442.134 446.532 441.851 446.485 441.602 446.355C441.353 446.225 441.153 446.02 441.029 445.768C440.905 445.516 440.865 445.231 440.914 444.955Z" fill="black"/>
<path opacity="0.1" d="M507.804 182.161C507.804 181.365 509.044 181.424 509.141 182.161C514.338 217.324 515.191 254.874 508.017 289.902C507.804 291.027 505.865 290.736 505.865 289.63C505.865 253.865 507.765 217.984 507.804 182.161Z" fill="black"/>
<path opacity="0.1" d="M499.331 236.577C499.331 236.305 499.816 236.305 499.816 236.577C500.01 259.864 500.029 284.936 494.348 307.66C494.019 308.999 491.692 308.708 491.712 307.349C491.905 283.946 496.501 259.844 499.331 236.577Z" fill="black"/>
<path opacity="0.1" d="M293.949 273.368C299.766 288.776 306.3 302.613 320.046 313.771C326.407 318.972 333.373 323.383 340.792 326.909C348.004 330.285 356.089 331.838 363.147 335.369C364.194 335.893 363.593 337.116 362.585 337.31C345.697 339.115 326.367 326.734 315.393 316.197C303.508 304.786 292.844 289.727 291.681 273.718C291.603 272.417 293.542 272.301 293.949 273.368Z" fill="black"/>
<path opacity="0.1" d="M291.428 238.536C294.86 267.276 311.709 291.553 333.734 311.676C334.355 312.239 333.54 313.248 332.765 312.802C305.33 296.346 291.894 267.392 290.905 238.536C290.886 238.226 291.312 238.245 291.428 238.536Z" fill="black"/>
<path opacity="0.1" d="M356.206 175.661C356.303 174.593 358.144 174.555 358.144 175.661C356.884 239.525 370.631 302.283 376.001 365.837C376.001 366.904 374.062 367.156 373.927 366.089C367.722 335.04 362.953 303.37 359.075 271.913C355.081 239.836 352.948 207.719 356.206 175.661Z" fill="black"/>
<path opacity="0.1" d="M364.852 212.746C366.712 240.093 372.971 266.96 383.388 292.309C376.951 250.936 372.879 199.026 374.857 135.744C371.883 144.56 369.474 153.556 367.644 162.679C364.597 179.182 363.659 196.006 364.852 212.746Z" fill="black"/>
<path opacity="0.1" d="M356.942 140.362C357.892 134.676 360.587 129.456 361.789 123.828C362.041 122.644 364.251 122.606 364.465 123.828C365.337 128.738 363.631 132.852 362.235 137.587C360.296 144.243 359.85 151.035 358.9 157.827C358.864 158.103 358.729 158.356 358.52 158.539C358.312 158.722 358.044 158.823 357.766 158.823C357.488 158.823 357.22 158.722 357.011 158.539C356.803 158.356 356.668 158.103 356.632 157.827C355.988 152.016 356.093 146.146 356.942 140.362Z" fill="black"/>
<path opacity="0.1" d="M432.945 451.417C448.843 476.101 458.654 502.726 464.645 530.631C464.897 531.756 463.171 532.203 462.706 531.116C452.837 504.569 441.592 478.43 431.18 452.057C430.909 451.223 432.421 450.602 432.945 451.417Z" fill="black"/>
<path opacity="0.1" d="M404.444 473.694C409.562 483.222 415.321 497.233 412.994 507.964C412.994 508.178 412.587 508.217 412.471 507.964C409.698 503.191 408.981 497.621 407.604 492.44C405.995 486.405 403.92 480.467 402.35 474.431C402.059 473.403 403.862 472.568 404.444 473.694Z" fill="black"/>
<path opacity="0.1" d="M439.556 713.062C446.806 703.944 451.646 693.146 453.632 681.664C456.288 668.08 459.158 653.37 456.405 639.592C454.136 628.298 449.793 617.605 448.126 606.156C446.172 592.556 445.989 578.76 447.583 565.113C447.583 564.24 449.153 564.201 449.115 565.113C448.404 581.004 450.11 596.911 454.175 612.288C457.626 625.077 463.191 637.419 463.113 650.731C463.016 671.068 459.584 700.177 441.592 714.459C440.603 715.294 438.664 714.207 439.556 713.062Z" fill="black"/>
<path opacity="0.1" d="M415.185 716.925H421.99C422.425 713.496 422.114 710.014 421.079 706.718C418.811 698.8 414.293 690.067 415.65 681.684C415.65 681.218 414.972 680.83 414.72 681.335C409.097 693.095 413.614 704.971 415.185 716.925Z" fill="black"/>
<path opacity="0.1" d="M416.949 674.135C416.314 675.119 416.021 676.285 416.116 677.453C416.026 676.286 416.319 675.121 416.949 674.135Z" fill="black"/>
</g>
<path d="M0 716.923L98.9976 716.438L197.995 716.283L396.01 715.953L594.005 716.283L693.002 716.438L792 716.923L693.002 717.389L594.005 717.564L396.01 717.894L197.995 717.564L98.9976 717.389L0 716.923Z" fill="#263238"/>
<path d="M677.722 461.283C698.282 448.692 704.752 421.803 692.172 401.224C679.593 380.645 652.727 374.17 632.167 386.761C611.606 399.352 605.136 426.241 617.716 446.82C630.296 467.399 657.161 473.874 677.722 461.283Z" fill="#2F412D"/>
<path d="M676.193 412.254C675.204 401.619 667.817 391.062 654.962 391.062C642.108 391.062 634.798 401.639 633.732 412.273C632.123 428.671 643.174 443.536 654.962 457.1C666.77 443.458 677.821 428.651 676.193 412.254ZM654.962 424.052C652.661 424.052 650.412 423.369 648.499 422.09C646.586 420.811 645.095 418.992 644.215 416.865C643.334 414.737 643.104 412.396 643.553 410.137C644.002 407.879 645.109 405.804 646.736 404.176C648.363 402.547 650.436 401.438 652.693 400.989C654.949 400.54 657.288 400.77 659.414 401.652C661.54 402.533 663.357 404.025 664.635 405.94C665.913 407.855 666.595 410.106 666.595 412.409C666.595 415.497 665.37 418.458 663.188 420.642C661.006 422.826 658.048 424.052 654.962 424.052Z" fill="white"/>
<path d="M480.182 112.914C491.632 63.3124 460.741 13.8121 411.183 2.35161C361.626 -9.10886 312.17 21.8104 300.719 71.4116C289.269 121.013 320.161 170.513 369.718 181.974C419.275 193.434 468.732 162.515 480.182 112.914Z" fill="#25921C"/>
<path d="M388.255 66.6385C388.042 72.4602 388.255 78.4372 388.255 84.7829H411.133C410.164 92.3317 409.33 99.2983 408.206 106.129C408.206 106.828 406.403 107.662 405.414 107.72C399.907 107.856 394.401 107.72 388.391 107.72V184.101C380.16 183.927 371.992 182.621 364.116 180.22V108.031H344.03V84.9963H363.632C363.632 83.2498 363.845 81.8526 363.845 80.533C363.981 74.459 363.845 68.385 364.33 62.3693C365.57 49.1734 373.675 39.8975 386.723 38.0733C394.808 36.9672 403.242 37.8599 411.754 37.8599V58.818C408.749 58.818 405.685 58.818 402.68 58.818C399.999 58.7166 397.315 58.8987 394.672 59.3614C392.919 59.6255 391.314 60.4998 390.14 61.8307C388.967 63.1616 388.299 64.8639 388.255 66.6385Z" fill="white"/>
<path d="M287.744 409.042C323.709 373.045 323.709 314.682 287.744 278.684C251.778 242.687 193.467 242.687 157.502 278.684C121.536 314.682 121.536 373.045 157.502 409.042C193.467 445.04 251.778 445.04 287.744 409.042Z" fill="#25921C"/>
<path d="M172.344 387.182C184.259 387.728 195.992 384.113 205.537 376.955C191.81 372.783 186.343 368.591 184.346 360.771L193.536 360.324C182.717 356.152 176.338 348.875 175.505 337.037L184.986 339.541C175.059 327.024 173.042 317.321 178.975 308.259C184.99 315.436 192.413 321.302 200.783 325.495C209.154 329.687 218.294 332.116 227.64 332.632C227.64 331.08 227.466 329.916 227.427 328.751C227.039 318.486 231.305 310.723 240.475 306.202C249.646 301.68 258.429 302.922 266.32 309.326C266.983 310.006 267.833 310.473 268.762 310.666C269.691 310.86 270.657 310.772 271.536 310.413C275.239 309.016 278.961 307.677 283.033 306.182C281.335 310.926 278.17 315.005 273.998 317.826C274.095 318.039 274.173 318.272 274.25 318.486L285.631 315.555L286.096 316.021C283.149 318.971 280.28 322.076 277.217 324.851C276.424 325.434 275.786 326.202 275.356 327.088C274.927 327.974 274.721 328.951 274.754 329.935C274.856 346.646 268.683 362.785 257.458 375.156C246.233 387.527 230.774 395.227 214.146 396.729C200.454 398.13 186.662 395.313 174.613 388.657C173.837 388.075 173.042 387.589 172.344 387.182Z" fill="white"/>
<path d="M478.625 449.568C483.059 414.145 457.962 381.832 422.57 377.395C387.179 372.958 354.894 398.076 350.461 433.5C346.028 468.923 371.124 501.236 406.516 505.673C441.907 510.11 474.192 484.991 478.625 449.568Z" fill="#25921C"/>
<path d="M690.89 313.387C702.451 263.856 671.707 214.322 622.219 202.75C572.732 191.178 523.242 221.95 511.68 271.482C500.119 321.013 530.864 370.547 580.351 382.119C629.838 393.691 679.328 362.918 690.89 313.387Z" fill="#ED4B02"/>
<path d="M656.126 262.054C656.126 247.111 646.742 237.447 631.949 237.292C611.462 237.098 590.974 237.098 570.487 237.292C556.004 237.447 546.62 246.995 546.387 261.53C546.252 271.757 546.387 282.003 546.387 292.23C546.387 302.456 546.387 312.256 546.387 322.27C546.504 337.561 555.83 347.322 570.933 347.497C591.188 347.717 611.455 347.717 631.736 347.497C646.548 347.322 656.049 337.581 656.126 322.813C656.243 302.566 656.243 282.313 656.126 262.054ZM646.335 322.968C646.238 332.419 641.139 337.639 631.697 337.717C611.429 337.833 591.168 337.833 570.914 337.717C561.414 337.717 556.276 332.438 556.237 323.027C556.133 302.573 556.133 282.113 556.237 261.646C556.237 252.273 561.51 246.898 570.856 246.84C591.123 246.684 611.384 246.684 631.639 246.84C641.023 246.84 646.238 252.254 646.335 261.607C646.451 271.834 646.335 282.061 646.335 292.288C646.335 302.515 646.451 312.741 646.335 322.968Z" fill="white"/>
<path d="M601.334 263.567C595.672 263.529 590.125 265.17 585.393 268.283C580.662 271.395 576.956 275.841 574.745 281.058C572.533 286.275 571.915 292.031 572.966 297.599C574.018 303.168 576.694 308.3 580.656 312.349C584.617 316.398 589.688 319.183 595.229 320.351C600.769 321.52 606.531 321.021 611.789 318.917C617.047 316.813 621.564 313.198 624.772 308.528C627.98 303.858 629.735 298.342 629.815 292.676C629.877 288.887 629.187 285.123 627.785 281.603C626.383 278.083 624.297 274.876 621.648 272.169C618.998 269.461 615.839 267.307 612.352 265.83C608.865 264.354 605.12 263.585 601.334 263.567ZM600.965 311.383C596.011 311.236 591.301 309.195 587.803 305.679C584.305 302.164 582.285 297.441 582.159 292.482C582.159 287.407 584.173 282.54 587.758 278.952C591.343 275.363 596.205 273.348 601.276 273.348C606.346 273.348 611.208 275.363 614.793 278.952C618.379 282.54 620.393 287.407 620.393 292.482C620.261 297.547 618.155 302.36 614.525 305.892C610.895 309.424 606.028 311.395 600.965 311.383Z" fill="white"/>
<path d="M638.541 262.986C638.548 263.848 638.368 264.701 638.013 265.486C637.659 266.272 637.138 266.971 636.487 267.535C635.837 268.1 635.071 268.516 634.244 268.756C633.417 268.996 632.548 269.053 631.697 268.924C630.782 268.977 629.867 268.819 629.023 268.464C628.178 268.108 627.426 267.564 626.824 266.873C626.221 266.183 625.785 265.363 625.547 264.477C625.31 263.592 625.278 262.663 625.454 261.763C625.744 257.746 628.362 255.942 632.375 255.67C636.427 256.252 638.851 258.581 638.541 262.986Z" fill="white"/>
<path d="M604.481 458.586C612.485 425.14 591.884 391.532 558.467 383.521C525.051 375.509 491.472 396.129 483.468 429.575C475.464 463.021 496.065 496.629 529.482 504.64C562.898 512.652 596.477 492.032 604.481 458.586Z" fill="#ED4B02"/>
<path d="M520.775 468.007V420.191L577.738 444.099L520.775 468.007Z" fill="white"/>
<path d="M319.387 499.893C341.957 490.688 352.797 464.914 343.601 442.324C334.404 419.735 308.653 408.884 286.083 418.089C263.514 427.294 252.673 453.068 261.869 475.658C271.066 498.248 296.818 509.098 319.387 499.893Z" fill="#2F412D"/>
<path d="M327.375 464.572C320.085 479.262 302.771 487.995 302.771 487.995C302.771 487.995 285.457 479.262 278.186 464.572C272.117 452.307 275.956 439.053 285.534 436.162C299.242 432.009 302.771 455.936 302.771 455.936C302.771 455.936 306.28 432.009 320.026 436.162C329.585 439.053 333.443 452.307 327.375 464.572Z" fill="white"/>
<path d="M596.461 172.481C621.682 147.237 621.682 106.309 596.461 81.0658C571.24 55.8221 530.348 55.8221 505.127 81.0658C479.905 106.309 479.905 147.237 505.127 172.481C530.348 197.725 571.24 197.725 596.461 172.481Z" fill="#2F412D"/>
<path d="M569.614 100.327C569.945 100.942 570.321 101.532 570.739 102.092H570.836C570.386 101.535 569.978 100.944 569.614 100.327ZM570.855 102.267L571.534 102.752L570.855 102.267ZM581.81 113.911V108.884C581.155 108.766 580.508 108.611 579.871 108.419C578.739 108.092 577.642 107.656 576.594 107.119C575.563 106.58 574.594 105.929 573.705 105.178C573.221 104.8 572.768 104.385 572.348 103.936L572.154 103.723L571.98 103.548C571.582 103.123 571.225 102.662 570.913 102.17C570.741 102.094 570.584 101.989 570.448 101.86C569.717 101.228 569.036 100.54 568.412 99.8026C567.453 98.6728 566.639 97.4277 565.989 96.0961C565.343 94.765 564.849 93.3655 564.515 91.9239C564.379 91.3999 564.282 90.876 564.166 90.352V90.2162H554.317C554.084 90.2162 554.045 90.2162 554.045 90.4879V137.256C554.045 138.614 554.045 139.992 554.045 141.35C554.045 142.126 554.045 142.903 553.89 143.679C553.788 144.662 553.606 145.636 553.347 146.59C553.2 147.012 553.005 147.416 552.766 147.793C552.201 148.771 551.495 149.66 550.672 150.432C549.224 151.753 547.439 152.647 545.514 153.013L544.312 153.168C543.925 153.168 543.517 153.168 543.13 153.168C541.751 153.146 540.39 152.863 539.116 152.334C538.187 151.967 537.318 151.463 536.538 150.84C535.681 150.142 534.975 149.277 534.463 148.297C534.136 147.571 533.851 146.826 533.61 146.066C533.803 146.805 534.076 147.521 534.424 148.2C534.134 148.042 533.861 147.853 533.61 147.638C533.301 147.4 533.01 147.14 532.737 146.861C531.937 146.019 531.317 145.022 530.915 143.931C530.687 143.298 530.505 142.65 530.372 141.991C530.269 141.472 530.204 140.947 530.178 140.419C530.178 140.108 530.178 139.778 530.178 139.468C530.207 138.344 530.383 137.228 530.702 136.149C531.034 135.035 531.551 133.986 532.233 133.045C532.991 132.017 533.947 131.153 535.045 130.502C536.054 129.898 537.154 129.459 538.302 129.202C538.801 129.096 539.306 129.018 539.814 128.969C540.608 128.902 541.405 128.902 542.199 128.969C542.752 128.973 543.303 129.025 543.847 129.125C544.08 129.125 544.118 129.125 544.118 128.892V118.122C543.304 118.122 542.49 118.122 541.656 118.122C540.701 118.184 539.75 118.294 538.806 118.451C537.75 118.644 536.707 118.903 535.684 119.228C534.952 119.472 534.233 119.757 533.532 120.082C532.445 120.575 531.401 121.159 530.411 121.828C529.693 122.313 529.034 122.837 528.472 123.381C527.787 123.94 527.14 124.542 526.533 125.185C525.78 125.982 525.092 126.838 524.478 127.747C523.754 128.826 523.106 129.954 522.539 131.123C522.116 132.002 521.741 132.902 521.415 133.821C520.976 135.09 520.62 136.387 520.348 137.702C520.232 138.342 520.154 138.983 520.077 139.643C519.927 140.93 519.869 142.227 519.902 143.524C519.902 144.261 519.999 144.998 520.077 145.736C520.202 146.896 520.416 148.044 520.717 149.171C521.033 150.362 521.435 151.53 521.919 152.664C522.458 153.922 523.106 155.129 523.857 156.273C524.032 156.545 524.226 156.817 524.381 157.108C524.536 157.399 525.389 158.311 525.971 158.932C525.544 158.466 525.156 157.981 524.749 157.515C524.739 157.497 524.734 157.477 524.734 157.457C524.734 157.437 524.739 157.416 524.749 157.399L524.924 157.515C525.088 157.634 525.243 157.764 525.389 157.903C526.055 158.43 526.748 158.922 527.464 159.378C528.375 159.97 529.327 160.495 530.314 160.95C531.57 161.533 532.866 162.026 534.192 162.425C534.83 162.596 535.477 162.732 536.13 162.832L537.914 163.123C538.192 163.142 538.47 163.142 538.748 163.123C539.643 163.218 540.543 163.263 541.443 163.259C542.218 163.259 542.975 163.259 543.75 163.085C544.657 162.994 545.557 162.845 546.445 162.638C547.778 162.345 549.077 161.916 550.323 161.357C551.783 160.712 553.162 159.898 554.433 158.932C555.464 158.158 556.418 157.287 557.283 156.331C557.989 155.614 558.637 154.842 559.222 154.022C560.011 152.908 560.698 151.726 561.277 150.49C561.93 149.103 562.462 147.661 562.867 146.182C563.1 145.367 563.294 144.533 563.449 143.698C563.604 142.864 563.643 142.495 563.74 141.874C563.792 141.534 563.824 141.19 563.837 140.846C564.108 136.169 563.837 131.492 563.953 126.815C564.069 122.139 563.953 117.442 563.953 112.746V112.591L564.438 112.998C565.194 113.635 565.998 114.212 566.842 114.726C567.598 115.191 568.373 115.599 569.168 115.987C570.565 116.621 572.003 117.159 573.473 117.598C574.52 117.908 575.605 118.18 576.691 118.393C577.777 118.607 578.359 118.704 579.192 118.801C579.696 118.801 580.2 118.917 580.724 118.956H581.732C581.926 118.956 581.945 118.956 581.945 118.743L581.81 113.911ZM524.594 157.302C524.594 157.302 524.633 157.36 524.594 157.341V157.302ZM525.874 158.854V158.971V158.854ZM564.166 90.1191C564.155 90.1638 564.155 90.2103 564.166 90.255V90.1191Z" fill="#FEFEFE"/>
<path d="M584.912 122.08C584.912 122.255 584.912 122.313 584.679 122.313C583.943 122.313 583.225 122.216 582.489 122.139C581.752 122.061 581.325 122.003 580.744 121.906C580.162 121.809 579.445 121.653 578.805 121.518C577.531 121.246 576.275 120.896 575.043 120.47C574.052 120.139 573.081 119.75 572.135 119.305C570.952 118.754 569.817 118.105 568.742 117.365C568.128 116.939 567.539 116.479 566.978 115.987C566.978 117.928 566.978 119.868 566.978 121.809C566.978 128.717 566.978 135.613 566.978 142.495C566.965 143.203 566.913 143.909 566.823 144.61C566.823 145.076 566.706 145.542 566.629 146.008C566.551 146.473 566.396 147.347 566.26 147.948C566.125 148.55 565.795 149.753 565.504 150.646C565.138 151.717 564.711 152.767 564.225 153.789C563.625 155.029 562.925 156.216 562.131 157.341C561.77 157.871 561.375 158.376 560.948 158.854C560.599 159.281 560.211 159.708 559.804 160.116C559.244 160.676 558.655 161.207 558.04 161.707C557.458 162.153 556.876 162.58 556.275 162.968C555.238 163.625 554.148 164.196 553.018 164.676C552.02 165.079 550.997 165.416 549.955 165.685C549.315 165.84 548.675 165.957 548.016 166.054C547.357 166.151 546.717 166.228 546.077 166.306C545.902 166.306 545.709 166.306 545.534 166.306H542.975C542.975 166.306 542.858 166.306 542.8 166.306C542.092 166.284 541.386 166.213 540.687 166.093L539.02 165.84C537.79 165.648 536.587 165.316 535.433 164.851C534.754 164.598 534.056 164.307 533.397 163.997C532.24 163.431 531.126 162.782 530.062 162.056C529.444 161.649 528.848 161.209 528.278 160.737C527.526 160.13 526.807 159.482 526.126 158.796V158.68C525.545 158.059 524.517 156.894 524.536 156.855C524.73 156.974 524.912 157.11 525.079 157.263L525.545 157.651C526.211 158.177 526.903 158.67 527.619 159.126C528.53 159.718 529.483 160.243 530.469 160.698C531.725 161.281 533.021 161.774 534.347 162.173C534.985 162.344 535.633 162.48 536.286 162.58L538.07 162.871C538.347 162.89 538.626 162.89 538.903 162.871C539.798 162.965 540.698 163.011 541.598 163.007C542.374 163.007 543.13 163.007 543.905 162.832C544.813 162.742 545.713 162.593 546.601 162.386C547.933 162.093 549.233 161.664 550.478 161.105C551.938 160.46 553.318 159.646 554.589 158.68C555.619 157.906 556.574 157.035 557.439 156.079C558.144 155.361 558.793 154.589 559.378 153.77C560.166 152.656 560.854 151.474 561.433 150.238C562.085 148.85 562.617 147.409 563.023 145.93C563.255 145.115 563.449 144.281 563.604 143.446C563.759 142.612 563.798 142.243 563.895 141.622C563.947 141.281 563.98 140.938 563.992 140.593C564.263 135.917 563.992 131.24 564.108 126.563C564.225 121.886 564.108 117.19 564.108 112.494V112.591L564.593 112.999C565.349 113.635 566.153 114.212 566.997 114.726C567.753 115.191 568.529 115.599 569.324 115.987C570.72 116.621 572.158 117.159 573.628 117.598C574.675 117.908 575.761 118.18 576.847 118.393C577.932 118.607 578.514 118.704 579.348 118.801C579.852 118.801 580.356 118.917 580.879 118.956H581.888C582.081 118.956 582.101 118.956 582.101 118.743V108.846C582.398 108.934 582.703 108.992 583.012 109.02C583.477 109.02 583.962 109.156 584.427 109.195C584.893 109.234 584.835 109.195 585.028 109.195C585.222 109.195 585.164 109.195 585.164 109.35C585.164 109.506 585.164 109.35 585.164 109.35C584.912 113.678 584.893 117.889 584.912 122.08Z" fill="#25921C"/>
<path d="M544.061 118.122C543.246 118.122 542.432 118.122 541.598 118.122C540.643 118.184 539.692 118.294 538.748 118.452C537.692 118.644 536.65 118.903 535.627 119.228C534.894 119.472 534.175 119.757 533.474 120.082C532.387 120.576 531.343 121.16 530.353 121.828C529.636 122.314 528.976 122.838 528.414 123.381C527.729 123.94 527.082 124.543 526.475 125.186C525.722 125.982 525.034 126.839 524.42 127.747C523.696 128.826 523.048 129.955 522.481 131.124C522.058 132.002 521.683 132.903 521.357 133.821C520.919 135.091 520.562 136.387 520.29 137.702C520.174 138.343 520.096 138.983 520.019 139.643C519.869 140.931 519.811 142.228 519.844 143.524C519.844 144.261 519.941 144.999 520.019 145.736C520.144 146.896 520.358 148.044 520.659 149.171C520.975 150.363 521.377 151.53 521.861 152.664C522.4 153.922 523.049 155.13 523.8 156.274C523.974 156.545 524.168 156.817 524.323 157.108L523.819 156.662C522.961 155.852 522.176 154.969 521.473 154.023C520.755 153.082 520.107 152.089 519.534 151.053C518.828 149.741 518.25 148.363 517.809 146.939C517.475 145.885 517.216 144.809 517.033 143.718C516.943 143.084 516.865 142.437 516.8 141.778C516.829 141.52 516.829 141.259 516.8 141.001V137.935C516.8 137.935 516.8 137.935 516.8 137.799C516.82 137.195 516.878 136.592 516.975 135.995C517.275 133.682 517.875 131.419 518.759 129.261C519.461 127.582 520.338 125.982 521.376 124.487C521.834 123.815 522.325 123.168 522.85 122.546C523.444 121.85 524.093 121.201 524.788 120.606C525.908 119.574 527.13 118.657 528.433 117.87C529.823 117.059 531.299 116.408 532.835 115.929C533.902 115.575 534.998 115.315 536.111 115.153L537.953 114.92C538.941 114.852 539.932 114.852 540.92 114.92C541.692 114.936 542.463 115 543.227 115.114C543.485 115.133 543.744 115.133 544.002 115.114C544.158 115.114 544.216 115.114 544.216 115.347C544.061 116.298 544.061 117.21 544.061 118.122Z" fill="#ED4B02"/>
<path d="M564.166 90.1586H554.317C554.084 90.1586 554.046 90.1586 554.046 90.4303V137.198C554.046 138.556 554.046 139.934 554.046 141.293C554.046 142.069 554.046 142.845 553.891 143.621C553.788 144.605 553.607 145.578 553.348 146.532C553.201 146.954 553.005 147.358 552.766 147.735C552.201 148.713 551.495 149.602 550.672 150.374C549.225 151.696 547.439 152.589 545.515 152.955L544.313 153.111C543.925 153.111 543.518 153.111 543.13 153.111C541.752 153.088 540.39 152.805 539.117 152.276C538.188 151.909 537.319 151.405 536.538 150.782C535.681 150.085 534.975 149.22 534.463 148.24L534.948 148.512C536.857 149.53 539.014 149.987 541.172 149.831C542.619 149.728 544.031 149.332 545.321 148.667C546.016 148.295 546.666 147.846 547.26 147.328C548.175 146.557 548.955 145.639 549.567 144.611C550.094 143.81 550.439 142.902 550.575 141.952L550.866 140.012C550.866 139.624 550.866 139.216 550.866 138.809C550.866 138.401 550.866 137.431 550.866 136.752V87.0731C550.866 87.0731 550.866 86.9178 551.002 86.9372H563.43C563.759 86.9372 563.759 86.9372 563.759 87.2477C563.765 88.1396 563.85 89.0292 564.011 89.9063C564.074 89.983 564.126 90.0679 564.166 90.1586Z" fill="#ED4B02"/>
<path d="M547.24 121.09V132.19C547.24 132.462 547.24 132.462 546.969 132.404C546.678 132.385 546.387 132.385 546.096 132.404H544.817C543.697 132.371 542.577 132.475 541.482 132.714C539.725 133.068 538.088 133.87 536.732 135.043C535.847 135.822 535.111 136.755 534.56 137.798C534.069 138.718 533.716 139.706 533.513 140.729C533.436 141.156 533.378 141.583 533.339 142.01C533.3 142.559 533.3 143.11 533.339 143.659C533.367 144.313 533.458 144.963 533.61 145.6L533.727 146.104C533.967 146.864 534.252 147.609 534.58 148.336C534.273 148.174 533.981 147.985 533.707 147.773C533.398 147.535 533.107 147.276 532.835 146.997C532.035 146.154 531.415 145.157 531.012 144.067C530.784 143.434 530.603 142.785 530.469 142.126C530.367 141.607 530.302 141.082 530.275 140.554C530.275 140.244 530.275 139.914 530.275 139.603C530.304 138.479 530.48 137.363 530.799 136.285C531.131 135.171 531.649 134.121 532.331 133.18C533.088 132.153 534.044 131.288 535.142 130.638C536.151 130.033 537.251 129.594 538.399 129.338C538.898 129.232 539.403 129.154 539.911 129.105C540.705 129.037 541.503 129.037 542.296 129.105C542.849 129.108 543.4 129.16 543.944 129.26C544.177 129.26 544.216 129.26 544.216 129.027V118.121C544.325 118.14 544.436 118.14 544.545 118.121C545.286 118.144 546.024 118.215 546.756 118.335C546.891 118.344 547.027 118.344 547.163 118.335C547.298 118.335 547.318 118.335 547.318 118.509L547.24 121.09Z" fill="#25921C"/>
<path d="M570.855 102.209C570.683 102.134 570.526 102.028 570.39 101.899C569.658 101.267 568.978 100.58 568.354 99.8419C567.413 98.6969 566.618 97.4387 565.989 96.0966C565.343 94.7655 564.849 93.366 564.515 91.9244C564.379 91.4004 564.282 90.8765 564.166 90.3525C564.156 90.3013 564.156 90.2485 564.166 90.1973H566.803C566.919 90.1973 566.958 90.1973 566.958 90.3525C566.948 91.1195 567.006 91.8858 567.132 92.6424C567.3 93.884 567.566 95.1104 567.927 96.3101C568.247 97.3684 568.649 98.4 569.129 99.3956C569.271 99.7222 569.433 100.04 569.614 100.346C569.974 100.991 570.383 101.607 570.836 102.19L570.855 102.209Z" fill="#263238"/>
<path d="M581.849 106.15V108.867C581.194 108.748 580.547 108.593 579.91 108.401C578.779 108.074 577.681 107.639 576.634 107.101C575.602 106.562 574.633 105.911 573.745 105.16C573.261 104.782 572.807 104.367 572.387 103.918L572.193 103.705C571.738 103.222 571.323 102.703 570.953 102.152L571.631 102.637H571.728C572.537 103.191 573.394 103.671 574.287 104.074C574.867 104.35 575.462 104.589 576.071 104.792C577.178 105.157 578.313 105.429 579.464 105.607C580.242 105.73 581.025 105.814 581.81 105.859C581.83 105.995 581.849 106.033 581.849 106.15Z" fill="#ED4B02"/>
<path d="M498.766 301.559C510.76 252.087 480.414 202.25 430.986 190.245C381.558 178.239 331.765 208.612 319.77 258.085C307.776 307.557 338.122 357.394 387.55 369.399C436.978 381.405 486.771 351.031 498.766 301.559Z" fill="#2F412D"/>
<path d="M350.505 338.666C353.065 329.468 355.314 320.93 357.834 312.469C358.245 311.227 358.395 309.914 358.275 308.612C358.155 307.309 357.767 306.046 357.136 304.9C339.357 269.039 362.953 225.706 402.757 220.835C439.382 216.352 470.365 243.986 469.57 280.43C468.93 310.315 443.609 336.066 413.654 337.405C403.59 337.896 393.554 335.98 384.377 331.816C382.59 331.103 380.628 330.954 378.754 331.389C369.564 333.582 360.452 336.047 350.505 338.666ZM364.833 324.753C370.65 323.239 375.594 321.803 380.616 320.755C382.376 320.422 384.196 320.66 385.812 321.434C393.139 325.337 401.284 327.451 409.582 327.605C440.003 328.129 464.51 299.855 458.712 270.203C454.699 249.691 442.116 236.243 421.777 231.586C400.915 226.812 383.156 233.526 370.534 250.778C358.203 267.661 357.873 285.825 367.955 304.221C368.837 306.027 369.097 308.074 368.692 310.043C367.761 314.739 366.288 319.377 364.833 324.714V324.753Z" fill="white"/>
<path d="M384.377 255.223C388.39 249.809 393.761 250.876 396.572 256.853C397.677 259.201 397.929 259.978 399.015 262.675C400.644 266.711 400.275 269.409 397.386 272.009C395.273 273.95 395.448 275.56 396.921 277.734C401.317 284.401 407.536 289.662 414.836 292.89C415.27 293.174 415.757 293.368 416.268 293.46C416.779 293.553 417.303 293.541 417.809 293.427C418.315 293.313 418.793 293.099 419.215 292.797C419.637 292.494 419.994 292.11 420.265 291.667C425.461 285.477 425.539 285.535 432.867 288.989L435.388 290.192C441.01 292.89 441.864 297.955 437.327 302.418C435.196 304.53 432.53 306.021 429.616 306.728C426.701 307.436 423.649 307.335 420.788 306.435C404.987 302.418 393.644 292.482 384.939 279.17C382.052 275.301 380.476 270.609 380.441 265.78C380.698 261.953 382.066 258.283 384.377 255.223Z" fill="white"/>
<path d="M147.018 272.827C169.338 263.719 180.055 238.226 170.955 215.886C161.856 193.546 136.385 182.82 114.065 191.927C91.7453 201.035 81.028 226.528 90.1275 248.868C99.2271 271.208 124.698 281.935 147.018 272.827Z" fill="#25921C"/>
<path fill-rule="evenodd" clip-rule="evenodd" d="M123.912 251.75C122.613 250.934 121.469 249.809 119.743 249.925C119.065 249.925 119.22 249.44 119.201 249.091C119.201 242.532 119.201 235.973 119.201 229.414C119.161 229.193 119.193 228.965 119.29 228.763C119.388 228.561 119.546 228.395 119.743 228.288C124.746 225.746 126.898 220.778 129.942 216.528C131.506 214.414 132.63 212.008 133.246 209.451C133.862 206.894 133.958 204.239 133.529 201.644C133.453 201.363 133.441 201.069 133.494 200.784C133.547 200.498 133.663 200.228 133.834 199.993C134.006 199.758 134.227 199.565 134.483 199.428C134.739 199.29 135.022 199.212 135.312 199.199C135.978 198.96 136.703 198.945 137.378 199.155C138.053 199.365 138.641 199.789 139.054 200.363C140.509 203.032 141.487 205.935 141.943 208.94C141.955 211.42 141.655 213.891 141.051 216.295C140.838 218.1 140.431 219.885 140.082 221.709C140.528 222.02 141.032 221.865 141.517 221.865H158.113C160.44 221.865 161.584 222.524 161.991 224.077C162.148 225.036 161.987 226.021 161.532 226.88C161.076 227.738 160.352 228.424 159.47 228.831C159.063 229.045 158.326 228.831 158.268 229.511C158.21 230.19 158.986 230.093 159.373 230.364C161.312 231.723 161.021 234.556 158.714 236.186C158.152 236.574 157.066 236.4 157.047 237.215C157.027 238.03 158.055 237.874 158.501 238.321C158.866 238.78 159.118 239.319 159.237 239.893C159.356 240.468 159.338 241.062 159.185 241.629C159.032 242.195 158.749 242.718 158.357 243.154C157.965 243.591 157.477 243.93 156.93 244.142C156.594 244.245 156.263 244.368 155.942 244.511C155.67 244.705 155.399 244.919 155.942 245.287C156.48 245.559 156.932 245.975 157.249 246.489C157.565 247.003 157.732 247.595 157.732 248.198C157.732 248.802 157.565 249.393 157.249 249.907C156.932 250.421 156.48 250.837 155.942 251.109L155.205 251.633C154.332 252.161 153.31 252.386 152.297 252.273H126.277C125.868 252.352 125.447 252.346 125.041 252.255C124.634 252.165 124.25 251.993 123.912 251.75Z" fill="white"/>
<path fill-rule="evenodd" clip-rule="evenodd" d="M99.2108 240.281C99.2108 236.109 99.2108 231.956 99.2108 227.784C99.2108 226.949 99.2108 226.522 100.335 226.542C105.389 226.542 110.463 226.542 115.555 226.542C116.544 226.542 116.699 226.872 116.699 227.764C116.699 236.147 116.699 244.557 116.699 252.992C116.699 254.059 116.428 254.369 115.361 254.35C110.437 254.35 105.512 254.35 100.587 254.35C99.3659 254.35 99.1914 253.943 99.2108 252.875C99.3659 248.606 99.2302 244.453 99.2108 240.281Z" fill="white"/>
<path d="M338.096 408.373C350.164 408.373 359.947 398.582 359.947 386.503C359.947 374.424 350.164 364.633 338.096 364.633C326.029 364.633 316.246 374.424 316.246 386.503C316.246 398.582 326.029 408.373 338.096 408.373Z" fill="#ED4B02"/>
<path d="M337.728 371.309C339.732 371.206 341.715 371.765 343.37 372.9C344.748 373.906 345.768 375.327 346.278 376.956C346.438 377.532 346.529 378.125 346.55 378.722C346.598 379.614 346.598 380.508 346.55 381.4C346.55 382.137 346.453 382.875 346.414 383.612C346.414 383.923 346.414 383.961 346.705 384.097C347.125 384.247 347.584 384.247 348.004 384.097C348.232 384.027 348.452 383.936 348.663 383.826C348.942 383.716 349.247 383.691 349.539 383.753C349.832 383.815 350.101 383.962 350.311 384.175C350.445 384.313 350.52 384.497 350.52 384.689C350.52 384.881 350.445 385.066 350.311 385.203C349.959 385.559 349.527 385.825 349.051 385.98C348.683 386.116 348.295 386.213 347.926 386.387C347.697 386.484 347.476 386.601 347.267 386.736C347.009 386.918 346.817 387.18 346.722 387.482C346.628 387.784 346.635 388.108 346.744 388.405C347.001 389.15 347.36 389.855 347.81 390.501C348.603 391.757 349.662 392.824 350.912 393.626C351.727 394.13 352.627 394.478 353.568 394.654C353.632 394.654 353.694 394.671 353.748 394.703C353.802 394.736 353.847 394.783 353.877 394.838C353.907 394.894 353.921 394.957 353.918 395.02C353.915 395.084 353.894 395.145 353.859 395.197C353.731 395.466 353.511 395.679 353.239 395.799C352.592 396.135 351.9 396.377 351.184 396.517L349.982 396.73C349.883 396.745 349.79 396.787 349.715 396.852C349.639 396.918 349.584 397.003 349.555 397.099C349.419 397.507 349.361 397.953 349.245 398.38C349.129 398.807 348.993 398.923 348.527 398.865C348.062 398.807 347.403 398.671 346.841 398.613C345.458 398.446 344.066 398.829 342.963 399.68C342.387 400.129 341.785 400.544 341.16 400.922C340.157 401.491 339.015 401.767 337.864 401.718C336.599 401.664 335.379 401.239 334.354 400.495C333.753 400.068 333.191 399.622 332.551 399.253C331.965 398.891 331.3 398.678 330.613 398.632C329.688 398.573 328.76 398.651 327.859 398.865C327.22 398.865 327.142 398.865 327.006 398.341C326.871 397.817 326.832 397.604 326.754 397.235C326.736 397.098 326.669 396.971 326.566 396.879C326.463 396.786 326.33 396.734 326.192 396.73C325.161 396.599 324.156 396.318 323.206 395.896C323.03 395.817 322.867 395.713 322.721 395.585C322.565 395.478 322.449 395.321 322.392 395.139C322.365 395.089 322.352 395.033 322.353 394.976C322.355 394.919 322.371 394.863 322.4 394.814C322.429 394.765 322.471 394.725 322.52 394.697C322.57 394.669 322.626 394.654 322.683 394.654C323.357 394.518 324.009 394.289 324.621 393.975C325.868 393.348 326.951 392.438 327.782 391.316C328.399 390.538 328.913 389.683 329.313 388.774C329.416 388.56 329.482 388.331 329.507 388.095C329.546 387.813 329.5 387.526 329.376 387.271C329.252 387.015 329.055 386.802 328.809 386.659C328.44 386.416 328.034 386.233 327.607 386.115C327.092 385.977 326.606 385.747 326.173 385.436C326.055 385.355 325.951 385.257 325.862 385.145C325.791 385.07 325.737 384.98 325.704 384.881C325.67 384.783 325.659 384.678 325.67 384.575C325.681 384.472 325.714 384.372 325.768 384.283C325.821 384.194 325.893 384.117 325.979 384.058C326.181 383.882 326.43 383.77 326.696 383.735C326.961 383.701 327.231 383.746 327.472 383.864C327.896 384.106 328.379 384.227 328.868 384.214C329.142 384.221 329.412 384.147 329.643 384C329.688 383.983 329.725 383.949 329.746 383.906C329.768 383.863 329.772 383.814 329.759 383.767C329.759 382.758 329.643 381.73 329.604 380.721C329.556 379.965 329.556 379.206 329.604 378.45C329.635 377.856 329.746 377.268 329.934 376.704C330.331 375.577 330.976 374.554 331.822 373.71C332.668 372.867 333.692 372.225 334.82 371.833C335.749 371.483 336.735 371.305 337.728 371.309Z" fill="white"/>
<path d="M503.887 227.666C515.955 227.666 525.738 217.875 525.738 205.796C525.738 193.717 515.955 183.926 503.887 183.926C491.82 183.926 482.037 193.717 482.037 205.796C482.037 217.875 491.82 227.666 503.887 227.666Z" fill="#25921C"/>
<path d="M503.887 204.806C507.903 204.806 511.158 201.548 511.158 197.529C511.158 193.51 507.903 190.252 503.887 190.252C499.872 190.252 496.617 193.51 496.617 197.529C496.617 201.548 499.872 204.806 503.887 204.806Z" fill="white"/>
<path d="M516.49 217.616V220.294H491.285V217.635C491.285 214.29 492.612 211.081 494.976 208.716C497.339 206.35 500.545 205.021 503.887 205.021C507.23 205.021 510.435 206.35 512.799 208.716C515.162 211.081 516.49 214.29 516.49 217.635V217.616Z" fill="white"/>
<path d="M175.834 184.023C177.136 196.482 181.873 208.333 189.515 218.254C197.157 228.174 207.404 235.773 219.111 240.202C230.819 244.631 243.526 245.715 255.813 243.333C268.101 240.952 279.485 235.198 288.695 226.716L322.489 231.683L305.582 202.439C309.453 192.921 311.106 182.645 310.415 172.392C309.723 162.139 306.706 152.179 301.591 143.268C296.477 134.357 289.401 126.731 280.9 120.968C272.399 115.205 262.697 111.457 252.532 110.01C242.368 108.563 232.007 109.453 222.237 112.615C212.468 115.776 203.547 121.125 196.153 128.255C188.759 135.385 183.086 144.108 179.565 153.761C176.044 163.414 174.768 173.744 175.834 183.965V184.023Z" fill="#25921C"/>
<path d="M196.056 128.174C203.415 120.902 212.347 115.423 222.161 112.162C231.976 108.901 242.409 107.946 252.651 109.37C262.961 110.731 272.823 114.435 281.482 120.198C290.133 125.999 297.364 133.681 302.635 142.67C307.915 151.729 311.039 161.884 311.766 172.347C312.492 182.81 310.8 193.299 306.823 203.002V201.838L323.633 231.141L324.873 233.295L322.43 232.926L288.675 227.745L289.47 227.493C280.08 236.003 268.504 241.722 256.044 244.007C252.96 244.582 249.835 244.906 246.699 244.977C230.946 245.699 215.434 240.895 202.842 231.393C200.337 229.536 197.954 227.52 195.707 225.358C193.527 223.134 191.481 220.782 189.581 218.314C179.445 205.098 174.516 188.614 175.731 171.997C176.947 155.381 184.222 139.791 196.173 128.193L196.056 128.174Z" fill="#ED4B02"/>
<path d="M205.363 179.035C205.363 180.655 205.843 182.238 206.742 183.585C207.641 184.931 208.919 185.981 210.414 186.601C211.909 187.221 213.554 187.383 215.141 187.067C216.729 186.751 218.186 185.971 219.331 184.826C220.475 183.68 221.254 182.221 221.57 180.633C221.886 179.044 221.724 177.397 221.104 175.901C220.485 174.405 219.436 173.126 218.091 172.226C216.745 171.326 215.163 170.846 213.545 170.846C211.375 170.846 209.294 171.709 207.76 173.244C206.225 174.78 205.363 176.863 205.363 179.035Z" fill="#263238"/>
<path d="M234.659 179.035C234.659 180.655 235.139 182.238 236.038 183.585C236.937 184.931 238.215 185.981 239.71 186.601C241.205 187.221 242.85 187.383 244.437 187.067C246.024 186.751 247.482 185.971 248.627 184.826C249.771 183.68 250.55 182.221 250.866 180.633C251.182 179.044 251.02 177.397 250.4 175.901C249.781 174.405 248.732 173.126 247.387 172.226C246.041 171.326 244.459 170.846 242.841 170.846C240.671 170.846 238.59 171.709 237.056 173.244C235.521 174.78 234.659 176.863 234.659 179.035Z" fill="#263238"/>
<path d="M263.975 179.035C263.975 180.655 264.454 182.238 265.354 183.585C266.253 184.931 267.53 185.981 269.025 186.601C270.521 187.221 272.166 187.383 273.753 187.067C275.34 186.751 276.798 185.971 277.942 184.826C279.086 183.68 279.866 182.221 280.181 180.633C280.497 179.044 280.335 177.397 279.716 175.901C279.096 174.405 278.048 173.126 276.702 172.226C275.357 171.326 273.775 170.846 272.157 170.846C269.987 170.846 267.905 171.709 266.371 173.244C264.837 174.78 263.975 176.863 263.975 179.035Z" fill="#263238"/>
<path d="M704.888 161.513C704.052 169.523 701.009 177.143 696.098 183.522C691.187 189.901 684.601 194.788 677.076 197.638C669.55 200.489 661.381 201.189 653.481 199.662C645.581 198.136 638.26 194.441 632.336 188.992L610.621 192.174L621.498 173.389C618.781 166.773 617.754 159.583 618.512 152.47C619.011 146.719 620.65 141.125 623.332 136.014C626.014 130.904 629.687 126.379 634.135 122.705C638.584 119.03 643.719 116.279 649.241 114.613C654.763 112.946 660.561 112.397 666.298 112.998C672.034 113.598 677.594 115.336 682.652 118.111C687.709 120.885 692.165 124.64 695.757 129.156C699.349 133.673 702.007 138.86 703.575 144.415C705.142 149.971 705.589 155.783 704.888 161.513Z" fill="#25921C"/>
<path d="M704.888 161.513C704.035 169.519 701.004 177.138 696.124 183.539C694.92 185.12 693.625 186.629 692.246 188.06C690.796 189.447 689.261 190.743 687.651 191.941C684.458 194.373 680.932 196.334 677.182 197.763C673.453 199.231 669.537 200.172 665.549 200.557C663.544 200.742 661.529 200.781 659.519 200.674C657.502 200.622 655.493 200.414 653.508 200.053C645.502 198.58 638.063 194.904 632.026 189.438L632.549 189.593L610.854 192.931L609.283 193.164L610.078 191.786L620.878 172.943V173.68C618.34 167.506 617.244 160.833 617.671 154.17C618.099 147.507 620.039 141.03 623.345 135.231C626.651 129.432 631.234 124.464 636.748 120.705C642.261 116.946 648.558 114.496 655.16 113.54C661.762 112.584 668.495 113.148 674.846 115.19C681.197 117.231 686.999 120.695 691.811 125.319C696.623 129.943 700.318 135.605 702.614 141.874C704.91 148.142 705.748 154.852 705.062 161.494L704.888 161.513Z" fill="#25921C"/>
<path d="M685.906 158.31C685.906 159.35 685.598 160.367 685.021 161.231C684.444 162.096 683.623 162.77 682.663 163.168C681.703 163.566 680.646 163.671 679.627 163.468C678.608 163.265 677.672 162.764 676.937 162.028C676.202 161.293 675.702 160.356 675.499 159.336C675.296 158.316 675.4 157.258 675.798 156.297C676.196 155.336 676.869 154.515 677.733 153.937C678.597 153.359 679.613 153.051 680.652 153.051C682.044 153.056 683.378 153.612 684.362 154.597C685.346 155.582 685.901 156.917 685.906 158.31Z" fill="white"/>
<path d="M667.061 158.31C667.061 159.35 666.753 160.367 666.176 161.231C665.598 162.096 664.778 162.77 663.818 163.168C662.858 163.566 661.801 163.671 660.782 163.468C659.763 163.265 658.826 162.764 658.092 162.028C657.357 161.293 656.856 160.356 656.654 159.336C656.451 158.316 656.555 157.258 656.953 156.297C657.35 155.336 658.024 154.515 658.888 153.937C659.752 153.359 660.768 153.051 661.807 153.051C663.201 153.051 664.537 153.605 665.522 154.591C666.508 155.577 667.061 156.915 667.061 158.31Z" fill="white"/>
<path d="M648.235 158.31C648.235 159.35 647.927 160.367 647.35 161.231C646.772 162.096 645.952 162.77 644.992 163.168C644.031 163.566 642.975 163.671 641.956 163.468C640.937 163.265 640 162.764 639.266 162.028C638.531 161.293 638.03 160.356 637.828 159.336C637.625 158.316 637.729 157.258 638.127 156.297C638.524 155.336 639.198 154.515 640.062 153.937C640.926 153.359 641.942 153.051 642.981 153.051C644.373 153.056 645.706 153.612 646.691 154.597C647.675 155.582 648.23 156.917 648.235 158.31Z" fill="white"/>
<path d="M256.393 103.335C280.497 103.335 300.037 83.778 300.037 59.653C300.037 35.5279 280.497 15.9707 256.393 15.9707C232.29 15.9707 212.75 35.5279 212.75 59.653C212.75 83.778 232.29 103.335 256.393 103.335Z" fill="#ED4B02"/>
<g opacity="0.5">
<path opacity="0.5" d="M276.596 47.5814C276.6 49.3363 276.084 51.0528 275.112 52.5137C274.141 53.9747 272.758 55.1144 271.14 55.7886C269.521 56.4628 267.739 56.6412 266.019 56.3012C264.299 55.9612 262.718 55.1181 261.477 53.8786C260.236 52.6391 259.39 51.059 259.047 49.3381C258.703 47.6173 258.878 45.8332 259.548 44.2115C260.218 42.5899 261.353 41.2037 262.811 40.2284C264.268 39.253 265.982 38.7324 267.736 38.7324C270.082 38.7324 272.333 39.6641 273.994 41.3231C275.655 42.982 276.591 45.2327 276.596 47.5814Z" fill="black"/>
<path opacity="0.5" d="M283.033 71.9947V75.2355H252.535V71.9947C252.535 67.9339 254.147 64.0395 257.016 61.1681C259.885 58.2967 263.776 56.6836 267.833 56.6836C271.89 56.6836 275.781 58.2967 278.65 61.1681C281.519 64.0395 283.13 67.9339 283.13 71.9947H283.033Z" fill="black"/>
</g>
<path d="M253.931 52.9174C253.935 54.6722 253.418 56.3887 252.447 57.8497C251.476 59.3106 250.093 60.4503 248.475 61.1245C246.856 61.7987 245.074 61.9771 243.354 61.6371C241.634 61.2971 240.053 60.454 238.812 59.2145C237.571 57.9751 236.725 56.3949 236.382 54.6741C236.038 52.9532 236.213 51.1691 236.883 49.5475C237.553 47.9259 238.688 46.5397 240.146 45.5643C241.603 44.589 243.317 44.0684 245.07 44.0684C247.417 44.0684 249.668 45 251.329 46.659C252.99 48.318 253.926 50.5687 253.931 52.9174Z" fill="white"/>
<path d="M260.29 77.3301V80.5708H229.753V77.3301C229.895 73.3611 231.569 69.6019 234.424 66.844C237.28 64.0861 241.093 62.5449 245.061 62.5449C249.029 62.5449 252.842 64.0861 255.697 66.844C258.552 69.6019 260.227 73.3611 260.368 77.3301H260.29Z" fill="white"/>
<path d="M506.812 371.889C509.599 360.137 502.339 348.349 490.597 345.56C478.855 342.771 467.078 350.037 464.291 361.789C461.505 373.541 468.765 385.329 480.506 388.118C492.248 390.907 504.026 383.641 506.812 371.889Z" fill="#25921C"/>
<path d="M477.092 374.142H475.328C474.796 374.142 474.285 373.93 473.909 373.553C473.533 373.177 473.321 372.666 473.321 372.133C473.321 371.6 473.533 371.09 473.909 370.713C474.285 370.336 474.796 370.125 475.328 370.125H477.81L478.954 363.371H476.705C476.172 363.371 475.662 363.16 475.286 362.783C474.909 362.406 474.698 361.896 474.698 361.363C474.698 360.83 474.909 360.319 475.286 359.943C475.662 359.566 476.172 359.354 476.705 359.354H479.671L480.427 354.736C480.493 354.27 480.726 353.843 481.083 353.536C481.439 353.229 481.896 353.062 482.366 353.067C482.653 353.083 482.934 353.158 483.19 353.289C483.447 353.419 483.673 353.601 483.856 353.824C484.038 354.047 484.172 354.305 484.249 354.582C484.327 354.859 484.346 355.15 484.305 355.434L483.607 359.316H489.675L490.451 354.697C490.519 354.21 490.768 353.767 491.15 353.457C491.531 353.147 492.016 352.994 492.506 353.028C492.795 353.038 493.079 353.11 493.339 353.238C493.598 353.366 493.827 353.549 494.011 353.773C494.194 353.997 494.328 354.258 494.403 354.537C494.478 354.817 494.492 355.11 494.445 355.396L493.786 359.277H495.57C496.102 359.277 496.612 359.488 496.989 359.865C497.365 360.242 497.576 360.753 497.576 361.285C497.576 361.818 497.365 362.329 496.989 362.706C496.612 363.082 496.102 363.294 495.57 363.294H493.088L491.925 370.047H494.135C494.649 370.047 495.142 370.251 495.506 370.615C495.869 370.979 496.074 371.473 496.074 371.988C496.074 372.502 495.869 372.996 495.506 373.36C495.142 373.724 494.649 373.928 494.135 373.928H491.227L490.412 378.683C490.346 379.149 490.113 379.575 489.757 379.882C489.4 380.189 488.944 380.356 488.473 380.351C488.186 380.341 487.904 380.27 487.646 380.143C487.388 380.015 487.16 379.835 486.977 379.613C486.794 379.391 486.66 379.133 486.584 378.856C486.507 378.578 486.491 378.288 486.535 378.003L487.271 373.928H481.319L480.505 378.683C480.437 379.166 480.19 379.606 479.813 379.916C479.436 380.225 478.956 380.381 478.469 380.351C478.176 380.358 477.886 380.298 477.619 380.176C477.353 380.054 477.118 379.874 476.931 379.648C476.744 379.422 476.611 379.156 476.542 378.871C476.473 378.587 476.469 378.29 476.53 378.003L477.092 374.142ZM487.989 370.125L489.152 363.371H483.103L481.939 370.125H487.989Z" fill="white"/>
<path d="M194.546 111.748C206.336 109.173 213.808 97.5186 211.235 85.7177C208.663 73.9168 197.019 66.4379 185.228 69.013C173.438 71.5882 165.966 83.2423 168.538 95.0432C171.111 106.844 182.755 114.323 194.546 111.748Z" fill="#2F412D"/>
<path d="M188.223 75.9915C184.418 76.4418 180.947 78.3867 178.575 81.3982C176.202 84.4097 175.122 88.2411 175.572 92.0497C176.022 95.8583 177.965 99.332 180.974 101.707C183.983 104.081 187.811 105.162 191.616 104.712C192.8 104.574 193.96 104.28 195.067 103.839C195.229 103.793 195.379 103.712 195.507 103.602C195.634 103.493 195.737 103.357 195.807 103.203C195.877 103.05 195.913 102.884 195.912 102.715C195.912 102.547 195.875 102.381 195.804 102.228C195.778 102.089 195.72 101.957 195.636 101.843C195.552 101.729 195.444 101.635 195.319 101.568C195.145 101.491 194.957 101.451 194.767 101.451C194.576 101.451 194.388 101.491 194.214 101.568C193.287 101.923 192.315 102.146 191.325 102.228C188.992 102.507 186.628 102.087 184.533 101.021C182.438 99.9552 180.706 98.2918 179.555 96.2409C178.404 94.1901 177.887 91.8438 178.068 89.4986C178.249 87.1535 179.121 84.9147 180.573 83.0654C182.025 81.216 183.993 79.8391 186.227 79.1086C188.46 78.3781 190.86 78.3268 193.123 78.9612C195.386 79.5956 197.411 80.8873 198.94 82.6729C200.47 84.4586 201.436 86.658 201.718 88.9933C201.963 90.871 201.73 92.7803 201.039 94.5433C200.695 95.4851 200 96.257 199.1 96.6974H198.809C198.441 96.6974 198.344 96.6974 198.325 96.6974C198.184 96.4568 198.068 96.2033 197.976 95.9406C197.646 94.5433 197.297 90.1188 197.297 90.1188V89.5949C197.04 88.1537 196.366 86.8194 195.36 85.7572C194.353 84.6949 193.057 83.9512 191.633 83.618C190.209 83.2847 188.718 83.3766 187.345 83.8821C185.973 84.3877 184.778 85.2848 183.909 86.4626C183.04 87.6404 182.535 89.0472 182.457 90.5092C182.378 91.9711 182.729 93.424 183.466 94.6884C184.204 95.9528 185.295 96.9731 186.606 97.6233C187.917 98.2735 189.389 98.5251 190.841 98.3469C192.669 98.127 194.339 97.2008 195.494 95.7659V96.4257C195.607 97.1537 195.939 97.8303 196.444 98.3663C196.78 98.7219 197.197 98.9907 197.66 99.1495C198.122 99.3084 198.617 99.3526 199.1 99.2783C199.39 99.2426 199.676 99.1775 199.953 99.0843C201.461 98.38 202.656 97.1429 203.307 95.6107C204.093 93.4587 204.346 91.1481 204.044 88.8769C203.648 85.0706 201.76 81.5769 198.794 79.1615C195.829 76.7461 192.027 75.6062 188.223 75.9915ZM190.492 95.5524C189.83 95.608 189.163 95.5311 188.532 95.3262C187.9 95.1213 187.315 94.7924 186.811 94.3589C186.308 93.9253 185.896 93.3958 185.599 92.8011C185.302 92.2064 185.126 91.5584 185.082 90.8951C184.869 89.5677 185.191 88.2099 185.975 87.1189C186.76 86.0279 187.945 85.2924 189.27 85.0734C190.609 84.9918 191.928 85.4338 192.948 86.3062C193.968 87.1787 194.61 88.4134 194.738 89.7501C194.938 91.0824 194.605 92.4401 193.809 93.5271C193.014 94.614 191.821 95.3421 190.492 95.5524Z" fill="white"/>
<path d="M201.989 828.295C203.404 824.258 277.255 730.703 282.199 728.976C282.781 728.743 314.423 752.263 314.423 752.263C315.722 754.049 377.067 742.405 377.067 742.405L376.136 816.147L264.924 811.451C264.924 811.451 249.723 819.989 235.841 826.975C229.925 830.137 223.827 832.942 217.577 835.378C211.916 836.678 200.535 832.292 201.989 828.295Z" fill="#C68571"/>
<path d="M217.5 835.456C223.759 833.036 229.859 830.223 235.764 827.034C249.646 820.106 264.847 811.509 264.847 811.509L289.606 812.557L329.663 750.769C321.132 752.089 314.753 752.865 314.346 752.283C314.346 752.283 282.704 728.744 282.141 728.996C277.178 730.723 203.327 824.278 201.912 828.295C200.497 832.312 211.916 836.698 217.5 835.456Z" fill="white"/>
<path d="M201.33 828.391C202.823 824.258 276.945 730.761 282.083 728.995C284.022 728.316 299.533 738.349 314.423 752.282L266.534 812.44C266.534 812.44 223.045 834.349 217.268 835.727C211.49 837.105 199.818 832.525 201.33 828.391Z" fill="#ED4B02"/>
<path d="M206.119 830.022C218.935 814.672 269.19 751.467 280.707 735.302C280.707 735.167 280.707 735.108 280.61 735.302C267.561 750.264 217.83 813.857 205.867 829.905C205.615 830.158 205.848 830.352 206.119 830.022Z" fill="#263238"/>
<path d="M225.392 832.428C226.822 830.722 227.883 828.737 228.507 826.599C229.131 824.461 229.305 822.217 229.017 820.009C228.523 816.035 226.524 812.402 223.433 809.859C223.337 809.859 223.201 809.976 223.278 810.053C225.965 813.046 227.607 816.831 227.956 820.839C228.306 824.847 227.345 828.86 225.217 832.273C225.12 832.409 225.392 832.545 225.392 832.428Z" fill="#263238"/>
<path d="M261.066 816.187C266.127 809.978 269.694 800.954 267.658 792.901C267.658 792.59 267.135 792.707 267.077 792.901C265.639 800.717 263.364 808.355 260.291 815.683C260.274 815.78 260.287 815.88 260.326 815.97C260.366 816.06 260.431 816.136 260.513 816.19C260.595 816.243 260.692 816.272 260.79 816.271C260.888 816.271 260.984 816.242 261.066 816.187Z" fill="#263238"/>
<path d="M255.327 819.523C260.407 813.314 263.955 804.29 261.919 796.237C261.919 795.926 261.415 796.043 261.357 796.237C259.884 804.055 257.576 811.693 254.474 819.019C254.434 819.129 254.434 819.251 254.473 819.361C254.513 819.472 254.59 819.566 254.691 819.625C254.793 819.685 254.912 819.708 255.028 819.689C255.144 819.671 255.25 819.612 255.327 819.523Z" fill="#263238"/>
<path d="M249.608 822.86C254.668 816.67 258.236 807.626 256.2 799.67C256.2 799.36 255.676 799.476 255.618 799.67C254.15 807.438 251.849 815.024 248.755 822.297C248.68 822.41 248.654 822.549 248.681 822.681C248.708 822.814 248.787 822.931 248.9 823.005C249.013 823.08 249.151 823.107 249.284 823.079C249.417 823.052 249.533 822.973 249.608 822.86Z" fill="#263238"/>
<path d="M243.869 826.219C248.949 820.009 252.497 810.985 250.461 802.932C250.461 802.621 249.957 802.738 249.899 802.932C248.433 810.765 246.125 818.417 243.016 825.753C242.991 825.861 243.001 825.973 243.046 826.074C243.092 826.175 243.168 826.258 243.265 826.311C243.362 826.364 243.473 826.383 243.582 826.367C243.692 826.35 243.792 826.298 243.869 826.219Z" fill="#263238"/>
<path d="M292.398 751.117C297.962 744.054 287.027 735.399 281.443 742.462C275.859 749.526 286.833 758.181 292.398 751.117Z" fill="#263238"/>
<path d="M272.409 836.251C277.566 835.164 278.225 829.129 276.984 824.995C274.838 817.945 270.872 811.586 265.487 806.56C265.467 806.532 265.441 806.509 265.411 806.493C265.38 806.477 265.347 806.469 265.312 806.469C265.278 806.469 265.244 806.477 265.214 806.493C265.184 806.509 265.158 806.532 265.138 806.56C265.001 806.49 264.85 806.455 264.697 806.455C264.544 806.456 264.393 806.492 264.257 806.562C264.121 806.632 264.003 806.734 263.914 806.858C263.824 806.982 263.765 807.126 263.742 807.278C263.296 814.206 261.939 821.541 263.626 828.391C264.595 832.447 267.542 837.279 272.409 836.251ZM265.196 817.99C265.332 814.574 265.642 811.198 265.661 807.782C268.002 811.313 270.163 814.96 272.137 818.708C273.071 820.533 273.881 822.42 274.561 824.355C275.549 827.363 275.898 837.687 268.589 832.893C264.556 830.235 265.022 822.026 265.196 817.99Z" fill="#263238"/>
<path d="M275.51 789.134C270.353 793.928 267.425 800.778 264.013 806.813C263.947 806.952 263.916 807.104 263.92 807.257C263.925 807.411 263.966 807.561 264.04 807.695C264.113 807.83 264.218 807.945 264.345 808.031C264.472 808.117 264.617 808.172 264.769 808.191C264.766 808.224 264.77 808.258 264.781 808.289C264.793 808.32 264.812 808.348 264.837 808.371C264.861 808.394 264.891 808.41 264.923 808.419C264.955 808.428 264.988 808.43 265.021 808.424C272.285 807.195 279.099 804.077 284.778 799.381C288.035 796.586 290.847 791.211 287.144 787.466C283.44 783.72 278.535 786.321 275.51 789.134ZM282.083 788.184C290.827 788.184 284.856 796.625 282.374 798.585C280.747 799.832 279.037 800.967 277.255 801.981C273.546 804.019 269.734 805.865 265.836 807.512C267.774 804.659 269.306 801.69 271.07 798.74C273.164 795.267 277.275 788.164 282.083 788.184Z" fill="#263238"/>
<path d="M380.674 724.842L430.909 720.96C430.909 720.96 503.345 699.944 545.301 710.947C593.307 723.561 600.074 779.682 551.273 802.154C502.996 824.412 290.479 816.204 290.479 816.204L336.041 748.672C336.041 748.672 406.014 732.235 467.263 735.573L380.538 745.567L380.674 724.842Z" fill="#2F412D"/>
<path d="M381.178 739.184C388.642 737.962 396.185 737.341 403.727 736.642C411.269 735.944 418.927 735.4 426.528 734.915C441.709 733.964 456.948 733.654 472.149 734.217L476.414 734.45C476.726 734.358 477.043 734.287 477.364 734.236C478.082 734.081 478.818 733.906 479.555 733.77C480.932 733.537 482.328 733.382 483.704 733.188C486.593 732.8 489.521 732.567 492.351 732.082C492.387 732.082 492.422 732.096 492.447 732.122C492.473 732.147 492.487 732.182 492.487 732.218C492.487 732.254 492.473 732.288 492.447 732.314C492.422 732.339 492.387 732.354 492.351 732.354C489.463 732.936 486.535 733.712 483.724 734.294L481.222 734.779C486.787 735.187 492.351 735.73 497.897 736.351C498.071 736.351 498.071 736.642 497.897 736.623C490.335 736.021 482.715 735.808 475.134 735.789C467.554 735.769 460.07 735.788 452.547 736.041C437.308 736.584 422.088 737.632 406.906 738.913C398.395 739.631 389.845 740.504 381.294 740.679C380.499 740.679 380.344 739.32 381.178 739.184Z" fill="#263238"/>
<path d="M312.078 814.652C314.869 810.364 317.293 805.765 319.833 801.321L327.588 787.969C332.765 779.101 351.339 749.274 353.162 747.217C353.278 747.082 353.511 747.217 353.453 747.392C352.541 749.721 340.928 769.476 338.271 773.881C332.92 782.691 327.317 791.346 321.791 800.001C320.221 802.485 318.592 804.93 316.983 807.414C315.374 809.898 313.706 812.304 312.213 814.827C312.213 814.963 311.961 814.808 312.078 814.652Z" fill="#263238"/>
<path d="M561.568 841.898C560.347 837.804 490.994 740.853 486.128 738.873C485.585 738.621 452.838 760.666 452.838 760.666C451.48 762.393 390.794 747.858 390.794 747.858L388.216 821.6L499.525 822.201C499.525 822.201 514.318 831.438 527.871 839.007C533.623 842.464 539.588 845.556 545.728 848.263C551.254 849.816 562.751 845.973 561.568 841.898Z" fill="#C68571"/>
<path d="M545.728 848.223C539.593 845.518 533.635 842.426 527.89 838.967C514.318 831.398 499.544 822.142 499.544 822.142L474.785 822.025L437.676 758.394C446.149 760.14 452.469 761.208 452.915 760.645C452.915 760.645 485.624 738.619 486.186 738.891C491.052 740.832 560.386 837.86 561.626 841.897C562.867 845.933 551.254 849.814 545.728 848.223Z" fill="white"/>
<path d="M562.227 842.034C560.928 837.843 491.246 740.931 486.263 738.912C484.324 738.136 468.406 747.432 452.837 760.666L497.838 823.075C497.838 823.075 540.241 847.099 545.941 848.652C551.641 850.204 563.526 846.245 562.227 842.034Z" fill="#ED4B02"/>
<path d="M557.361 843.431C545.282 827.48 498.071 761.927 487.33 745.277C487.33 745.141 487.33 745.083 487.446 745.277C499.758 760.802 546.426 826.781 557.613 843.295C557.845 843.586 557.613 843.78 557.361 843.431Z" fill="#263238"/>
<path d="M537.992 844.925C536.643 843.154 535.677 841.122 535.156 838.956C534.635 836.791 534.571 834.541 534.967 832.35C535.635 828.4 537.802 824.861 541.017 822.473C541.017 822.473 541.249 822.589 541.152 822.667C538.336 825.534 536.525 829.238 535.99 833.224C535.455 837.209 536.226 841.26 538.186 844.77C538.263 844.906 538.089 845.042 537.992 844.925Z" fill="#263238"/>
<path d="M503.131 826.994C498.362 820.571 495.24 811.373 497.644 803.513C497.741 803.203 498.168 803.339 498.207 803.513C499.326 811.338 501.276 819.021 504.023 826.432C504.098 826.55 504.122 826.693 504.091 826.83C504.06 826.966 503.977 827.085 503.858 827.159C503.74 827.234 503.597 827.258 503.461 827.228C503.324 827.197 503.206 827.113 503.131 826.994Z" fill="#263238"/>
<path d="M508.696 830.604C503.927 824.181 500.805 814.983 503.209 807.124C503.209 806.813 503.733 806.949 503.771 807.221C504.893 815.051 506.843 822.74 509.588 830.158C509.625 830.273 509.621 830.398 509.574 830.509C509.527 830.621 509.442 830.712 509.334 830.766C509.226 830.82 509.102 830.833 508.985 830.804C508.868 830.774 508.766 830.703 508.696 830.604Z" fill="#263238"/>
<path d="M514.28 834.233C509.51 827.791 506.389 818.592 508.793 810.733C508.793 810.422 509.316 810.558 509.355 810.83C510.477 818.66 512.427 826.349 515.172 833.768C515.223 833.885 515.228 834.017 515.186 834.138C515.143 834.259 515.057 834.359 514.943 834.418C514.83 834.477 514.698 834.491 514.575 834.457C514.452 834.422 514.346 834.343 514.28 834.233Z" fill="#263238"/>
<path d="M519.825 837.843C515.055 831.4 511.934 822.202 514.338 814.342C514.435 814.032 514.861 814.168 514.9 814.439C516.022 822.27 517.972 829.959 520.717 837.377C520.768 837.494 520.773 837.626 520.731 837.747C520.688 837.868 520.602 837.968 520.488 838.027C520.375 838.087 520.243 838.1 520.12 838.066C519.997 838.032 519.891 837.952 519.825 837.843Z" fill="#263238"/>
<path d="M474.902 760.53C469.667 753.214 481.009 745.006 486.244 752.399C491.479 759.793 480.137 767.846 474.902 760.53Z" fill="#263238"/>
<path d="M499.99 839.143C501.929 832.37 500.999 824.976 500.863 818.048C500.848 817.895 500.798 817.748 500.715 817.618C500.633 817.489 500.52 817.381 500.388 817.303C500.255 817.225 500.106 817.18 499.953 817.171C499.799 817.163 499.646 817.191 499.506 817.253C499.486 817.228 499.461 817.209 499.432 817.195C499.404 817.182 499.372 817.175 499.341 817.175C499.309 817.175 499.278 817.182 499.25 817.195C499.221 817.209 499.196 817.228 499.176 817.253C493.561 822.024 489.295 828.187 486.806 835.126C485.43 839.201 485.759 845.255 490.839 846.594C495.919 847.933 498.769 843.082 499.99 839.143ZM494.891 843.315C487.349 847.759 488.202 837.493 489.327 834.505C490.085 832.599 490.979 830.751 492.002 828.974C494.058 825.248 496.597 821.871 498.982 818.378C498.847 821.794 498.982 825.19 498.982 828.586C498.885 832.661 498.982 840.87 494.891 843.315Z" fill="#263238"/>
<path d="M478.431 797.072C474.553 800.642 477.112 806.154 480.234 809.084C485.703 814.063 492.393 817.505 499.622 819.058C499.654 819.069 499.687 819.071 499.72 819.064C499.752 819.058 499.782 819.043 499.808 819.022C499.833 819.001 499.852 818.973 499.864 818.942C499.876 818.911 499.879 818.878 499.874 818.845C500.028 818.835 500.177 818.789 500.309 818.709C500.442 818.63 500.553 818.521 500.635 818.39C500.716 818.259 500.765 818.11 500.778 817.957C500.791 817.803 500.767 817.648 500.708 817.506C497.567 811.335 494.988 804.329 490.044 799.284C487.136 796.354 482.095 793.714 478.431 797.072ZM493.941 809.103C495.551 812.111 497.024 815.177 498.75 818.127C494.988 816.186 491.169 814.382 487.601 812.053C485.871 810.951 484.213 809.739 482.638 808.424C480.253 806.328 474.688 797.654 483.433 798.023C488.26 798.236 492.041 805.533 493.961 809.103H493.941Z" fill="#263238"/>
<path d="M387.984 725.154L338.058 723.834C338.058 723.834 286.504 697.307 244.16 706.369C195.689 716.693 187.933 777.161 223.337 799.517C268.279 827.868 471.625 828.024 471.625 828.024L429.669 752.341C429.669 752.341 362.449 736.312 301.104 736.817L387.266 750.905L387.984 725.154Z" fill="#2F412D"/>
<path d="M432.499 757.213C432.481 757.084 432.481 756.954 432.499 756.825V756.514L432.325 755.777C432.196 755.277 432.041 754.785 431.859 754.302C431.685 753.817 431.491 753.351 431.278 752.866C431.046 752.401 430.78 751.953 430.483 751.527C430.483 751.527 430.483 751.527 430.367 751.527H430.25H430.134C422.747 749.955 372.434 741.378 364.95 740.31C357.466 739.243 349.827 738.37 342.246 737.497C327.142 735.828 311.922 734.799 296.702 734.644H292.437L291.506 734.392L289.335 733.829C287.958 733.538 286.582 733.305 285.205 733.053C282.355 732.529 279.388 732.16 276.616 731.539C276.461 731.539 276.383 731.772 276.616 731.811C279.466 732.529 282.277 733.441 285.127 734.139L287.609 734.722C282.025 734.877 276.461 735.168 270.877 735.517C270.841 735.517 270.806 735.532 270.781 735.557C270.756 735.582 270.741 735.617 270.741 735.653C270.741 735.689 270.756 735.724 270.781 735.749C270.806 735.775 270.841 735.789 270.877 735.789C278.458 735.556 286.078 735.789 293.658 736.022C301.239 736.255 308.704 736.72 316.207 737.341C331.388 738.622 346.55 740.388 361.654 742.387C370.127 743.493 421.428 752.381 429.959 752.982H430.056C430.056 753.176 430.192 753.371 430.289 753.565C430.386 753.759 430.735 754.496 430.968 754.962C431.2 755.428 431.433 755.854 431.685 756.281L432.092 756.902L432.305 757.213C432.383 757.318 432.454 757.429 432.519 757.543C432.305 757.504 432.596 757.388 432.499 757.213Z" fill="#263238"/>
<path d="M455.921 823.075C453.323 818.631 451.132 813.935 448.766 809.375L441.612 795.655C436.862 786.554 419.703 755.873 417.997 753.719C417.88 753.584 417.648 753.719 417.706 753.894C418.481 756.242 429.165 776.54 431.607 781.062C436.532 790.124 441.728 798.993 446.827 807.939C448.282 810.5 449.794 813.023 451.287 815.565C452.78 818.107 454.331 820.611 455.688 823.211C455.766 823.366 456.115 823.231 455.921 823.075Z" fill="#263238"/>
<path d="M292.068 517.784L299.824 575.205C300.231 576.913 299.242 578.135 297.652 577.961L268.88 574.662C268.008 574.491 267.203 574.079 266.555 573.471C265.907 572.864 265.443 572.086 265.215 571.227L257.576 513.805C257.169 512.098 258.139 510.875 259.748 511.05L288.52 514.349C289.372 514.535 290.155 514.955 290.782 515.561C291.409 516.168 291.854 516.938 292.068 517.784Z" fill="#2F412D"/>
<path d="M288.656 517.357L296.411 574.779C296.819 576.487 295.849 577.729 294.24 577.535L265.467 574.236C264.596 574.065 263.79 573.652 263.142 573.045C262.494 572.437 262.03 571.66 261.803 570.801L254.067 513.321C253.66 511.613 254.629 510.391 256.239 510.565L285.011 513.884C285.887 514.052 286.697 514.469 287.343 515.085C287.989 515.701 288.445 516.49 288.656 517.357Z" fill="#25921C"/>
<path d="M280.474 519.007C280.43 519.493 280.531 519.98 280.764 520.409C280.996 520.837 281.351 521.186 281.782 521.412C282.213 521.639 282.702 521.732 283.186 521.681C283.67 521.63 284.128 521.436 284.503 521.123C284.877 520.811 285.15 520.395 285.288 519.928C285.426 519.46 285.422 518.963 285.277 518.497C285.132 518.032 284.853 517.62 284.474 517.314C284.095 517.007 283.635 516.82 283.15 516.776C282.827 516.746 282.503 516.781 282.194 516.877C281.885 516.973 281.598 517.13 281.35 517.337C281.101 517.544 280.896 517.798 280.746 518.085C280.596 518.372 280.503 518.685 280.474 519.007Z" fill="#263238"/>
<path d="M375.4 609.088C355.43 642.078 313.589 683.024 298.563 684.479C291.351 685.178 278.38 685.469 269.791 676.193C251.081 655.933 237.509 619.528 236.074 599.366C235.57 592.186 271.4 580.562 275.84 586.83C286.252 601.52 297.167 629.309 299.339 629.367C307.094 629.6 336.313 609.301 360.102 594.941C388.254 577.981 383.368 595.931 375.4 609.088Z" fill="#C68571"/>
<path d="M239.08 562.904C244.218 548.99 247.669 546.215 245.769 532.165C244.508 522.948 249.86 518.213 255.463 526.091C264.614 538.977 261.764 558.305 258.836 564.728L239.08 562.904Z" fill="#C68571"/>
<path d="M237.024 605.672C237.024 605.672 232.759 585.083 236.753 569.714C239.525 559.099 248.134 536.724 279.621 527.661C287.085 525.527 299.222 527.797 288.307 535.715C280.551 541.342 273.901 542.546 269.985 546.64C269.985 546.64 285.108 551.356 286.95 558.924C288.553 565.55 289.687 572.281 290.343 579.067C289.128 579.462 287.892 579.786 286.639 580.037C286.639 580.037 288.152 587.179 281.986 596.435L237.024 605.672Z" fill="#C68571"/>
<path d="M241.096 560.012C245.846 556.771 256.025 550.057 266.301 547.495C277.682 544.623 300.347 542.178 302.383 550.6C303.857 556.771 295.287 558.479 295.287 558.479C295.287 558.479 304.865 559.43 304.981 565.31C305.078 570.666 298.37 571.578 298.37 571.578C298.37 571.578 304.186 573.169 303.197 578.331C302.131 584.56 290.343 580.271 283.809 585.589C282.335 586.792 241.096 560.012 241.096 560.012Z" fill="#C68571"/>
<path d="M267.29 560.009C276.162 556.628 285.852 556.026 295.074 558.282C295.307 558.282 295.384 558.573 295.171 558.554C285.854 557.943 276.498 558.471 267.31 560.126C267.31 560.126 267.232 560.048 267.29 560.009Z" fill="#263238"/>
<path d="M270.508 571.422C275.006 569.87 288.132 568.026 298.35 571.422C298.583 571.422 298.641 571.713 298.35 571.674C289.08 570.622 279.72 570.622 270.45 571.674L270.508 571.422Z" fill="#263238"/>
<path d="M350.214 645.279L307.947 624.418C307.947 624.418 348.295 597.949 367.082 590.07C386.645 581.861 393.198 586.344 377.183 609.476C361.169 632.607 350.214 645.279 350.214 645.279Z" fill="#ED4B02"/>
<path opacity="0.1" d="M377.184 609.438C361.091 632.725 350.214 645.261 350.214 645.261L331.466 636.005L383.563 586.637C388.255 588.267 386.897 595.428 377.184 609.438Z" fill="black"/>
<path d="M328.15 724.649C329.876 726.686 445.644 725.347 446.284 724.649C447.99 722.708 427.749 622.788 407.41 592.302C400.547 582.017 378.715 579.921 371.096 589.896C349.245 618.538 326.657 722.902 328.15 724.649Z" fill="#ED4B02"/>
<path d="M419.644 597.948C467.631 638.7 509.975 693.036 504.818 709.356C499.37 726.647 463.462 744.287 432.557 746.402C426.217 746.848 409.543 699.576 416.096 697.888C421.215 696.529 444.404 691.406 447.312 688.457C449.251 686.38 415.437 639.088 405.472 612.386C395.06 584.423 406.79 587.062 419.644 597.948Z" fill="#C68571"/>
<path d="M429.125 697.229C429.125 697.229 409.853 698.005 397.251 699.169C390.232 699.79 378.289 701.925 373.345 704.739C365.938 708.95 337.631 731.305 342.905 738.272C347.674 744.598 355.973 735.535 355.973 735.535C355.973 735.535 345.968 744.598 352.618 749.41C359.269 754.223 369.002 741.415 369.002 741.415C369.002 741.415 357.718 750.284 365.318 754.728C371.91 758.609 384.706 745.025 384.706 745.025C384.706 745.025 371.832 753.02 378.192 757.658C385.23 762.781 406.887 744.792 406.887 744.792C423.192 747.625 433.371 747.101 445.121 744.54C447.215 744.016 429.125 697.229 429.125 697.229Z" fill="#C68571"/>
<path d="M365.939 744.384C366.734 743.414 367.567 742.444 368.362 741.474C369.902 739.554 371.553 737.727 373.306 736.001C375.032 734.332 376.835 732.76 378.696 731.247C380.558 729.733 382.787 728.22 384.707 726.57C384.862 726.434 385.036 726.57 384.881 726.784C382.968 728.398 381.149 730.121 379.433 731.945C377.688 733.673 375.963 735.419 374.256 737.166C372.55 738.912 370.786 740.465 369.06 742.133C368.188 742.948 367.373 743.822 366.54 744.695C365.803 745.559 364.999 746.363 364.136 747.101C364.039 747.101 363.942 747.101 363.98 746.965C364.537 746.036 365.194 745.171 365.939 744.384Z" fill="#263238"/>
<path d="M353.937 737.418C356.664 733.747 359.644 730.271 362.856 727.017C366.111 723.792 369.684 720.905 373.52 718.4C373.655 718.4 373.81 718.497 373.694 718.614C370.456 721.855 367.141 725.037 363.845 728.22C362.235 729.772 355.12 737.069 354.286 737.748C354.073 737.903 353.821 737.612 353.937 737.418Z" fill="#263238"/>
<path d="M377.048 751.254C379.684 747.831 382.548 744.589 385.618 741.551C389.02 738.771 392.623 736.248 396.398 734.002C396.534 734.002 396.708 734.118 396.573 734.215C393.18 736.99 389.767 739.707 386.51 742.657C384.92 744.093 378.929 750.167 377.3 751.409C377.274 751.422 377.244 751.428 377.215 751.427C377.185 751.426 377.157 751.417 377.131 751.401C377.106 751.386 377.085 751.364 377.071 751.338C377.056 751.312 377.049 751.283 377.048 751.254Z" fill="#263238"/>
<path d="M423.154 652.887L468.775 641.011C468.775 641.011 434.593 606.915 417.803 595.408C400.353 583.395 392.966 586.481 403.979 612.349C414.992 638.217 423.154 652.887 423.154 652.887Z" fill="#ED4B02"/>
<path d="M407.352 625.059C407.352 625.059 407.352 624.884 407.488 624.962C408.705 626.331 409.808 627.797 410.784 629.348C410.454 628.572 410.086 627.815 409.737 627.058C408.651 624.574 407.585 622.071 406.479 619.606C406.479 619.606 406.48 619.451 406.615 619.606C408.845 623.798 411.23 627.892 413.324 632.142C415.418 636.392 417.512 640.623 419.528 644.911C420.652 647.259 421.855 650.267 422.96 652.673C424.336 652.518 426.004 652.033 427.477 651.839C427.613 651.839 427.613 652.033 427.477 652.052C425.965 652.46 424.259 653.217 422.63 653.489C422.436 653.489 414.875 638.41 411.521 631.114C410.086 629.037 408.67 627.077 407.352 625.059Z" fill="#263238"/>
<path d="M377.824 608.292C384.358 610.233 396.281 600.724 401.226 592.768C401.555 592.224 401.032 586.247 400.721 578.951C400.547 574.526 400.469 569.597 400.721 565.095C400.721 564.163 372.104 570.393 372.104 570.393C373.401 576.121 373.993 581.986 373.868 587.858C373.834 588.474 373.737 589.086 373.578 589.682V589.993C372.744 593.466 371.522 606.468 377.824 608.292Z" fill="#C68571"/>
<path d="M398.977 565.115C397.251 572.664 391.493 590.808 376.408 590.343C375.438 590.325 374.471 590.222 373.519 590.032C373.508 589.929 373.508 589.825 373.519 589.722C373.665 589.122 373.769 588.512 373.83 587.898C373.944 582.025 373.345 576.16 372.046 570.432C372.046 570.432 392.792 565.891 398.977 565.115Z" fill="#263238"/>
<path d="M404.464 531.813C407.062 541.982 400.412 570.625 392.986 576.815C382.206 585.703 365.26 585.8 357.893 572.934C350.758 560.534 360.083 523.255 368.324 517.764C380.5 509.73 400.644 516.793 404.464 531.813Z" fill="#C68571"/>
<path d="M404.464 531.813C407.062 541.982 400.412 570.625 392.986 576.815C382.206 585.703 365.26 585.8 357.893 572.934C350.758 560.534 360.083 523.255 368.324 517.764C380.5 509.73 400.644 516.793 404.464 531.813Z" fill="#C68571"/>
<path d="M374.857 548.523C374.857 548.523 374.992 548.659 374.973 548.737C374.469 550.677 374.217 552.929 375.826 553.976C375.826 553.976 375.826 554.112 375.826 554.073C373.713 553.297 374.081 550.192 374.857 548.523Z" fill="#263238"/>
<path d="M377.048 546.892C380.208 547.358 378.987 553.665 376.098 553.238C373.209 552.811 374.392 546.504 377.048 546.892Z" fill="#263238"/>
<path d="M363.941 546.543C363.941 546.543 363.767 546.543 363.748 546.698C363.457 548.639 362.778 550.851 360.897 551.181V551.278C363.05 551.394 363.961 548.464 363.941 546.543Z" fill="#263238"/>
<path d="M362.565 544.196C359.482 543.361 358.067 549.61 360.936 550.386C363.806 551.162 365.163 544.875 362.565 544.196Z" fill="#263238"/>
<path d="M380.848 541.925C379.976 541.692 379.219 541.342 378.386 541.032C377.465 540.839 376.634 540.348 376.02 539.635C375.875 539.375 375.82 539.075 375.862 538.78C375.904 538.486 376.041 538.213 376.253 538.005C376.738 537.653 377.308 537.437 377.905 537.379C378.501 537.321 379.102 537.423 379.646 537.675C380.825 538.015 381.834 538.783 382.477 539.829C382.608 540.077 382.665 540.357 382.641 540.637C382.616 540.916 382.512 541.182 382.34 541.404C382.168 541.625 381.935 541.792 381.671 541.885C381.406 541.977 381.12 541.991 380.848 541.925Z" fill="#263238"/>
<path d="M360.607 540.877C361.489 540.878 362.369 540.82 363.244 540.703C364.175 540.768 365.103 540.522 365.88 540.004C366.095 539.797 366.233 539.523 366.272 539.226C366.31 538.93 366.248 538.63 366.094 538.374C365.728 537.901 365.241 537.536 364.684 537.317C364.128 537.099 363.523 537.035 362.933 537.132C361.706 537.142 360.525 537.605 359.618 538.432C359.421 538.632 359.286 538.885 359.231 539.16C359.176 539.435 359.203 539.72 359.308 539.981C359.414 540.241 359.593 540.464 359.823 540.624C360.054 540.783 360.326 540.871 360.607 540.877Z" fill="#263238"/>
<path d="M374.683 567.269C374.14 567.638 373.558 568.181 372.841 568.104C372.141 567.95 371.481 567.652 370.902 567.23C370.902 567.23 370.766 567.23 370.902 567.23C371.107 567.667 371.426 568.039 371.826 568.309C372.225 568.579 372.69 568.736 373.171 568.763C373.602 568.744 374.018 568.595 374.364 568.335C374.71 568.075 374.97 567.718 375.109 567.308C374.974 567.289 374.819 567.211 374.683 567.269Z" fill="#263238"/>
<path d="M373.791 561.04C373.15 561.718 372.378 562.258 371.521 562.625C370.664 562.992 369.74 563.179 368.808 563.174C367.988 563.18 367.172 563.069 366.384 562.844L365.938 562.708L365.531 562.553C365.431 562.515 365.346 562.445 365.29 562.354C365.234 562.263 365.21 562.155 365.221 562.049C365.212 561.984 365.212 561.919 365.221 561.855V561.68C365.454 560.186 366.035 557.915 366.035 557.915C365.434 558.09 362.39 558.827 362.584 558.051C364.02 551.307 366.138 544.727 368.905 538.413C368.905 538.218 369.312 538.413 369.254 538.529C367.955 544.778 365.589 550.735 364.193 556.984C365.269 556.708 366.379 556.584 367.489 556.615C367.703 556.731 366.326 560.962 366.268 561.661C367.475 562.015 368.741 562.123 369.99 561.976C371.24 561.829 372.446 561.431 373.539 560.807C373.791 560.748 373.926 560.904 373.791 561.04Z" fill="#263238"/>
<path d="M367.412 562.242C368.045 563.466 368.979 564.508 370.126 565.27C370.757 565.667 371.496 565.857 372.24 565.813C373.888 565.697 374.179 564.261 374.179 562.999C374.14 562.341 374.023 561.689 373.83 561.059C371.873 562.134 369.623 562.549 367.412 562.242Z" fill="#263238"/>
<path d="M370.126 565.27C370.756 565.668 371.495 565.858 372.239 565.813C373.887 565.697 374.178 564.261 374.178 562.999C373.345 562.855 372.487 563.002 371.75 563.415C371.012 563.829 370.438 564.483 370.126 565.27Z" fill="#FF97B8"/>
<path opacity="0.2" d="M403.3 553.025C401.458 552.268 398.453 544.719 397.135 541.692C395.816 538.664 397.968 524.653 398.55 521.51C401.467 524.247 403.557 527.751 404.58 531.62C405.704 536.239 405.084 544.603 403.3 553.025Z" fill="#263238"/>
<path d="M387.498 504.84C390.112 505.385 392.547 506.579 394.58 508.312C396.612 510.045 398.178 512.261 399.132 514.756C399.839 517.215 399.695 519.841 398.724 522.208C398.724 522.305 398.472 522.208 398.511 522.208C399.076 520.047 399.05 517.774 398.436 515.627C397.822 513.479 396.643 511.537 395.021 510.002C393.266 508.244 391.126 506.918 388.77 506.13C386.415 505.342 383.908 505.113 381.449 505.461C379.063 505.75 376.858 506.878 375.226 508.644C375.07 508.818 374.683 508.644 374.818 508.411C377.106 505.092 382.322 503.618 387.498 504.84Z" fill="#263238"/>
<path d="M351.61 510.411C353.134 507.772 355.536 505.752 358.396 504.706C362.371 503.25 366.287 504.395 370.146 505.618C370.262 505.618 370.146 505.812 370.146 505.773C366.933 504.489 363.415 504.172 360.025 504.861C357.197 505.621 354.723 507.344 353.026 509.732C351.359 512.197 350.638 515.182 350.994 518.138C351.35 521.093 352.76 523.821 354.965 525.819C356.26 526.941 357.771 527.787 359.405 528.304C361.038 528.822 362.76 528.999 364.465 528.827C364.601 528.827 364.659 529.002 364.465 529.021C362.14 529.357 359.768 529.038 357.615 528.098C355.461 527.158 353.613 525.636 352.277 523.702C350.941 521.768 350.171 519.499 350.053 517.151C349.936 514.803 350.475 512.469 351.61 510.411Z" fill="#263238"/>
<path d="M405.297 537.714C405.297 537.714 412.82 528.535 409.466 521.665C407.527 517.784 398.899 516.484 398.899 516.484C398.109 514.569 396.948 512.828 395.484 511.363C394.02 509.898 392.282 508.736 390.368 507.945C383.524 504.86 374.14 507.324 374.14 507.324C374.14 507.324 368.11 502.046 360.995 504.414C351.068 507.713 349.459 521.51 357.544 527.7C363.205 532.047 372.88 528.186 372.88 528.186C373.675 528.457 381.062 535.23 388.933 529.001C388.933 529.001 393.18 534.648 398.453 532.358C398.913 533.842 399.815 535.15 401.038 536.108C402.261 537.065 403.747 537.625 405.297 537.714Z" fill="#263238"/>
<path d="M397.173 555.121C397.173 555.121 404.347 546.214 408.419 548.834C412.49 551.454 406.693 564.688 401.574 566.202C400.934 566.443 400.251 566.551 399.568 566.52C398.885 566.489 398.215 566.319 397.598 566.022C396.982 565.724 396.433 565.305 395.983 564.789C395.534 564.273 395.193 563.671 394.982 563.019L397.173 555.121Z" fill="#C68571"/>
<path d="M406.654 552.578V552.714C403.068 553.898 401.012 557.022 399.5 560.282C399.737 559.952 400.042 559.676 400.395 559.474C400.747 559.272 401.139 559.149 401.544 559.112C401.949 559.075 402.357 559.126 402.74 559.261C403.123 559.396 403.473 559.612 403.766 559.894C403.766 559.894 403.766 560.108 403.649 560.088C403.051 559.848 402.393 559.801 401.767 559.954C401.141 560.107 400.579 560.452 400.159 560.942C399.45 561.758 398.832 562.65 398.317 563.601C398.143 563.911 397.581 563.698 397.736 563.348C397.949 558.71 401.827 552.714 406.654 552.578Z" fill="#263238"/>
<path d="M404.599 594.94C401.447 598.72 398.081 602.315 394.517 605.71C391.249 609.057 386.983 611.25 382.361 611.959C377.882 612.328 373.423 611.357 371.814 605.865C370.69 601.139 370.624 596.222 371.62 591.466C371.629 591.44 371.632 591.412 371.628 591.384C371.624 591.357 371.613 591.331 371.597 591.308C371.581 591.285 371.56 591.267 371.535 591.254C371.51 591.241 371.483 591.234 371.455 591.234C371.427 591.234 371.4 591.241 371.375 591.254C371.35 591.267 371.329 591.285 371.313 591.308C371.296 591.331 371.286 591.357 371.282 591.384C371.278 591.412 371.281 591.44 371.29 591.466C370.204 598.627 369.022 609.747 375.517 612.289C382.787 615.122 389.961 611.435 395.138 606.467C398.741 603.044 401.959 599.237 404.735 595.115C404.735 595.115 404.677 594.824 404.599 594.94Z" fill="#263238"/>
<path d="M388.037 466.008C396.964 466.999 406 467.006 414.996 466.999C423.997 467.006 433.033 466.999 441.957 466.008C445.727 465.589 448.859 462.772 449.741 458.957C450.996 453.527 451 447.593 451 442C451 436.406 451.011 430.476 449.755 425.045C448.874 421.227 445.742 418.414 441.971 417.994C433.044 417 424.007 416.997 415.011 417C406.014 416.997 396.975 417 388.047 417.994C384.281 418.414 381.148 421.227 380.27 425.045C379.015 430.476 379 436.406 379 442C379 447.593 379 453.527 380.256 458.957C381.134 462.772 384.266 465.589 388.037 466.008ZM405.71 429.413C413.338 433.379 420.919 437.317 428.598 441.309C420.941 445.265 413.36 449.184 405.71 453.136V429.413Z" fill="white"/>
</g>
<defs>
<clipPath id="clip0_971_276">
<rect width="792" height="849" fill="white"/>
</clipPath>
</defs>
</svg>
