<svg width="20" height="20" fill="none" xmlns="http://www.w3.org/2000/svg"><path fill-rule="evenodd" clip-rule="evenodd" d="M0 0v20h20V0H0zm14.993 11.065c.46.448.945.87 1.357 1.365.182.219.354.444.486.698.186.363.017.761-.307.783h-2.017c-.52.042-.935-.168-1.285-.524-.278-.284-.538-.587-.807-.88a1.9 1.9 0 00-.362-.324c-.275-.178-.514-.124-.672.163-.16.292-.197.617-.212.942-.022.475-.165.6-.642.622-1.02.047-1.988-.108-2.886-.621-.794-.453-1.408-1.094-1.943-1.818-1.041-1.412-1.84-2.962-2.556-4.557-.162-.36-.043-.552.352-.559a55.198 55.198 0 011.975 0c.268.004.446.157.548.41.356.874.792 1.707 1.338 2.48.147.205.295.41.506.555.234.161.412.108.522-.153.07-.166.101-.343.116-.52a7.795 7.795 0 00-.032-1.824c-.056-.379-.27-.624-.648-.695-.193-.037-.164-.108-.07-.218.162-.19.315-.308.619-.308h2.279c.359.07.44.232.488.593l.002 2.533c-.004.14.07.554.321.646.202.067.335-.095.456-.223.546-.579.935-1.264 1.283-1.972.154-.312.287-.636.417-.96.095-.24.244-.357.514-.353l2.195.003c.064 0 .13 0 .195.01.369.064.47.223.355.585-.179.566-.53 1.038-.872 1.511-.366.507-.756.996-1.12 1.505-.333.466-.306.7.107 1.105z" fill="#0082FA"/></svg>