<svg width="20" height="20" fill="none" xmlns="http://www.w3.org/2000/svg"><path d="M0 0v20h20V0H0zm11.66 10.841c-.343 2.247-2.018 3.535-4.187 3.535a4.413 4.413 0 010-8.825c1.18 0 2.212.42 2.964 1.151L9.171 7.968c-.43-.432-1.016-.662-1.698-.662-1.434 0-2.597 1.223-2.597 2.657 0 1.435 1.163 2.623 2.597 2.623 1.203 0 2.113-.581 2.376-1.745H7.473V9.07h4.175c.05.286.076.585.076.894 0 .307-.022.6-.065.878zm5.298-.55h-1.546v1.546h-1.098v-1.545h-1.546V9.193h1.546V7.647h1.098v1.546h1.546v1.099z" fill="#DD4B39"/></svg>