<svg width="150" height="150" fill="none" xmlns="http://www.w3.org/2000/svg"><g clip-path="url(#clip0)"><path d="M143.762 18.55H59.359V50.9c0 19.039 84.403 19.039 84.403 0V18.55z" fill="url(#paint0_linear)"/><path d="M143.762 18.552c0 19.038-84.403 19.038-84.403 0s84.403-19.038 84.403 0z" fill="url(#paint1_linear)"/><path d="M126.109 17.017c0-3.094-5.767-5.128-13.348-6.1-14.538-1.868-31.247.166-31.247 6.1 0 3.327 2.164 5.428 10.585 6.303 14.431 1.5 34.01-.602 34.01-6.303z" fill="url(#paint2_linear)"/><path d="M114.995 22.792c-5.915-1.414-10.214-5.681-10.214-10.725 0-.6.062-1.188.179-1.762 11.043.38 21.149 2.617 21.149 6.713 0 2.782-4.663 4.706-11.114 5.774z" fill="url(#paint3_linear)"/><path d="M112.896 10.934c-1.054 3.82-6.846 6.74-13.835 6.74-6.487 0-11.942-2.516-13.536-5.932 7.543-1.673 18.673-1.943 27.371-.808z" fill="url(#paint4_linear)"/><path d="M77.012 17.019c0-3.235 6.305-5.311 14.397-6.228 3.585-.405 6.907 2.218 7.12 5.82a6.511 6.511 0 01-.271 2.286c-.881 2.903-3.805 4.693-6.82 4.352-8.106-.914-14.426-2.99-14.426-6.23z" fill="url(#paint5_linear)"/><path d="M108.82 20.263a5.828 5.828 0 017.808-2.638l6.119 3.03c-2.763 1.287-6.994 2.178-11.788 2.672-1.672.172-2.884-1.557-2.139-3.064z" fill="url(#paint6_linear)"/><g opacity=".6"><g opacity=".6"><path opacity=".6" d="M67.928 17.498a1.532 1.532 0 100-3.064 1.532 1.532 0 000 3.064z" fill="url(#paint7_linear)"/><path opacity=".6" d="M69.098 21.911a1.21 1.21 0 100-2.419 1.21 1.21 0 000 2.42z" fill="url(#paint8_linear)"/><path opacity=".6" d="M73.29 18.076a.73.73 0 100-1.459.73.73 0 000 1.459z" fill="url(#paint9_linear)"/></g><g opacity=".6"><path opacity=".6" d="M131.003 22.556a1.532 1.532 0 100-3.064 1.532 1.532 0 000 3.064z" fill="url(#paint10_linear)"/><path opacity=".6" d="M128.159 26.196a1.21 1.21 0 100-2.418 1.21 1.21 0 000 2.418z" fill="url(#paint11_linear)"/><path opacity=".6" d="M133.43 26.732a.729.729 0 100-1.458.729.729 0 000 1.458z" fill="url(#paint12_linear)"/></g><g opacity=".6"><path opacity=".6" d="M74.062 11.682a1.132 1.132 0 100-2.264 1.132 1.132 0 000 2.264z" fill="url(#paint13_linear)"/><path opacity=".6" d="M72.03 14.42a.894.894 0 100-1.787.894.894 0 000 1.787z" fill="url(#paint14_linear)"/><path opacity=".6" d="M75.943 14.722a.539.539 0 100-1.078.539.539 0 000 1.078z" fill="url(#paint15_linear)"/></g></g><path d="M110.34 64.9L82.922 37.482c-3.72-4.344-12.763-7.232-23.563-8.666V50.9c0 10.848 27.403 15.514 50.981 14z" fill="url(#paint16_linear)"/><path d="M84.743 42.035H.34v32.35c0 19.038 84.403 19.038 84.403 0v-32.35z" fill="url(#paint17_linear)"/><path d="M84.743 42.036c0 19.039-84.403 19.039-84.403 0 0-19.038 84.403-19.038 84.403 0z" fill="url(#paint18_linear)"/><path d="M17.992 40.502c0-3.089 5.745-5.12 13.305-6.096 14.54-1.876 31.407.156 31.407 6.096 0 3.27-2.058 5.356-10.277 6.257-14.468 1.586-34.435-.5-34.435-6.257z" fill="url(#paint19_linear)"/><path d="M29.107 46.276c5.915-1.414 10.213-5.68 10.213-10.725 0-.6-.062-1.188-.179-1.762-11.042.38-21.149 2.617-21.149 6.713 0 2.782 4.663 4.706 11.114 5.774z" fill="url(#paint20_linear)"/><path d="M31.205 34.418c1.054 3.82 6.846 6.74 13.836 6.74 6.486 0 11.941-2.516 13.535-5.931-7.542-1.674-18.673-1.943-27.37-.809z" fill="url(#paint21_linear)"/><path d="M67.09 40.503c0-3.235-6.305-5.31-14.397-6.227-3.585-.406-6.907 2.218-7.121 5.82a6.508 6.508 0 00.272 2.286c.88 2.903 3.805 4.692 6.82 4.352 8.105-.915 14.426-2.992 14.426-6.23z" fill="url(#paint22_linear)"/><path d="M35.28 43.748a5.828 5.828 0 00-7.808-2.638l-6.119 3.029c2.764 1.287 6.994 2.178 11.789 2.672 1.672.172 2.884-1.556 2.138-3.063z" fill="url(#paint23_linear)"/><g opacity=".6"><g opacity=".6"><path opacity=".6" d="M8.907 40.982a1.532 1.532 0 100-3.064 1.532 1.532 0 000 3.064z" fill="url(#paint24_linear)"/><path opacity=".6" d="M10.077 45.395a1.21 1.21 0 100-2.418 1.21 1.21 0 000 2.419z" fill="url(#paint25_linear)"/><path opacity=".6" d="M14.268 41.56a.73.73 0 100-1.458.73.73 0 000 1.458z" fill="url(#paint26_linear)"/></g><g opacity=".6"><path opacity=".6" d="M71.981 46.04a1.532 1.532 0 100-3.063 1.532 1.532 0 000 3.064z" fill="url(#paint27_linear)"/><path opacity=".6" d="M69.137 49.68a1.21 1.21 0 100-2.418 1.21 1.21 0 000 2.419z" fill="url(#paint28_linear)"/><path opacity=".6" d="M74.409 50.212a.73.73 0 100-1.458.73.73 0 000 1.458z" fill="url(#paint29_linear)"/></g><g opacity=".6"><path opacity=".6" d="M15.04 35.166a1.132 1.132 0 100-2.264 1.132 1.132 0 000 2.264z" fill="url(#paint30_linear)"/><path opacity=".6" d="M13.009 37.904a.894.894 0 100-1.787.894.894 0 000 1.787z" fill="url(#paint31_linear)"/><path opacity=".6" d="M16.922 38.206a.539.539 0 100-1.077.539.539 0 000 1.077z" fill="url(#paint32_linear)"/></g></g><path d="M149.083 65.52H64.68v32.349c0 19.038 84.403 19.038 84.403 0v-32.35z" fill="url(#paint33_linear)"/><path d="M149.083 65.52c0 19.04-84.403 19.04-84.403 0 0-19.037 84.403-19.037 84.403 0z" fill="url(#paint34_linear)"/><path d="M82.332 63.986c0 3.092 5.758 5.125 13.33 6.099 14.539 1.87 32.821-.162 32.821-6.099 0-3.363-3.867-5.474-12.419-6.331-14.402-1.444-33.732.666-33.732 6.331z" fill="url(#paint35_linear)"/><path d="M93.446 58.21c5.916 1.415 10.214 5.681 10.214 10.726 0 .6-.062 1.188-.179 1.762-11.042-.38-21.149-2.617-21.149-6.713 0-2.782 4.663-4.707 11.114-5.774z" fill="url(#paint36_linear)"/><path d="M95.545 70.069c1.054-3.82 6.846-6.74 13.835-6.74 6.487 0 11.942 2.516 13.535 5.931-7.541 1.674-18.672 1.943-27.37.809z" fill="url(#paint37_linear)"/><path d="M131.43 63.986c0 3.236-6.306 5.312-14.397 6.228-3.585.406-6.907-2.218-7.121-5.82a6.51 6.51 0 01.272-2.286c.881-2.903 3.805-4.692 6.819-4.352 8.106.914 14.427 2.991 14.427 6.23z" fill="url(#paint38_linear)"/><path d="M114.143 60.74a5.827 5.827 0 007.808 2.637l6.118-3.028c-2.763-1.288-6.993-2.179-11.788-2.673-1.672-.172-2.884 1.557-2.138 3.064z" fill="url(#paint39_linear)"/><g opacity=".6"><g opacity=".6"><path opacity=".6" d="M73.249 64.466a1.532 1.532 0 100-3.064 1.532 1.532 0 000 3.064z" fill="url(#paint40_linear)"/><path opacity=".6" d="M74.418 68.88a1.21 1.21 0 100-2.42 1.21 1.21 0 000 2.42z" fill="url(#paint41_linear)"/><path opacity=".6" d="M78.61 65.044a.73.73 0 100-1.458.73.73 0 000 1.458z" fill="url(#paint42_linear)"/></g><g opacity=".6"><path opacity=".6" d="M136.325 69.525a1.532 1.532 0 100-3.064 1.532 1.532 0 000 3.064z" fill="url(#paint43_linear)"/><path opacity=".6" d="M133.481 73.165a1.21 1.21 0 100-2.418 1.21 1.21 0 000 2.418z" fill="url(#paint44_linear)"/><path opacity=".6" d="M138.753 73.7a.73.73 0 10-.001-1.459.73.73 0 00.001 1.46z" fill="url(#paint45_linear)"/></g><g opacity=".6"><path opacity=".6" d="M79.382 58.65a1.132 1.132 0 100-2.263 1.132 1.132 0 000 2.264z" fill="url(#paint46_linear)"/><path opacity=".6" d="M77.35 61.389a.894.894 0 100-1.787.894.894 0 000 1.787z" fill="url(#paint47_linear)"/><path opacity=".6" d="M81.263 61.69a.539.539 0 100-1.077.539.539 0 000 1.078z" fill="url(#paint48_linear)"/></g></g><path d="M64.68 86.164V97.87c0 9.779 22.268 14.534 43.929 14.267l-17.2-17.2c-4.284-4.626-14.697-7.549-26.73-8.772z" fill="url(#paint49_linear)"/><path d="M93.49 99.781H9.089v32.35c0 19.038 84.403 19.038 84.403 0v-32.35z" fill="url(#paint50_linear)"/><path d="M93.49 99.783c0 19.038-84.402 19.038-84.402 0 0-19.039 84.403-19.039 84.403 0z" fill="url(#paint51_linear)"/><path d="M75.838 98.248c0 3.09-5.751 5.122-13.317 6.097-14.57.914-32.865-.159-32.865-6.097 0-3.317 3.71-5.415 12.093-6.295 5.952-.625 12.79-.635 18.771-.032 2.065.209 3.732.957 5.521 1.311 2.434.483 4.84.633 6.45 1.386 2.099.98 3.347 2.19 3.347 3.63z" fill="url(#paint52_linear)"/><path d="M64.724 92.473c-5.916 1.414-10.214 5.68-10.214 10.725 0 .599.062 1.187.179 1.761 11.042-.379 21.149-2.617 21.149-6.713 0-2.782-4.663-4.706-11.114-5.773z" fill="url(#paint53_linear)"/><path d="M62.624 104.331c-1.054-3.82-6.846-6.741-13.835-6.741-6.487 0-11.942 2.517-13.535 5.932 7.542 1.674 18.672 1.943 27.37.809z" fill="url(#paint54_linear)"/><path d="M26.74 98.248c0 3.236 6.306 5.311 14.397 6.228 3.585.406 6.907-2.218 7.121-5.82a6.527 6.527 0 00-.272-2.286c-.88-2.903-3.805-4.692-6.82-4.352-8.105.914-14.426 2.991-14.426 6.23z" fill="url(#paint55_linear)"/><path d="M58.551 95.001a5.828 5.828 0 007.808 2.638l6.119-3.028c-2.764-1.288-6.994-2.179-11.789-2.673-1.672-.173-2.884 1.557-2.138 3.063z" fill="url(#paint56_linear)"/><g opacity=".6"><g opacity=".6"><path opacity=".6" d="M17.657 98.728a1.532 1.532 0 100-3.064 1.532 1.532 0 000 3.064z" fill="url(#paint57_linear)"/><path opacity=".6" d="M18.827 103.142a1.21 1.21 0 10-.001-2.42 1.21 1.21 0 000 2.42z" fill="url(#paint58_linear)"/><path opacity=".6" d="M23.018 99.306a.73.73 0 100-1.458.73.73 0 000 1.458z" fill="url(#paint59_linear)"/></g><g opacity=".6"><path opacity=".6" d="M80.731 103.783a1.532 1.532 0 100-3.064 1.532 1.532 0 000 3.064z" fill="url(#paint60_linear)"/><path opacity=".6" d="M77.887 107.423a1.21 1.21 0 100-2.42 1.21 1.21 0 000 2.42z" fill="url(#paint61_linear)"/><path opacity=".6" d="M83.159 107.958a.729.729 0 100-1.458.729.729 0 000 1.458z" fill="url(#paint62_linear)"/></g><g opacity=".6"><path opacity=".6" d="M23.79 92.912a1.132 1.132 0 100-2.264 1.132 1.132 0 000 2.264z" fill="url(#paint63_linear)"/><path opacity=".6" d="M21.759 95.65a.894.894 0 100-1.787.894.894 0 000 1.787z" fill="url(#paint64_linear)"/><path opacity=".6" d="M25.672 95.952a.539.539 0 100-1.077.539.539 0 000 1.077z" fill="url(#paint65_linear)"/></g></g></g><defs><linearGradient id="paint0_linear" x1="94.441" y1="28.495" x2="113.877" y2="49.108" gradientUnits="userSpaceOnUse"><stop stop-color="#464F00"/><stop offset=".288" stop-color="#454518"/><stop offset=".747" stop-color="#443738"/><stop offset="1" stop-color="#433244"/></linearGradient><linearGradient id="paint1_linear" x1="98.167" y1="5.875" x2="108.434" y2="44.224" gradientUnits="userSpaceOnUse"><stop stop-color="#F8F6FB"/><stop offset="1" stop-color="#EFDCFB"/></linearGradient><linearGradient id="paint2_linear" x1="103.921" y1="17.61" x2="106.4" y2="23.151" gradientUnits="userSpaceOnUse"><stop stop-color="#FF6359"/><stop offset=".224" stop-color="#FE5B50"/><stop offset=".595" stop-color="#FC4637"/><stop offset="1" stop-color="#F82814"/></linearGradient><linearGradient id="paint3_linear" x1="113.089" y1="12.945" x2="119.36" y2="20.382" gradientUnits="userSpaceOnUse"><stop stop-color="#FFA936"/><stop offset=".411" stop-color="#FF8548"/><stop offset=".778" stop-color="#FF6C54"/><stop offset="1" stop-color="#FF6359"/></linearGradient><linearGradient id="paint4_linear" x1="97.828" y1="9.062" x2="102.64" y2="17.083" gradientUnits="userSpaceOnUse"><stop stop-color="#BADA00"/><stop offset=".227" stop-color="#B0CE00"/><stop offset=".638" stop-color="#95AE00"/><stop offset="1" stop-color="#798C00"/></linearGradient><linearGradient id="paint5_linear" x1="85.97" y1="14.074" x2="92.095" y2="21.948" gradientUnits="userSpaceOnUse"><stop stop-color="#FFD945"/><stop offset=".304" stop-color="#FFCD3E"/><stop offset=".856" stop-color="#FFAD2B"/><stop offset="1" stop-color="#FFA325"/></linearGradient><linearGradient id="paint6_linear" x1="111.337" y1="21.151" x2="118.957" y2="18.523" gradientUnits="userSpaceOnUse"><stop stop-color="#FFDECF"/><stop offset=".379" stop-color="#FDC4B0"/><stop offset=".765" stop-color="#FBAE97"/><stop offset="1" stop-color="#FAA68E"/></linearGradient><linearGradient id="paint7_linear" x1="70.093" y1="16.301" x2="62.908" y2="15.314" gradientUnits="userSpaceOnUse"><stop stop-color="#EFDCFB" stop-opacity="0"/><stop offset=".029" stop-color="#E9D6F7" stop-opacity=".029"/><stop offset=".22" stop-color="#C5B5DE" stop-opacity=".22"/><stop offset=".414" stop-color="#AA9BCB" stop-opacity=".414"/><stop offset=".608" stop-color="#9688BD" stop-opacity=".608"/><stop offset=".803" stop-color="#8A7DB5" stop-opacity=".803"/><stop offset="1" stop-color="#8679B2"/></linearGradient><linearGradient id="paint8_linear" x1="70.775" y1="20.971" x2="65.103" y2="20.192" gradientUnits="userSpaceOnUse"><stop stop-color="#EFDCFB" stop-opacity="0"/><stop offset=".029" stop-color="#E9D6F7" stop-opacity=".029"/><stop offset=".22" stop-color="#C5B5DE" stop-opacity=".22"/><stop offset=".414" stop-color="#AA9BCB" stop-opacity=".414"/><stop offset=".608" stop-color="#9688BD" stop-opacity=".608"/><stop offset=".803" stop-color="#8A7DB5" stop-opacity=".803"/><stop offset="1" stop-color="#8679B2"/></linearGradient><linearGradient id="paint9_linear" x1="74.243" y1="17.516" x2="70.823" y2="17.047" gradientUnits="userSpaceOnUse"><stop stop-color="#EFDCFB" stop-opacity="0"/><stop offset=".029" stop-color="#E9D6F7" stop-opacity=".029"/><stop offset=".22" stop-color="#C5B5DE" stop-opacity=".22"/><stop offset=".414" stop-color="#AA9BCB" stop-opacity=".414"/><stop offset=".608" stop-color="#9688BD" stop-opacity=".608"/><stop offset=".803" stop-color="#8A7DB5" stop-opacity=".803"/><stop offset="1" stop-color="#8679B2"/></linearGradient><linearGradient id="paint10_linear" x1="132.009" y1="23.254" x2="128.095" y2="17.146" gradientUnits="userSpaceOnUse"><stop stop-color="#EFDCFB" stop-opacity="0"/><stop offset=".029" stop-color="#E9D6F7" stop-opacity=".029"/><stop offset=".22" stop-color="#C5B5DE" stop-opacity=".22"/><stop offset=".414" stop-color="#AA9BCB" stop-opacity=".414"/><stop offset=".608" stop-color="#9688BD" stop-opacity=".608"/><stop offset=".803" stop-color="#8A7DB5" stop-opacity=".803"/><stop offset="1" stop-color="#8679B2"/></linearGradient><linearGradient id="paint11_linear" x1="128.899" y1="26.805" x2="125.809" y2="21.983" gradientUnits="userSpaceOnUse"><stop stop-color="#EFDCFB" stop-opacity="0"/><stop offset=".029" stop-color="#E9D6F7" stop-opacity=".029"/><stop offset=".22" stop-color="#C5B5DE" stop-opacity=".22"/><stop offset=".414" stop-color="#AA9BCB" stop-opacity=".414"/><stop offset=".608" stop-color="#9688BD" stop-opacity=".608"/><stop offset=".803" stop-color="#8A7DB5" stop-opacity=".803"/><stop offset="1" stop-color="#8679B2"/></linearGradient><linearGradient id="paint12_linear" x1="133.778" y1="27.205" x2="131.916" y2="24.298" gradientUnits="userSpaceOnUse"><stop stop-color="#EFDCFB" stop-opacity="0"/><stop offset=".029" stop-color="#E9D6F7" stop-opacity=".029"/><stop offset=".22" stop-color="#C5B5DE" stop-opacity=".22"/><stop offset=".414" stop-color="#AA9BCB" stop-opacity=".414"/><stop offset=".608" stop-color="#9688BD" stop-opacity=".608"/><stop offset=".803" stop-color="#8A7DB5" stop-opacity=".803"/><stop offset="1" stop-color="#8679B2"/></linearGradient><linearGradient id="paint13_linear" x1="74.899" y1="12.244" x2="71.899" y2="7.801" gradientUnits="userSpaceOnUse"><stop stop-color="#EFDCFB" stop-opacity="0"/><stop offset=".029" stop-color="#E9D6F7" stop-opacity=".029"/><stop offset=".22" stop-color="#C5B5DE" stop-opacity=".22"/><stop offset=".414" stop-color="#AA9BCB" stop-opacity=".414"/><stop offset=".608" stop-color="#9688BD" stop-opacity=".608"/><stop offset=".803" stop-color="#8A7DB5" stop-opacity=".803"/><stop offset="1" stop-color="#8679B2"/></linearGradient><linearGradient id="paint14_linear" x1="72.665" y1="14.922" x2="70.296" y2="11.415" gradientUnits="userSpaceOnUse"><stop stop-color="#EFDCFB" stop-opacity="0"/><stop offset=".029" stop-color="#E9D6F7" stop-opacity=".029"/><stop offset=".22" stop-color="#C5B5DE" stop-opacity=".22"/><stop offset=".414" stop-color="#AA9BCB" stop-opacity=".414"/><stop offset=".608" stop-color="#9688BD" stop-opacity=".608"/><stop offset=".803" stop-color="#8A7DB5" stop-opacity=".803"/><stop offset="1" stop-color="#8679B2"/></linearGradient><linearGradient id="paint15_linear" x1="76.277" y1="15.13" x2="74.849" y2="13.015" gradientUnits="userSpaceOnUse"><stop stop-color="#EFDCFB" stop-opacity="0"/><stop offset=".029" stop-color="#E9D6F7" stop-opacity=".029"/><stop offset=".22" stop-color="#C5B5DE" stop-opacity=".22"/><stop offset=".414" stop-color="#AA9BCB" stop-opacity=".414"/><stop offset=".608" stop-color="#9688BD" stop-opacity=".608"/><stop offset=".803" stop-color="#8A7DB5" stop-opacity=".803"/><stop offset="1" stop-color="#8679B2"/></linearGradient><linearGradient id="paint16_linear" x1="99.631" y1="74.048" x2="65.35" y2="39.767" gradientUnits="userSpaceOnUse"><stop offset=".001" stop-color="#433244" stop-opacity="0"/><stop offset=".484" stop-color="#362637" stop-opacity=".484"/><stop offset="1" stop-color="#2D1E2E"/></linearGradient><linearGradient id="paint17_linear" x1="35.422" y1="51.979" x2="54.858" y2="72.593" gradientUnits="userSpaceOnUse"><stop stop-color="#464F00"/><stop offset=".288" stop-color="#454518"/><stop offset=".747" stop-color="#443738"/><stop offset="1" stop-color="#433244"/></linearGradient><linearGradient id="paint18_linear" x1="39.147" y1="29.359" x2="49.414" y2="67.709" gradientUnits="userSpaceOnUse"><stop stop-color="#F8F6FB"/><stop offset="1" stop-color="#EFDCFB"/></linearGradient><linearGradient id="paint19_linear" x1="41.329" y1="43.758" x2="42.933" y2="49.154" gradientUnits="userSpaceOnUse"><stop stop-color="#FF6359"/><stop offset=".224" stop-color="#FE5B50"/><stop offset=".595" stop-color="#FC4637"/><stop offset="1" stop-color="#F82814"/></linearGradient><linearGradient id="paint20_linear" x1="28.894" y1="38.069" x2="33.415" y2="46.527" gradientUnits="userSpaceOnUse"><stop stop-color="#FFA936"/><stop offset=".411" stop-color="#FF8548"/><stop offset=".778" stop-color="#FF6C54"/><stop offset="1" stop-color="#FF6359"/></linearGradient><linearGradient id="paint21_linear" x1="45.21" y1="35.589" x2="47.397" y2="40.256" gradientUnits="userSpaceOnUse"><stop stop-color="#BADA00"/><stop offset=".227" stop-color="#B0CE00"/><stop offset=".638" stop-color="#95AE00"/><stop offset="1" stop-color="#798C00"/></linearGradient><linearGradient id="paint22_linear" x1="54.607" y1="37.468" x2="59.565" y2="47.531" gradientUnits="userSpaceOnUse"><stop stop-color="#FFD945"/><stop offset=".304" stop-color="#FFCD3E"/><stop offset=".856" stop-color="#FFAD2B"/><stop offset="1" stop-color="#FFA325"/></linearGradient><linearGradient id="paint23_linear" x1="27.246" y1="41.975" x2="29.871" y2="46.787" gradientUnits="userSpaceOnUse"><stop stop-color="#FFDECF"/><stop offset=".379" stop-color="#FDC4B0"/><stop offset=".765" stop-color="#FBAE97"/><stop offset="1" stop-color="#FAA68E"/></linearGradient><linearGradient id="paint24_linear" x1="11.057" y1="39.774" x2="3.873" y2="38.787" gradientUnits="userSpaceOnUse"><stop stop-color="#EFDCFB" stop-opacity="0"/><stop offset=".029" stop-color="#E9D6F7" stop-opacity=".029"/><stop offset=".22" stop-color="#C5B5DE" stop-opacity=".22"/><stop offset=".414" stop-color="#AA9BCB" stop-opacity=".414"/><stop offset=".608" stop-color="#9688BD" stop-opacity=".608"/><stop offset=".803" stop-color="#8A7DB5" stop-opacity=".803"/><stop offset="1" stop-color="#8679B2"/></linearGradient><linearGradient id="paint25_linear" x1="11.739" y1="44.444" x2="6.067" y2="43.665" gradientUnits="userSpaceOnUse"><stop stop-color="#EFDCFB" stop-opacity="0"/><stop offset=".029" stop-color="#E9D6F7" stop-opacity=".029"/><stop offset=".22" stop-color="#C5B5DE" stop-opacity=".22"/><stop offset=".414" stop-color="#AA9BCB" stop-opacity=".414"/><stop offset=".608" stop-color="#9688BD" stop-opacity=".608"/><stop offset=".803" stop-color="#8A7DB5" stop-opacity=".803"/><stop offset="1" stop-color="#8679B2"/></linearGradient><linearGradient id="paint26_linear" x1="15.208" y1="40.99" x2="11.788" y2="40.52" gradientUnits="userSpaceOnUse"><stop stop-color="#EFDCFB" stop-opacity="0"/><stop offset=".029" stop-color="#E9D6F7" stop-opacity=".029"/><stop offset=".22" stop-color="#C5B5DE" stop-opacity=".22"/><stop offset=".414" stop-color="#AA9BCB" stop-opacity=".414"/><stop offset=".608" stop-color="#9688BD" stop-opacity=".608"/><stop offset=".803" stop-color="#8A7DB5" stop-opacity=".803"/><stop offset="1" stop-color="#8679B2"/></linearGradient><linearGradient id="paint27_linear" x1="72.96" y1="46.757" x2="69.046" y2="40.649" gradientUnits="userSpaceOnUse"><stop stop-color="#EFDCFB" stop-opacity="0"/><stop offset=".029" stop-color="#E9D6F7" stop-opacity=".029"/><stop offset=".22" stop-color="#C5B5DE" stop-opacity=".22"/><stop offset=".414" stop-color="#AA9BCB" stop-opacity=".414"/><stop offset=".608" stop-color="#9688BD" stop-opacity=".608"/><stop offset=".803" stop-color="#8A7DB5" stop-opacity=".803"/><stop offset="1" stop-color="#8679B2"/></linearGradient><linearGradient id="paint28_linear" x1="69.85" y1="50.308" x2="66.76" y2="45.486" gradientUnits="userSpaceOnUse"><stop stop-color="#EFDCFB" stop-opacity="0"/><stop offset=".029" stop-color="#E9D6F7" stop-opacity=".029"/><stop offset=".22" stop-color="#C5B5DE" stop-opacity=".22"/><stop offset=".414" stop-color="#AA9BCB" stop-opacity=".414"/><stop offset=".608" stop-color="#9688BD" stop-opacity=".608"/><stop offset=".803" stop-color="#8A7DB5" stop-opacity=".803"/><stop offset="1" stop-color="#8679B2"/></linearGradient><linearGradient id="paint29_linear" x1="74.729" y1="50.704" x2="72.866" y2="47.797" gradientUnits="userSpaceOnUse"><stop stop-color="#EFDCFB" stop-opacity="0"/><stop offset=".029" stop-color="#E9D6F7" stop-opacity=".029"/><stop offset=".22" stop-color="#C5B5DE" stop-opacity=".22"/><stop offset=".414" stop-color="#AA9BCB" stop-opacity=".414"/><stop offset=".608" stop-color="#9688BD" stop-opacity=".608"/><stop offset=".803" stop-color="#8A7DB5" stop-opacity=".803"/><stop offset="1" stop-color="#8679B2"/></linearGradient><linearGradient id="paint30_linear" x1="15.857" y1="35.758" x2="12.857" y2="31.315" gradientUnits="userSpaceOnUse"><stop stop-color="#EFDCFB" stop-opacity="0"/><stop offset=".029" stop-color="#E9D6F7" stop-opacity=".029"/><stop offset=".22" stop-color="#C5B5DE" stop-opacity=".22"/><stop offset=".414" stop-color="#AA9BCB" stop-opacity=".414"/><stop offset=".608" stop-color="#9688BD" stop-opacity=".608"/><stop offset=".803" stop-color="#8A7DB5" stop-opacity=".803"/><stop offset="1" stop-color="#8679B2"/></linearGradient><linearGradient id="paint31_linear" x1="13.622" y1="38.435" x2="11.254" y2="34.928" gradientUnits="userSpaceOnUse"><stop stop-color="#EFDCFB" stop-opacity="0"/><stop offset=".029" stop-color="#E9D6F7" stop-opacity=".029"/><stop offset=".22" stop-color="#C5B5DE" stop-opacity=".22"/><stop offset=".414" stop-color="#AA9BCB" stop-opacity=".414"/><stop offset=".608" stop-color="#9688BD" stop-opacity=".608"/><stop offset=".803" stop-color="#8A7DB5" stop-opacity=".803"/><stop offset="1" stop-color="#8679B2"/></linearGradient><linearGradient id="paint32_linear" x1="17.235" y1="38.644" x2="15.807" y2="36.529" gradientUnits="userSpaceOnUse"><stop stop-color="#EFDCFB" stop-opacity="0"/><stop offset=".029" stop-color="#E9D6F7" stop-opacity=".029"/><stop offset=".22" stop-color="#C5B5DE" stop-opacity=".22"/><stop offset=".414" stop-color="#AA9BCB" stop-opacity=".414"/><stop offset=".608" stop-color="#9688BD" stop-opacity=".608"/><stop offset=".803" stop-color="#8A7DB5" stop-opacity=".803"/><stop offset="1" stop-color="#8679B2"/></linearGradient><linearGradient id="paint33_linear" x1="99.762" y1="75.463" x2="119.198" y2="96.077" gradientUnits="userSpaceOnUse"><stop stop-color="#464F00"/><stop offset=".288" stop-color="#454518"/><stop offset=".747" stop-color="#443738"/><stop offset="1" stop-color="#433244"/></linearGradient><linearGradient id="paint34_linear" x1="103.487" y1="52.843" x2="113.754" y2="91.193" gradientUnits="userSpaceOnUse"><stop stop-color="#F8F6FB"/><stop offset="1" stop-color="#EFDCFB"/></linearGradient><linearGradient id="paint35_linear" x1="105.941" y1="57.953" x2="105.488" y2="63.087" gradientUnits="userSpaceOnUse"><stop stop-color="#FF6359"/><stop offset=".224" stop-color="#FE5B50"/><stop offset=".595" stop-color="#FC4637"/><stop offset="1" stop-color="#F82814"/></linearGradient><linearGradient id="paint36_linear" x1="91.237" y1="61.753" x2="95.174" y2="70.794" gradientUnits="userSpaceOnUse"><stop stop-color="#FFA936"/><stop offset=".411" stop-color="#FF8548"/><stop offset=".778" stop-color="#FF6C54"/><stop offset="1" stop-color="#FF6359"/></linearGradient><linearGradient id="paint37_linear" x1="107.541" y1="64.516" x2="110.603" y2="73.849" gradientUnits="userSpaceOnUse"><stop stop-color="#BADA00"/><stop offset=".227" stop-color="#B0CE00"/><stop offset=".638" stop-color="#95AE00"/><stop offset="1" stop-color="#798C00"/></linearGradient><linearGradient id="paint38_linear" x1="119.687" y1="63.151" x2="125.958" y2="72.192" gradientUnits="userSpaceOnUse"><stop stop-color="#FFD945"/><stop offset=".304" stop-color="#FFCD3E"/><stop offset=".856" stop-color="#FFAD2B"/><stop offset="1" stop-color="#FFA325"/></linearGradient><linearGradient id="paint39_linear" x1="116.659" y1="59.853" x2="124.28" y2="62.481" gradientUnits="userSpaceOnUse"><stop stop-color="#FFDECF"/><stop offset=".379" stop-color="#FDC4B0"/><stop offset=".765" stop-color="#FBAE97"/><stop offset="1" stop-color="#FAA68E"/></linearGradient><linearGradient id="paint40_linear" x1="75.402" y1="63.277" x2="68.218" y2="62.29" gradientUnits="userSpaceOnUse"><stop stop-color="#EFDCFB" stop-opacity="0"/><stop offset=".029" stop-color="#E9D6F7" stop-opacity=".029"/><stop offset=".22" stop-color="#C5B5DE" stop-opacity=".22"/><stop offset=".414" stop-color="#AA9BCB" stop-opacity=".414"/><stop offset=".608" stop-color="#9688BD" stop-opacity=".608"/><stop offset=".803" stop-color="#8A7DB5" stop-opacity=".803"/><stop offset="1" stop-color="#8679B2"/></linearGradient><linearGradient id="paint41_linear" x1="76.084" y1="67.947" x2="70.412" y2="67.168" gradientUnits="userSpaceOnUse"><stop stop-color="#EFDCFB" stop-opacity="0"/><stop offset=".029" stop-color="#E9D6F7" stop-opacity=".029"/><stop offset=".22" stop-color="#C5B5DE" stop-opacity=".22"/><stop offset=".414" stop-color="#AA9BCB" stop-opacity=".414"/><stop offset=".608" stop-color="#9688BD" stop-opacity=".608"/><stop offset=".803" stop-color="#8A7DB5" stop-opacity=".803"/><stop offset="1" stop-color="#8679B2"/></linearGradient><linearGradient id="paint42_linear" x1="79.553" y1="64.493" x2="76.133" y2="64.023" gradientUnits="userSpaceOnUse"><stop stop-color="#EFDCFB" stop-opacity="0"/><stop offset=".029" stop-color="#E9D6F7" stop-opacity=".029"/><stop offset=".22" stop-color="#C5B5DE" stop-opacity=".22"/><stop offset=".414" stop-color="#AA9BCB" stop-opacity=".414"/><stop offset=".608" stop-color="#9688BD" stop-opacity=".608"/><stop offset=".803" stop-color="#8A7DB5" stop-opacity=".803"/><stop offset="1" stop-color="#8679B2"/></linearGradient><linearGradient id="paint43_linear" x1="137.339" y1="70.246" x2="133.425" y2="64.138" gradientUnits="userSpaceOnUse"><stop stop-color="#EFDCFB" stop-opacity="0"/><stop offset=".029" stop-color="#E9D6F7" stop-opacity=".029"/><stop offset=".22" stop-color="#C5B5DE" stop-opacity=".22"/><stop offset=".414" stop-color="#AA9BCB" stop-opacity=".414"/><stop offset=".608" stop-color="#9688BD" stop-opacity=".608"/><stop offset=".803" stop-color="#8A7DB5" stop-opacity=".803"/><stop offset="1" stop-color="#8679B2"/></linearGradient><linearGradient id="paint44_linear" x1="134.229" y1="73.798" x2="131.139" y2="68.975" gradientUnits="userSpaceOnUse"><stop stop-color="#EFDCFB" stop-opacity="0"/><stop offset=".029" stop-color="#E9D6F7" stop-opacity=".029"/><stop offset=".22" stop-color="#C5B5DE" stop-opacity=".22"/><stop offset=".414" stop-color="#AA9BCB" stop-opacity=".414"/><stop offset=".608" stop-color="#9688BD" stop-opacity=".608"/><stop offset=".803" stop-color="#8A7DB5" stop-opacity=".803"/><stop offset="1" stop-color="#8679B2"/></linearGradient><linearGradient id="paint45_linear" x1="139.109" y1="74.197" x2="137.246" y2="71.29" gradientUnits="userSpaceOnUse"><stop stop-color="#EFDCFB" stop-opacity="0"/><stop offset=".029" stop-color="#E9D6F7" stop-opacity=".029"/><stop offset=".22" stop-color="#C5B5DE" stop-opacity=".22"/><stop offset=".414" stop-color="#AA9BCB" stop-opacity=".414"/><stop offset=".608" stop-color="#9688BD" stop-opacity=".608"/><stop offset=".803" stop-color="#8A7DB5" stop-opacity=".803"/><stop offset="1" stop-color="#8679B2"/></linearGradient><linearGradient id="paint46_linear" x1="80.237" y1="59.234" x2="77.237" y2="54.791" gradientUnits="userSpaceOnUse"><stop stop-color="#EFDCFB" stop-opacity="0"/><stop offset=".029" stop-color="#E9D6F7" stop-opacity=".029"/><stop offset=".22" stop-color="#C5B5DE" stop-opacity=".22"/><stop offset=".414" stop-color="#AA9BCB" stop-opacity=".414"/><stop offset=".608" stop-color="#9688BD" stop-opacity=".608"/><stop offset=".803" stop-color="#8A7DB5" stop-opacity=".803"/><stop offset="1" stop-color="#8679B2"/></linearGradient><linearGradient id="paint47_linear" x1="78.002" y1="61.912" x2="75.634" y2="58.404" gradientUnits="userSpaceOnUse"><stop stop-color="#EFDCFB" stop-opacity="0"/><stop offset=".029" stop-color="#E9D6F7" stop-opacity=".029"/><stop offset=".22" stop-color="#C5B5DE" stop-opacity=".22"/><stop offset=".414" stop-color="#AA9BCB" stop-opacity=".414"/><stop offset=".608" stop-color="#9688BD" stop-opacity=".608"/><stop offset=".803" stop-color="#8A7DB5" stop-opacity=".803"/><stop offset="1" stop-color="#8679B2"/></linearGradient><linearGradient id="paint48_linear" x1="81.615" y1="62.12" x2="80.187" y2="60.005" gradientUnits="userSpaceOnUse"><stop stop-color="#EFDCFB" stop-opacity="0"/><stop offset=".029" stop-color="#E9D6F7" stop-opacity=".029"/><stop offset=".22" stop-color="#C5B5DE" stop-opacity=".22"/><stop offset=".414" stop-color="#AA9BCB" stop-opacity=".414"/><stop offset=".608" stop-color="#9688BD" stop-opacity=".608"/><stop offset=".803" stop-color="#8A7DB5" stop-opacity=".803"/><stop offset="1" stop-color="#8679B2"/></linearGradient><linearGradient id="paint49_linear" x1="112.721" y1="132.462" x2="82.43" y2="102.171" gradientUnits="userSpaceOnUse"><stop offset=".001" stop-color="#433244" stop-opacity="0"/><stop offset=".484" stop-color="#362637" stop-opacity=".484"/><stop offset="1" stop-color="#2D1E2E"/></linearGradient><linearGradient id="paint50_linear" x1="44.17" y1="109.725" x2="63.606" y2="130.339" gradientUnits="userSpaceOnUse"><stop stop-color="#464F00"/><stop offset=".288" stop-color="#454518"/><stop offset=".747" stop-color="#443738"/><stop offset="1" stop-color="#433244"/></linearGradient><linearGradient id="paint51_linear" x1="47.895" y1="87.105" x2="58.162" y2="125.455" gradientUnits="userSpaceOnUse"><stop stop-color="#F8F6FB"/><stop offset="1" stop-color="#EFDCFB"/></linearGradient><linearGradient id="paint52_linear" x1="52.214" y1="92.21" x2="52.665" y2="97.323" gradientUnits="userSpaceOnUse"><stop stop-color="#FF6359"/><stop offset=".224" stop-color="#FE5B50"/><stop offset=".595" stop-color="#FC4637"/><stop offset="1" stop-color="#F82814"/></linearGradient><linearGradient id="paint53_linear" x1="64.242" y1="96.918" x2="65.903" y2="104.316" gradientUnits="userSpaceOnUse"><stop stop-color="#FFA936"/><stop offset=".411" stop-color="#FF8548"/><stop offset=".778" stop-color="#FF6C54"/><stop offset="1" stop-color="#FF6359"/></linearGradient><linearGradient id="paint54_linear" x1="46.913" y1="99.928" x2="52.046" y2="109.742" gradientUnits="userSpaceOnUse"><stop stop-color="#BADA00"/><stop offset=".227" stop-color="#B0CE00"/><stop offset=".638" stop-color="#95AE00"/><stop offset="1" stop-color="#798C00"/></linearGradient><linearGradient id="paint55_linear" x1="37.673" y1="97.965" x2="42.689" y2="105.941" gradientUnits="userSpaceOnUse"><stop stop-color="#FFD945"/><stop offset=".304" stop-color="#FFCD3E"/><stop offset=".856" stop-color="#FFAD2B"/><stop offset="1" stop-color="#FFA325"/></linearGradient><linearGradient id="paint56_linear" x1="61.067" y1="94.114" x2="68.688" y2="96.742" gradientUnits="userSpaceOnUse"><stop stop-color="#FFDECF"/><stop offset=".379" stop-color="#FDC4B0"/><stop offset=".765" stop-color="#FBAE97"/><stop offset="1" stop-color="#FAA68E"/></linearGradient><linearGradient id="paint57_linear" x1="19.794" y1="97.53" x2="12.61" y2="96.543" gradientUnits="userSpaceOnUse"><stop stop-color="#EFDCFB" stop-opacity="0"/><stop offset=".029" stop-color="#E9D6F7" stop-opacity=".029"/><stop offset=".22" stop-color="#C5B5DE" stop-opacity=".22"/><stop offset=".414" stop-color="#AA9BCB" stop-opacity=".414"/><stop offset=".608" stop-color="#9688BD" stop-opacity=".608"/><stop offset=".803" stop-color="#8A7DB5" stop-opacity=".803"/><stop offset="1" stop-color="#8679B2"/></linearGradient><linearGradient id="paint58_linear" x1="20.476" y1="102.2" x2="14.805" y2="101.421" gradientUnits="userSpaceOnUse"><stop stop-color="#EFDCFB" stop-opacity="0"/><stop offset=".029" stop-color="#E9D6F7" stop-opacity=".029"/><stop offset=".22" stop-color="#C5B5DE" stop-opacity=".22"/><stop offset=".414" stop-color="#AA9BCB" stop-opacity=".414"/><stop offset=".608" stop-color="#9688BD" stop-opacity=".608"/><stop offset=".803" stop-color="#8A7DB5" stop-opacity=".803"/><stop offset="1" stop-color="#8679B2"/></linearGradient><linearGradient id="paint59_linear" x1="23.945" y1="98.746" x2="20.525" y2="98.276" gradientUnits="userSpaceOnUse"><stop stop-color="#EFDCFB" stop-opacity="0"/><stop offset=".029" stop-color="#E9D6F7" stop-opacity=".029"/><stop offset=".22" stop-color="#C5B5DE" stop-opacity=".22"/><stop offset=".414" stop-color="#AA9BCB" stop-opacity=".414"/><stop offset=".608" stop-color="#9688BD" stop-opacity=".608"/><stop offset=".803" stop-color="#8A7DB5" stop-opacity=".803"/><stop offset="1" stop-color="#8679B2"/></linearGradient><linearGradient id="paint60_linear" x1="81.721" y1="104.528" x2="77.806" y2="98.42" gradientUnits="userSpaceOnUse"><stop stop-color="#EFDCFB" stop-opacity="0"/><stop offset=".029" stop-color="#E9D6F7" stop-opacity=".029"/><stop offset=".22" stop-color="#C5B5DE" stop-opacity=".22"/><stop offset=".414" stop-color="#AA9BCB" stop-opacity=".414"/><stop offset=".608" stop-color="#9688BD" stop-opacity=".608"/><stop offset=".803" stop-color="#8A7DB5" stop-opacity=".803"/><stop offset="1" stop-color="#8679B2"/></linearGradient><linearGradient id="paint61_linear" x1="78.611" y1="108.079" x2="75.52" y2="103.257" gradientUnits="userSpaceOnUse"><stop stop-color="#EFDCFB" stop-opacity="0"/><stop offset=".029" stop-color="#E9D6F7" stop-opacity=".029"/><stop offset=".22" stop-color="#C5B5DE" stop-opacity=".22"/><stop offset=".414" stop-color="#AA9BCB" stop-opacity=".414"/><stop offset=".608" stop-color="#9688BD" stop-opacity=".608"/><stop offset=".803" stop-color="#8A7DB5" stop-opacity=".803"/><stop offset="1" stop-color="#8679B2"/></linearGradient><linearGradient id="paint62_linear" x1="83.49" y1="108.479" x2="81.627" y2="105.571" gradientUnits="userSpaceOnUse"><stop stop-color="#EFDCFB" stop-opacity="0"/><stop offset=".029" stop-color="#E9D6F7" stop-opacity=".029"/><stop offset=".22" stop-color="#C5B5DE" stop-opacity=".22"/><stop offset=".414" stop-color="#AA9BCB" stop-opacity=".414"/><stop offset=".608" stop-color="#9688BD" stop-opacity=".608"/><stop offset=".803" stop-color="#8A7DB5" stop-opacity=".803"/><stop offset="1" stop-color="#8679B2"/></linearGradient><linearGradient id="paint63_linear" x1="24.629" y1="93.529" x2="21.629" y2="89.086" gradientUnits="userSpaceOnUse"><stop stop-color="#EFDCFB" stop-opacity="0"/><stop offset=".029" stop-color="#E9D6F7" stop-opacity=".029"/><stop offset=".22" stop-color="#C5B5DE" stop-opacity=".22"/><stop offset=".414" stop-color="#AA9BCB" stop-opacity=".414"/><stop offset=".608" stop-color="#9688BD" stop-opacity=".608"/><stop offset=".803" stop-color="#8A7DB5" stop-opacity=".803"/><stop offset="1" stop-color="#8679B2"/></linearGradient><linearGradient id="paint64_linear" x1="22.394" y1="96.207" x2="20.026" y2="92.699" gradientUnits="userSpaceOnUse"><stop stop-color="#EFDCFB" stop-opacity="0"/><stop offset=".029" stop-color="#E9D6F7" stop-opacity=".029"/><stop offset=".22" stop-color="#C5B5DE" stop-opacity=".22"/><stop offset=".414" stop-color="#AA9BCB" stop-opacity=".414"/><stop offset=".608" stop-color="#9688BD" stop-opacity=".608"/><stop offset=".803" stop-color="#8A7DB5" stop-opacity=".803"/><stop offset="1" stop-color="#8679B2"/></linearGradient><linearGradient id="paint65_linear" x1="26.006" y1="96.415" x2="24.579" y2="94.3" gradientUnits="userSpaceOnUse"><stop stop-color="#EFDCFB" stop-opacity="0"/><stop offset=".029" stop-color="#E9D6F7" stop-opacity=".029"/><stop offset=".22" stop-color="#C5B5DE" stop-opacity=".22"/><stop offset=".414" stop-color="#AA9BCB" stop-opacity=".414"/><stop offset=".608" stop-color="#9688BD" stop-opacity=".608"/><stop offset=".803" stop-color="#8A7DB5" stop-opacity=".803"/><stop offset="1" stop-color="#8679B2"/></linearGradient><clipPath id="clip0"><path fill="#fff" transform="translate(.34 .973)" d="M0 0h148.744v148.744H0z"/></clipPath></defs></svg>