<svg width="208" height="208" fill="none" xmlns="http://www.w3.org/2000/svg"><g clip-path="url(#clip0)"><path d="M208 189.9v.005a4.521 4.521 0 01-4.522 4.522H180.87v9.051a4.522 4.522 0 01-4.522 4.521h-18.087a4.52 4.52 0 01-4.521-4.521v-9.051H54.261v9.051a4.521 4.521 0 01-4.521 4.521H31.652a4.521 4.521 0 01-4.521-4.521v-9.051H4.52A4.521 4.521 0 010 189.905v-.005a4.521 4.521 0 014.522-4.521h198.956A4.522 4.522 0 01208 189.9z" fill="#90724E"/><path d="M27.13 194.428h27.131v4.524h-27.13v-4.524zm126.609 0v4.524h27.131v-4.524h-27.131z" fill="#5A482F"/><path d="M60.134 5.383L42.888 167.28l-7.207-.631L46.794 4.216A4.522 4.522 0 0151.699.018l4.332.38a4.523 4.523 0 014.103 4.985zM15.14.017l-4.332.38a4.523 4.523 0 00-4.102 4.987L23.952 167.28l7.207-.631L20.046 4.216A4.523 4.523 0 0015.14.017z" fill="#C6984F"/><path d="M60.134 5.383l-6.221 58.408-11.128-.974 4.01-58.601A4.522 4.522 0 0151.698.018l4.333.38a4.523 4.523 0 014.102 4.985zM15.14.017l-4.332.38a4.523 4.523 0 00-4.102 4.987l6.222 58.408 11.127-.974-4.01-58.602A4.523 4.523 0 0015.14.017z" fill="#98642E"/><path d="M137.42 144.545c0 18.438-14.992 33.437-33.42 33.437-18.427 0-33.42-14.999-33.42-33.437 0-18.437 14.993-33.437 33.42-33.437 18.428 0 33.42 15 33.42 33.437zm51.608-33.437h-28.896c-10.46 0-18.971 8.515-18.971 18.98v28.913c0 10.467 8.511 18.981 18.971 18.981h28.896c10.461 0 18.972-8.515 18.972-18.981v-28.913c0-10.466-8.511-18.98-18.972-18.98zm-14.448-7.163c18.428 0 33.42-15 33.42-33.437 0-18.437-14.992-33.437-33.42-33.437s-33.42 15-33.42 33.437c.001 18.437 14.992 33.437 33.42 33.437zm-85.028 0h28.896c10.46 0 18.971-8.515 18.971-18.981V56.05c0-10.465-8.511-18.98-18.971-18.98H89.552c-10.46 0-18.972 8.515-18.972 18.98v28.914c0 10.466 8.511 18.981 18.972 18.981zm-41.685 7.163H18.97c-10.46 0-18.97 8.514-18.97 18.98v28.913c0 10.467 8.51 18.981 18.97 18.981h28.897c10.46 0 18.972-8.515 18.972-18.981v-28.913c0-10.466-8.51-18.98-18.972-18.98z" fill="#E9F4F3"/><path d="M104 111.108c-18.428 0-33.42 15-33.42 33.437 0 18.438 14.992 33.437 33.42 33.437s33.42-14.999 33.42-33.437c0-18.437-14.992-33.437-33.42-33.437zm0 57.826c-13.441 0-24.376-10.941-24.376-24.389 0-13.448 10.935-24.388 24.376-24.388s24.376 10.94 24.376 24.388c0 13.448-10.935 24.389-24.376 24.389zM174.58 37.07c-18.428 0-33.42 15-33.42 33.437 0 18.438 14.992 33.437 33.42 33.437s33.42-15 33.42-33.437c0-18.437-14.992-33.437-33.42-33.437zm0 57.826c-13.441 0-24.376-10.94-24.376-24.389 0-13.448 10.935-24.388 24.376-24.388s24.376 10.94 24.376 24.388c0 13.449-10.935 24.39-24.376 24.39z" fill="#FF7D14"/><path d="M102.4 150.442a4.527 4.527 0 01-.001 6.399 4.51 4.51 0 01-3.197 1.324 4.507 4.507 0 01-3.198-1.327l-.718-.719a4.526 4.526 0 01.001-6.398 4.52 4.52 0 016.395.002l.718.719zm15.414-10.382a4.52 4.52 0 00-6.395-.003 4.527 4.527 0 00-.003 6.399l.718.719a4.507 4.507 0 003.199 1.326 4.507 4.507 0 003.196-1.323 4.527 4.527 0 00.003-6.399l-.718-.719zm-17.754-1.122l.718-.719a4.526 4.526 0 00-.002-6.398 4.52 4.52 0 00-6.394.001l-.719.72a4.526 4.526 0 003.198 7.722 4.508 4.508 0 003.199-1.326zm76.839-63.253l-.718.719a4.527 4.527 0 00.002 6.398 4.507 4.507 0 003.196 1.324 4.51 4.51 0 003.199-1.326l.718-.72a4.527 4.527 0 00-.002-6.398 4.521 4.521 0 00-6.395.003zm-16.131-9.663l-.718.72a4.527 4.527 0 00.003 6.398 4.505 4.505 0 003.196 1.323 4.506 4.506 0 003.199-1.327l.718-.719a4.526 4.526 0 00-.003-6.398 4.52 4.52 0 00-6.395.003zm24.151-7.518l-.718-.719a4.52 4.52 0 00-6.395-.002 4.527 4.527 0 00-.002 6.399l.719.719a4.505 4.505 0 003.198 1.326 4.51 4.51 0 003.197-1.324 4.529 4.529 0 00.001-6.399z" fill="#E5DFD7"/><path d="M189.028 111.108h-28.896c-10.46 0-18.971 8.515-18.971 18.98v28.913c0 10.467 8.511 18.981 18.971 18.981h28.896c10.461 0 18.972-8.515 18.972-18.981v-28.913c0-10.466-8.511-18.98-18.972-18.98zm9.928 47.893c0 5.477-4.453 9.933-9.928 9.933h-28.896c-5.473 0-9.927-4.456-9.927-9.933v-28.912c0-5.477 4.453-9.932 9.927-9.932h28.896c5.475 0 9.928 4.456 9.928 9.932v28.912zm-80.507-121.93H89.552c-10.46 0-18.971 8.514-18.971 18.98v28.912c0 10.466 8.51 18.982 18.971 18.982h28.897c10.46 0 18.97-8.515 18.97-18.981V56.05c0-10.465-8.51-18.98-18.97-18.98zm9.927 47.893c0 5.477-4.453 9.933-9.927 9.933H89.552c-5.474 0-9.928-4.456-9.928-9.933V56.05c0-5.477 4.454-9.932 9.928-9.932h28.897c5.473 0 9.927 4.456 9.927 9.932v28.913zm-80.51 26.144H18.972C8.51 111.108 0 119.622 0 130.088v28.913c0 10.467 8.51 18.981 18.97 18.981h28.897c10.46 0 18.972-8.515 18.972-18.981v-28.913c0-10.466-8.51-18.98-18.972-18.98zm9.93 47.893c0 5.477-4.455 9.933-9.93 9.933H18.972c-5.474 0-9.927-4.456-9.927-9.933v-28.912c0-5.477 4.453-9.932 9.927-9.932h28.896c5.474 0 9.928 4.456 9.928 9.932v28.912z" fill="#403E3E"/><path d="M189.024 144.546c0 7.968-6.479 14.451-14.443 14.451-7.964 0-14.443-6.483-14.443-14.451 0-7.969 6.479-14.452 14.443-14.452 7.964 0 14.443 6.483 14.443 14.452zM104 56.056c-7.964 0-14.443 6.484-14.443 14.452s6.48 14.45 14.443 14.45c7.964 0 14.443-6.482 14.443-14.45 0-7.968-6.479-14.451-14.443-14.451zm-70.58 74.038c-7.965 0-14.443 6.483-14.443 14.452 0 7.968 6.479 14.451 14.443 14.451 7.963 0 14.443-6.483 14.443-14.451 0-7.969-6.48-14.452-14.443-14.452z" fill="#E05114"/><path d="M174.58 130.094c-7.964 0-14.443 6.483-14.443 14.452 0 7.968 6.48 14.451 14.443 14.451 7.964 0 14.443-6.483 14.443-14.451.001-7.969-6.478-14.452-14.443-14.452zm0 19.854a5.406 5.406 0 01-5.399-5.402 5.408 5.408 0 015.399-5.404c2.977 0 5.4 2.424 5.4 5.404a5.407 5.407 0 01-5.4 5.402zM104 56.057c-7.964 0-14.443 6.483-14.443 14.45 0 7.969 6.48 14.452 14.443 14.452 7.964 0 14.443-6.483 14.443-14.451 0-7.968-6.479-14.451-14.443-14.451zm0 19.853a5.407 5.407 0 01-5.4-5.402 5.407 5.407 0 015.4-5.403c2.977 0 5.4 2.423 5.4 5.403a5.407 5.407 0 01-5.4 5.403zm-70.58 54.184c-7.965 0-14.443 6.483-14.443 14.452 0 7.968 6.479 14.451 14.443 14.451 7.963 0 14.443-6.483 14.443-14.451 0-7.969-6.48-14.452-14.443-14.452zm0 19.854a5.407 5.407 0 01-5.4-5.402 5.409 5.409 0 015.4-5.404 5.407 5.407 0 015.399 5.404 5.407 5.407 0 01-5.4 5.402z" fill="#FCC50F"/></g><defs><clipPath id="clip0"><path fill="#fff" d="M0 0h208v208H0z"/></clipPath></defs></svg>