<svg width="165" height="165" fill="none" xmlns="http://www.w3.org/2000/svg"><path d="M157.266 118.007v41.837h-82.5v-33.516l-5.157 12.891-18.046-10.313 7.428-16.709a15.458 15.458 0 019.69-8.534l18.975-5.694 5.156-2.578V77.344h25.782V95.39l5.156 2.578 21.524 4.966a15.471 15.471 0 0111.992 15.072z" fill="#FDC8A2"/><path d="M118.594 77.344v9.439a25.801 25.801 0 01-25.781 0v-9.44h25.781z" fill="#FDBF92"/><path d="M74.766 159.844v-33.516l-5.157 12.891-18.046-10.313 7.426-16.711a15.474 15.474 0 019.691-8.533l18.976-5.693 5.156-2.578 12.891 20.625 12.891-20.625 5.156 2.578 21.525 4.967a15.466 15.466 0 0111.991 15.073v16.053h-20.625v25.782" fill="#D65246"/><path d="M92.813 95.39l-5.157 2.579v18.047l10.313-5.157 7.734 5.157-12.89-20.625zm25.781 0l5.156 2.579v18.047l-10.312-5.157-7.735 5.157 12.891-20.625z" fill="#DF6257"/><path d="M51.562 128.906l-6.151 13.532a10.487 10.487 0 1019.187 8.471l5.01-11.69-18.046-10.313z" fill="#FDBF92"/><path d="M64.872 144.849l-8.153-46.88H23.203a10.313 10.313 0 0010.313 10.312h10.312v38.384a10.6 10.6 0 1021.044-1.816zm15.05-111.333v25.78a25.781 25.781 0 1051.562 0v-25.78H79.922z" fill="#FDC8A2"/><path d="M79.922 30.938v7.09a8.378 8.378 0 008.379 8.378c2.98 0 5.933-.569 8.701-1.675a23.427 23.427 0 0117.402 0 23.433 23.433 0 008.701 1.675 8.377 8.377 0 008.379-8.379v-7.09H79.922z" fill="#FDBF92"/><path d="M79.922 41.25v-7.734h10.312L79.922 41.25zm51.562 0v-7.734h-10.312l10.312 7.734z" fill="#7A432A"/><path d="M118.594 54.14a5.157 5.157 0 115.156-5.156 5.162 5.162 0 01-5.156 5.157zm-25.781 0a5.156 5.156 0 115.156-5.156 5.162 5.162 0 01-5.156 5.157z" fill="#91563A"/><path d="M95.39 7.734h20.626a15.47 15.47 0 0115.468 15.47v10.312H79.922V23.203A15.468 15.468 0 0195.39 7.734z" fill="#C7483C"/><path d="M123.105 41.25c-2.98 0-5.933-.569-8.701-1.676a23.428 23.428 0 00-17.402 0 23.43 23.43 0 01-8.701 1.676 8.38 8.38 0 01-8.38-8.379v-1.934l5.686-1.895a63.552 63.552 0 0140.192 0l5.685 1.895v1.934a8.376 8.376 0 01-8.379 8.379z" fill="#D65246"/><path d="M102.674 69.609h-2.127v-5.157h2.127a21.275 21.275 0 009.467-2.235l.142-.07 2.306 4.611-.142.071a26.456 26.456 0 01-11.773 2.78z" fill="#FCB079"/><path d="M77.344 41.25h2.578v15.469h-2.578a7.735 7.735 0 010-15.469zm56.718 15.469h-2.578V41.25h2.578a7.737 7.737 0 017.735 7.734 7.736 7.736 0 01-7.735 7.735z" fill="#FDB683"/><path d="M103.125 113.438h5.156v23.203h-5.156v-23.203z" fill="#C7483C"/><path d="M92.813 121.172h5.156v5.156h-5.156v-5.156z" fill="#DF6257"/><path d="M134.062 123.75h5.157v10.312h-5.157V123.75zm-20.624 15.469h15.468v5.156h-15.468v-5.156z" fill="#C7483C"/><path d="M7.734 67.031h72.188V82.5H7.734V67.031z" fill="#FFB431"/><path d="M48.984 67.031h30.938V82.5H48.984V67.031zM28.36 74.766a7.734 7.734 0 01-7.735-7.735h15.469a7.735 7.735 0 01-7.735 7.735z" fill="#F99E0C"/><path d="M7.734 82.5h72.188v15.469H7.734V82.5z" fill="#FFB431"/><path d="M48.984 82.5h30.938v15.469H48.984V82.5zM28.36 90.234a7.735 7.735 0 01-7.735-7.734h15.469a7.734 7.734 0 01-7.735 7.734z" fill="#F99E0C"/><path d="M7.734 79.922h41.25v5.156H7.734v-5.156z" fill="#F99E0C"/><path d="M48.984 79.922h30.938v5.156H48.984v-5.156z" fill="#F4970C"/></svg>