<svg width="186" height="160" fill="none" xmlns="http://www.w3.org/2000/svg"><path d="M80.875.809L80.4 22.417l-.245 11.037-.05 2.193v.174l-.376 17.212-.064 3.005-.242 10.825-.049 2.301a4.442 4.442 0 01-.52 1.99 4.519 4.519 0 01-1.617 1.721 4.025 4.025 0 01-.377.2l-.29.134a4.38 4.38 0 01-.31.111 4.001 4.001 0 01-.595.153l-.158.025h-.068a1.445 1.445 0 01-.222.026h-.377a4.595 4.595 0 01-3.183-1.28 4.454 4.454 0 01-1.367-3.106l-.343-15.586-.355-15.99-.041-1.934-.75-32.485a94.881 94.881 0 015.277-1.214A95.05 95.05 0 0180.875.81z" fill="#C27135"/><path d="M80.105 35.647l-.754 33.517c0 1.189-.48 2.329-1.333 3.17a4.59 4.59 0 01-3.22 1.313 4.59 4.59 0 01-3.22-1.314 4.448 4.448 0 01-1.334-3.17l-.754-33.516h10.615z" fill="#fff"/><path d="M77.463 72.708a3.723 3.723 0 01-.63.368l-.29.133a4.38 4.38 0 01-.309.112 3.985 3.985 0 01-.595.152l-.159.026h-.068a1.445 1.445 0 01-.222.026h-.377a4.595 4.595 0 01-3.182-1.281 4.454 4.454 0 01-1.368-3.106l-.343-15.586-.354-15.99-.041-1.933L68.8 3.143a94.881 94.881 0 015.277-1.213l.573 25.854.174 7.863.06 2.668.03 1.437.215 9.648.068 3.05.237 10.666.132 6.019c.006.7.181 1.39.51 2.011a4.45 4.45 0 001.386 1.562z" fill="#A26231"/><path d="M77.463 72.708a4.612 4.612 0 01-4.689.37 4.525 4.525 0 01-1.81-1.613 4.428 4.428 0 01-.704-2.301l-.754-33.517h5.296l.754 33.517c.012.697.191 1.38.523 1.996a4.45 4.45 0 001.384 1.548z" fill="#CFCFCF"/><path d="M174.232 128.754H11.953c-6.243 0-11.305 4.983-11.305 11.129v8.201c0 6.147 5.062 11.129 11.305 11.129h162.279c6.243 0 11.304-4.982 11.304-11.129v-8.201c0-6.146-5.061-11.129-11.304-11.129z" fill="#AD7D55"/><path d="M185.536 140.12v8.205c0 2.953-1.191 5.784-3.312 7.872a11.4 11.4 0 01-7.996 3.261H11.953a11.4 11.4 0 01-7.996-3.261 11.045 11.045 0 01-3.312-7.872v-8.205c0-.589.047-1.177.143-1.759a11.09 11.09 0 003.83 6.71 11.415 11.415 0 007.335 2.66h162.278a11.416 11.416 0 007.334-2.661 11.096 11.096 0 003.828-6.709c.096.582.143 1.17.143 1.759z" fill="#916C4B"/><path d="M82.896 78.953c-.823 0-1.629.227-2.328.653a4.379 4.379 0 00-1.63 1.763 4.454 4.454 0 00-5.334.52 4.365 4.365 0 00-1.671-2.165 4.476 4.476 0 00-5.245.161 4.353 4.353 0 00-1.531 2.263 4.413 4.413 0 00-1.484-1.058 4.474 4.474 0 00-3.584 0 4.413 4.413 0 00-1.484 1.058 4.347 4.347 0 00-1.43-2.185 4.48 4.48 0 00-5.022-.438 4.38 4.38 0 00-1.8 1.903 4.481 4.481 0 00-5.04.13 4.366 4.366 0 00-1.569 2.092 4.297 4.297 0 00-.081 2.599 4.355 4.355 0 001.435 2.182 4.486 4.486 0 005.022.436 4.388 4.388 0 001.802-1.902c.881.567 1.94.805 2.983.672a4.445 4.445 0 002.713-1.396A4.35 4.35 0 0059.2 88.55a4.472 4.472 0 005.36.001 4.35 4.35 0 001.583-2.309c.393.429.869.775 1.4 1.02a4.469 4.469 0 004.892-.76 4.36 4.36 0 001.498 2.041 4.482 4.482 0 004.888.314 4.385 4.385 0 001.756-1.832 4.494 4.494 0 003.932.352 4.431 4.431 0 001.672-1.13c.46-.5.797-1.097.983-1.746a4.295 4.295 0 00-.731-3.82 4.413 4.413 0 00-1.563-1.273 4.486 4.486 0 00-1.975-.454z" fill="#fff"/><path d="M44.454 85.076h41.92c1.17 0 2.29.457 3.117 1.27a4.304 4.304 0 011.29 3.068v41.678h-50.73V89.414a4.3 4.3 0 011.29-3.066 4.442 4.442 0 013.113-1.272z" fill="#1E2F2C"/><path d="M57.663 85.076c-.58 0-1.155.113-1.69.332-.536.22-1.023.54-1.432.945a4.33 4.33 0 00-.953 1.414 4.275 4.275 0 00-.328 1.666v41.659H40.066v-41.66c0-1.15.465-2.253 1.291-3.067a4.442 4.442 0 013.116-1.27l13.19-.019z" fill="#172321"/><path d="M139.111 78.953c-.823 0-1.629.227-2.328.654a4.373 4.373 0 00-1.63 1.762 4.455 4.455 0 00-5.334.52 4.364 4.364 0 00-1.671-2.165 4.478 4.478 0 00-5.246.162 4.353 4.353 0 00-1.53 2.262 4.419 4.419 0 00-1.484-1.058 4.473 4.473 0 00-3.584 0 4.409 4.409 0 00-1.484 1.058 4.35 4.35 0 00-1.431-2.185 4.477 4.477 0 00-5.021-.438 4.375 4.375 0 00-1.799 1.903 4.484 4.484 0 00-5.041.13 4.365 4.365 0 00-1.569 2.092 4.295 4.295 0 00-.081 2.599 4.356 4.356 0 001.435 2.182 4.488 4.488 0 005.023.436 4.393 4.393 0 001.801-1.902 4.475 4.475 0 005.718-.724 4.35 4.35 0 001.583 2.308c.77.578 1.712.891 2.68.891a4.47 4.47 0 002.681-.89 4.353 4.353 0 001.583-2.308c.393.428.868.774 1.399 1.02a4.47 4.47 0 004.892-.76c.285.81.806 1.52 1.499 2.04a4.483 4.483 0 004.888.314 4.387 4.387 0 001.755-1.832 4.495 4.495 0 003.938.35 4.439 4.439 0 001.672-1.134c.46-.501.796-1.1.981-1.75a4.3 4.3 0 00-.745-3.823 4.422 4.422 0 00-1.57-1.269 4.488 4.488 0 00-1.98-.445z" fill="#fff"/><path d="M100.684 85.076h41.921a4.466 4.466 0 011.691.326 4.357 4.357 0 012.394 2.349c.222.527.337 1.092.337 1.663v41.678H96.281V89.414c0-1.15.464-2.252 1.29-3.066a4.442 4.442 0 013.113-1.272z" fill="#1E2F2C"/><path d="M113.893 85.076c-.58 0-1.154.113-1.69.332-.536.22-1.022.54-1.431.945a4.334 4.334 0 00-.953 1.414 4.274 4.274 0 00-.329 1.666v41.659H96.297v-41.66c0-1.15.464-2.253 1.29-3.067a4.442 4.442 0 013.116-1.27l13.19-.019z" fill="#172321"/><path d="M37.299 154.471c15.526 0 28.113-12.391 28.113-27.676 0-15.285-12.587-27.676-28.113-27.676-15.527 0-28.113 12.391-28.113 27.676 0 15.285 12.586 27.676 28.113 27.676z" fill="#253D3A"/><path d="M42.29 154.037c-4.05.718-8.21.552-12.186-.486a28.278 28.278 0 01-10.83-5.52 27.74 27.74 0 01-7.438-9.515 27.326 27.326 0 01-2.645-11.721c0-4.05.903-8.051 2.645-11.72a27.734 27.734 0 017.438-9.516 28.278 28.278 0 0110.83-5.52 28.553 28.553 0 0112.186-.486c-6.485 1.154-12.353 4.514-16.578 9.493a27.425 27.425 0 00-6.54 17.749c0 6.488 2.314 12.77 6.54 17.749 4.225 4.979 10.093 8.339 16.578 9.493z" fill="#1F312E"/><path d="M17.064 126.794c0 2.286-2.156 4.88-1.473 6.943.704 2.138 4.018 2.988 5.333 4.765 1.316 1.778 1.131 5.158 2.96 6.468 1.828 1.31 4.986.082 7.162.776 2.095.672 3.931 3.514 6.253 3.514s4.147-2.842 6.258-3.514c2.17-.694 5.349.519 7.162-.776 1.813-1.295 1.628-4.668 2.959-6.468 1.33-1.8 4.629-2.627 5.334-4.765.682-2.063-1.47-4.657-1.47-6.943 0-2.286 2.152-4.88 1.47-6.943-.705-2.141-4.019-2.987-5.334-4.769-1.316-1.781-1.131-5.158-2.96-6.464-1.828-1.306-4.986-.082-7.161-.776-2.096-.671-3.936-3.514-6.258-3.514s-4.146 2.843-6.253 3.514c-2.175.694-5.353-.519-7.163.776-1.809 1.295-1.628 4.668-2.959 6.464-1.33 1.797-4.629 2.628-5.333 4.78-.683 2.052 1.473 4.646 1.473 6.932z" fill="#fff"/><path d="M39.566 145.747a6.952 6.952 0 011.997 1.176c-1.353 1.047-2.699 2.338-4.263 2.338-2.322 0-4.146-2.843-6.254-3.514-2.17-.691-5.352.519-7.162-.776-1.81-1.295-1.628-4.668-2.955-6.464-1.327-1.796-4.63-2.628-5.338-4.769-.678-2.063 1.474-4.657 1.474-6.943 0-2.286-2.152-4.884-1.474-6.932.709-2.138 4.019-2.969 5.334-4.765 1.316-1.796 1.131-5.158 2.963-6.468 1.832-1.31 4.987-.082 7.162-.776 2.096-.668 3.932-3.51 6.254-3.51 1.564 0 2.91 1.291 4.263 2.334a6.82 6.82 0 01-1.998 1.176c-2.171.694-5.352-.516-7.162.776-1.81 1.291-1.628 4.672-2.955 6.468-1.327 1.796-4.633 2.613-5.338 4.765-.686 2.063 1.47 4.661 1.47 6.947 0 2.286-2.156 4.88-1.47 6.943.705 2.141 4.018 2.987 5.334 4.768 1.316 1.782 1.13 5.159 2.955 6.465 1.825 1.306 4.991.07 7.163.761z" fill="#CFCFCF"/><path d="M37.3 139.736c7.26 0 13.145-5.794 13.145-12.94 0-7.147-5.885-12.941-13.144-12.941-7.26 0-13.145 5.794-13.145 12.941 0 7.146 5.885 12.94 13.145 12.94z" fill="#C27135"/><path d="M41.076 139.194a13.346 13.346 0 01-6.05.344 13.258 13.258 0 01-5.566-2.365 12.994 12.994 0 01-3.895-4.571 12.777 12.777 0 01-1.397-5.806c0-2.017.479-4.005 1.397-5.807a12.994 12.994 0 013.895-4.571 13.258 13.258 0 015.565-2.365 13.346 13.346 0 016.051.344 13.153 13.153 0 00-6.772 4.671 12.815 12.815 0 00-2.6 7.728c0 2.783.912 5.493 2.6 7.727a13.153 13.153 0 006.772 4.671z" fill="#A76633"/><path d="M30.544 140.994c2.386 0 4.32-1.904 4.32-4.253s-1.934-4.253-4.32-4.253c-2.385 0-4.32 1.904-4.32 4.253s1.935 4.253 4.32 4.253z" fill="#8ED685"/><path d="M26.224 134.101c2.386 0 4.32-1.904 4.32-4.253 0-2.348-1.934-4.252-4.32-4.252s-4.32 1.904-4.32 4.252c0 2.349 1.934 4.253 4.32 4.253z" fill="#DB3A46"/><path d="M38.122 143.987c2.84 0 5.142-2.266 5.142-5.062 0-2.796-2.302-5.062-5.142-5.062-2.84 0-5.142 2.266-5.142 5.062 0 2.796 2.303 5.062 5.142 5.062z" fill="#62AC8D"/><path d="M96.658 72.675c15.527 0 28.113-12.391 28.113-27.677 0-15.285-12.586-27.676-28.113-27.676-15.526 0-28.113 12.391-28.113 27.676 0 15.286 12.587 27.677 28.113 27.677z" fill="#253D3A"/><path d="M101.648 72.244a28.544 28.544 0 01-12.182-.49 28.275 28.275 0 01-10.827-5.521 27.736 27.736 0 01-7.435-9.515A27.32 27.32 0 0168.561 45c0-4.05.902-8.05 2.643-11.718a27.738 27.738 0 017.435-9.514 28.274 28.274 0 0110.827-5.522 28.546 28.546 0 0112.182-.49c-6.487 1.152-12.357 4.512-16.584 9.491A27.424 27.424 0 0078.52 45c0 6.49 2.316 12.773 6.544 17.753 4.227 4.98 10.097 8.339 16.584 9.491z" fill="#1F312E"/><path d="M76.42 44.998c0 2.286-2.152 4.883-1.47 6.947.705 2.137 4.018 2.968 5.334 4.764 1.316 1.796 1.13 5.159 2.959 6.465 1.828 1.306 4.987.085 7.162.78 2.096.667 3.936 3.51 6.257 3.51 2.323 0 4.147-2.843 6.254-3.51 2.171-.695 5.353.515 7.162-.78 1.81-1.295 1.629-4.669 2.959-6.465 1.331-1.796 4.626-2.627 5.342-4.757.678-2.063-1.474-4.661-1.474-6.947 0-2.286 2.152-4.88 1.474-6.943-.705-2.138-4.019-2.969-5.338-4.765-1.319-1.796-1.131-5.158-2.959-6.468-1.828-1.31-4.987-.082-7.162-.776-2.096-.668-3.932-3.514-6.254-3.514-2.322 0-4.146 2.846-6.257 3.514-2.171.694-5.353-.52-7.162.776-1.81 1.295-1.632 4.668-2.96 6.468-1.326 1.8-4.628 2.627-5.333 4.765-.679 2.056 1.466 4.65 1.466 6.936z" fill="#fff"/><path d="M98.919 63.955c.73.274 1.407.672 1.998 1.176-1.35 1.046-2.7 2.334-4.26 2.334-2.322 0-4.146-2.842-6.254-3.51-2.175-.694-5.352.516-7.162-.776-1.809-1.291-1.632-4.672-2.955-6.468-1.323-1.796-4.633-2.627-5.341-4.765-.679-2.063 1.477-4.66 1.477-6.947 0-2.286-2.156-4.88-1.477-6.943.708-2.137 4.022-2.969 5.337-4.765 1.316-1.796 1.131-5.158 2.96-6.468 1.828-1.31 4.986-.082 7.161-.776 2.096-.668 3.932-3.514 6.254-3.514 1.56 0 2.91 1.292 4.26 2.338a6.715 6.715 0 01-1.998 1.177c-2.171.693-5.353-.52-7.162.775-1.81 1.295-1.629 4.668-2.96 6.468-1.33 1.8-4.628 2.628-5.333 4.765-.683 2.063 1.474 4.657 1.474 6.943 0 2.286-2.157 4.884-1.474 6.947.705 2.138 4.022 2.987 5.334 4.765 1.311 1.778 1.13 5.158 2.959 6.468 1.828 1.31 4.99.082 7.162.776z" fill="#CFCFCF"/><path d="M96.658 57.939c7.259 0 13.144-5.794 13.144-12.94 0-7.147-5.885-12.94-13.144-12.94-7.26 0-13.144 5.793-13.144 12.94 0 7.146 5.885 12.94 13.144 12.94z" fill="#C27135"/><path d="M100.431 57.397c-1.963.58-4.037.701-6.057.352a13.256 13.256 0 01-5.572-2.362 12.995 12.995 0 01-3.902-4.575A12.779 12.779 0 0183.5 45c0-2.018.48-4.008 1.4-5.812a12.995 12.995 0 013.902-4.574 13.254 13.254 0 015.572-2.362 13.33 13.33 0 016.057.352 13.146 13.146 0 00-6.773 4.67A12.807 12.807 0 0091.057 45c0 2.785.912 5.494 2.6 7.728a13.146 13.146 0 006.774 4.669z" fill="#A76633"/><path d="M89.9 59.2c2.386 0 4.32-1.903 4.32-4.252 0-2.349-1.934-4.253-4.32-4.253s-4.32 1.904-4.32 4.253 1.934 4.253 4.32 4.253z" fill="#8ED685"/><path d="M85.58 52.308c2.386 0 4.32-1.904 4.32-4.252 0-2.35-1.934-4.253-4.32-4.253s-4.32 1.904-4.32 4.253c0 2.348 1.934 4.252 4.32 4.252z" fill="#DB3A46"/><path d="M97.48 62.192c2.839 0 5.141-2.266 5.141-5.062 0-2.795-2.302-5.062-5.141-5.062-2.84 0-5.142 2.267-5.142 5.062 0 2.796 2.302 5.062 5.142 5.062z" fill="#62AC8D"/><path d="M93.53 154.471c15.526 0 28.112-12.391 28.112-27.676 0-15.285-12.586-27.676-28.113-27.676-15.526 0-28.113 12.391-28.113 27.676 0 15.285 12.587 27.676 28.113 27.676z" fill="#253D3A"/><path d="M98.52 154.037a28.534 28.534 0 01-12.185-.486 28.277 28.277 0 01-10.83-5.52 27.737 27.737 0 01-7.438-9.515 27.326 27.326 0 01-2.645-11.721c0-4.05.903-8.051 2.645-11.72a27.731 27.731 0 017.437-9.516 28.277 28.277 0 0110.83-5.52 28.553 28.553 0 0112.186-.486c-6.485 1.154-12.352 4.514-16.578 9.493a27.425 27.425 0 00-6.54 17.749c0 6.488 2.315 12.77 6.54 17.749 4.226 4.979 10.093 8.339 16.578 9.493z" fill="#1F312E"/><path d="M73.291 126.794c0 2.286-2.152 4.88-1.47 6.943.705 2.138 4.018 2.988 5.334 4.765 1.316 1.778 1.13 5.158 2.96 6.468 1.827 1.31 4.986.082 7.161.776 2.092.672 3.932 3.514 6.254 3.514 2.322 0 4.146-2.842 6.257-3.514 2.172-.694 5.349.519 7.162-.776 1.814-1.295 1.629-4.668 2.959-6.468 1.331-1.8 4.629-2.627 5.334-4.765.683-2.063-1.47-4.657-1.47-6.943 0-2.286 2.153-4.88 1.47-6.943-.705-2.141-4.018-2.987-5.334-4.769-1.315-1.781-1.13-5.158-2.959-6.464-1.828-1.306-4.987-.082-7.162-.776-2.096-.671-3.935-3.514-6.257-3.514-2.322 0-4.147 2.843-6.254 3.514-2.175.694-5.352-.519-7.162.776-1.81 1.295-1.628 4.668-2.959 6.464-1.33 1.797-4.629 2.628-5.334 4.78-.682 2.052 1.47 4.646 1.47 6.932z" fill="#fff"/><path d="M95.796 145.746a6.977 6.977 0 011.998 1.176c-1.354 1.047-2.7 2.338-4.264 2.338-2.322 0-4.146-2.842-6.253-3.514-2.172-.69-5.353.519-7.162-.776-1.81-1.295-1.633-4.668-2.96-6.464-1.326-1.796-4.629-2.627-5.337-4.769-.679-2.063 1.474-4.657 1.474-6.943 0-2.286-2.153-4.883-1.474-6.947.709-2.137 4.018-2.968 5.334-4.765 1.315-1.796 1.13-5.158 2.963-6.468 1.832-1.31 4.987-.081 7.162-.775 2.096-.668 3.931-3.511 6.253-3.511 1.565 0 2.91 1.292 4.264 2.334a6.802 6.802 0 01-1.998 1.177c-2.171.694-5.353-.516-7.162.775-1.81 1.292-1.629 4.672-2.956 6.468-1.326 1.797-4.617 2.628-5.334 4.78-.685 2.063 1.47 4.661 1.47 6.947 0 2.286-2.155 4.88-1.47 6.943.705 2.141 4.019 2.987 5.334 4.769 1.316 1.781 1.131 5.158 2.956 6.464 1.824 1.306 4.99.071 7.162.761z" fill="#CFCFCF"/><path d="M93.53 139.736c7.259 0 13.143-5.794 13.143-12.94 0-7.147-5.884-12.941-13.144-12.941s-13.144 5.794-13.144 12.941c0 7.146 5.885 12.94 13.144 12.94z" fill="#DB3A46"/><path d="M97.306 139.194a13.346 13.346 0 01-6.05.344 13.258 13.258 0 01-5.565-2.365 12.994 12.994 0 01-3.895-4.571 12.778 12.778 0 01-1.398-5.806c0-2.017.479-4.005 1.398-5.807a12.994 12.994 0 013.895-4.571 13.258 13.258 0 015.564-2.365 13.346 13.346 0 016.052.344 13.153 13.153 0 00-6.772 4.671 12.815 12.815 0 00-2.6 7.728c0 2.783.912 5.493 2.6 7.727a13.153 13.153 0 006.772 4.671z" fill="#9B112E"/><path d="M102.821 119.878c2.128 0 3.853-1.698 3.853-3.792 0-2.095-1.725-3.793-3.853-3.793-2.127 0-3.852 1.698-3.852 3.793 0 2.094 1.725 3.792 3.852 3.792zM85.82 140.532c2.127 0 3.852-1.698 3.852-3.792 0-2.095-1.725-3.793-3.853-3.793-2.127 0-3.852 1.698-3.852 3.793 0 2.094 1.725 3.792 3.852 3.792zm17.841-1.605c2.128 0 3.853-1.698 3.853-3.793 0-2.094-1.725-3.792-3.853-3.792s-3.852 1.698-3.852 3.792c0 2.095 1.724 3.793 3.852 3.793zm-21.693-14.803c2.127 0 3.852-1.698 3.852-3.792 0-2.095-1.725-3.793-3.852-3.793-2.128 0-3.853 1.698-3.853 3.793 0 2.094 1.725 3.792 3.853 3.792z" fill="#C27135"/><path d="M149.76 154.471c15.526 0 28.113-12.391 28.113-27.676 0-15.285-12.587-27.676-28.113-27.676-15.527 0-28.114 12.391-28.114 27.676 0 15.285 12.587 27.676 28.114 27.676z" fill="#253D3A"/><path d="M154.751 154.037a28.54 28.54 0 01-12.186-.486 28.272 28.272 0 01-10.83-5.52 27.733 27.733 0 01-7.438-9.515 27.327 27.327 0 01-2.645-11.721c0-4.05.903-8.051 2.645-11.72a27.727 27.727 0 017.438-9.516 28.272 28.272 0 0110.83-5.52 28.554 28.554 0 0112.186-.486c-6.485 1.154-12.353 4.514-16.578 9.493a27.421 27.421 0 00-6.54 17.749c0 6.488 2.314 12.77 6.54 17.749 4.225 4.979 10.093 8.339 16.578 9.493z" fill="#1F312E"/><path d="M129.522 126.794c0 2.286-2.153 4.88-1.47 6.943.705 2.138 4.018 2.988 5.333 4.765 1.316 1.778 1.131 5.158 2.96 6.468 1.828 1.31 4.987.082 7.162.776 2.092.672 3.931 3.514 6.253 3.514s4.147-2.842 6.258-3.514c2.171-.694 5.349.519 7.162-.776 1.813-1.295 1.628-4.668 2.959-6.468 1.331-1.8 4.629-2.627 5.334-4.765.682-2.063-1.47-4.657-1.47-6.943 0-2.286 2.152-4.88 1.47-6.943-.705-2.141-4.019-2.987-5.334-4.769-1.316-1.781-1.131-5.158-2.959-6.464s-4.987-.082-7.162-.776c-2.096-.671-3.936-3.514-6.258-3.514s-4.146 2.843-6.257 3.514c-2.171.694-5.349-.519-7.162.776-1.813 1.295-1.629 4.668-2.959 6.464-1.331 1.797-4.625 2.628-5.33 4.78-.683 2.052 1.47 4.646 1.47 6.932z" fill="#fff"/><path d="M152.024 145.746a6.968 6.968 0 011.998 1.176c-1.353 1.047-2.699 2.338-4.263 2.338-2.322 0-4.147-2.842-6.254-3.514-2.171-.69-5.353.519-7.162-.776-1.809-1.295-1.632-4.668-2.959-6.464-1.327-1.796-4.629-2.627-5.338-4.769-.678-2.063 1.474-4.657 1.474-6.943 0-2.286-2.152-4.883-1.474-6.947.709-2.137 4.019-2.968 5.334-4.765 1.316-1.796 1.131-5.158 2.963-6.468 1.832-1.31 4.987-.081 7.162-.775 2.096-.668 3.932-3.511 6.254-3.511 1.564 0 2.91 1.292 4.263 2.334a6.798 6.798 0 01-1.998 1.177c-2.175.694-5.352-.516-7.162.775-1.809 1.292-1.628 4.672-2.955 6.468-1.327 1.797-4.629 2.628-5.334 4.78-.686 2.063 1.47 4.661 1.47 6.947 0 2.286-2.156 4.88-1.47 6.943.705 2.141 4.018 2.987 5.334 4.769 1.315 1.781 1.131 5.158 2.955 6.464 1.825 1.306 4.987.071 7.162.761z" fill="#CFCFCF"/><path d="M149.76 139.736c7.259 0 13.144-5.794 13.144-12.94 0-7.147-5.885-12.941-13.144-12.941-7.26 0-13.145 5.794-13.145 12.941 0 7.146 5.885 12.94 13.145 12.94z" fill="#DC7DA7"/><path d="M153.537 139.194a13.346 13.346 0 01-6.051.344 13.26 13.26 0 01-5.565-2.365 12.999 12.999 0 01-3.895-4.571 12.775 12.775 0 010-11.613 12.999 12.999 0 013.895-4.571 13.26 13.26 0 015.565-2.365 13.346 13.346 0 016.051.344 13.157 13.157 0 00-6.772 4.671 12.815 12.815 0 00-2.599 7.728c0 2.783.911 5.493 2.599 7.727a13.157 13.157 0 006.772 4.671z" fill="#C6668F"/><path d="M159.052 119.878c2.127 0 3.852-1.698 3.852-3.792 0-2.095-1.725-3.793-3.852-3.793-2.128 0-3.853 1.698-3.853 3.793 0 2.094 1.725 3.792 3.853 3.792zm-17 20.654c2.127 0 3.852-1.698 3.852-3.792 0-2.095-1.725-3.793-3.852-3.793-2.128 0-3.853 1.698-3.853 3.793 0 2.094 1.725 3.792 3.853 3.792zm17.84-1.607c2.127 0 3.852-1.698 3.852-3.793 0-2.094-1.725-3.792-3.852-3.792-2.128 0-3.853 1.698-3.853 3.792 0 2.095 1.725 3.793 3.853 3.793zm-21.694-14.803c2.128 0 3.853-1.698 3.853-3.792 0-2.095-1.725-3.793-3.853-3.793-2.127 0-3.852 1.698-3.852 3.793 0 2.094 1.725 3.792 3.852 3.792z" fill="#62AC8D"/><path d="M138.628 11.01l-10.853 31.258-11.018 31.72a4.502 4.502 0 01-1.271 1.885 4.597 4.597 0 01-2.042 1.036h-.034a5.12 5.12 0 01-.377.063h-.083c-.11 0-.215.019-.324.023h-.577a4.37 4.37 0 01-.995-.193 4.542 4.542 0 01-2.64-2.172 4.424 4.424 0 01-.346-3.369l.336-1.113 2.261-7.552 7.012-23.482.46-1.544 2.224-7.444 7.162-24.036a93.88 93.88 0 014.927 1.981 91.164 91.164 0 016.178 2.94z" fill="#C27135"/><path d="M127.776 42.267l-11.018 31.721a4.513 4.513 0 01-2.272 2.481 4.621 4.621 0 01-3.384.246 4.54 4.54 0 01-2.617-2.126 4.42 4.42 0 01-.397-3.317l9.605-32.163 10.083 3.158z" fill="#fff"/><path d="M132.473 8.068l-8.768 29.36-.973 3.262-7.486 25.075-2.119 7.088a4.4 4.4 0 00.728 3.963 4.593 4.593 0 01-1.742.212h-.049a4.944 4.944 0 01-.652-.1 4.54 4.54 0 01-2.982-2.264 4.424 4.424 0 01-.346-3.37l.335-1.113 2.262-7.551 7.011-23.483.46-1.544 2.224-7.444 7.162-24.036a69.762 69.762 0 014.935 1.945z" fill="#A26231"/><path d="M113.855 76.815a4.61 4.61 0 01-2.44.11 4.563 4.563 0 01-2.145-1.152 4.454 4.454 0 01-1.229-2.079 4.405 4.405 0 01.043-2.404l9.605-32.163 5.047 1.58-9.605 32.164a4.382 4.382 0 00-.114 2.057c.125.685.413 1.331.838 1.887z" fill="#CFCFCF"/></svg>