<svg width="169" height="169" fill="none" xmlns="http://www.w3.org/2000/svg"><path d="M73.938 93.742c0-18.23-12.414-33.008-27.727-33.008S18.484 75.512 18.484 93.742a38.593 38.593 0 001.717 11.46c-4.264 4.112-6.998 10.462-6.998 17.587 0 12.396 8.276 22.445 18.485 22.445 9.18 0 16.797-8.126 18.238-18.778 13.557-2.161 24.011-15.984 24.011-32.714z" fill="#FA7D29"/><path d="M39.61 134.672h15.843v21.125h-2.64a13.203 13.203 0 01-13.204-13.203v-7.922z" fill="#FFD4CF"/><path d="M95.063 93.742c0-18.23 12.413-33.008 27.726-33.008 15.313 0 27.727 14.778 27.727 33.008a38.61 38.61 0 01-1.717 11.46c4.264 4.112 6.998 10.462 6.998 17.587 0 12.396-8.276 22.445-18.485 22.445-9.18 0-16.797-8.126-18.238-18.778-13.557-2.161-24.011-15.984-24.011-32.714z" fill="#FA7D29"/><path d="M116.188 155.797h-2.641v-21.125h15.844v7.922a13.204 13.204 0 01-13.203 13.203zm3.96-52.813H48.852A19.804 19.804 0 0129.047 83.18V44.89L84.5 18.485l55.453 26.407V83.18a19.801 19.801 0 01-19.805 19.804z" fill="#FFD4CF"/><path d="M145.895 84.5h-5.942V52.812h5.942a9.905 9.905 0 019.902 9.903v11.883a9.902 9.902 0 01-9.902 9.902zm-85.161-5.281a7.921 7.921 0 00-7.153 4.514l-24.534-8.178V52.812h-5.942a9.902 9.902 0 00-9.902 9.903v11.883a9.902 9.902 0 009.902 9.902h5.942v-3.378l24.017 8.006a7.922 7.922 0 107.67-9.91z" fill="#993340"/><path d="M39.61 112.887v24.425h15.843v23.766h58.094v-23.766h15.844v-24.425a9.902 9.902 0 00-9.903-9.903H49.512a9.903 9.903 0 00-9.903 9.903z" fill="#AA3947"/><path d="M95.063 142.594H73.936a18.48 18.48 0 01-9.094 15.925 2.973 2.973 0 00-1.468 2.559h42.213v-.022a2.974 2.974 0 00-1.463-2.556 18.473 18.473 0 01-9.063-15.906zm-36.969-39.61l5.281 15.844L84.5 102.984H58.094zm52.812 0l-5.281 15.844L84.5 102.984h26.406z" fill="#66222A"/><path d="M92.422 102.904H76.578l-2.64 39.69h21.124l-2.64-39.69z" fill="#FEFDFE"/><path d="M110.906 7.922H98.418a19.8 19.8 0 00-10.985 3.326L84.5 13.203l-2.933-1.955a19.805 19.805 0 00-10.985-3.326H58.094a39.61 39.61 0 00-39.61 39.61v10.562h10.563l27.264-6.196C69.483 48.904 79.862 38.444 84.5 26.406c4.638 12.038 15.019 22.498 28.191 25.492l27.262 6.196h10.563V47.53a39.607 39.607 0 00-39.61-39.61z" fill="#FA7D29"/><path d="M118.828 137.312h-5.281v-5.281a2.63 2.63 0 01.773-1.867l.448-.447a13.764 13.764 0 004.059-9.804v-1.085h5.282v1.086a19.014 19.014 0 01-5.282 13.203l.001 4.195zm-63.375 0h-5.281v-4.195a19.01 19.01 0 01-5.281-13.203v-1.086h5.28v1.086a13.77 13.77 0 004.06 9.803l.448.448a2.64 2.64 0 01.774 1.866v5.281z" fill="#993340"/><path d="M50.172 73.938a2.64 2.64 0 01-1.867-.774l-5.282-5.281 3.735-3.735 2.61 2.61a13.808 13.808 0 0111.367-6.024 13.218 13.218 0 0113.203 13.203h-5.281a7.93 7.93 0 00-7.922-7.921c-3.693 0-7.134 2.553-8.006 5.94a2.64 2.64 0 01-2.557 1.981zm68.656 0a2.641 2.641 0 01-2.557-1.982c-.872-3.387-4.313-5.94-8.005-5.94a7.93 7.93 0 00-7.922 7.921h-5.281a13.218 13.218 0 0113.203-13.203 13.81 13.81 0 0111.367 6.024l2.609-2.61 3.735 3.735-5.282 5.281a2.64 2.64 0 01-1.867.773zM84.5 92.422a10.574 10.574 0 01-10.563-10.563h5.282a5.281 5.281 0 0010.562 0h5.281A10.574 10.574 0 0184.5 92.422z" fill="#AE7069"/></svg>