<svg width="159" height="177" fill="none" xmlns="http://www.w3.org/2000/svg"><path d="M150.2.76H9.663A8.769 8.769 0 00.891 9.532v125.323a8.773 8.773 0 008.772 8.776h56.433l-.936 17.104a14.794 14.794 0 0028.664 5.906c.693-1.888.993-3.898.883-5.906l-.943-17.093H150.2a8.776 8.776 0 008.777-8.776V9.532A8.77 8.77 0 00150.2.76zM79.934 165.065a5.646 5.646 0 01-5.536-6.745 5.642 5.642 0 017.696-4.114 5.644 5.644 0 01-2.16 10.859z" fill="#72392F"/><path d="M82.519 164.212a5.632 5.632 0 01-5.747.122 5.635 5.635 0 01-2.87-4.979 5.64 5.64 0 018.728-4.654l.609-11.07H65.705l-.94 17.104a14.794 14.794 0 0023.528 12.713 14.788 14.788 0 01-5.774-9.236zM26.807.76H9.269A8.773 8.773 0 00.496 9.532v125.326a8.775 8.775 0 008.773 8.773h17.538a8.776 8.776 0 01-8.777-8.773V9.532A8.773 8.773 0 0126.807.76z" fill="#5E302B"/><path d="M148.103 103.925a3.696 3.696 0 10-7.392 0v22.714a3.696 3.696 0 107.392 0v-22.714zM133.941 8.872a3.696 3.696 0 00-7.392 0v22.715a3.696 3.696 0 007.392 0V8.872zm-97.754 0a3.696 3.696 0 00-7.392 0v22.715a3.696 3.696 0 107.392 0V8.872zm2.639 105.334a3.696 3.696 0 00-7.392 0v22.714a3.696 3.696 0 107.392 0v-22.714z" fill="#7F3E37"/><path d="M80.719 147.045c40.311 0 72.99-32.679 72.99-72.99 0-40.312-32.679-72.99-72.99-72.99-40.312 0-72.99 32.678-72.99 72.99 0 40.311 32.678 72.99 72.99 72.99z" fill="#CC9458"/><path d="M80.72 140.68c36.797 0 66.626-29.829 66.626-66.626 0-36.797-29.829-66.626-66.626-66.626-36.797 0-66.626 29.83-66.626 66.626 0 36.797 29.83 66.626 66.626 66.626z" fill="#F0C788"/><path d="M18.5 74.055c0 6.924-2.753 14.205-.741 20.45 2.104 6.476 8.68 10.733 12.617 16.121 3.937 5.388 6.004 12.988 11.448 16.963 5.444 3.974 13.185 3.551 19.668 5.655 6.25 2.03 12.31 6.977 19.234 6.977 6.924 0 12.988-4.947 19.23-6.977 6.475-2.104 14.272-1.733 19.668-5.655 5.447-3.963 7.485-11.504 11.448-16.963 3.963-5.459 10.498-9.648 12.617-16.12 2.03-6.246-.723-13.526-.723-20.451 0-6.925 2.753-14.202.723-20.451-2.104-6.476-8.68-10.728-12.617-16.12-3.937-5.392-6.001-12.989-11.448-16.96-5.388-3.922-13.185-3.555-19.668-5.655-6.25-2.03-12.306-6.976-19.23-6.976-6.925 0-12.989 4.946-19.234 6.976-6.476 2.1-14.272 1.733-19.668 5.656-5.396 3.922-7.485 11.504-11.448 16.959s-10.498 9.648-12.617 16.12c-2.012 6.25.742 13.526.742 20.45z" fill="#EAAC2E"/><path d="M27.619 74.055c0 5.912-2.35 12.124-.616 17.442 1.792 5.525 7.422 9.155 10.761 13.756 3.34 4.602 5.122 11.092 9.768 14.473 4.646 3.38 11.255 3.032 16.78 4.824 5.333 1.733 10.502 5.937 16.414 5.937 5.912 0 11.08-4.219 16.41-5.937 5.529-1.792 12.179-1.484 16.781-4.824 4.601-3.34 6.386-9.827 9.771-14.473 3.384-4.646 8.958-8.23 10.761-13.756 1.73-5.333-.619-11.545-.619-17.442 0-5.896 2.349-12.12.619-17.441-1.796-5.526-7.422-9.155-10.761-13.757-3.34-4.601-5.122-11.092-9.768-14.472-4.646-3.38-11.251-3.036-16.777-4.825-5.332-1.732-10.505-5.937-16.413-5.937-5.908 0-11.081 4.223-16.414 5.938-5.525 1.792-12.179 1.484-16.78 4.824-4.602 3.34-6.387 9.826-9.768 14.472-3.38 4.647-8.962 8.231-10.762 13.757-1.736 5.321.613 11.533.613 17.441z" fill="#DA4D5D"/><path d="M92.415 124.569c.786.256 1.573.567 2.356.909-4.52 1.978-9.021 5.043-14.053 5.043-5.912 0-11.08-4.219-16.413-5.938-5.526-1.792-12.18-1.484-16.778-4.824-4.598-3.34-6.39-9.826-9.77-14.472-3.381-4.647-8.962-8.228-10.762-13.753-1.73-5.333.62-11.545.62-17.442 0-5.896-2.35-12.12-.62-17.441 1.796-5.526 7.422-9.155 10.761-13.757 3.34-4.601 5.121-11.095 9.771-14.472 4.65-3.377 11.252-3.036 16.778-4.824 5.332-1.733 10.501-5.938 16.413-5.938 5.032 0 9.533 3.065 14.053 5.04a25.21 25.21 0 01-2.356.913c-5.53 1.792-12.18 1.484-16.781 4.824-4.602 3.34-6.39 9.826-9.77 14.472-3.382 4.647-8.96 8.231-10.763 13.757-1.736 5.332.616 11.544.616 17.441 0 5.897-2.352 12.124-.616 17.442 1.793 5.525 7.404 9.155 10.762 13.752 3.359 4.598 5.125 11.096 9.771 14.473 4.646 3.377 11.251 3.002 16.78 4.795z" fill="#D63D55"/><path d="M110.252 46.456v-.434a9.589 9.589 0 00-5.92-8.865 9.593 9.593 0 10-3.669 18.454h.026a7.124 7.124 0 014.041 1.195 5.902 5.902 0 006.938-.227 5.894 5.894 0 001.915-6.672 5.9 5.9 0 00-3.342-3.45h.011zM65.434 47.55v-.434a9.59 9.59 0 10-7.05 9.255 5.896 5.896 0 107.05-8.82zM48.663 88.441a9.036 9.036 0 100-18.072 9.036 9.036 0 000 18.072zm62.891 0a9.036 9.036 0 100-18.072 9.036 9.036 0 000 18.072zM91.388 94.22a1.97 1.97 0 01-.869-1.656v-.066a7.744 7.744 0 10-15.307 1.662 1.925 1.925 0 01-.46 1.76 12.912 12.912 0 0010.627 21.782 12.913 12.913 0 0011.196-9.647A12.91 12.91 0 0091.38 94.22h.008z" fill="#F6E0B8"/><path d="M84.074 75.048a8.91 8.91 0 100-17.82 8.91 8.91 0 000 17.82zm23.561 38.417a5.121 5.121 0 100-10.243 5.121 5.121 0 000 10.243zm15.627-43.76a5.121 5.121 0 100-10.242 5.121 5.121 0 000 10.242zM81.057 42.66a5.121 5.121 0 100-10.242 5.121 5.121 0 000 10.242z" fill="#D63D55"/><path d="M92.672 29.984v8.112a12.988 12.988 0 01-12.988 12.989v-8.109a12.988 12.988 0 0112.988-12.988v-.004z" fill="#76C27D"/><path d="M92.672 29.984v1.05a12.987 12.987 0 00-7.867 11.942v7.051a12.946 12.946 0 01-5.121 1.05v-8.1a12.988 12.988 0 0112.988-12.993z" fill="#69AA6D"/><path d="M103.982 55.717l-7.626 2.766a12.987 12.987 0 01-16.638-7.78l7.626-2.766a12.987 12.987 0 0116.638 7.78z" fill="#76C27D"/><path d="M103.949 55.715l-.987.371a12.988 12.988 0 00-13.908-3.34l-6.64 2.405a12.854 12.854 0 01-2.73-4.453l7.626-2.776a12.987 12.987 0 0116.639 7.793z" fill="#69AA6D"/><path d="M133.394 96.18l-7.982 1.445a12.988 12.988 0 01-15.093-10.469l7.983-1.444a12.988 12.988 0 0115.092 10.469z" fill="#76C27D"/><path d="M133.467 96.217l-1.032.185a12.986 12.986 0 00-13.155-5.61l-6.947 1.257a12.918 12.918 0 01-1.948-4.85l7.982-1.447a12.987 12.987 0 0115.1 10.465z" fill="#69AA6D"/><path d="M64.726 94.97l-5.728 5.727a12.974 12.974 0 01-9.182 3.804 12.98 12.98 0 01-9.183-3.804l5.725-5.725a12.986 12.986 0 0118.365 0l.003-.002z" fill="#76C27D"/><path d="M64.792 94.998l-.742.742a12.988 12.988 0 00-14.009 2.888l-4.987 4.995a12.903 12.903 0 01-4.364-2.876l5.733-5.738A12.99 12.99 0 0164.792 95z" fill="#69AA6D"/><path d="M70.017 74.794l-7.406-3.31a12.989 12.989 0 01-6.56-17.157l7.404 3.308a12.989 12.989 0 016.562 17.159z" fill="#76C27D"/><path d="M70.031 74.82l-.957-.427a12.988 12.988 0 00-7.697-12.057l-6.45-2.88c.02-1.759.398-3.495 1.114-5.103l7.422 3.307a12.986 12.986 0 016.568 17.16z" fill="#69AA6D"/><path d="M110.196 111.91l-4.08-7.009a12.985 12.985 0 014.688-17.755l4.081 7.01a12.986 12.986 0 01-4.689 17.754z" fill="#76C27D"/><path d="M110.157 111.903l-.531-.895a12.98 12.98 0 00.795-14.28l-3.552-6.13a12.876 12.876 0 013.897-3.48l4.082 7.01a12.999 12.999 0 011.34 9.859 12.985 12.985 0 01-6.031 7.916z" fill="#69AA6D"/><path d="M21.941 60.465a2.639 2.639 0 100-5.278 2.639 2.639 0 000 5.278zm10.551-15.168a2.639 2.639 0 100-5.278 2.639 2.639 0 000 5.278zM65.681 20.23a2.639 2.639 0 100-5.277 2.639 2.639 0 000 5.277zm33.938 2.635a2.638 2.638 0 100-5.276 2.638 2.638 0 000 5.276zM23.8 97.875a2.639 2.639 0 100-5.277 2.639 2.639 0 000 5.277zm39.249 32.966a2.638 2.638 0 100-5.276 2.638 2.638 0 000 5.276zM23.8 69.708a1.863 1.863 0 100-3.726 1.863 1.863 0 000 3.726zm-1.859 19.285a1.863 1.863 0 100-3.725 1.863 1.863 0 000 3.725zm13.189 20.436a1.863 1.863 0 100-3.726 1.863 1.863 0 000 3.726zm9.274 16.137a1.863 1.863 0 100-3.726 1.863 1.863 0 000 3.726zm58.113 3.72a1.863 1.863 0 100-3.726 1.863 1.863 0 000 3.726zm-17.734 7.604a1.863 1.863 0 100-3.726 1.863 1.863 0 000 3.726zm41.736-27.461a1.863 1.863 0 100-3.726 1.863 1.863 0 000 3.726zm-3.258 6.826a1.863 1.863 0 100-3.726 1.863 1.863 0 000 3.726zm15.207-53.928a1.863 1.863 0 100-3.725 1.863 1.863 0 000 3.725zm-8.224-17.804a1.863 1.863 0 100-3.726 1.863 1.863 0 000 3.726zM46.263 25.948a1.863 1.863 0 100-3.725 1.863 1.863 0 000 3.725z" fill="#C99028"/></svg>