<svg width="102" height="21" fill="none" xmlns="http://www.w3.org/2000/svg"><g clip-path="url(#clip0_1094:116)"><path d="M101.427 14.032a.565.565 0 00-.574.555c0 .306.257.555.574.555a.565.565 0 00.573-.555.565.565 0 00-.573-.555zm0 1.022a.476.476 0 01-.483-.467c0-.258.217-.467.483-.467s.483.21.483.467a.476.476 0 01-.483.467zm.186-.562c0-.1-.074-.16-.183-.16h-.183v.505h.09v-.183h.098l.095.183h.097l-.105-.202a.148.148 0 00.091-.143zm-.186.084h-.089v-.168h.089c.06 0 .097.03.097.083 0 .055-.038.085-.097.085zm-69.085-6.16V7.074h-2.126v7.985h2.126V10.27c0-.867.574-1.293 1.47-1.293h1.164V7.074h-.994c-.778 0-1.455.393-1.64 1.342zm4.625-4.5c-.727 0-1.285.556-1.285 1.26 0 .688.558 1.244 1.285 1.244.728 0 1.285-.556 1.285-1.244 0-.704-.557-1.26-1.285-1.26zm-1.06 11.143h2.121V7.074h-2.121v7.985zm12.226-3.992c0 2.28-1.91 4.127-4.265 4.127a4.2 4.2 0 01-2.503-.81v3.019h-2.121V7.074h2.121v.676a4.187 4.187 0 012.503-.81c2.355 0 4.265 1.847 4.265 4.127zm-2.135 0c0-1.238-1.038-2.242-2.316-2.242-1.28 0-2.317 1.004-2.317 2.242 0 1.237 1.038 2.242 2.317 2.242 1.278 0 2.316-1.003 2.316-2.242zm39.004-.7l-1.238-.33c-.814-.205-1.13-.446-1.13-.863 0-.406.445-.69 1.083-.69.607 0 1.084.385 1.084.878v.046h1.955v-.046c0-1.449-1.22-2.423-3.04-2.423-1.8 0-3.107.973-3.107 2.314 0 1.043.714 1.829 1.96 2.155l1.185.313c.901.242 1.236.51 1.236.99 0 .505-.484.845-1.204.845-.75 0-1.256-.46-1.256-1.143v-.045h-2.075v.045c0 1.638 1.362 2.783 3.314 2.783 1.88 0 3.245-1.118 3.245-2.657 0-.756-.35-1.743-2.012-2.173zM55.658 7.073h2.121v7.985h-2.121v-.676c-.691.51-1.553.81-2.503.81-2.356 0-4.265-1.847-4.265-4.127 0-2.279 1.91-4.127 4.265-4.127a4.2 4.2 0 012.503.81v-.675zm0 3.993c0-1.24-1.038-2.242-2.317-2.242-1.279 0-2.316 1.004-2.316 2.242 0 1.237 1.037 2.242 2.316 2.242 1.28 0 2.317-1.003 2.317-2.242zm9.78-6.834h2.122V15.06h-2.121v-.676a4.188 4.188 0 01-2.503.811c-2.356 0-4.265-1.848-4.265-4.127 0-2.28 1.91-4.128 4.265-4.128.95 0 1.812.302 2.503.811V4.233zm0 6.834c0-1.238-1.037-2.242-2.316-2.242s-2.316 1.004-2.316 2.242c0 1.237 1.036 2.242 2.316 2.242 1.28 0 2.317-1.003 2.317-2.242zm11.97 3.992h2.122V7.074h-2.12v7.985zM78.47 3.916c-.727 0-1.284.556-1.284 1.26 0 .688.557 1.244 1.284 1.244.728 0 1.285-.556 1.285-1.244 0-.704-.557-1.26-1.285-1.26zm17.714 7.15c0 2.28-1.91 4.128-4.265 4.128-2.355 0-4.264-1.848-4.264-4.127 0-2.28 1.91-4.128 4.264-4.128 2.356 0 4.265 1.848 4.265 4.128zm-1.948 0c0-1.237-1.038-2.241-2.317-2.241-1.279 0-2.316 1.004-2.316 2.242 0 1.237 1.036 2.242 2.316 2.242 1.28 0 2.317-1.003 2.317-2.242zm-62.98-6.833h-8.137v1.831h3.013v8.995h2.114V6.064h3.012V4.233h-.001zm41.152 8.64l-1.888-5.8h-2.228l2.83 7.985h2.553l2.848-7.985h-2.228l-1.888 5.798zm26.884-4.457V7.074h-2.126v7.985h2.126V10.27c0-.867.574-1.293 1.47-1.293h1.164V7.074h-.994c-.778 0-1.454.393-1.64 1.342z" fill="#fff"/><path d="M10.85 21c5.992 0 10.849-4.701 10.849-10.5S16.84 0 10.849 0C4.86 0 .002 4.701.002 10.5S4.858 21 10.85 21z" fill="#34E0A1"/><path d="M17.55 8.452l1.309-1.379h-2.903a9.224 9.224 0 00-5.107-1.52c-1.896 0-3.646.56-5.097 1.52h-2.91L4.15 8.452a3.81 3.81 0 00-1.305 2.862c0 2.139 1.792 3.873 4.001 3.873 1.05 0 2.006-.392 2.72-1.032l1.283 1.351 1.282-1.35a4.058 4.058 0 002.72 1.03c2.209 0 4.003-1.733 4.003-3.872a3.8 3.8 0 00-1.304-2.862zM6.848 13.935c-1.496 0-2.708-1.173-2.708-2.62 0-1.448 1.212-2.622 2.708-2.622 1.495 0 2.707 1.174 2.707 2.621 0 1.448-1.212 2.621-2.707 2.621zm4.002-2.697c0-1.725-1.296-3.205-3.006-3.837a7.994 7.994 0 013.005-.582 8 8 0 013.006.582c-1.71.633-3.005 2.112-3.005 3.837zm4.002 2.697c-1.496 0-2.709-1.173-2.709-2.62 0-1.448 1.213-2.622 2.708-2.622 1.496 0 2.708 1.174 2.708 2.621 0 1.448-1.212 2.621-2.708 2.621zm0-3.996c-.785 0-1.42.615-1.42 1.374 0 .76.635 1.374 1.42 1.374.784 0 1.419-.615 1.419-1.374 0-.758-.635-1.374-1.42-1.374zm-6.585 1.375c0 .76-.635 1.374-1.42 1.374-.784 0-1.419-.615-1.419-1.374 0-.759.635-1.374 1.42-1.374.784 0 1.419.615 1.419 1.374z" fill="#000"/></g><defs><clipPath id="clip0_1094:116"><path fill="#fff" d="M0 0h102v21H0z"/></clipPath></defs></svg>