<svg width="505" height="501" fill="none" xmlns="http://www.w3.org/2000/svg"><path d="M450.156 86.781H396.25V36.828A35.94 35.94 0 00353.305.89l-66.664 14.016h-68.282L151.695 1.609a35.936 35.936 0 00-42.945 35.219V86.78H54.844A53.905 53.905 0 00.937 140.687v35.938a17.97 17.97 0 0017.97 17.969h17.968v251.562a53.908 53.908 0 0053.906 53.906H414.22a53.905 53.905 0 0053.906-53.906V194.594h17.969c4.765 0 9.336-1.894 12.706-5.263a17.973 17.973 0 005.262-12.706v-35.938a53.905 53.905 0 00-53.906-53.906zM234.531 50.844h35.938V86.78h-35.938V50.844zm-53.906 413.281H90.781a17.968 17.968 0 01-17.969-17.969V194.594h107.813v269.531zm0-305.469H36.875v-17.969a17.97 17.97 0 0117.969-17.968h125.781v35.937zm17.969-71.875h-53.906V36.828l53.906 10.781v39.172zm89.844 89.844v287.5h-71.876V122.719h71.876v53.906zm17.968-129.016l53.906-10.781V86.78h-53.906V47.61zm125.782 398.547a17.972 17.972 0 01-17.969 17.969h-89.844V194.594h107.813v251.562zm35.937-287.5h-143.75v-35.937h125.781a17.971 17.971 0 0117.969 17.968v17.969z" fill="#fff" fill-opacity=".05"/></svg>