<svg width="41" height="41" fill="none" xmlns="http://www.w3.org/2000/svg"><path fill-rule="evenodd" clip-rule="evenodd" d="M0 0v41h41V0H0zm30.736 22.683c.941.918 1.937 1.783 2.781 2.798.374.448.727.911.996 1.431.382.745.036 1.56-.63 1.605l-4.133-.001c-1.067.087-1.918-.343-2.635-1.073-.57-.581-1.103-1.203-1.653-1.804a3.89 3.89 0 00-.743-.663c-.565-.366-1.054-.255-1.377.333-.328.599-.405 1.264-.436 1.931-.045.974-.339 1.229-1.316 1.276-2.091.097-4.075-.221-5.917-1.274-1.626-.929-2.885-2.242-3.981-3.727-2.136-2.894-3.772-6.072-5.24-9.341-.332-.737-.09-1.132.72-1.146 1.351-.027 2.702-.024 4.05-.002.55.009.913.323 1.123.84.73 1.795 1.623 3.502 2.744 5.086.3.421.604.84 1.036 1.138.48.33.845.222 1.07-.314.145-.34.207-.703.238-1.067.107-1.246.12-2.494-.065-3.737-.115-.777-.554-1.28-1.329-1.426-.395-.075-.335-.22-.145-.447.334-.389.648-.631 1.27-.631h4.672c.737.144.902.476 1.002 1.216l.004 5.192c-.01.287.143 1.137.658 1.325.412.136.687-.195.934-.457 1.12-1.187 1.918-2.591 2.63-4.044.317-.639.59-1.302.855-1.966.195-.491.5-.733 1.054-.724l4.498.005c.133 0 .27 0 .4.022.757.13.965.457.73 1.197-.367 1.16-1.087 2.13-1.788 3.1-.752 1.038-1.551 2.04-2.297 3.084-.682.956-.628 1.437.22 2.265z" fill="#0082FA"/></svg>