<svg width="47" height="26" fill="none" xmlns="http://www.w3.org/2000/svg"><path d="M5.54 20.578v-5.481L9.56 3.484H7.852L4.715 12.76 1.992 5.091H.13l3.698 9.944v5.543H5.54z" fill="red"/><path d="M12.937 18.44c-.307.472-.887.862-1.474.862-.867 0-1.276-.82-1.276-2.078 0-1.408.457-2.338 2.552-2.338h.198v3.554zm1.664-.328V12.98c0-2.645-1.064-3.465-2.988-3.465-1.099 0-2.095.451-2.593.861l.32 1.497c.567-.499 1.304-.95 2.164-.95.955 0 1.433.601 1.433 2.037v.65h-.24c-3.05 0-4.243 1.469-4.243 3.813 0 2.146 1.064 3.315 2.62 3.315.955 0 1.556-.417 2.033-1.018h.11c.02.28.088.628.15.86h1.425a16.386 16.386 0 01-.19-2.467zm3.787-6c.39-.54.99-1.08 1.706-1.08.648 0 1.017.28 1.017 1.1v8.448h1.705v-8.6c0-1.667-.757-2.467-2.183-2.467-1.017 0-1.835.67-2.142 1.08h-.103v-.95h-1.692V20.58h1.692v-8.47zm9.402 8.625c.887 0 1.495-.417 1.972-1.018h.11l.13.86h1.255V5.093h-1.693v4.832c-.32-.24-.86-.41-1.378-.41-2.19 0-3.705 1.968-3.705 6.022 0 3.376 1.174 5.2 3.31 5.2zm1.774-2.276c-.28.43-.73.84-1.576.84-1.235 0-1.706-1.558-1.706-4.114 0-2.228.649-4.285 2.006-4.285.567 0 .935.17 1.276.519v7.04zm9.628 1.387l-.39-1.298c-.429.3-1.125.731-2.073.731-1.344 0-2.034-1.299-2.034-3.766h4.538v-.936c0-3.705-1.188-5.065-3.002-5.065-2.314 0-3.29 2.556-3.29 6.063 0 3.362 1.386 5.16 3.63 5.16 1.086 0 1.932-.349 2.62-.889zm-2.961-8.946c.968 0 1.276 1.36 1.276 3.226h-2.791c.109-1.948.477-3.226 1.515-3.226zm8.692-1.238L43.43 13.63l-1.406-3.965h-1.746l2.053 5.263-2.272 5.653h1.665l1.645-4.504 1.685 4.504h1.753l-2.272-5.803 2.034-5.113h-1.645z" fill="#fff"/></svg>